<?xml version="1.0" encoding="UTF-8" standalone="no"?>
<svg width="21px" height="19px" viewBox="0 0 21 19" version="1.1" xmlns="http://www.w3.org/2000/svg" xmlns:xlink="http://www.w3.org/1999/xlink">
    <!-- Generator: Sketch 3.8.3 (29802) - http://www.bohemiancoding.com/sketch -->
    <title>icn-search-light</title>
    <desc>Created with Sketch.</desc>
    <defs></defs>
    <g id="Page-1" stroke="none" stroke-width="1" fill="none" fill-rule="evenodd">
        <g id="icn-search-light" fill="#FFFFFF">
            <g transform="translate(2.000000, 1.000000)" id="Shape">
                <path d="M6.5,11 L6.5,11 C8.98528137,11 11,8.98528137 11,6.5 C11,4.01471863 8.98528137,2 6.5,2 C4.01471863,2 2,4.01471863 2,6.5 C2,8.98528137 4.01471863,11 6.5,11 L6.5,11 Z M6.5,13 L6.5,13 C2.91014913,13 0,10.0898509 0,6.5 C0,2.91014913 2.91014913,0 6.5,0 C10.0898509,0 13,2.91014913 13,6.5 C13,10.0898509 10.0898509,13 6.5,13 L6.5,13 Z"></path>
                <polygon points="9.79289322 11.2071068 15.4497475 16.863961 16.1568542 17.5710678 17.5710678 16.1568542 16.863961 15.4497475 11.2071068 9.79289322 10.5 9.08578644 9.08578644 10.5"></polygon>
            </g>
        </g>
    </g>
</svg>