<?xml version="1.0" encoding="UTF-8" standalone="no"?>
<svg width="21px" height="19px" viewBox="0 0 21 19" version="1.1" xmlns="http://www.w3.org/2000/svg" xmlns:xlink="http://www.w3.org/1999/xlink" xmlns:sketch="http://www.bohemiancoding.com/sketch/ns">
    <!-- Generator: Sketch 3.3.2 (12043) - http://www.bohemiancoding.com/sketch -->
    <title>icon-tw-top-nav</title>
    <desc>Created with Sketch.</desc>
    <defs></defs>
    <g id="Page-1" stroke="none" stroke-width="1" fill="none" fill-rule="evenodd" sketch:type="MSPage">
        <g id="icon-tw-top-nav" sketch:type="MSArtboardGroup" fill="#5E9FCA">
            <path d="M20.9664675,3.09096111 C20.1950518,3.44537738 19.3661664,3.6852488 18.4960162,3.79289336 C19.3839586,3.24104247 20.0659953,2.3673792 20.3873419,1.32603882 C19.5559505,1.83717798 18.6355977,2.20815495 17.6556869,2.40791842 C16.8710732,1.54132794 15.7532514,1 14.5157286,1 C12.1405035,1 10.2143451,2.99634085 10.2143451,5.45888272 C10.2143451,5.80846878 10.2524355,6.1486532 10.3256093,6.47495078 C6.75078487,6.2891604 3.58117289,4.51388767 1.45971721,1.81621834 C1.08942099,2.47459249 0.877250365,3.24061121 0.877250365,4.05795085 C0.877250365,5.60491016 1.63663744,6.969788 2.79079553,7.76935938 C2.08578762,7.74632966 1.42246205,7.54553115 0.842584692,7.21147074 C0.842167033,7.23010153 0.842167033,7.24890483 0.842167033,7.26770812 C0.842167033,9.42810343 2.32485547,11.2302011 4.29261274,11.6398197 C3.93175561,11.741944 3.55168618,11.7964563 3.15950465,11.7964563 C2.88217926,11.7964563 2.61270586,11.7684239 2.35008206,11.7163267 C2.89738204,13.4878042 4.48598873,14.7770376 6.36837655,14.8129191 C4.89621312,16.0089986 3.04147429,16.721885 1.02610393,16.721885 C0.678862475,16.721885 0.336465861,16.7007529 0,16.6595236 C1.90368842,17.924606 4.16472564,18.6629373 6.59382873,18.6629373 C14.5057884,18.6629373 18.8324821,11.8683918 18.8324821,5.97588713 C18.8324821,5.78259269 18.828389,5.59033329 18.8201194,5.39910893 C19.6606158,4.77040604 20.3899314,3.98506651 20.9664675,3.09096111" id="twitter-logo" sketch:type="MSShapeGroup"></path>
        </g>
    </g>
</svg>