<?xml version="1.0" encoding="UTF-8" standalone="no"?>
<svg width="19px" height="19px" viewBox="0 0 19 19" version="1.1" xmlns="http://www.w3.org/2000/svg" xmlns:xlink="http://www.w3.org/1999/xlink" xmlns:sketch="http://www.bohemiancoding.com/sketch/ns">
    <!-- Generator: Sketch 3.3.2 (12043) - http://www.bohemiancoding.com/sketch -->
    <title>icon-fb-top-nav</title>
    <desc>Created with Sketch.</desc>
    <defs></defs>
    <g id="Page-1" stroke="none" stroke-width="1" fill="none" fill-rule="evenodd" sketch:type="MSPage">
        <g id="icon-fb-top-nav" sketch:type="MSArtboardGroup" fill="#395185">
            <path d="M17.8682063,0 L1.04383079,0 C0.467247315,0 0,0.467249066 0,1.04376384 L0,17.8682732 C0,18.4447171 0.467247315,18.912037 1.04383079,18.912037 L10.1015128,18.912037 L10.1015128,11.5883295 L7.63694975,11.5883295 L7.63694975,8.73409958 L10.1015128,8.73409958 L10.1015128,6.62921127 C10.1015128,4.18646377 11.5934589,2.85635576 13.7725291,2.85635576 C14.8162891,2.85635576 15.7133699,2.93408888 15.9748413,2.96881015 L15.9748413,5.52160282 L14.4635507,5.52231141 C13.2784261,5.52231141 13.0489831,6.0854337 13.0489831,6.91179988 L13.0489831,8.73409958 L15.8752838,8.73409958 L15.5073106,11.5883295 L13.0489831,11.5883295 L13.0489831,18.912037 L17.8682063,18.912037 C18.444648,18.912037 18.912037,18.4447171 18.912037,17.8682732 L18.912037,1.04376384 C18.912037,0.467249066 18.444648,0 17.8682063,0" id="facebook-logo" sketch:type="MSShapeGroup"></path>
        </g>
    </g>
</svg>