<?xml version="1.0" encoding="UTF-8" standalone="no"?>
<!-- Created with Inkscape (http://www.inkscape.org/) -->

<svg
   xmlns:dc="http://purl.org/dc/elements/1.1/"
   xmlns:cc="http://creativecommons.org/ns#"
   xmlns:rdf="http://www.w3.org/1999/02/22-rdf-syntax-ns#"
   xmlns:svg="http://www.w3.org/2000/svg"
   xmlns="http://www.w3.org/2000/svg"
   xmlns:sodipodi="http://sodipodi.sourceforge.net/DTD/sodipodi-0.dtd"
   xmlns:inkscape="http://www.inkscape.org/namespaces/inkscape"
   width="493.00052"
   height="300"
   id="svg2"
   version="1.1"
   inkscape:version="0.48.4 r9939"
   sodipodi:docname="european-road-safety-charter2.svg"
   inkscape:export-filename="/home/hsevay/reveal.js-dev/images/european-road-safety-charter2.png"
   inkscape:export-xdpi="90"
   inkscape:export-ydpi="90">
  <defs
     id="defs4" />
  <sodipodi:namedview
     id="base"
     pagecolor="#ffffff"
     bordercolor="#666666"
     borderopacity="1.0"
     inkscape:pageopacity="0.0"
     inkscape:pageshadow="2"
     inkscape:zoom="0.4839486"
     inkscape:cx="155.76004"
     inkscape:cy="-19.191238"
     inkscape:document-units="px"
     inkscape:current-layer="layer1"
     showgrid="false"
     fit-margin-top="0"
     fit-margin-left="0"
     fit-margin-right="0"
     fit-margin-bottom="0"
     inkscape:window-width="1920"
     inkscape:window-height="1056"
     inkscape:window-x="0"
     inkscape:window-y="24"
     inkscape:window-maximized="1" />
  <metadata
     id="metadata7">
    <rdf:RDF>
      <cc:Work
         rdf:about="">
        <dc:format>image/svg+xml</dc:format>
        <dc:type
           rdf:resource="http://purl.org/dc/dcmitype/StillImage" />
        <dc:title></dc:title>
      </cc:Work>
    </rdf:RDF>
  </metadata>
  <g
     inkscape:label="Layer 1"
     inkscape:groupmode="layer"
     id="layer1"
     transform="translate(610.42468,-981.78399)">
    <g
       id="g2994"
       transform="matrix(0.22214161,0,0,0.22214161,-474.82396,997.04642)">
      <rect
         ry="9.9747114"
         rx="31.285412"
         y="-68.705879"
         x="-610.42468"
         height="1350.4899"
         width="2219.3074"
         id="rect3011"
         style="color:#000000;fill:#2f499e;fill-opacity:1;fill-rule:nonzero;stroke:none;stroke-width:3;marker:none;visibility:visible;display:inline;overflow:visible;enable-background:accumulate" />
      <g
         transform="translate(6.0180281,-9.5e-6)"
         id="g2993">
        <path
           style="opacity:0.95999995;fill:#ffd136;fill-opacity:1;stroke:none"
           d="m 622.43619,127.79608 35.7281,-101.284955 36.6407,102.058955 120.3568,0 -97.1368,66.47921 38.5064,106.42479 -96.3628,-66.37036 -98.2978,67.14436 38.1194,-108.35979 -96.16931,-66.28571 z"
           id="path3851"
           inkscape:connector-curvature="0"
           sodipodi:nodetypes="ccccccccccc" />
        <path
           sodipodi:nodetypes="ccccccccccc"
           inkscape:connector-curvature="0"
           id="path3853"
           d="m 1003.4685,203.5984 26.3653,-74.74225 27.0385,75.31342 88.8162,0 -71.6811,49.05769 28.4154,78.53514 -71.11,-48.97737 -72.53797,49.54854 28.12985,-79.96306 -70.96722,-48.9149 z"
           style="fill:#ffd136;fill-opacity:1;stroke:none" />
        <path
           style="fill:#ffd136;fill-opacity:1;stroke:none"
           d="m 1245.2892,385.13434 24.199,-68.60127 24.817,69.12551 81.5189,0 -65.7917,45.027 26.0808,72.08252 -65.2675,-44.95328 -66.5781,45.47753 25.8187,-73.39313 -65.1364,-44.89594 z"
           id="path3855"
           inkscape:connector-curvature="0"
           sodipodi:nodetypes="ccccccccccc" />
        <path
           sodipodi:type="inkscape:offset"
           inkscape:radius="0"
           inkscape:original="M 1382.5 567.34375 L 1358.3125 635.9375 L 1277.9688 635.8125 L 1343.125 680.71875 L 1317.2812 754.09375 L 1383.875 708.625 L 1449.125 753.5625 L 1423.0625 681.5 L 1488.8438 636.46875 L 1407.3438 636.46875 L 1382.5 567.34375 z "
           style="fill:#ffd136;fill-opacity:1;stroke:none"
           id="path3859"
           d="m 1382.5,567.34375 -24.1875,68.59375 -80.3437,-0.125 65.1562,44.90625 -25.8438,73.375 66.5938,-45.46875 65.25,44.9375 -26.0625,-72.0625 65.7813,-45.03125 -81.5,0 -24.8438,-69.125 z"
           transform="matrix(0.7401316,0,0,0.7401316,353.88018,175.43304)" />
        <path
           transform="matrix(0.60686575,0,0,0.60686575,513.61262,471.91624)"
           d="m 1382.5,567.34375 -24.1875,68.59375 -80.3437,-0.125 65.1562,44.90625 -25.8438,73.375 66.5938,-45.46875 65.25,44.9375 -26.0625,-72.0625 65.7813,-45.03125 -81.5,0 -24.8438,-69.125 z"
           id="path3861"
           style="fill:#ffd136;fill-opacity:1;stroke:none"
           inkscape:original="M 1382.5 567.34375 L 1358.3125 635.9375 L 1277.9688 635.8125 L 1343.125 680.71875 L 1317.2812 754.09375 L 1383.875 708.625 L 1449.125 753.5625 L 1423.0625 681.5 L 1488.8438 636.46875 L 1407.3438 636.46875 L 1382.5 567.34375 z "
           inkscape:radius="0"
           sodipodi:type="inkscape:offset" />
        <path
           sodipodi:type="inkscape:offset"
           inkscape:radius="0"
           inkscape:original="M 1382.5 567.34375 L 1358.3125 635.9375 L 1277.9688 635.8125 L 1343.125 680.71875 L 1317.2812 754.09375 L 1383.875 708.625 L 1449.125 753.5625 L 1423.0625 681.5 L 1488.8438 636.46875 L 1407.3438 636.46875 L 1382.5 567.34375 z "
           style="fill:#ffd136;fill-opacity:1;stroke:none"
           id="path3863"
           d="m 1382.5,567.34375 -24.1875,68.59375 -80.3437,-0.125 65.1562,44.90625 -25.8438,73.375 66.5938,-45.46875 65.25,44.9375 -26.0625,-72.0625 65.7813,-45.03125 -81.5,0 -24.8438,-69.125 z"
           transform="matrix(0.38364546,0,0,0.38364546,720.48589,744.15014)" />
        <path
           inkscape:connector-curvature="0"
           id="path3865"
           d="m -469.38862,1005.3804 c 0.01,-28.41063 0.9019,-46.33123 3.5038,-70.41023 11.7099,-108.3694 48.8934,-211.5556 109.3096,-303.33987 7.844,-11.91653 12.102,-17.90224 28.0992,-39.5 5.184,-6.9989 21.6597,-27.15999 28.5416,-34.92596 20.0314,-22.60476 41.8108,-44.60741 60.5359,-61.1564 5.225,-4.61779 11.075,-9.81493 13,-11.54921 8.24,-7.42359 28.6784,-23.42668 46,-36.01746 50.3642,-36.60899 113.829294,-70.00162 173.499994,-91.28833 59.62,-21.26861 120.643306,-34.37483 184.328406,-39.58894 9.7194,-0.79576 19.9216,-1.42703 22.6716,-1.40282 4.5036,0.0396 3.5837,0.43773 -9.2645,4.00947 -23.2001,6.44952 -42.394,13.92796 -65.5781,25.55091 -24.62351,12.3446 -45.141806,25.6833 -66.184906,43.02607 -6.7785,5.58652 -12.6203,9.86152 -12.9818,9.5 -0.3616,-0.36153 -0.5436,-0.20733 -0.4044,0.34267 0.1391,0.55 -6.2549,7.525 -14.2088,15.5 -13.5329,13.56883 -30.0978,32.47496 -34.3775,39.23641 -0.55,0.86894 -3.5042,5.10873 -6.5649,9.42174 -27.2131,38.34779 -48.2935,88.93488 -56.8294,136.37411 -4.4235,24.58471 -5.4501,36.54773 -5.489,63.96771 -0.04,28.1839 1.1148,41.3414 5.9326,67.5891 12.3244,67.1438 43.9847,133.7117 88.8967,186.9109 13.5945,16.103 35.5731,37.6217 51.554,50.4753 33.960996,27.315 74.182706,48.69363 114.621806,60.92343 5.433,1.6431 8.7532,2.9967 7.3782,3.0081 -73.9686,0.6104 -352,1.186 -352,0.7288 0,-0.3578 -2.0035,-7.2846 -4.4523,-15.393 -13.9945,-46.33863 -23.3805,-86.42153 -32.0817,-137.00473 l -0.5612,-3.2621 -37.2024,0.2621 -37.2024,0.2621 -0.3167,18.5 c -0.5751,33.5951 2.9692,88.9342 7.8059,121.87793 1.1,7.4922 2.0024,13.9597 2.0054,14.3722 0,0.4125 -47.6946,0.75 -105.9946,0.75 l -106,0 0.01,-27.75 z m 272.5494,-163.50013 c -1.9249,-9.045 -3.0593,-36.1127 -3.0593,-73.0001 l 0,-41.7501 -24.638,10e-5 -24.6381,10e-5 -3.5517,18.75 c -5.7557,30.3851 -8.6926,50.9633 -11.1675,78.25 -0.8231,9.075 -1.4984,17.2875 -1.5006,18.25 0,1.633 2.3048,1.75 34.515,1.75 l 34.519,0 z m 0.9874,-140.6744 c -1.3711,-2.2184 5.0936,-36.9693 11.511,-61.8771 2.1683,-8.41585 3.9423,-15.50335 3.9423,-15.75 0,-0.24666 -7.8199,-0.44847 -17.3776,-0.44847 -13.0053,0 -17.648,0.32587 -18.4524,1.29517 -3.2783,3.95016 -26.17,71.5261 -26.17,77.2536 0,0.2482 10.6016,0.4512 23.559,0.4512 14.1681,0 23.3313,-0.3685 22.9877,-0.9244 z m 24.4842,-103.82557 c 1.8131,-4.8125 5.4728,-13.67967 8.1328,-19.70482 2.66,-6.02515 4.8363,-11.08765 4.8363,-11.25 0,-0.16235 -6.6465,-0.29518 -14.7701,-0.29518 l -14.7701,0 -5.6631,10.25 c -5.9465,10.76304 -14.7967,28.21855 -14.7967,29.18406 0,0.31127 7.5903,0.56594 16.8673,0.56594 l 16.8672,0 z m 20.4846,-46.5 c 1.5584,-2.8875 6.759,-11.63339 11.557,-19.43531 4.798,-7.80192 8.4694,-14.43942 8.1589,-14.75 -0.3106,-0.31058 -5.6465,-0.56469 -11.8576,-0.56469 -11.0329,0 -11.3517,0.0633 -13.8501,2.75 -2.0718,2.22793 -22.2165,31.33151 -24.9183,36 -0.5646,0.97562 2.4374,1.25 13.6767,1.25 l 14.4,0 z m 26.7851,-43 c 0.2831,-0.6875 3.9312,-5.50103 8.107,-10.69674 4.1758,-5.1957 7.5924,-9.8082 7.5924,-10.25 0,-0.44179 -5.0788,-0.80326 -11.2863,-0.80326 l -11.2864,0 -8.3925,10.25 c -4.6158,5.6375 -8.8171,10.8125 -9.3361,11.5 -0.7425,0.98368 1.7229,1.25 11.5719,1.25 9.0712,0 12.657,-0.344 13.03,-1.25 z m 25.504198,-32.05352 c 3.9902,-4.01694 6.9414,-7.61694 6.5583,-8 -0.383,-0.38307 -5.2233,-0.69648 -10.756198,-0.69648 l -10.0599,0 -7.2735,7.22497 c -4.0004,3.97374 -7.2735,7.57374 -7.2735,8 0,0.42627 4.8488,0.77503 10.775,0.77503 l 10.7751,0 z m 18.090296,-19.45792 c 25.6475,-26.11398 61.5637,-53.54311 96.604899,-73.77688 23.940901,-13.82416 74.904801,-37.28779 78.224001,-36.0141 0.7589,0.29123 1.1553,0.16608 0.8807,-0.2781 -0.7943,-1.28531 48.424606,-17.88422 54.219906,-18.28548 1.5241,-0.10552 1.5271,-0.15544 0.033,-0.55254 -3.6088,-0.9594 -52.611806,13.41995 -77.857906,22.84649 -39.6677,14.81134 -84.5002,37.74311 -115.0014,58.82301 -5.5861,3.86068 -10.5822,6.75639 -11.1024,6.4349 -0.5201,-0.32149 -0.8221,-0.16333 -0.671,0.35146 0.1512,0.51478 -4.2252,4.45147 -9.7252,8.74819 -17.1296,13.38201 -38.673094,32.12448 -43.350894,37.71449 l -2.3012,2.75 10.721098,0 10.7212,0 8.604896,-8.76144 z M 557.19578,1026.1396 c -5.5765,-1.0094 -16.419,-6.0531 -18.8957,-8.7898 -1.5643,-1.7285 -1.3638,-2.1184 3.6187,-7.039 l 5.2746,-5.2091 5.4696,2.9625 c 9.8369,5.3278 23.9869,5.1086 29.5535,-0.4579 3.8525,-3.8526 2.8897,-13.06513 -1.6176,-15.47743 -1.1541,-0.6176 -6.9131,-1.9358 -12.7979,-2.9292 -20.5218,-3.4645 -27.3084,-9.671 -27.4128,-25.0694 -0.076,-11.2144 5.3505,-19.6049 15.6059,-24.13 6.9354,-3.0601 22.6482,-3.3049 30.1074,-0.469 5.0501,1.9199 12.4393,6.5257 12.4786,7.7781 0.012,0.3735 -2.339,2.9308 -5.224,5.6829 -4.7828,4.5624 -5.3944,4.869 -6.9338,3.4758 -4.4675,-4.043 -16.8379,-5.611 -23.2222,-2.9434 -6.8808,2.875 -9.0064,11.4696 -3.9871,16.1214 3.1606,2.9291 3.4283,3.014 15.5335,4.9285 11.1935,1.7703 14.1016,2.7437 18.7194,6.2659 4.9885,3.8049 7.5162,10.2519 7.5629,19.28983 0.03,5.8552 -0.4434,8.4086 -2.1598,11.6426 -2.8301,5.3326 -8.7656,10.3771 -14.9098,12.6716 -5.6451,2.1081 -19.5988,2.9919 -26.7634,1.6951 z m 179.8103,-0.6153 c -7.282,-2.2352 -14.3493,-7.9213 -17.7955,-14.3177 -3.897,-7.2331 -5.4798,-23.65743 -3.9446,-40.93153 1.3723,-15.4408 3.9337,-20.6996 13.0628,-26.8192 14.5426,-9.7484 32.6478,-7.7216 43.6801,4.89 6.8263,7.8035 7.8652,12.9613 7.4204,36.8373 -0.3188,17.10723 -0.6124,19.98863 -2.4403,23.94723 -2.5465,5.515 -9.9401,12.4706 -16.2118,15.2513 -6.1104,2.7092 -16.967,3.231 -23.7711,1.1426 z m 17.1968,-15.4431 c 6.213,-3.0076 7.4598,-5.5959 8.5074,-17.66093 1.1971,-13.7859 -0.1816,-29.0537 -3.0413,-33.6808 -4.0423,-6.5405 -14.9534,-8.2218 -21.4077,-3.2988 -5.3104,4.0504 -6.153,7.7716 -6.1566,27.1896 0,20.16683 1.0116,23.41573 8.5166,27.25013 5.4455,2.7821 8.1664,2.8223 13.5816,0.2008 z m 85.3986,16.0499 c -5.9568,-1.0115 -11.0981,-3.2288 -16.5275,-7.1279 l -4.4535,-3.1983 5.4926,-5.5808 c 4.7937,-4.8706 5.7151,-5.4194 7.2405,-4.3124 5.4863,3.9815 10.9097,5.6216 18.7479,5.6696 9.328,0.057 12.9932,-1.3954 15.8354,-6.2759 1.6578,-2.8468 1.7742,-3.8661 0.8091,-7.08723 -1.7206,-5.7426 -3.9494,-7.1171 -13.9676,-8.6137 -12.2948,-1.8366 -16.9984,-3.2264 -21.4065,-6.3247 -11.7134,-8.2329 -11.7059,-29.4628 0.014,-39.1231 6.9811,-5.7545 18.8885,-8.1056 30.8406,-6.0897 7.2872,1.2292 16.995,5.9089 18.0702,8.711 0.388,1.011 -1.0813,3.1958 -4.2252,6.2829 l -4.82,4.7329 -4.4234,-2.4723 c -5.7495,-3.2135 -16.0897,-4.1108 -21.4691,-1.8631 -4.87,2.0348 -7.4956,7.1065 -6.135,11.8507 1.4589,5.0868 5.7262,7.2799 17.7989,9.1474 11.9067,1.8418 16.8545,3.946 21.3689,9.0876 7.4769,8.5157 6.9201,25.31763 -1.1169,33.70383 -7.7513,8.0882 -22.2378,11.5041 -37.6732,8.8832 z m -552,-44.00083 0,-44 8.5,0 8.5,0 0,36.5 0,36.50013 20,0 20,0 0,7.5 0,7.5 -28.5,0 -28.5,0 z m 71,-0.039 0,-44.0389 8.75,0.2889 c 4.8125,0.1589 8.6375,0.6265 8.5,1.039 -0.1375,0.4125 -0.25,20.1 -0.25,43.75 l 0,43.00003 -8.5,0 -8.5,0 z m 43.207,0.7164 c -7.8138,-23.8275 -14.207,-43.645 -14.207,-44.039 0,-0.394 3.8787,-0.5863 8.6193,-0.4274 l 8.6193,0.2889 8.7318,28.3954 c 4.8025,15.6174 8.9648,27.9924 9.2494,27.5 0.2847,-0.4925 3.7636,-11.4704 7.731,-24.3954 3.9675,-12.925 7.8049,-25.3 8.5278,-27.5 l 1.3142,-4 8.6847,-0.2901 c 7.3889,-0.2468 8.6352,-0.061 8.3536,1.2485 -0.1821,0.8462 -6.6311,20.6533 -14.3311,44.0157 l -14,42.47733 -6.543,0.024 -6.543,0.024 -14.207,-43.32273 z m 67.793,-0.6775 0,-44 29,0 29,0 0,7.5 0,7.5 -20.5,0 -20.5,0 0,10.5 0,10.5 17,0 17,0 0,7.5 0,7.5 -17,0 -17,0 0,11.00003 0,11.0001 20.5,0 20.5,0 0,7.5 0,7.5 -29,0 -29,0 z m 194,7.5 0,-36.5 -11.5,0 -11.5,0 0,-7.5 0,-7.5 31.5,0 31.5,0 0,7.5 0,7.5 -11.5,0 -11.5,0 0,36.5 0,36.50013 -8.5,0 -8.5,0 z m 227.3314,35.75013 c 0.3616,-0.6035 27.2965,-74.26853 30.8966,-84.50013 0.9266,-2.6332 1.2546,-2.75 7.7244,-2.75 l 6.7568,0 12.2854,33.75 c 6.7569,18.5625 13.9697,38.36263 16.0284,44.00013 l 3.7431,10.25 -8.8009,0 -8.801,0 -2.6642,-8 -2.6642,-8 -15.6832,0 -15.6832,0 -1.7922,5.25 c -4.0331,11.814 -2.7605,10.75 -12.8575,10.75 -4.9158,0 -8.7355,-0.3375 -8.4883,-0.75 z m 49.6686,-29.65633 c 0,-0.8708 -10.0017,-29.9288 -10.4587,-30.3858 -0.5603,-0.5603 -0.9824,0.4951 -6.3549,15.8877 -2.1892,6.2724 -4.2999,12.1918 -4.6904,13.1543 -0.6508,1.6043 0.2151,1.75 10.397,1.75 6.1089,0 11.107,-0.1828 11.107,-0.4062 z m 54.6542,19.19843 c -2.0102,-6.2107 -8.5381,-26.02973 -14.5066,-44.04223 l -10.8517,-32.75 8.8168,0 8.8168,0 2.8779,9.25 c 1.5828,5.0875 5.5133,17.9129 8.7345,28.5008 3.22112,10.5879 6.15542,18.9129 6.52052,18.5 0.3652,-0.4129 2.5658,-7.0508 4.8902,-14.7508 2.3245,-7.7 6.1151,-20.075 8.4236,-27.5 l 4.1972,-13.5 8.7133,-0.2889 c 4.7923,-0.1589 8.7076,0.066 8.7006,0.5 -0.01,0.4339 -6.4583,20.1389 -14.3363,43.7889 l -14.3237,43.00013 -6.5091,0.2922 -6.50912,0.2921 z m 57.34582,-32.79223 0,-44 28.5,0 28.5,0 0,7.5 0,7.5 -20.5,0 -20.5,0 0,10.5 0,10.5 17.3333,0 c 9.5334,0 17.5209,0.1856 17.75,0.4124 0.2292,0.2269 0.2677,3.5914 0.086,7.4768 l -0.3312,7.0643 -17.1688,0.2733 -17.1689,0.2732 -0.2838,10.75003 -0.2839,10.7501 20.5339,0 20.5338,0 0,7.5 0,7.5 -28.5,0 -28.5,0 0,-44.00013 z M 401.92378,831.08727 c -6.7653,-1.2019 -17.2465,-5.1833 -24.8738,-9.4488 -17.4871,-9.7793 -29.189,-29.7041 -31.8663,-54.2583 l -0.6815,-6.25 22.9218,0 22.9219,0 0.6727,4.25 c 1.1764,7.4324 6.245,16.906 10.9531,20.4726 11.3207,8.5758 30.4035,7.6214 40.4674,-2.0238 7.9786,-7.6467 10.5232,-17.956 9.9219,-40.1988 -0.3576,-13.2286 -0.8207,-17.1168 -2.6732,-22.4476 -3.2409,-9.3257 -6.5955,-13.5663 -13.496,-17.0602 -5.0325,-2.548 -7.0466,-2.9922 -13.5685,-2.9922 -4.2123,0 -9.9247,0.6729 -12.6942,1.4954 -6.26,1.859 -13.4241,8.0067 -16.333,14.0159 l -2.173,4.4887 -20.9108,0 -20.9108,0 0,-70.49997 0,-70.5 71.5,0 71.5,0 0,20 0,20 -50.5,0 -50.5,0 0,27.12197 0,27.122 2.25,-1.6595 c 4.7547,-3.5069 14.7691,-7.5275 22.8052,-9.1558 14.5882,-2.95593 30.9526,-0.8705 44.711,5.6978 15.3091,7.3087 28.1576,23.5406 33.1453,41.8735 3.8733,14.237 5.0716,34.9595 3.0937,53.5 -1.3181,12.3555 -3.309,19.5377 -8.1648,29.4543 -3.3054,6.7505 -5.8729,10.1863 -12.74,17.0489 -9.323,9.3168 -15.4109,13.0619 -28.6004,17.5943 -7.2728,2.4991 -9.4998,2.7731 -24.5,3.0142 -9.075,0.1459 -18.8299,-0.1487 -21.6777,-0.6546 z m 271.0263,-0.9419 c -26.9118,-7.0549 -45.373,-24.3989 -52.5062,-49.3289 l -2.3424,-8.1863 0,-67.5 c 0,-67.49233 3e-4,-67.50087 2.3032,-75.4549 7.4984,-25.89884 26.5906,-43.47564 54.3258,-50.01368 9.5804,-2.25838 29.3172,-2.0068 39.871,0.50822 22.5105,5.36438 41.0342,20.80981 49.7235,41.46039 5.0304,11.95506 5.2765,15.84966 5.2765,83.49997 0,67.6504 -0.2461,71.545 -5.2765,83.5 -8.6893,20.6506 -27.213,36.096 -49.7235,41.4604 -11.4297,2.7238 -31.3701,2.75 -41.6514,0.055 z m 33.7977,-41.1734 c 6.3227,-2.72 13.2828,-10.4026 15.5725,-17.1889 1.5551,-4.6094 1.7723,-11.2174 2.0588,-62.6529 0.2161,-38.781 -0.038,-59.57978 -0.782,-63.88863 -2.927,-16.96254 -13.773,-26.51106 -29.9956,-26.4074 -15.691,0.10026 -25.7614,8.51918 -29.5064,24.6676 -1.3676,5.89686 -1.5431,14.74899 -1.2885,64.97773 0.2916,57.4977 0.3199,58.2125 2.5246,63.6507 6.89,16.9956 24.4552,24.1384 41.4166,16.8418 z m 159.3367,41.6351 c -11.0379,-2.4258 -21.127,-7.1319 -30.4574,-14.207 -5.783,-4.3853 -15.1487,-15.3903 -14.5286,-17.0718 0.264,-0.7161 0.063,-1.044 -0.4473,-0.7288 -1.1305,0.6987 -6.204,-9.7631 -8.7143,-17.9693 -1.7054,-5.5749 -1.8354,-10.9232 -1.8354,-75.5 0,-64.57671 0.13,-69.925 1.8354,-75.49997 2.6995,-8.82466 7.59,-18.66412 8.8803,-17.86669 0.6695,0.41376 0.8065,0.21157 0.3534,-0.52155 -1.3847,-2.24048 10.0809,-14.69369 18.9462,-20.57815 13.208,-8.76694 26.864,-12.52341 45.4847,-12.51182 13.4454,0.008 21.3519,1.37892 31.7861,5.50994 16.7835,6.64482 31.3787,20.82365 38.1891,37.09985 5.8587,14.00167 6.1573,18.57214 5.7872,88.59069 -0.3249,61.46 -0.3969,63.4932 -2.5067,70.7777 -2.8109,9.7056 -5.9344,16.0522 -11.6213,23.6129 -10.3911,13.8152 -24.2491,22.5386 -42.6344,26.8377 -8.0514,1.8826 -30.0018,1.8976 -38.517,0.026 z m 32.5469,-41.5851 c 5.714,-2.4581 11.3554,-8.248 14.115,-14.4864 3.4767,-7.8596 4.0093,-18.9774 3.6218,-75.5997 -0.4102,-59.95662 -0.2851,-58.73503 -7.0342,-68.64879 -9.6404,-14.16078 -33.5766,-15.74297 -45.3024,-2.99451 -9.4614,10.28654 -9.4322,10.04355 -9.4182,78.2977 0.013,61.9835 0.1702,64.2444 5.0234,72.097 7.9316,12.8337 24.3897,17.6176 38.9946,11.3347 z m 159.41252,41.5768 c -24.0865,-5.2906 -42.4753,-20.1916 -51.175,-41.4686 -5.7928,-14.1674 -5.7674,-13.7945 -5.7674,-84.5 0,-72.31098 -0.1224,-70.79093 6.9266,-86.04749 6.7905,-14.69713 17.12,-25.19794 31.9056,-32.43485 11.9635,-5.85557 18.0691,-7.21725 34.7814,-7.75699 12.605,-0.4071 15.7663,-0.18095 23,1.64534 22.2975,5.62944 38.8576,18.62239 47.8447,37.53857 7.622,16.04279 7.5417,15.11552 7.5417,87.05542 0,59.7361 -0.1291,64.5628 -1.9373,72.4474 -2.2526,9.8224 -10.4136,26.744 -12.645,26.2193 -0.7797,-0.1833 -1.0922,-0.01 -0.6945,0.3899 1.1755,1.1754 -4.8374,7.9816 -11.515,13.0341 -7.9289,5.9994 -18.0824,10.8358 -28.1182,13.3934 -9.3812,2.3909 -30.3183,2.6436 -40.1476,0.4845 z m 26.6592,-39.8184 c 11.1429,-2.623 19.4581,-11.3953 21.8857,-23.0888 1.5967,-7.6915 0.8807,-123.80951 -0.7939,-128.74299 -2.5421,-7.48938 -7.4245,-13.09681 -14.6193,-16.7906 -5.8922,-3.02497 -7.685,-3.46842 -13.9187,-3.44269 -12.4572,0.0514 -21.6571,5.61131 -26.8986,16.25598 l -3.2568,6.61402 -0.2797,61.41448 c -0.3069,67.394 -0.3486,66.8338 5.6895,76.3363 3.4961,5.5021 9.5647,9.6707 16.5902,11.3961 6.5824,1.6166 8.9083,1.6238 15.6016,0.048 z m -931.10162,18.8413 0,-20.5085 7.7599,-8.7415 c 4.268,-4.8078 10.2191,-11.6665 13.2247,-15.2415 3.0056,-3.575 8.8511,-10.3395 12.99,-15.0322 4.139,-4.6927 9.7754,-11.1871 12.5254,-14.4318 9.5722,-11.2944 23.2417,-27.0619 26.8589,-30.9814 2.0026,-2.17 3.645,-4.195 3.6498,-4.5 0.01,-0.305 1.4972,-2.1296 3.3166,-4.0546 18.6107,-19.6912 25.5902,-31.087 26.4567,-43.19692 1.4488,-20.24893 -10.5812,-34.04999 -29.782,-34.16662 -17.7062,-0.10756 -29.2974,9.52362 -30.7507,25.551 l -0.5271,5.81257 -22.8611,0 -22.8611,0 0.01,-2.75 c 0.014,-4.92158 2.0119,-15.60752 4.1235,-22.04924 7.6252,-23.26242 25.5412,-39.07634 51.2553,-45.24146 12.1742,-2.91883 31.3321,-2.72668 43.8134,0.43946 26.5994,6.74749 44.3257,24.07192 50.6909,49.54163 2.6243,10.50088 2.8951,28.61238 0.5622,37.59948 -3.7705,14.5253 -8.3837,21.2752 -37.9528,55.5314 -5.5,6.3718 -11.35,13.1582 -13,15.0809 -1.65,1.9227 -12,13.9593 -23,26.7482 -11,12.7888 -20.15,23.668 -20.3334,24.176 -0.2009,0.5567 18.7708,0.9236 47.75,0.9236 l 48.0829,0 0,20 0,20 -76,0 -76,0 0,-20.5085 z"
           style="fill:#ffffff;fill-opacity:1"
           sodipodi:nodetypes="cssssssssscsssccssssssssscssccccsscsccccscccsscscccssscssccssscsssccsscsscscscssscscscscscssscscsccscssccsscccccssscccccssccscscssccsscssssscsccssscsccscssccssscccscsssssscccccccccccccccccssscccccsscscsccscscccccccccccccccccccccccccccccccccccccccccccccccccscsscccccccsscssscsssscccssccscscscccsccccccccccsscccccccccccccccsscccssssccscccccccccccccccssssssscsccscssssssssccscscsssssccccsssssscssscscccssssssssssssssssssccscscssssscsssccccssssscssssccccsssssssscsacccccc" />
        <path
           inkscape:connector-curvature="0"
           id="path3878"
           d="m -200.25455,1149.0669 0,-37.5 6,0 c 5.7424,0 6,0.108 6,2.5142 l 0,2.5142 3.9334,-2.603 c 8.3079,-5.4979 23.7959,-3.9146 29.9184,3.0585 4.1607,4.7388 5.5192,10.1817 5.4951,22.0161 -0.022,10.685 -1.4368,15.7911 -5.6446,20.3683 -5.9576,6.4805 -19.4658,8.2259 -28.1063,3.6317 -2.586,-1.375 -4.903,-2.5 -5.1489,-2.5 -0.2459,0 -0.4471,5.85 -0.4471,13 l 0,13 -6,0 -6,0 z m 33.2212,5.3816 c 3.6761,-1.9674 5.271,-6.9205 5.275,-16.3816 0.01,-13.4844 -3.0984,-17.5 -13.5275,-17.5 -7.3263,0 -10.7074,3.3629 -12.2044,12.1387 -1.2218,7.1627 -0.039,15.554 2.7062,19.2045 3.0491,4.0541 12.4158,5.3935 17.7507,2.5384 z m 875.7788,27.1184 0,-5 3.7775,0 c 5.1838,0 7.5772,-1.9825 10.2025,-8.4507 l 2.2402,-5.5195 -11.0395,-25.5149 -11.0395,-25.5149 6.7566,0 6.7565,0 7.3534,18.5194 c 4.0444,10.1857 7.6662,18.1732 8.0486,17.75 0.3823,-0.4231 3.765,-8.7569 7.5171,-18.5194 l 6.8218,-17.75 6.8158,0 6.8158,0 -1.3669,3.25 c -0.7519,1.7875 -5.0872,11.8 -9.6341,22.25 -20.3338,46.7323 -19.7286,45.6369 -26.5258,48.0136 -2.2,0.7692 -6.1375,1.4184 -8.75,1.4425 l -4.75,0.044 0,-5 z m -1176.3333,-16.6667 c -0.3667,-0.3666 -0.6667,-17.4666 -0.6667,-38 l 0,-37.3333 28.5,0 28.5,0 0,5 0,5 -22,0 -22,0 0,10.9774 0,10.9775 18.25,0.2725 18.25,0.2726 0,5 0,5 -18.25,0.2726 -18.25,0.2725 0,10.9775 0,10.9774 22,0 22,0 0,5.5 0,5.5 -27.8333,0 c -15.3084,0 -28.1334,-0.3 -28.5,-0.6667 z m 85.9818,-0.3599 c -4.6085,-1.3814 -9.3473,-5.1357 -11.2778,-8.935 -1.5102,-2.9721 -1.858,-6.7791 -2.1732,-23.7884 l -0.3753,-20.25 6.5283,0 6.5283,0 0.3106,18.922 c 0.3032,18.4699 0.3688,18.9839 2.7455,21.5112 4.9233,5.2355 14.7911,5.2929 19.9726,0.1163 2.5828,-2.5804 2.5937,-2.6614 2.9031,-21.5698 l 0.3106,-18.9797 6.4394,0 6.4394,0 0,27 0,27 -6.5,0 c -6.2342,0 -6.5,-0.1004 -6.5,-2.454 l 0,-2.454 -5.25,2.4442 c -5.5171,2.5686 -14.245,3.1926 -20.1015,1.4372 z m 58.3515,-25.9734 0,-27 6.5,0 c 6.2455,0 6.5,0.097 6.5,2.4699 l 0,2.4698 3.5411,-2.403 c 3.9905,-2.7081 12.4517,-4.1358 18.1618,-3.0646 4.3794,0.8216 9.2971,3.1948 9.2971,4.4866 0,0.4991 -2.0061,2.5513 -4.4581,4.5604 -4.2414,3.4756 -4.568,3.576 -6.7225,2.067 -5.2976,-3.7106 -16.6843,-0.7018 -18.8443,4.9795 -0.5363,1.4105 -0.9751,10.6353 -0.9751,20.4995 l 0,17.9349 -6.5,0 -6.5,0 z m 67.5907,25.4849 c -9.5438,-3.6388 -14.2922,-10.5307 -15.2658,-22.1574 -1.5053,-17.9746 6.7133,-29.317 22.4335,-30.96 12.1364,-1.2685 23.0535,3.5002 27.4648,11.997 2.5484,4.9086 3.6332,19.7629 1.9086,26.1355 -1.4096,5.2087 -6.2677,11.0106 -11.4785,13.7081 -5.3874,2.789 -19.2448,3.495 -25.0626,1.2768 z m 19.2104,-10.2843 c 3.9242,-2.5539 5.1989,-6.4036 5.1989,-15.7006 0,-13.6133 -3.8657,-18.1734 -14.6481,-17.2793 -5.9559,0.4939 -8.866,2.4792 -10.9899,7.4972 -2.0276,4.7904 -1.7039,15.9322 0.6111,21.0321 1.061,2.3375 2.0636,4.2568 2.228,4.2651 0.1644,0.01 2.0989,0.6628 4.2989,1.4544 4.4263,1.5929 9.6731,1.0923 13.3011,-1.2689 z m 117.9062,10.187 c -10.703,-3.2896 -16.293,-13.2997 -15.4992,-27.7547 0.5156,-9.3896 2.7279,-14.6135 8.2374,-19.4509 11.0878,-9.7352 33.132198,-7.2059 40.670102,4.6664 2.7876,4.3906 4.8844,11.7744 4.8844,17.2008 l 0,2.9508 -21.019102,0 -21.019,0 0.6594,2.75 c 1.3035,5.4365 3.5267,8.4141 7.695,10.3066 5.7937,2.6304 12.0785,2.4384 18.532998,-0.5664 2.9421,-1.3696 5.4677,-2.4902 5.6125,-2.4902 0.1447,0 1.941404,1.3337 3.992604,2.9637 l 3.7294,2.9638 -4.8074,3.0487 c -2.644004,1.6769 -6.397904,3.4907 -8.341904,4.0307 -5.126998,1.4244 -17.770198,1.0887 -23.327198,-0.6193 z m 25.292698,-31.9274 c 0,-0.8469 -0.8878,-3.2801 -1.9728,-5.407 -1.5008,-2.9416 -3.0541,-4.2799 -6.490798,-5.5925 -9.2005,-3.5136 -17.8336,0.7254 -19.9365,9.7893 l -0.638,2.75 14.519,0 c 12.406098,0 14.519098,-0.2241 14.519098,-1.5398 z m 35.683804,32.091 c -4.819,-1.7187 -7.5895,-4.1763 -9.3218,-8.2691 -3.4269,-8.0964 -0.421,-16.0186 7.4147,-19.5421 3.7898,-1.7043 7.2644,-2.2089 17.5817,-2.5536 l 12.8583,-0.4296 -0.656,-4.1023 c -0.3607,-2.2562 -1.381,-4.9034 -2.2671,-5.8826 -3.8764,-4.2833 -17.1266,-4.7502 -22.4801,-0.7921 -3.4559,2.555 -3.6171,2.5343 -7.7431,-0.9932 -3.3363,-2.8524 -3.3806,-2.9863 -1.6276,-4.9234 3.4579,-3.8209 10.2532,-5.5645 21.6164,-5.5465 9.2698,0.015 11.15,0.3208 15.3967,2.5062 8.8839,4.5719 9.0001,4.9452 9.3482,30.0475 l 0.3041,21.9296 -6.0541,0 c -5.7727,0 -6.0541,-0.1149 -6.0541,-2.4719 l 0,-2.4718 -4.6489,2.4718 c -3.8034,2.0223 -6.0314,2.4639 -12.25,2.428 -4.1806,-0.024 -9.3184,-0.6563 -11.4173,-1.4049 z m 24.7988,-10.5793 c 1.6296,-1.6296 2.714,-4.1272 3.1394,-7.2307 l 0.6498,-4.7412 -10.1855,0 c -13.94,0 -18.4164,2.5645 -16.6639,9.5469 0.9821,3.9131 5.0996,5.5194 13.3241,5.1979 6.1761,-0.2415 7.6143,-0.6511 9.7361,-2.7729 z m 35.5174005,-14.9719 0,-27 6.5,0 c 5.7706005,0 6.5000005,0.2181 6.5000005,1.9438 0,1.8928 0.1244,1.8868 4.75,-0.2293 6.681499,-3.0568 18.098499,-3.0421 23.905499,0.031 9.0134,4.7695 10.6097,10.2315 10.1578,34.7547 l -0.3133,17 -6.25,0.2977 -6.25,0.2977 0,-17.7977 c 0,-24.3827 -1.8212,-27.796 -14.3971,-27.0149 -5.1427,0.3194 -6.264099,0.7753 -8.749999,3.5575 l -2.8514,3.1913 0,18.9842 0,18.9842 -6.5000005,0 -6.5,0 0,-27 z m 102.9999975,-11 0,-38 20.3185,0 c 22.8644,0 27.6734,0.8684 34.0606,6.1505 6.9616,5.7571 9.4702,15.4878 6.0828,23.595 -2.1016,5.0298 -4.1104,7.0428 -9.9619,9.9829 -2.75,1.3817 -5.1394,2.635 -5.3099,2.7851 -0.1704,0.1501 3.3668,6.2835 7.8605,13.6297 4.4937,7.3462 9.0573,14.8193 10.1414,16.6068 l 1.9711,3.25 -7.8315,-0.013 -7.8316,-0.013 -9.4748,-15.987 -9.4748,-15.987 -8.7752,0 -8.7752,0 0,16 0,16 -6.5,0 -6.5,0 z m 42.5,-6.0114 c 1.65,-0.8312 3.8929,-3.1739 4.9843,-5.2059 1.8431,-3.4316 1.8787,-3.997 0.5,-7.9414 -2.4138,-6.9062 -5.829,-8.2715 -21.7343,-8.6894 l -13.25,-0.3481 0,12.1756 0,12.1756 13.25,-0.3275 c 9.2759,-0.2293 14.1498,-0.7808 16.25,-1.8389 z m 52.4935,43.1349 c -8.1174,-2.6566 -14.2042,-8.4792 -16.0575,-15.3604 -0.6442,-2.3918 -0.9804,-8.4417 -0.766,-13.7828 0.3148,-7.8406 0.7992,-10.1945 2.7467,-13.3456 5.0088,-8.1043 15.6414,-12.5497 26.8625,-11.2308 15.6058,1.8341 22.5026,10.1278 22.6209,27.2027 0.057,8.2126 -0.2295,9.6746 -2.9185,14.8926 -2.4354,4.7259 -3.973,6.3438 -8.3931,8.8311 -4.5862,2.5808 -6.645,3.0885 -13.5,3.3294 -4.4487,0.1563 -9.2164,-0.085 -10.595,-0.5362 z m 16.7426,-10.7356 c 3.8151,-2.4156 5.5131,-6.1357 6.011,-13.1696 0.9301,-13.1391 -2.7434,-19.2217 -12.0758,-19.9957 -6.3698,-0.5282 -10.9242,1.432 -13.0992,5.6379 -3.7403,7.2329 -2.6764,21.814 1.9057,26.1186 4.2547,3.9971 12.1521,4.6418 17.2583,1.4088 z m 42.7639,10.3906 c -5.2364,-1.8566 -8.2942,-4.6727 -10.0415,-9.248 -2.0943,-5.484 -1.3653,-10.2994 2.201,-14.5376 4.118,-4.894 8.3912,-6.1696 22.5905,-6.7432 l 12.75,-0.5152 0,-2.8202 c 0,-7.2417 -4.4449,-10.4249 -14.5203,-10.3986 -4.4235,0.012 -7.0302,0.6115 -9.8282,2.2624 -3.8068,2.2461 -3.8087,2.2462 -6.5685,0.281 -5.4549,-3.8843 -5.6058,-4.6854 -1.4044,-7.459 5.1548,-3.4031 13.1786,-4.9642 22.3012,-4.3389 12.2299,0.8382 19.9689,5.2951 22.0209,12.682 0.5435,1.9562 0.9907,12.2193 0.9937,22.8068 l 0.01,19.25 -6.5,0 c -6.1669,0 -6.5,-0.1211 -6.5,-2.364 l 0,-2.364 -4.6695,2.364 c -3.7519,1.8995 -6.159,2.3485 -12.25,2.2851 -4.1693,-0.043 -8.9305,-0.5576 -10.5805,-1.1426 z m 22.5926,-9.3264 c 3.3506,-1.7326 4.9074,-4.9105 4.9074,-10.0172 l 0,-3.4349 -10.3651,0 c -8.972,0 -10.7193,0.2786 -13,2.0726 -1.9111,1.5032 -2.6349,2.9942 -2.6349,5.4274 0,5.1625 3.6417,7.5 11.6845,7.5 3.8344,0 7.6189,-0.6227 9.4081,-1.5479 z m 46.366,8.6682 c -8.5611,-3.8887 -11.6924,-10.7577 -11.7166,-25.7017 -0.026,-16.1653 4.3922,-23.8119 15.2666,-26.4207 6.5994,-1.5831 15.0543,-0.7484 19.603,1.9355 1.9265,1.1366 3.702,2.0666 3.9456,2.0666 0.2435,0 0.4428,-5.8715 0.4428,-13.0477 l 0,-13.0477 6.25,0.2977 6.25,0.2977 0,37.5 0,37.5 -6.25,0.2977 c -6.1091,0.291 -6.25,0.2403 -6.25,-2.25 0,-2.8818 -0.6477,-3.1455 -2.9213,-1.1893 -4.5791,3.9401 -17.7499,4.8826 -24.6201,1.7619 z m 20.7417,-8.7466 c 4.5415,-1.2739 7.587,-11.9164 6.3176,-22.0763 -0.5731,-4.5872 -1.3514,-6.3309 -4.0144,-8.9939 -2.9653,-2.9653 -3.8871,-3.3035 -9.0035,-3.3035 -5.1164,0 -6.0383,0.3382 -9.0035,3.3035 -2.663,2.663 -3.4413,4.4067 -4.0145,8.9939 -0.8002,6.4046 0.06,13.916 2.0295,17.7248 2.6129,5.0528 9.3129,6.7011 17.6888,4.3515 z m 81.1165,9.5803 c -4.674,-0.9239 -14.7739,-5.5949 -16.441,-7.6037 -0.8217,-0.9901 -0.2985,-1.9741 2.168,-4.0776 5.0099,-4.2726 5.9174,-4.6164 7.7781,-2.9465 3.8905,3.4916 10.494,5.1744 20.1781,5.1422 10.787,-0.036 14.9698,-1.5756 17.4831,-6.4357 2.1816,-4.2188 1.8771,-7.4511 -1.027,-10.9025 -3.0663,-3.6441 -3.2437,-3.7039 -16.4561,-5.555 -21.2567,-2.9781 -27.8643,-7.9093 -27.9581,-20.865 -0.088,-12.1006 6.9509,-19.0009 22.2582,-21.8214 9.0899,-1.6749 19.79,-0.1036 28.5027,4.1856 l 6.5937,3.2461 -4.2507,3.7722 -4.2507,3.7721 -4.7463,-2.3839 c -13.7662,-6.9144 -31.1488,-2.4097 -31.1488,8.0722 0,1.8058 0.2805,4.0143 0.6233,4.9077 1.1402,2.9711 8.13,5.5144 19.5232,7.1035 12.5649,1.7525 15.8387,2.8555 20.7395,6.9875 4.194,3.5362 6.114,7.964 6.114,14.1004 0,10.0706 -6.8936,17.7827 -18.6275,20.839 -6.1611,1.6048 -20.0745,1.8428 -27.0557,0.4628 z m 69.1832,-0.1755 c -5.2364,-1.8566 -8.2942,-4.6727 -10.0415,-9.248 -2.1434,-5.6125 -1.2865,-10.9869 2.3698,-14.8624 4.4189,-4.6838 8.5158,-5.8566 22.4217,-6.4184 l 12.75,-0.5152 0,-2.8202 c 0,-7.2417 -4.4449,-10.4249 -14.5203,-10.3986 -4.4235,0.012 -7.0302,0.6115 -9.8282,2.2624 -3.8068,2.2461 -3.8087,2.2462 -6.5685,0.281 -5.4549,-3.8843 -5.6058,-4.6854 -1.4044,-7.459 5.1548,-3.4031 13.1786,-4.9642 22.3012,-4.3389 12.2299,0.8382 19.9689,5.2951 22.021,12.682 0.5434,1.9562 0.9906,12.2193 0.9936,22.8068 l 0.01,19.25 -6.5,0 c -6.1669,0 -6.5,-0.1211 -6.5,-2.364 l 0,-2.364 -4.6695,2.364 c -3.7519,1.8995 -6.159,2.3485 -12.25,2.2851 -4.1693,-0.043 -8.9305,-0.5576 -10.5805,-1.1426 z m 22.5926,-9.3264 c 3.3506,-1.7326 4.9074,-4.9105 4.9074,-10.0172 l 0,-3.4349 -10.3651,0 c -8.972,0 -10.7193,0.2786 -13,2.0726 -1.9111,1.5032 -2.6349,2.9942 -2.6349,5.4274 0,5.1625 3.6417,7.5 11.6845,7.5 3.8344,0 7.6189,-0.6227 9.4081,-1.5479 z m 39.3364,9.2235 c -0.2795,-0.7285 -0.3779,-10.8539 -0.2186,-22.501 l 0.2896,-21.1765 -3.75,9e-4 c -3.7085,0 -3.75,-0.043 -3.75,-3.999 0,-3.8719 0.1074,-4 3.3554,-4 l 3.3554,0 0.6173,-6.6109 c 1.1072,-11.8565 5.9118,-16.244 18.7979,-17.166 l 6.874,-0.4918 0,5.0978 0,5.0979 -4.6851,-0.094 c -6.1978,-0.1244 -8.5411,2.5002 -8.1128,9.0869 l 0.2979,4.5801 6.25,0.2977 6.25,0.2977 0,3.9523 0,3.9523 -6.5,0 -6.5,0 0,22.5 0,22.5 -6.0314,0 c -4.0834,0 -6.1955,-0.4278 -6.5396,-1.3244 z m 52.2411,-0.2531 c -10.2497,-3.2461 -16.0916,-12.6913 -16.0057,-25.878 0.061,-9.378 1.8923,-14.3869 7.2002,-19.6948 5.912,-5.912 13.4278,-8.3918 22.7856,-7.5179 14.3843,1.3432 23.3498,11.0552 23.3498,25.2939 l 0,5.3743 -20.625,0 -20.625,0 0.6395,3.1977 c 0.9678,4.839 3.3269,7.7703 7.9385,9.8641 5.9309,2.6929 12.2168,2.4677 18.4988,-0.6628 l 5.2196,-2.601 3.5297,2.6922 c 1.9414,1.4808 3.3576,3.2137 3.1472,3.8511 -0.2103,0.6373 -3.0127,2.5087 -6.2275,4.1587 -5.0636,2.599 -7.0581,3.0302 -14.9204,3.2261 -5.9554,0.1483 -10.7359,-0.2998 -13.9053,-1.3036 z m 24.7507,-33.1725 c -1.615,-7.1947 -8.0613,-11.6754 -15.626,-10.8612 -5.8624,0.6309 -9.6636,3.0529 -11.4312,7.2835 -2.6809,6.4162 -2.8648,6.3277 13.1555,6.3277 l 14.519,0 z m 44.0792,33.8213 c -4.1237,-0.9952 -6.5653,-2.4235 -9.5,-5.5573 -2.4455,-2.6115 -2.5068,-3.0591 -2.8125,-20.5352 l -0.3125,-17.8655 -3.6875,-0.3067 c -3.4748,-0.2889 -3.7054,-0.5229 -3.9979,-4.0566 l -0.3103,-3.75 4.0603,0 4.0604,0 0,-8.5477 0,-8.5477 6.25,0.2977 6.25,0.2977 0.2904,8.25 0.2905,8.25 5.9595,0 5.9596,0 0,4 0,4 -6,0 -6,0 0,16.4648 c 0,18.5864 -0.022,18.5352 7.9343,18.5352 l 4.0657,0 0,5 0,5 -4.75,-0.1024 c -2.6125,-0.056 -6.1,-0.4281 -7.75,-0.8263 z m 137,-0.4095 c -10.1278,-3.3734 -16.0039,-8.1262 -19.3635,-15.6618 -2.12,-4.7553 -2.3093,-35.5941 -0.2542,-41.4159 2.0637,-5.8462 8.2217,-11.9089 15.3417,-15.1041 5.1597,-2.3156 7.6715,-2.8042 14.7474,-2.8688 10.3387,-0.094 17.3695,2.1763 23.5306,7.5995 4.1909,3.6889 9.1577,12.9129 7.9796,14.8191 -0.3298,0.5336 -3.2639,0.9702 -6.5203,0.9702 -5.8794,0 -5.9346,-0.027 -7.9183,-3.9158 -2.5873,-5.0714 -6.8121,-8.0101 -12.8991,-8.9724 -11.5981,-1.8334 -20.3795,3.9222 -21.6635,14.199 -1.2072,9.6616 -0.134,29.7792 1.7786,33.3427 3.6868,6.8691 14.7082,10.1583 23.1875,6.9201 4.563,-1.7427 10.5535,-7.4805 10.5535,-10.1084 0,-1.1474 1.5183,-1.4652 7,-1.4652 7.8321,0 8.0072,0.2227 5.1098,6.5 -2.4173,5.237 -8.1776,10.8375 -13.9665,13.579 -5.8058,2.7495 -20.5168,3.6235 -26.6433,1.5828 z m 59.5,-36.6141 0,-38.0477 6.5556,0 6.5556,0 -0.3056,13.0018 c -0.1681,7.1509 0.01,13.0009 0.3872,13 0.3811,0 2.2443,-0.9172 4.1405,-2.0359 7.8228,-4.6156 21.0298,-3.343 27.6827,2.6676 5.3911,4.8705 6.1162,8.683 5.7751,30.3665 l -0.2911,18.5 -6,0 -6,0 -0.5086,-19 c -0.2798,-10.45 -0.8564,-19.6988 -1.2814,-20.5529 -2.2305,-4.4826 -12.8105,-6.4979 -18.545,-3.5324 -4.6477,2.4034 -5.1506,4.6856 -5.4172,24.5853 l -0.2478,18.5 -6.25,0.2977 -6.25,0.2977 z m 77.7914,37.0208 c -13.9169,-4.4876 -15.9619,-21.4974 -3.3644,-27.9839 4.0474,-2.0841 6.4664,-2.4796 17.632,-2.8828 l 12.941,-0.4673 0,-3.2324 c 0,-9.1206 -12.7815,-13.4787 -23.5466,-8.0287 -5.2322,2.6489 -5.0514,2.6808 -10.8728,-1.9235 -1.8477,-1.4614 -1.8524,-1.5921 -0.1275,-3.4981 3.376,-3.7304 10.2808,-5.5518 21.0469,-5.5518 11.2745,0 16.0447,1.2833 21.0254,5.6564 4.6516,4.0842 5.5839,9.5671 5.2492,30.8704 l -0.2746,17.4732 -6.25,0.2977 c -6.0882,0.29 -6.25,0.2327 -6.25,-2.2163 l 0,-2.5139 -3.672,2.1665 c -2.852,1.6827 -5.5875,2.2269 -12.25,2.4372 -4.7179,0.1489 -9.7969,-0.1223 -11.2866,-0.6027 z m 21.0898,-9.1769 c 3.7319,-1.301 6.1188,-5.3353 6.1188,-10.3419 l 0,-3.5497 -10.0497,0 c -11.2313,0 -15.3202,1.3534 -16.3378,5.4078 -0.7851,3.1282 0.974,7.0777 3.7516,8.4226 2.8795,1.3943 12.5897,1.4303 16.5171,0.061 z m 38.78555,9.4417 c -0.3667,-0.3666 -0.6667,-12.5166 -0.6667,-27 l 0,-26.3333 6.5,0 c 6.2872,0 6.5,0.083 6.5,2.5299 l 0,2.53 2.75,-2.0315 c 6.1726,-4.5597 19.3733,-5.0642 26.063,-0.9959 l 3.2479,1.9751 -3.2805,2.7708 c -6.6397,5.608 -6.4847,5.5421 -8.9599,3.8084 -2.8975,-2.0295 -10.0436,-2.0399 -13.9489,-0.02 -5.0446,2.6087 -5.8716,6.2569 -5.8716,25.9015 l 0,17.5321 -5.8333,0 c -3.2084,0 -6.1334,-0.3 -6.5,-0.6667 z m 67.7554,-0.4426 c -2.5241,-0.582 -5.3818,-2.2846 -7.5,-4.4684 l -3.4221,-3.5282 -0.3131,-17.947 -0.3131,-17.9471 -3.4369,0 c -3.3338,0 -3.4369,-0.1181 -3.4369,-3.9366 0,-3.7104 0.1868,-3.9547 3.25,-4.25 l 3.25,-0.3134 0.2912,-8.2966 0.2912,-8.2967 6.2088,0.2967 6.2088,0.2966 0.2904,8.25 0.2905,8.25 5.9595,0 5.9596,0 0,4 0,4 -6,0 -6,0 0,16.4648 c 0,18.6022 -0.029,18.5352 7.989,18.5352 l 4.1206,0 -0.3048,4.75 -0.3048,4.75 -4.5,0.1655 c -2.475,0.091 -6.335,-0.2576 -8.5779,-0.7748 z m 44.5714,0.175 c -7.2425,-2.2031 -11.7437,-5.899 -15.3036,-12.5657 -1.7428,-3.2639 -2.1409,-5.7483 -2.1629,-13.5 -0.024,-8.3281 0.2951,-10.1168 2.5839,-14.5 5.9824,-11.4567 19.9783,-16.2985 34.0243,-11.7705 10.2349,3.2994 16.8648,13.1086 16.8648,24.952 l 0,4.3185 -20.5,0 -20.5,0 0,2.9652 c 0,4.2069 5.1244,9.7214 10.3413,11.1287 5.4494,1.4699 12.6321,0.5567 17.4555,-2.2194 l 3.8724,-2.2286 3.6654,2.7957 c 2.016,1.5377 3.6646,3.0799 3.6636,3.4271 0,1.1721 -8.4682,5.9342 -12.4982,7.0313 -4.5012,1.2253 -17.689,1.3269 -21.5065,0.1657 z m 23.0028,-33.3157 c -0.01,-5.7683 -7.1009,-11.75 -13.9295,-11.75 -7.1319,0 -14.0531,5.7829 -14.0631,11.75 0,2.2264 0.1433,2.25 13.9963,2.25 13.853,0 14,-0.024 13.9963,-2.25 z m 30.714,33.627 c -0.3907,-0.3907 -0.7103,-12.5603 -0.7103,-27.0437 l 0,-26.3333 6,0 c 5.7599,0 6,0.1017 6,2.5422 l 0,2.5421 4.6893,-2.7481 c 3.9665,-2.3245 5.8548,-2.7549 12.25,-2.7922 5.439,-0.032 8.6131,0.4791 11.3107,1.8199 2.0625,1.0252 3.75,2.2085 3.75,2.6296 0,0.4211 -1.976,2.3847 -4.3911,4.3637 -4.3386,3.5552 -4.4293,3.5791 -7.5907,2.002 -4.7534,-2.3713 -12.4402,-1.3909 -15.8572,2.0224 -2.6564,2.6536 -2.6619,2.6912 -3.161,21.8883 l -0.5,19.2301 -5.5397,0.2936 c -3.0468,0.1615 -5.8593,-0.026 -6.25,-0.4166 z"
           style="fill:#ffffff;fill-opacity:1"
           sodipodi:nodetypes="ccsscsscssssccccscsscsccsscccccsssccccsccccccscccccccccccccccccccccsccsscccscsscccccsscscccssccsscccsccccssssscscsssccccsssssccccscsccccssccscsscscsccccscccscsscsccsccsscsccssccscccssscccccccccsssccsscccccccccccccscscccsccsssccssscsscssscscccscsscscccsscscccsscscsssscccsscccccsscscsssccccssssccsscsscccsscscssscssscscsscscccsscscccsscscssscsccsscsscccsccccccccccsccssssccccccccccccsccscsscsccccccccccccccccccssccccssssccscsccsscsssssccccsccsscccsscsccccccscssssssscsscssccscscccccscssccccsscscscccccccssccccccccccccccssccccccccssscccsccccccccscsccscsscsccssscscsc" />
      </g>
    </g>
  </g>
</svg>
