<?xml version="1.0" encoding="UTF-8" standalone="no"?>
<!-- Created with Inkscape (http://www.inkscape.org/) -->

<svg
   xmlns:dc="http://purl.org/dc/elements/1.1/"
   xmlns:cc="http://creativecommons.org/ns#"
   xmlns:rdf="http://www.w3.org/1999/02/22-rdf-syntax-ns#"
   xmlns:svg="http://www.w3.org/2000/svg"
   xmlns="http://www.w3.org/2000/svg"
   xmlns:sodipodi="http://sodipodi.sourceforge.net/DTD/sodipodi-0.dtd"
   xmlns:inkscape="http://www.inkscape.org/namespaces/inkscape"
   height="162.53078mm"
   width="285.22137mm"
   viewBox="0 0 1010.6269 575.89645"
   id="svg3407"
   version="1.1"
   inkscape:version="0.92.1 r15371"
   sodipodi:docname="guvenli-sistem-yaklasimi.svg"
   inkscape:export-filename="/home/hsevay/Dropbox/workspace2/trakayad/outgoing/trafik-guvenligi-komitesi/sunumlar/trafik-guvenligi-komitesi-basin-bilgilendirme-sunumu.24tem2017/images/guvenli-sistem-yaklasimi.png"
   inkscape:export-xdpi="90"
   inkscape:export-ydpi="90">
  <defs
     id="defs3413" />
  <sodipodi:namedview
     pagecolor="#ffffff"
     bordercolor="#666666"
     borderopacity="1"
     objecttolerance="10"
     gridtolerance="10"
     guidetolerance="10"
     inkscape:pageopacity="0"
     inkscape:pageshadow="2"
     inkscape:window-width="1920"
     inkscape:window-height="1053"
     id="namedview3411"
     showgrid="false"
     inkscape:zoom="1.1508998"
     inkscape:cx="543.67192"
     inkscape:cy="229.37237"
     inkscape:window-x="0"
     inkscape:window-y="27"
     inkscape:window-maximized="1"
     inkscape:current-layer="layer3"
     fit-margin-top="0"
     fit-margin-left="0"
     fit-margin-right="0"
     fit-margin-bottom="0" />
  <metadata
     id="metadata3409">
    <rdf:RDF>
      <cc:Work
         rdf:about="">
        <dc:format>image/svg+xml</dc:format>
        <dc:type
           rdf:resource="http://purl.org/dc/dcmitype/StillImage" />
        <dc:title></dc:title>
      </cc:Work>
    </rdf:RDF>
  </metadata>
  <style
     id="style3551">.st0{fill:#0091DA;} .st1{fill:#FFFFFF;} .st2{fill:none;stroke:#FFFFFF;stroke-width:2.171;stroke-linecap:round;stroke-miterlimit:10;} .st3{fill:none;stroke:#0091DA;stroke-width:2.171;stroke-linecap:round;stroke-miterlimit:10;} .st4{fill:none;stroke:#0091DA;stroke-width:3;stroke-linecap:round;stroke-miterlimit:10;}</style>
  <style
     id="style3587">.st0{fill:none;stroke:#0091DA;stroke-width:2.467;stroke-linecap:round;stroke-miterlimit:10;} .st1{fill:none;stroke:#FFFFFF;stroke-width:2.467;stroke-linecap:round;stroke-miterlimit:10;} .st2{fill:none;stroke:#FFFFFF;stroke-width:2.467;stroke-linecap:round;stroke-miterlimit:10;stroke-dasharray:2.965,7.905;} .st3{fill:none;stroke:#0091DA;stroke-width:3;stroke-linecap:round;stroke-miterlimit:10;}</style>
  <style
     id="style3617">.st0{enable-background:new ;} .st1{fill:#FFFFFF;} .st2{fill:none;stroke:#0091DA;stroke-width:3;stroke-linecap:round;stroke-miterlimit:10;}</style>
  <style
     id="style3635">.st0{fill:#0091DA;} .st1{fill:#FFFFFF;} .st2{fill:none;stroke:#0091DA;stroke-width:3;stroke-linecap:round;stroke-miterlimit:10;}</style>
  <g
     inkscape:groupmode="layer"
     id="layer1"
     inkscape:label="Background"
     transform="translate(45.789062,0.39648444)"
     style="display:inline">
    <path
       sodipodi:type="inkscape:offset"
       inkscape:radius="39.445312"
       inkscape:original="M -5.40625 39.986328 L -5.40625 535.11719 L 924.45508 535.11719 L 924.45508 39.986328 L -5.40625 39.986328 z "
       style="opacity:1;fill:#e6e6e6;fill-opacity:1;fill-rule:evenodd;stroke:#4d4d4d;stroke-width:1.87499995;stroke-linecap:butt;stroke-miterlimit:4;stroke-dasharray:none;stroke-dashoffset:0;stroke-opacity:1"
       id="path3983"
       d="M -5.40625,0.54101562 A 39.449257,39.449257 0 0 0 -44.851562,39.986328 V 535.11719 A 39.449257,39.449257 0 0 0 -5.40625,574.5625 h 929.86133 a 39.449257,39.449257 0 0 0 39.44531,-39.44531 V 39.986328 A 39.449257,39.449257 0 0 0 924.45508,0.54101562 Z" />
  </g>
  <g
     inkscape:groupmode="layer"
     id="layer2"
     inkscape:label="Logos"
     style="display:inline"
     transform="translate(45.789062,0.39648444)" />
  <g
     inkscape:groupmode="layer"
     id="layer3"
     inkscape:label="Lettering"
     transform="translate(45.789062,0.39648444)"
     style="display:inline">
    <rect
       y="493.22931"
       x="131.32611"
       height="44.032894"
       width="161.39877"
       id="rect1329"
       style="display:inline;opacity:1;fill:#ffb380;fill-opacity:1;stroke:none;stroke-width:1.72247958;stroke-miterlimit:4;stroke-dasharray:none;stroke-dashoffset:0;stroke-opacity:1" />
    <text
       id="text3373"
       y="527.28619"
       x="-7.9268665"
       style="font-style:normal;font-variant:normal;font-weight:bold;font-stretch:normal;line-height:0%;font-family:'Gravur Condensed CE';-inkscape-font-specification:'Gravur Condensed CE Bold';letter-spacing:0px;word-spacing:0px;fill:#055077;fill-opacity:1;stroke:none;stroke-width:1px;stroke-linecap:butt;stroke-linejoin:miter;stroke-opacity:1"
       xml:space="preserve"><tspan
         style="font-size:40px;line-height:1.25;fill:#055077;fill-opacity:1"
         y="527.28619"
         x="-7.9268665"
         id="tspan3375"
         sodipodi:role="line">GÜVENLİ ARAÇLAR</tspan></text>
    <rect
       style="display:inline;opacity:1;fill:#ffb380;fill-opacity:1;stroke:none;stroke-width:1.58200431;stroke-miterlimit:4;stroke-dasharray:none;stroke-dashoffset:0;stroke-opacity:1"
       id="rect1322"
       width="136.14679"
       height="44.032894"
       x="154.94894"
       y="37.87907" />
    <text
       id="text3393"
       y="74.868584"
       x="17.620008"
       style="font-style:normal;font-variant:normal;font-weight:bold;font-stretch:normal;line-height:0%;font-family:'Gravur Condensed CE';-inkscape-font-specification:'Gravur Condensed CE Bold';letter-spacing:0px;word-spacing:0px;fill:#055077;fill-opacity:1;stroke:none;stroke-width:1px;stroke-linecap:butt;stroke-linejoin:miter;stroke-opacity:1"
       xml:space="preserve"><tspan
         style="font-size:40px;line-height:1.25;fill:#055077;fill-opacity:1"
         y="74.868584"
         x="17.620008"
         id="tspan3395"
         sodipodi:role="line">GÜVENLİ YOLLAR</tspan></text>
    <text
       id="text3405"
       y="74.868584"
       x="623.30371"
       style="font-style:normal;font-variant:normal;font-weight:bold;font-stretch:normal;line-height:0%;font-family:'Gravur Condensed CE';-inkscape-font-specification:'Gravur Condensed CE Bold';letter-spacing:0px;word-spacing:0px;fill:#004d74;fill-opacity:1;stroke:none;stroke-width:1px;stroke-linecap:butt;stroke-linejoin:miter;stroke-opacity:1"
       xml:space="preserve"><tspan
         style="font-size:40px;line-height:1.25;fill:#004d74;fill-opacity:1"
         y="74.868584"
         x="623.30371"
         id="tspan3407"
         sodipodi:role="line">GÜVENLİ HIZLAR</tspan></text>
    <g
       id="g3463"
       transform="translate(275.55165,164.03138)"
       style="stroke:#004d74;stroke-opacity:1">
      <path
         id="path3381"
         d="m -53.055717,-20.149159 12.45974,-31.807795 m 29.477922,31.807795 -12.45974,-31.807795"
         class="st0"
         inkscape:connector-curvature="0"
         style="fill:none;stroke:#004d74;stroke-width:2.81250024;stroke-linecap:round;stroke-miterlimit:10;stroke-dasharray:none;stroke-opacity:1" />
      <path
         id="path3383"
         d="m -32.188184,-18.933575 v -1.519481"
         class="st1"
         inkscape:connector-curvature="0"
         style="fill:none;stroke:#004d74;stroke-width:2.49903917;stroke-linecap:round;stroke-miterlimit:10;stroke-opacity:1" />
      <path
         id="path3385"
         d="M -32.188184,-28.455654 V -46.385525"
         class="st2"
         inkscape:connector-curvature="0"
         style="fill:none;stroke:#004d74;stroke-width:2.49903917;stroke-linecap:round;stroke-miterlimit:10;stroke-dasharray:3.0035066, 8.00766263;stroke-opacity:1" />
      <path
         id="path3387"
         d="m -32.188184,-50.437474 v -1.51948"
         class="st1"
         inkscape:connector-curvature="0"
         style="fill:none;stroke:#004d74;stroke-width:2.49903917;stroke-linecap:round;stroke-miterlimit:10;stroke-opacity:1" />
      <g
         transform="matrix(1.012987,0,0,1.0129871,-72.201171,-73.736177)"
         id="g3389"
         style="stroke:#004d74;stroke-opacity:1">
        <path
           id="path3391"
           d="m 35.5,1.5 c -19,1.5 -34,17.4 -34,36.9 0,19.4 15,35.3 34,36.9 m 6,-0.1 c 19,-1.5 34,-17.4 34,-36.9 0,-19.4 -15,-35.3 -34,-36.9"
           class="st3"
           inkscape:connector-curvature="0"
           style="fill:none;stroke:#004d74;stroke-width:3;stroke-linecap:round;stroke-miterlimit:10;stroke-opacity:1" />
      </g>
    </g>
    <path
       style="fill:#004d74;fill-opacity:1;stroke:#004d74;stroke-width:1.01298702;stroke-opacity:1;enable-background:new"
       inkscape:connector-curvature="0"
       class="st0 st1"
       d="m 654.59207,145.70559 h -0.91169 c -3.95064,0 -7.1922,-3.14026 -7.1922,-7.1922 0,-0.7091 0.60779,-1.21559 1.21558,-1.21559 0.60779,0 1.11429,0.4052 1.11429,1.21559 0,2.73506 2.22857,4.96363 4.86233,4.96363 h 0.91169 c 2.73507,0 4.86234,-2.22857 4.86234,-4.96363 v -3.54546 c 0,-5.16623 -2.12727,-5.87532 -6.38182,-5.87532 -0.81039,0 -1.21558,-0.6078 -1.21558,-1.21559 0,-0.60779 0.40519,-1.21558 1.21558,-1.21558 3.03896,0 6.38182,-0.1013 6.38182,-5.77403 v -1.21558 c 0,-3.14026 -2.53247,-4.86234 -4.96364,-4.86234 -2.63376,0 -5.26753,1.51948 -5.26753,4.76104 0,0.81039 -0.60779,1.21558 -1.11428,1.21558 -0.6078,0 -1.21559,-0.40519 -1.21559,-1.21558 0,-4.86234 3.84935,-7.09091 7.5974,-7.09091 3.64676,0 7.29351,2.43117 7.29351,7.09091 v 1.21558 c 0,3.84935 -1.41818,5.87533 -3.14026,6.98961 1.92468,1.21559 3.14026,3.24156 3.14026,7.09091 v 3.54546 c 0,4.05194 -3.24156,7.2935 -7.19221,7.2935 z m 21.37403,0 h -0.60779 c -3.95065,0 -7.19221,-3.14026 -7.19221,-7.1922 v -18.74026 c 0,-3.95065 3.24156,-7.19221 7.19221,-7.19221 h 0.60779 c 3.95065,0 7.19221,3.24156 7.19221,7.19221 v 18.74026 c 0.10129,3.95064 -3.24156,7.1922 -7.19221,7.1922 z m 4.96363,-26.03376 c 0,-2.73507 -2.22857,-4.86234 -4.86233,-4.86234 h -0.6078 c -2.73506,0 -4.86233,2.12727 -4.86233,4.86234 v 18.74026 c 0,2.73506 2.22857,4.96363 4.86233,4.96363 h 0.6078 c 2.73506,0 4.86233,-2.22857 4.86233,-4.96363 z"
       id="path3401" />
    <path
       style="fill:none;stroke:#004d74;stroke-width:3.03896093;stroke-linecap:round;stroke-miterlimit:10;stroke-opacity:1"
       inkscape:connector-curvature="0"
       class="st2"
       d="m 661.78428,91.814685 c -19.24675,1.51948 -34.44156,17.625975 -34.44156,37.379225 0,19.65194 15.19481,35.75844 34.44156,37.37922 m 6.07792,-0.1013 c 19.24676,-1.51948 34.44156,-17.62598 34.44156,-37.37922 0,-19.65195 -15.1948,-35.758445 -34.44156,-37.379224"
       id="path3403" />
    <g
       id="g943"
       transform="matrix(1.1494967,0,0,1.1494967,-36.463478,-65.658086)">
      <path
         style="fill:#055077;fill-opacity:1;stroke:#004d74;stroke-opacity:1"
         inkscape:connector-curvature="0"
         class="st0"
         d="m 250.55566,423.35671 c 2.32987,0 3.54546,1.31689 4.15325,2.73507 l 2.73507,7.09091 c 0.20259,0.40519 0.50649,0.70909 0.81039,0.81039 1.21558,0.40519 2.73506,1.82337 2.73506,4.05194 v 8.5091 c 0,0.81039 -0.70909,1.51948 -1.51948,1.51948 -0.81039,0 -1.51948,0.70909 -1.51948,1.51948 v 1.72208 c 0,1.92467 -1.41818,2.93766 -2.73507,2.93766 -1.41818,0 -2.83636,-1.01299 -2.83636,-2.93766 v -1.72208 c 0,-0.81039 -0.70909,-1.51948 -1.51948,-1.51948 h -17.01818 c -0.81039,0 -1.51948,0.70909 -1.51948,1.51948 v 1.72208 c 0,1.92467 -1.41818,2.93766 -2.73507,2.93766 -1.41818,0 -2.73506,-1.01299 -2.73506,-2.93766 v -1.72208 c 0,-0.81039 -0.70909,-1.51948 -1.51948,-1.51948 -0.81039,0 -1.51948,-0.70909 -1.51948,-1.51948 v -8.5091 c 0,-2.32987 1.51948,-3.64675 2.73506,-4.05194 0.4052,-0.1013 0.70909,-0.4052 0.81039,-0.81039 l 2.73507,-7.09091 c 0.60779,-1.51948 1.82337,-2.73507 4.15324,-2.73507 h 16.30909 m 0,-2.02597 h -15.90389 c -2.83637,0 -5.06494,1.51948 -5.97663,4.05195 l -2.73506,6.98961 c -1.92468,0.81039 -3.84935,2.93766 -3.84935,5.87532 v 8.50909 c 0,1.72208 1.31688,3.14026 2.93766,3.44416 v 1.21558 c 0,1.41819 0.5065,2.63377 1.41818,3.54546 0.91169,0.91169 2.12728,1.41818 3.34286,1.41818 1.21559,0 2.43117,-0.40519 3.24156,-1.31688 1.01299,-0.91169 1.51948,-2.22857 1.51948,-3.64676 v -1.21558 h 16.00519 v 1.21558 c 0,3.24156 2.43117,4.96364 4.76104,4.96364 2.32987,0 4.76104,-1.72208 4.76104,-4.96364 v -1.21558 c 1.72208,-0.3039 2.93766,-1.72208 2.93766,-3.44416 v -8.50909 c 0,-2.93766 -1.92467,-5.06493 -3.84935,-5.87532 l -2.63376,-6.88832 c -1.01299,-2.63376 -3.14026,-4.15324 -5.97663,-4.15324 z"
         id="path3363" />
      <path
         style="fill:#055077;fill-opacity:1;stroke:#004d74;stroke-opacity:1"
         inkscape:connector-curvature="0"
         class="st1"
         d="m 229.89073,442.19827 c -1.41818,0 -2.53247,-1.21558 -2.53247,-2.63376 0,-1.41819 1.11429,-2.63377 2.53247,-2.63377 1.41818,0 2.53247,1.21558 2.53247,2.63377 0,1.41818 -1.11429,2.63376 -2.53247,2.63376 m 25.32467,0 c -1.41818,0 -2.53246,-1.21558 -2.63376,-2.63376 0,-1.41819 1.11428,-2.63377 2.63376,-2.63377 1.41819,0 2.53247,1.21558 2.53247,2.63377 0,1.41818 -1.11428,2.63376 -2.53247,2.63376"
         id="path3365" />
      <path
         style="fill:#055077;fill-opacity:1;stroke:#004d74;stroke-opacity:1"
         inkscape:connector-curvature="0"
         class="st0"
         d="m 242.55307,433.48658 h -10.83896 l 2.02597,-5.57143 c 0.2026,-0.81039 0.60779,-1.31688 1.51948,-1.41818 h 14.38442 c 0.91168,0 1.31688,0.60779 1.51948,1.41818 l 2.02597,5.57143 z"
         id="path3367" />
    </g>
    <path
       style="fill:none;stroke:#004d74;stroke-width:3.03896117;stroke-linecap:round;stroke-miterlimit:10;stroke-opacity:1"
       inkscape:connector-curvature="0"
       class="st2"
       d="m 239.31151,401.47619 c -19.24675,1.51948 -34.44156,17.62598 -34.44156,37.37922 0,19.65195 15.19481,35.75845 34.44156,37.37923 m 6.07792,-0.1013 c 19.24675,-1.51948 34.44156,-17.62598 34.44156,-37.37922 0,-19.65195 -15.19481,-35.75845 -34.44156,-37.37923"
       id="path3371" />
    <g
       id="g3484"
       transform="translate(870.07638,-201.07127)"
       style="stroke:#004d74;stroke-opacity:1">
      <g
         style="display:inline;stroke:#004d74;stroke-opacity:1"
         id="g3411"
         transform="matrix(1.012987,0,0,1.0129871,-244.2531,601.02798)">
        <path
           id="path3413"
           d="m 39.4,36.4 c 3.8,0 7,-3.1 7,-7 0,-3.8 -3.1,-7 -7,-7 -3.8,0 -7,3.1 -7,7 0.1,3.9 3.2,7 7,7"
           class="st0"
           inkscape:connector-curvature="0"
           style="fill:#055077;fill-opacity:1;stroke:#004d74;stroke-opacity:1" />
        <path
           id="path3415"
           d="m 54.8,30.5 c 2,0 3.6,-1.6 3.6,-3.6 0,-2 -1.6,-3.6 -3.6,-3.6 -2,0 -3.6,1.6 -3.6,3.6 0,2 1.6,3.6 3.6,3.6"
           class="st1"
           inkscape:connector-curvature="0"
           style="fill:#055077;fill-opacity:1;stroke:#004d74;stroke-opacity:1" />
        <path
           id="path3417"
           d="m 62.8,42.5 c 0,-4.4 -3.6,-8 -8,-8 -4.4,0 -8,3.6 -8,8"
           class="st2"
           inkscape:connector-curvature="0"
           style="fill:none;stroke:#004d74;stroke-width:3.23918271;stroke-linecap:round;stroke-miterlimit:10;stroke-dasharray:none;stroke-opacity:1" />
        <path
           id="path3419"
           d="m 24.1,30.5 c 2,0 3.6,-1.6 3.6,-3.6 0,-2 -1.6,-3.6 -3.6,-3.6 -2,0 -3.6,1.6 -3.6,3.6 0,2 1.6,3.6 3.6,3.6"
           class="st1"
           inkscape:connector-curvature="0"
           style="fill:#055077;fill-opacity:1;stroke:#004d74;stroke-opacity:1" />
        <path
           id="path3421"
           d="m 32.1,42.5 c 0,-4.4 -3.6,-8 -8,-8 -4.4,0 -8,3.6 -8,8"
           class="st2"
           inkscape:connector-curvature="0"
           style="fill:none;stroke:#004d74;stroke-width:3.23918271;stroke-linecap:round;stroke-miterlimit:10;stroke-dasharray:none;stroke-opacity:1" />
        <path
           id="path3423"
           d="m 52.2,53.4 c 0,-7 -5.7,-12.7 -12.7,-12.7 -7,0 -12.7,5.7 -12.7,12.7"
           class="st3"
           inkscape:connector-curvature="0"
           style="fill:none;stroke:#004d74;stroke-width:3.23918271;stroke-linecap:round;stroke-miterlimit:10;stroke-dasharray:none;stroke-opacity:1" />
        <g
           id="g3425"
           style="stroke:#004d74;stroke-opacity:1">
          <path
             id="path3427"
             d="m 35.5,1.5 c -19,1.5 -34,17.4 -34,36.9 0,19.4 15,35.3 34,36.9 m 6,-0.1 c 19,-1.5 34,-17.4 34,-36.9 0,-19.4 -15,-35.3 -34,-36.9"
             class="st4"
             inkscape:connector-curvature="0"
             style="fill:none;stroke:#004d74;stroke-width:3;stroke-linecap:round;stroke-miterlimit:10;stroke-opacity:1" />
        </g>
      </g>
    </g>
    <rect
       style="display:inline;opacity:1;fill:#ffb380;fill-opacity:1;stroke:none;stroke-width:1.76964724;stroke-miterlimit:4;stroke-dasharray:none;stroke-dashoffset:0;stroke-opacity:1"
       id="rect1327"
       width="170.35915"
       height="44.032894"
       x="761.81104"
       y="493.22931" />
    <text
       id="text3429"
       y="531.10455"
       x="623.30371"
       style="font-style:normal;font-variant:normal;font-weight:bold;font-stretch:normal;line-height:0%;font-family:'Gravur Condensed CE';-inkscape-font-specification:'Gravur Condensed CE Bold';letter-spacing:0px;word-spacing:0px;fill:#055077;fill-opacity:1;stroke:none;stroke-width:1px;stroke-linecap:butt;stroke-linejoin:miter;stroke-opacity:1"
       xml:space="preserve"><tspan
         style="font-size:40px;line-height:1.25;fill:#055077;fill-opacity:1"
         y="531.10455"
         x="623.30371"
         id="tspan3431"
         sodipodi:role="line">GÜVENLİ İNSANLAR</tspan></text>
    <path
       style="opacity:1;fill:#055077;fill-opacity:1;fill-rule:evenodd;stroke:none;stroke-width:0.1;stroke-linecap:butt;stroke-miterlimit:4;stroke-dasharray:none;stroke-dashoffset:0;stroke-opacity:1"
       d="M 440.00898,93.769792 A 193.78277,194.78045 0 0 0 265.74246,287.55017 193.78277,194.78045 0 0 0 440.00898,481.1354 V 425.02097 A 138.31845,139.03057 0 0 1 321.20627,287.55017 138.31845,139.03057 0 0 1 440.00898,150.05735 Z m 39.03097,0.198341 V 150.08257 A 138.31845,139.03057 0 0 1 597.84266,287.55022 138.31845,139.03057 0 0 1 479.03995,425.04618 v 56.28757 A 193.78277,194.78045 0 0 0 653.30646,287.55022 193.78277,194.78045 0 0 0 479.03995,93.968133 Z"
       id="path3598-3"
       inkscape:connector-curvature="0" />
    <text
       xml:space="preserve"
       style="font-style:normal;font-weight:normal;line-height:0%;font-family:sans-serif;letter-spacing:0px;word-spacing:0px;fill:#4d4d4d;fill-opacity:1;stroke:none;stroke-width:1px;stroke-linecap:butt;stroke-linejoin:miter;stroke-opacity:1"
       x="347.27231"
       y="326.00024"
       id="text3175"><tspan
         sodipodi:role="line"
         id="tspan3177"
         x="347.27231"
         y="326.00024"
         style="font-style:normal;font-variant:normal;font-weight:bold;font-stretch:normal;font-size:111.13967133px;line-height:125%;font-family:'Gravur Condensed CE';-inkscape-font-specification:'Gravur Condensed CE, Bold';text-align:start;writing-mode:lr-tb;text-anchor:start;fill:#4d4d4d">SIFIR</tspan></text>
  </g>
</svg>
