<?xml version="1.0" encoding="UTF-8" standalone="no"?>
<!-- Created with Inkscape (http://www.inkscape.org/) -->

<svg
   xmlns:dc="http://purl.org/dc/elements/1.1/"
   xmlns:cc="http://creativecommons.org/ns#"
   xmlns:rdf="http://www.w3.org/1999/02/22-rdf-syntax-ns#"
   xmlns:svg="http://www.w3.org/2000/svg"
   xmlns="http://www.w3.org/2000/svg"
   xmlns:sodipodi="http://sodipodi.sourceforge.net/DTD/sodipodi-0.dtd"
   xmlns:inkscape="http://www.inkscape.org/namespaces/inkscape"
   id="svg2"
   version="1.1"
   inkscape:version="0.92.0 unknown"
   width="977.3714"
   height="376.53333"
   viewBox="0 0 916.2857 353"
   sodipodi:docname="hiz-yaya-carpisma-yasam-sansi-mph.svg"
   inkscape:export-filename="/home/hsevay/Pictures/hiz-yaya-carpisma-yasam-sansi-mph.png"
   inkscape:export-xdpi="90"
   inkscape:export-ydpi="90">
  <metadata
     id="metadata8">
    <rdf:RDF>
      <cc:Work
         rdf:about="">
        <dc:format>image/svg+xml</dc:format>
        <dc:type
           rdf:resource="http://purl.org/dc/dcmitype/StillImage" />
        <dc:title />
      </cc:Work>
    </rdf:RDF>
  </metadata>
  <defs
     id="defs6" />
  <sodipodi:namedview
     pagecolor="#ffffff"
     bordercolor="#666666"
     borderopacity="1"
     objecttolerance="10"
     gridtolerance="10"
     guidetolerance="10"
     inkscape:pageopacity="0"
     inkscape:pageshadow="2"
     inkscape:window-width="1920"
     inkscape:window-height="1056"
     id="namedview4"
     showgrid="false"
     inkscape:zoom="1.0669257"
     inkscape:cx="497.37352"
     inkscape:cy="139.08026"
     inkscape:window-x="0"
     inkscape:window-y="24"
     inkscape:window-maximized="1"
     inkscape:current-layer="svg2"
     fit-margin-top="0"
     fit-margin-left="0"
     fit-margin-right="0"
     fit-margin-bottom="0" />
  <g
     id="g5157"
     transform="translate(50.238163,456.36484)">
    <rect
       y="-454.86484"
       x="-48.738163"
       height="350"
       width="300"
       id="rect4888"
       style="opacity:1;fill:#ffffff;fill-opacity:1;stroke:#000000;stroke-width:3;stroke-miterlimit:4;stroke-dasharray:none;stroke-opacity:1" />
    <g
       transform="translate(-3.585187,-13.938675)"
       id="g4761">
      <text
         xml:space="preserve"
         style="font-style:normal;font-weight:normal;font-size:40px;line-height:125%;font-family:sans-serif;letter-spacing:0px;word-spacing:0px;fill:#000000;fill-opacity:1;stroke:none;stroke-width:1px;stroke-linecap:butt;stroke-linejoin:miter;stroke-opacity:1"
         x="36.723976"
         y="-319.03159"
         id="text4138"><tspan
           sodipodi:role="line"
           x="36.723976"
           y="-319.03159"
           id="tspan4142"
           style="font-style:normal;font-variant:normal;font-weight:bold;font-stretch:normal;font-size:125px;font-family:'DIN Pro';-inkscape-font-specification:'DIN Pro Bold'">20</tspan></text>
      <text
         id="text4144"
         y="-261.38934"
         x="41.289211"
         style="font-style:normal;font-weight:normal;font-size:40px;line-height:125%;font-family:sans-serif;letter-spacing:0px;word-spacing:0px;fill:#000000;fill-opacity:1;stroke:none;stroke-width:1px;stroke-linecap:butt;stroke-linejoin:miter;stroke-opacity:1"
         xml:space="preserve"><tspan
           style="font-style:normal;font-variant:normal;font-weight:bold;font-stretch:normal;font-size:60px;font-family:'DIN Pro';-inkscape-font-specification:'DIN Pro Bold'"
           id="tspan4148"
           y="-261.38934"
           x="41.289211"
           sodipodi:role="line">MPH</tspan></text>
      <text
         xml:space="preserve"
         style="font-style:normal;font-weight:normal;font-size:40px;line-height:125%;font-family:sans-serif;letter-spacing:0px;word-spacing:0px;fill:#000000;fill-opacity:1;stroke:none;stroke-width:1px;stroke-linecap:butt;stroke-linejoin:miter;stroke-opacity:1"
         x="104.07375"
         y="-228.58478"
         id="text4154"><tspan
           sodipodi:role="line"
           x="104.07375"
           y="-228.58478"
           id="tspan4156"
           style="font-style:normal;font-variant:normal;font-weight:bold;font-stretch:normal;font-size:20px;font-family:'DIN Pro';-inkscape-font-specification:'DIN Pro Bold';text-align:center;text-anchor:middle">HIZINDA İLERLEYEN</tspan><tspan
           sodipodi:role="line"
           x="104.07375"
           y="-173.96381"
           style="font-style:normal;font-variant:normal;font-weight:bold;font-stretch:normal;font-size:20px;font-family:'DIN Pro';-inkscape-font-specification:'DIN Pro Bold';text-align:center;text-anchor:middle"
           id="tspan4158">BİR ARAÇ ÇARPTIĞINDA</tspan></text>
      <text
         id="text4160"
         y="-126.89074"
         x="103.8278"
         style="font-style:normal;font-weight:normal;font-size:40px;line-height:125%;font-family:sans-serif;letter-spacing:0px;word-spacing:0px;fill:#000000;fill-opacity:1;stroke:none;stroke-width:1px;stroke-linecap:butt;stroke-linejoin:miter;stroke-opacity:1"
         xml:space="preserve"><tspan
           id="tspan4164"
           style="font-style:normal;font-variant:normal;font-weight:bold;font-stretch:normal;font-size:20px;font-family:'DIN Pro';-inkscape-font-specification:'DIN Pro Bold';text-align:center;text-anchor:middle"
           y="-126.89074"
           x="103.8278"
           sodipodi:role="line">10 yayadan 9'u kurtulur</tspan></text>
      <g
         id="g4313"
         transform="matrix(0.875,0,0,0.875,192.81364,-524.09541)">
        <g
           id="g190"
           style="fill:#2090cf;fill-opacity:1"
           transform="matrix(0.80808081,0,0,0.80808081,-450.25826,374.16589)">
          <path
             style="fill:#2090cf;fill-opacity:1"
             id="path192"
             d="m 584.5,58.7 c 0,0 1,2.4 -1,3.2 -2,0.8 -3,-1.1 -3,-1.1 l -7.7,-17.6 c 0,0 -4.4,5.1 -4.5,5.7 -0.1,0.7 -1.5,11 -1.5,11 0,0 -0.2,2.5 -2.1,2.5 -1.8,0 -2.2,-2.2 -2.2,-2.2 0,0 1.3,-12 1.5,-13 0.2,-1 5.5,-7.6 5.5,-7.6 l -3,-11.5 c 0,0 -1.7,5.1 -2.3,5.5 -0.7,0.5 -6.8,2.3 -6.8,2.3 0,0 -4.3,1.3 -4.6,-0.1 -0.3,-1.4 1.7,-2.4 1.7,-2.4 0,0 7.5,-2.9 7.8,-3.1 0.3,-0.2 1.8,-6.7 2.3,-7.1 0.5,-0.5 4.4,-2.4 5.5,-2.3 1.1,0.1 9.5,3.2 10.2,4 0.7,0.8 5.1,7.2 5.1,7.2 0,0 1.4,2.5 0.2,3.2 -1.2,0.7 -3.6,-2.8 -3.6,-2.8 l -3.7,-4.6 -4.9,-2.4 c 0,0 3.4,8.6 3.4,9.3 0,0.7 -0.1,1.7 -0.2,2.2 -0.1,0.5 -1.1,1.8 -1.1,1.8 z"
             inkscape:connector-curvature="0" />
          <path
             style="fill:#2090cf;fill-opacity:1"
             id="path194"
             d="m 561.3,17.8 c 0,2.1 1.7,3.8 3.8,3.8 2.1,0 3.8,-1.7 3.8,-3.8 0,-2.1 -1.7,-3.8 -3.8,-3.8 -2.1,0 -3.8,1.7 -3.8,3.8"
             inkscape:connector-curvature="0" />
        </g>
        <g
           id="g196"
           style="fill:#ef4637"
           transform="matrix(0.80808081,0,0,0.80808081,-450.25826,374.16589)">
          <circle
             id="circle198"
             r="4"
             cx="607.5"
             cy="17.5" />
          <path
             id="path200"
             d="m 602.8,60.7 c 0,1.2 1,2.3 2.3,2.3 1.3,0 2.3,-1 2.3,-2.3 v -19 h 1 v 19 c 0,1.2 1,2.3 2.3,2.3 1.3,0 2.3,-1 2.3,-2.3 V 28 h 1 v 12 c 0,2.4 3.2,2.4 3.2,0 V 27.7 c 0,-2.7 -1.6,-5.3 -4.7,-5.3 h -9 c -2.9,0 -4.6,2.3 -4.6,5.2 V 40 c 0,2.4 3.2,2.4 3.2,0 V 28 h 1 z"
             inkscape:connector-curvature="0" />
        </g>
        <g
           id="g202"
           style="fill:#2090cf;fill-opacity:1"
           transform="matrix(0.80808081,0,0,0.80808081,-450.25826,374.16589)">
          <path
             style="fill:#2090cf;fill-opacity:1"
             id="path204"
             d="m 546.5,58.7 c 0,0 1,2.4 -1,3.2 -2,0.8 -3,-1.1 -3,-1.1 l -7.7,-17.6 c 0,0 -4.4,5.1 -4.5,5.7 -0.1,0.7 -1.5,11 -1.5,11 0,0 -0.2,2.5 -2.1,2.5 -1.8,0 -2.2,-2.2 -2.2,-2.2 0,0 1.3,-12 1.5,-13 0.2,-1 5.5,-7.6 5.5,-7.6 l -3,-11.5 c 0,0 -1.7,5.1 -2.3,5.5 -0.7,0.5 -6.8,2.3 -6.8,2.3 0,0 -4.3,1.3 -4.6,-0.1 -0.3,-1.4 1.7,-2.4 1.7,-2.4 0,0 7.5,-2.9 7.8,-3.1 0.3,-0.2 1.8,-6.7 2.3,-7.1 0.5,-0.5 4.4,-2.4 5.5,-2.3 1.1,0.1 9.5,3.2 10.2,4 0.7,0.8 5.1,7.2 5.1,7.2 0,0 1.4,2.5 0.2,3.2 -1.2,0.7 -3.6,-2.8 -3.6,-2.8 l -3.7,-4.6 -4.9,-2.4 c 0,0 3.4,8.6 3.4,9.3 0,0.7 -0.1,1.7 -0.2,2.2 -0.1,0.5 -1.1,1.8 -1.1,1.8 z"
             inkscape:connector-curvature="0" />
          <path
             style="fill:#2090cf;fill-opacity:1"
             id="path206"
             d="m 523.2,17.8 c 0,2.1 1.7,3.8 3.8,3.8 2.1,0 3.8,-1.7 3.8,-3.8 0,-2.1 -1.7,-3.8 -3.8,-3.8 -2.1,0 -3.8,1.7 -3.8,3.8"
             inkscape:connector-curvature="0" />
        </g>
        <g
           id="g208"
           style="fill:#2090cf;fill-opacity:1"
           transform="matrix(0.80808081,0,0,0.80808081,-450.25826,374.16589)">
          <path
             style="fill:#2090cf;fill-opacity:1"
             id="path210"
             d="m 508.4,58.7 c 0,0 1,2.4 -1,3.2 -2,0.8 -3,-1.1 -3,-1.1 l -7.7,-17.6 c 0,0 -4.4,5.1 -4.5,5.7 -0.1,0.7 -1.5,11 -1.5,11 0,0 -0.2,2.5 -2.1,2.5 -1.8,0 -2.2,-2.2 -2.2,-2.2 0,0 1.3,-12 1.5,-13 0.2,-1 5.5,-7.6 5.5,-7.6 l -3,-11.5 c 0,0 -1.7,5.1 -2.3,5.5 -0.7,0.5 -6.8,2.3 -6.8,2.3 0,0 -4.3,1.3 -4.6,-0.1 -0.3,-1.4 1.7,-2.4 1.7,-2.4 0,0 7.5,-2.9 7.8,-3.1 0.3,-0.2 1.8,-6.7 2.3,-7.1 0.5,-0.5 4.4,-2.4 5.5,-2.3 1.1,0.1 9.5,3.2 10.2,4 0.7,0.8 5.1,7.2 5.1,7.2 0,0 1.4,2.5 0.2,3.2 -1.2,0.7 -3.6,-2.8 -3.6,-2.8 l -3.7,-4.6 -4.9,-2.4 c 0,0 3.4,8.6 3.4,9.3 0,0.7 -0.1,1.7 -0.2,2.2 -0.1,0.5 -1.1,1.8 -1.1,1.8 z"
             inkscape:connector-curvature="0" />
          <path
             style="fill:#2090cf;fill-opacity:1"
             id="path212"
             d="m 485.2,17.8 c 0,2.1 1.7,3.8 3.8,3.8 2.1,0 3.8,-1.7 3.8,-3.8 0,-2.1 -1.7,-3.8 -3.8,-3.8 -2.1,0 -3.8,1.7 -3.8,3.8"
             inkscape:connector-curvature="0" />
        </g>
        <g
           id="g214"
           style="fill:#2090cf;fill-opacity:1"
           transform="matrix(0.80808081,0,0,0.80808081,-450.25826,374.16589)">
          <path
             style="fill:#2090cf;fill-opacity:1"
             id="path216"
             d="m 470.4,58.7 c 0,0 1,2.4 -1,3.2 -2,0.8 -3,-1.1 -3,-1.1 l -7.7,-17.6 c 0,0 -4.4,5.1 -4.5,5.7 -0.1,0.7 -1.5,11 -1.5,11 0,0 -0.2,2.5 -2.1,2.5 -1.8,0 -2.2,-2.2 -2.2,-2.2 0,0 1.3,-12 1.5,-13 0.2,-1 5.5,-7.6 5.5,-7.6 l -3,-11.5 c 0,0 -1.7,5.1 -2.3,5.5 -0.7,0.5 -6.8,2.3 -6.8,2.3 0,0 -4.3,1.3 -4.6,-0.1 -0.3,-1.4 1.7,-2.4 1.7,-2.4 0,0 7.5,-2.9 7.8,-3.1 0.3,-0.2 1.8,-6.7 2.3,-7.1 0.5,-0.5 4.4,-2.4 5.5,-2.3 1.1,0.1 9.5,3.2 10.2,4 0.7,0.8 5.1,7.2 5.1,7.2 0,0 1.4,2.5 0.2,3.2 -1.2,0.7 -3.6,-2.8 -3.6,-2.8 l -3.7,-4.6 -4.9,-2.4 c 0,0 3.4,8.6 3.4,9.3 0,0.7 -0.1,1.7 -0.2,2.2 -0.1,0.5 -1.1,1.8 -1.1,1.8 z"
             inkscape:connector-curvature="0" />
          <path
             style="fill:#2090cf;fill-opacity:1"
             id="path218"
             d="m 447.1,17.8 c 0,2.1 1.7,3.8 3.8,3.8 2.1,0 3.8,-1.7 3.8,-3.8 0,-2.1 -1.7,-3.8 -3.8,-3.8 -2.1,0 -3.8,1.7 -3.8,3.8"
             inkscape:connector-curvature="0" />
        </g>
        <g
           id="g220"
           style="fill:#2090cf;fill-opacity:1"
           transform="matrix(0.80808081,0,0,0.80808081,-450.25826,374.16589)">
          <path
             style="fill:#2090cf;fill-opacity:1"
             id="path222"
             d="m 394.2,58.7 c 0,0 1,2.4 -1,3.2 -2,0.8 -3,-1.1 -3,-1.1 l -7.7,-17.6 c 0,0 -4.4,5.1 -4.5,5.7 -0.1,0.7 -1.5,11 -1.5,11 0,0 -0.2,2.5 -2.1,2.5 -1.8,0 -2.2,-2.2 -2.2,-2.2 0,0 1.3,-12 1.5,-13 0.2,-1 5.5,-7.6 5.5,-7.6 l -3,-11.5 c 0,0 -1.7,5.1 -2.3,5.5 -0.7,0.5 -6.8,2.3 -6.8,2.3 0,0 -4.3,1.3 -4.6,-0.1 -0.3,-1.4 1.7,-2.4 1.7,-2.4 0,0 7.5,-2.9 7.8,-3.1 0.3,-0.2 1.8,-6.7 2.3,-7.1 0.5,-0.5 4.4,-2.4 5.5,-2.3 1.1,0.1 9.5,3.2 10.2,4 0.7,0.8 5.1,7.2 5.1,7.2 0,0 1.4,2.5 0.2,3.2 -1.2,0.7 -3.6,-2.8 -3.6,-2.8 l -3.7,-4.6 -4.9,-2.4 c 0,0 3.4,8.6 3.4,9.3 0,0.7 -0.1,1.7 -0.2,2.2 -0.1,0.5 -1.1,1.8 -1.1,1.8 z"
             inkscape:connector-curvature="0" />
          <path
             style="fill:#2090cf;fill-opacity:1"
             id="path224"
             d="m 371,17.8 c 0,2.1 1.7,3.8 3.8,3.8 2.1,0 3.8,-1.7 3.8,-3.8 0,-2.1 -1.7,-3.8 -3.8,-3.8 -2.1,0 -3.8,1.7 -3.8,3.8"
             inkscape:connector-curvature="0" />
        </g>
        <g
           id="g226"
           style="fill:#2090cf;fill-opacity:1"
           transform="matrix(0.80808081,0,0,0.80808081,-450.25826,374.16589)">
          <path
             style="fill:#2090cf;fill-opacity:1"
             id="path228"
             d="m 356.2,58.7 c 0,0 1,2.4 -1,3.2 -2,0.8 -3,-1.1 -3,-1.1 l -7.7,-17.6 c 0,0 -4.4,5.1 -4.5,5.7 -0.1,0.7 -1.5,11 -1.5,11 0,0 -0.2,2.5 -2.1,2.5 -1.8,0 -2.2,-2.2 -2.2,-2.2 0,0 1.3,-12 1.5,-13 0.2,-1 5.5,-7.6 5.5,-7.6 l -3,-11.5 c 0,0 -1.7,5.1 -2.3,5.5 -0.7,0.5 -6.8,2.3 -6.8,2.3 0,0 -4.3,1.3 -4.6,-0.1 -0.3,-1.4 1.7,-2.4 1.7,-2.4 0,0 7.5,-2.9 7.8,-3.1 0.3,-0.2 1.8,-6.7 2.3,-7.1 0.5,-0.5 4.4,-2.4 5.5,-2.3 1.1,0.1 9.5,3.2 10.2,4 0.7,0.8 5.1,7.2 5.1,7.2 0,0 1.4,2.5 0.2,3.2 -1.2,0.7 -3.6,-2.8 -3.6,-2.8 l -3.7,-4.6 -4.9,-2.4 c 0,0 3.4,8.6 3.4,9.3 0,0.7 -0.1,1.7 -0.2,2.2 -0.1,0.5 -1.1,1.8 -1.1,1.8 z"
             inkscape:connector-curvature="0" />
          <path
             style="fill:#2090cf;fill-opacity:1"
             id="path230"
             d="m 332.9,17.8 c 0,2.1 1.7,3.8 3.8,3.8 2.1,0 3.8,-1.7 3.8,-3.8 0,-2.1 -1.7,-3.8 -3.8,-3.8 -2.1,0 -3.8,1.7 -3.8,3.8"
             inkscape:connector-curvature="0" />
        </g>
        <g
           id="g232"
           style="fill:#2090cf;fill-opacity:1"
           transform="matrix(0.80808081,0,0,0.80808081,-450.25826,374.16589)">
          <path
             style="fill:#2090cf;fill-opacity:1"
             id="path234"
             d="m 318.1,58.7 c 0,0 1,2.4 -1,3.2 -2,0.8 -3,-1.1 -3,-1.1 l -7.7,-17.6 c 0,0 -4.4,5.1 -4.5,5.7 -0.1,0.7 -1.5,11 -1.5,11 0,0 -0.2,2.5 -2.1,2.5 -1.8,0 -2.2,-2.2 -2.2,-2.2 0,0 1.3,-12 1.5,-13 0.2,-1 5.5,-7.6 5.5,-7.6 l -3,-11.5 c 0,0 -1.7,5.1 -2.3,5.5 -0.7,0.5 -6.8,2.3 -6.8,2.3 0,0 -4.3,1.3 -4.6,-0.1 -0.3,-1.4 1.7,-2.4 1.7,-2.4 0,0 7.5,-2.9 7.8,-3.1 0.3,-0.2 1.8,-6.7 2.3,-7.1 0.5,-0.5 4.4,-2.4 5.5,-2.3 1.1,0.1 9.5,3.2 10.2,4 0.7,0.8 5.1,7.2 5.1,7.2 0,0 1.4,2.5 0.2,3.2 -1.2,0.7 -3.6,-2.8 -3.6,-2.8 l -3.7,-4.6 -4.9,-2.4 c 0,0 3.4,8.6 3.4,9.3 0,0.7 -0.1,1.7 -0.2,2.2 -0.1,0.5 -1.1,1.8 -1.1,1.8 z"
             inkscape:connector-curvature="0" />
          <path
             style="fill:#2090cf;fill-opacity:1"
             id="path236"
             d="m 294.9,17.8 c 0,2.1 1.7,3.8 3.8,3.8 2.1,0 3.8,-1.7 3.8,-3.8 0,-2.1 -1.7,-3.8 -3.8,-3.8 -2.1,0 -3.8,1.7 -3.8,3.8"
             inkscape:connector-curvature="0" />
        </g>
        <g
           id="g238"
           style="fill:#2090cf;fill-opacity:1"
           transform="matrix(0.80808081,0,0,0.80808081,-450.25826,374.16589)">
          <path
             style="fill:#2090cf;fill-opacity:1"
             id="path240"
             d="m 280.1,58.7 c 0,0 1,2.4 -1,3.2 -2,0.8 -3,-1.1 -3,-1.1 l -7.7,-17.6 c 0,0 -4.4,5.1 -4.5,5.7 -0.1,0.7 -1.5,11 -1.5,11 0,0 -0.2,2.5 -2.1,2.5 -1.8,0 -2.2,-2.2 -2.2,-2.2 0,0 1.3,-12 1.5,-13 0.2,-1 5.5,-7.6 5.5,-7.6 l -3,-11.5 c 0,0 -1.7,5.1 -2.3,5.5 -0.7,0.5 -6.8,2.3 -6.8,2.3 0,0 -4.3,1.3 -4.6,-0.1 -0.3,-1.4 1.7,-2.4 1.7,-2.4 0,0 7.5,-2.9 7.8,-3.1 0.3,-0.2 1.8,-6.7 2.3,-7.1 0.5,-0.5 4.4,-2.4 5.5,-2.3 1.1,0.1 9.5,3.2 10.2,4 0.7,0.8 5.1,7.2 5.1,7.2 0,0 1.4,2.5 0.2,3.2 -1.2,0.7 -3.6,-2.8 -3.6,-2.8 l -3.7,-4.6 -4.9,-2.4 c 0,0 3.4,8.6 3.4,9.3 0,0.7 -0.1,1.7 -0.2,2.2 -0.1,0.5 -1.1,1.8 -1.1,1.8 z"
             inkscape:connector-curvature="0" />
          <path
             style="fill:#2090cf;fill-opacity:1"
             id="path242"
             d="m 256.8,17.8 c 0,2.1 1.7,3.8 3.8,3.8 2.1,0 3.8,-1.7 3.8,-3.8 0,-2.1 -1.7,-3.8 -3.8,-3.8 -2.1,0 -3.8,1.7 -3.8,3.8"
             inkscape:connector-curvature="0" />
        </g>
        <g
           id="g244"
           style="fill:#2090cf;fill-opacity:1"
           transform="matrix(0.80808081,0,0,0.80808081,-450.25826,374.16589)">
          <path
             style="fill:#2090cf;fill-opacity:1"
             id="path246"
             d="m 432.3,58.7 c 0,0 1,2.4 -1,3.2 -2,0.8 -3,-1.1 -3,-1.1 l -7.7,-17.6 c 0,0 -4.4,5.1 -4.5,5.7 -0.1,0.7 -1.5,11 -1.5,11 0,0 -0.2,2.5 -2.1,2.5 -1.8,0 -2.2,-2.2 -2.2,-2.2 0,0 1.3,-12 1.5,-13 0.2,-1 5.5,-7.6 5.5,-7.6 l -3,-11.5 c 0,0 -1.7,5.1 -2.3,5.5 -0.7,0.5 -6.8,2.3 -6.8,2.3 0,0 -4.3,1.3 -4.6,-0.1 -0.3,-1.4 1.7,-2.4 1.7,-2.4 0,0 7.5,-2.9 7.8,-3.1 0.3,-0.2 1.8,-6.7 2.3,-7.1 0.5,-0.5 4.4,-2.4 5.5,-2.3 1.1,0.1 9.5,3.2 10.2,4 0.7,0.8 5.1,7.2 5.1,7.2 0,0 1.4,2.5 0.2,3.2 -1.2,0.7 -3.6,-2.8 -3.6,-2.8 l -3.7,-4.6 -4.9,-2.4 c 0,0 3.4,8.6 3.4,9.3 0,0.7 -0.1,1.7 -0.2,2.2 -0.1,0.5 -1.1,1.8 -1.1,1.8 z"
             inkscape:connector-curvature="0" />
          <path
             style="fill:#2090cf;fill-opacity:1"
             id="path248"
             d="m 409.1,17.8 c 0,2.1 1.7,3.8 3.8,3.8 2.1,0 3.8,-1.7 3.8,-3.8 0,-2.1 -1.7,-3.8 -3.8,-3.8 -2.2,0 -3.8,1.7 -3.8,3.8"
             inkscape:connector-curvature="0" />
        </g>
      </g>
    </g>
  </g>
  <g
     id="g5113"
     transform="translate(-43.334295,454.95896)">
    <rect
       y="-453.45895"
       x="351.47714"
       height="350"
       width="300"
       id="rect5066"
       style="opacity:1;fill:#ffffff;fill-opacity:1;stroke:#000000;stroke-width:3;stroke-miterlimit:4;stroke-dasharray:none;stroke-opacity:1" />
    <g
       transform="translate(72.244844,-12.532791)"
       id="g4803">
      <g
         id="g4536"
         transform="matrix(0.70850194,0,0,0.70850194,322.80568,229.67473)">
        <g
           id="g8"
           style="fill:#ef4637"
           transform="translate(-282.42108,-729.22517)">
          <circle
             id="circle10"
             r="4"
             cx="607.29999"
             cy="144.89999" />
          <path
             id="path12"
             d="m 602.5,188 c 0,1.2 1,2.3 2.3,2.3 1.3,0 2.3,-1 2.3,-2.3 v -19 h 1 v 19 c 0,1.2 1,2.3 2.3,2.3 1.3,0 2.3,-1 2.3,-2.3 v -32.7 h 1 v 12.1 c 0,2.4 3.2,2.4 3.2,0 v -12.3 c 0,-2.7 -1.6,-5.3 -4.7,-5.3 h -9 c -2.9,0 -4.6,2.3 -4.6,5.2 v 12.4 c 0,2.4 3.2,2.4 3.2,0 v -12.1 h 1 z"
             inkscape:connector-curvature="0" />
        </g>
        <g
           id="g14"
           style="fill:#ef4637"
           transform="translate(-282.42108,-729.22517)">
          <circle
             id="circle16"
             r="4"
             cx="569.29999"
             cy="144.89999" />
          <path
             id="path18"
             d="m 564.5,188 c 0,1.2 1,2.3 2.3,2.3 1.3,0 2.3,-1 2.3,-2.3 v -19 h 1 v 19 c 0,1.2 1,2.3 2.3,2.3 1.3,0 2.3,-1 2.3,-2.3 v -32.7 h 1 v 12.1 c 0,2.4 3.2,2.4 3.2,0 v -12.3 c 0,-2.7 -1.6,-5.3 -4.7,-5.3 h -9 c -2.9,0 -4.6,2.3 -4.6,5.2 v 12.4 c 0,2.4 3.2,2.4 3.2,0 v -12.1 h 1 z"
             inkscape:connector-curvature="0" />
        </g>
        <g
           id="g20"
           style="fill:#ef4637"
           transform="translate(-282.42108,-729.22517)">
          <circle
             id="circle22"
             r="4"
             cx="531.20001"
             cy="144.89999" />
          <path
             id="path24"
             d="m 526.5,188 c 0,1.2 1,2.3 2.3,2.3 1.3,0 2.3,-1 2.3,-2.3 v -19 h 1 v 19 c 0,1.2 1,2.3 2.3,2.3 1.2,0 2.3,-1 2.3,-2.3 v -32.7 h 1 v 12.1 c 0,2.4 3.2,2.4 3.2,0 v -12.3 c 0,-2.7 -1.6,-5.3 -4.7,-5.3 h -9 c -2.9,0 -4.6,2.3 -4.6,5.2 v 12.4 c 0,2.4 3.2,2.4 3.2,0 v -12.1 h 1 z"
             inkscape:connector-curvature="0" />
        </g>
        <g
           id="g26"
           style="fill:#ef4637"
           transform="translate(-282.42108,-729.22517)">
          <circle
             id="circle28"
             r="4"
             cx="493.20001"
             cy="144.89999" />
          <path
             id="path30"
             d="m 488.4,188 c 0,1.2 1,2.3 2.3,2.3 1.3,0 2.3,-1 2.3,-2.3 v -19 h 1 v 19 c 0,1.2 1,2.3 2.3,2.3 1.3,0 2.3,-1 2.3,-2.3 v -32.7 h 1 v 12.1 c 0,2.4 3.2,2.4 3.2,0 v -12.3 c 0,-2.7 -1.6,-5.3 -4.7,-5.3 h -9 c -2.9,0 -4.6,2.3 -4.6,5.2 v 12.4 c 0,2.4 3.2,2.4 3.2,0 v -12.1 h 1 z"
             inkscape:connector-curvature="0" />
        </g>
        <g
           id="g32"
           style="fill:#ef4637"
           transform="translate(-282.42108,-729.22517)">
          <circle
             id="circle34"
             r="4"
             cx="455.20001"
             cy="144.89999" />
          <path
             id="path36"
             d="m 450.4,188 c 0,1.2 1,2.3 2.3,2.3 1.3,0 2.3,-1 2.3,-2.3 v -19 h 1 v 19 c 0,1.2 1,2.3 2.3,2.3 1.3,0 2.3,-1 2.3,-2.3 v -32.7 h 1 v 12.1 c 0,2.4 3.2,2.4 3.2,0 v -12.3 c 0,-2.7 -1.6,-5.3 -4.7,-5.3 h -9 c -2.9,0 -4.6,2.3 -4.6,5.2 v 12.4 c 0,2.4 3.2,2.4 3.2,0 v -12.1 h 1 z"
             inkscape:connector-curvature="0" />
        </g>
        <g
           id="g38"
           style="fill:#2090cf;fill-opacity:0.94313725"
           transform="translate(-282.42108,-729.22517)">
          <path
             style="fill:#2090cf;fill-opacity:0.94313725"
             id="path40"
             d="m 394.2,186 c 0,0 1,2.4 -1,3.2 -2,0.8 -3,-1.1 -3,-1.1 l -7.7,-17.6 c 0,0 -4.4,5.1 -4.5,5.7 -0.1,0.7 -1.5,11 -1.5,11 0,0 -0.2,2.5 -2.1,2.5 -1.8,0 -2.2,-2.2 -2.2,-2.2 0,0 1.3,-12 1.5,-13 0.2,-1 5.5,-7.6 5.5,-7.6 l -3,-11.5 c 0,0 -1.7,5.1 -2.3,5.5 -0.7,0.5 -6.8,2.3 -6.8,2.3 0,0 -4.3,1.3 -4.6,-0.1 -0.3,-1.4 1.7,-2.4 1.7,-2.4 0,0 7.5,-2.9 7.8,-3.1 0.3,-0.2 1.8,-6.7 2.3,-7.1 0.5,-0.5 4.4,-2.4 5.5,-2.3 1.1,0.1 9.5,3.2 10.2,4 0.7,0.8 5.1,7.2 5.1,7.2 0,0 1.4,2.5 0.2,3.2 -1.2,0.7 -3.6,-2.8 -3.6,-2.8 l -3.7,-4.6 -4.9,-2.4 c 0,0 3.4,8.6 3.4,9.3 0,0.7 -0.1,1.7 -0.2,2.2 -0.1,0.5 -1.1,1.8 -1.1,1.8 z"
             inkscape:connector-curvature="0" />
          <path
             style="fill:#2090cf;fill-opacity:0.94313725"
             id="path42"
             d="m 370.9,145.1 c 0,2.1 1.7,3.8 3.8,3.8 2.1,0 3.8,-1.7 3.8,-3.8 0,-2.1 -1.7,-3.8 -3.8,-3.8 -2.1,0 -3.8,1.7 -3.8,3.8"
             inkscape:connector-curvature="0" />
        </g>
        <g
           id="g44"
           style="fill:#2090cf;fill-opacity:0.94313725"
           transform="translate(-282.42108,-729.22517)">
          <path
             style="fill:#2090cf;fill-opacity:0.94313725"
             id="path46"
             d="m 356.1,186 c 0,0 1,2.4 -1,3.2 -2,0.8 -3,-1.1 -3,-1.1 l -7.7,-17.6 c 0,0 -4.4,5.1 -4.5,5.7 -0.1,0.7 -1.5,11 -1.5,11 0,0 -0.2,2.5 -2.1,2.5 -1.8,0 -2.2,-2.2 -2.2,-2.2 0,0 1.3,-12 1.5,-13 0.2,-1 5.5,-7.6 5.5,-7.6 l -3,-11.5 c 0,0 -1.7,5.1 -2.3,5.5 -0.7,0.5 -6.8,2.3 -6.8,2.3 0,0 -4.3,1.3 -4.6,-0.1 -0.3,-1.4 1.7,-2.4 1.7,-2.4 0,0 7.5,-2.9 7.8,-3.1 0.3,-0.2 1.8,-6.7 2.3,-7.1 0.5,-0.5 4.4,-2.4 5.5,-2.3 1.1,0.1 9.5,3.2 10.2,4 0.7,0.8 5.1,7.2 5.1,7.2 0,0 1.4,2.5 0.2,3.2 -1.2,0.7 -3.6,-2.8 -3.6,-2.8 l -3.7,-4.6 -4.9,-2.4 c 0,0 3.4,8.6 3.4,9.3 0,0.7 -0.1,1.7 -0.2,2.2 -0.1,0.5 -1.1,1.8 -1.1,1.8 z"
             inkscape:connector-curvature="0" />
          <path
             style="fill:#2090cf;fill-opacity:0.94313725"
             id="path48"
             d="m 332.9,145.1 c 0,2.1 1.7,3.8 3.8,3.8 2.1,0 3.8,-1.7 3.8,-3.8 0,-2.1 -1.7,-3.8 -3.8,-3.8 -2.1,0 -3.8,1.7 -3.8,3.8"
             inkscape:connector-curvature="0" />
        </g>
        <g
           id="g50"
           style="fill:#2090cf;fill-opacity:0.94313725"
           transform="translate(-282.42108,-729.22517)">
          <path
             style="fill:#2090cf;fill-opacity:0.94313725"
             id="path52"
             d="m 318.1,186 c 0,0 1,2.4 -1,3.2 -2,0.8 -3,-1.1 -3,-1.1 l -7.7,-17.6 c 0,0 -4.4,5.1 -4.5,5.7 -0.1,0.7 -1.5,11 -1.5,11 0,0 -0.2,2.5 -2.1,2.5 -1.8,0 -2.2,-2.2 -2.2,-2.2 0,0 1.3,-12 1.5,-13 0.2,-1 5.5,-7.6 5.5,-7.6 l -3,-11.5 c 0,0 -1.7,5.1 -2.3,5.5 -0.7,0.5 -6.8,2.3 -6.8,2.3 0,0 -4.3,1.3 -4.6,-0.1 -0.3,-1.4 1.7,-2.4 1.7,-2.4 0,0 7.5,-2.9 7.8,-3.1 0.3,-0.2 1.8,-6.7 2.3,-7.1 0.5,-0.5 4.4,-2.4 5.5,-2.3 1.1,0.1 9.5,3.2 10.2,4 0.7,0.8 5.1,7.2 5.1,7.2 0,0 1.4,2.5 0.2,3.2 -1.2,0.7 -3.6,-2.8 -3.6,-2.8 l -3.7,-4.6 -4.9,-2.4 c 0,0 3.4,8.6 3.4,9.3 0,0.7 -0.1,1.7 -0.2,2.2 -0.1,0.5 -1.1,1.8 -1.1,1.8 z"
             inkscape:connector-curvature="0" />
          <path
             style="fill:#2090cf;fill-opacity:0.94313725"
             id="path54"
             d="m 294.9,145.1 c 0,2.1 1.7,3.8 3.8,3.8 2.1,0 3.8,-1.7 3.8,-3.8 0,-2.1 -1.7,-3.8 -3.8,-3.8 -2.2,0 -3.8,1.7 -3.8,3.8"
             inkscape:connector-curvature="0" />
        </g>
        <g
           id="g56"
           style="fill:#2090cf;fill-opacity:0.94313725"
           transform="translate(-282.42108,-729.22517)">
          <path
             style="fill:#2090cf;fill-opacity:0.94313725"
             id="path58"
             d="m 280.1,186 c 0,0 1,2.4 -1,3.2 -2,0.8 -3,-1.1 -3,-1.1 l -7.7,-17.6 c 0,0 -4.4,5.1 -4.5,5.7 -0.1,0.7 -1.5,11 -1.5,11 0,0 -0.2,2.5 -2.1,2.5 -1.8,0 -2.2,-2.2 -2.2,-2.2 0,0 1.3,-12 1.5,-13 0.2,-1 5.5,-7.6 5.5,-7.6 l -3,-11.5 c 0,0 -1.7,5.1 -2.3,5.5 -0.7,0.5 -6.8,2.3 -6.8,2.3 0,0 -4.3,1.3 -4.6,-0.1 -0.3,-1.4 1.7,-2.4 1.7,-2.4 0,0 7.5,-2.9 7.8,-3.1 0.3,-0.2 1.8,-6.7 2.3,-7.1 0.5,-0.5 4.4,-2.4 5.5,-2.3 1.1,0.1 9.5,3.2 10.2,4 0.7,0.8 5.1,7.2 5.1,7.2 0,0 1.4,2.5 0.2,3.2 -1.2,0.7 -3.6,-2.8 -3.6,-2.8 l -3.7,-4.6 -4.9,-2.4 c 0,0 3.4,8.6 3.4,9.3 0,0.7 -0.1,1.7 -0.2,2.2 -0.1,0.5 -1.1,1.8 -1.1,1.8 z"
             inkscape:connector-curvature="0" />
          <path
             style="fill:#2090cf;fill-opacity:0.94313725"
             id="path60"
             d="m 256.8,145.1 c 0,2.1 1.7,3.8 3.8,3.8 2.1,0 3.8,-1.7 3.8,-3.8 0,-2.1 -1.7,-3.8 -3.8,-3.8 -2.1,0 -3.8,1.7 -3.8,3.8"
             inkscape:connector-curvature="0" />
        </g>
        <g
           id="g62"
           style="fill:#2090cf;fill-opacity:0.94313725"
           transform="translate(-282.42108,-729.22517)">
          <path
             style="fill:#2090cf;fill-opacity:0.94313725"
             id="path64"
             d="m 432.2,186 c 0,0 1,2.4 -1,3.2 -2,0.8 -3,-1.1 -3,-1.1 l -7.7,-17.6 c 0,0 -4.4,5.1 -4.5,5.7 -0.1,0.7 -1.5,11 -1.5,11 0,0 -0.2,2.5 -2.1,2.5 -1.8,0 -2.2,-2.2 -2.2,-2.2 0,0 1.3,-12 1.5,-13 0.2,-1 5.5,-7.6 5.5,-7.6 l -3,-11.5 c 0,0 -1.7,5.1 -2.3,5.5 -0.7,0.5 -6.8,2.3 -6.8,2.3 0,0 -4.3,1.3 -4.6,-0.1 -0.3,-1.4 1.7,-2.4 1.7,-2.4 0,0 7.5,-2.9 7.8,-3.1 0.3,-0.2 1.8,-6.7 2.3,-7.1 0.5,-0.5 4.4,-2.4 5.5,-2.3 1.1,0.1 9.5,3.2 10.2,4 0.7,0.8 5.1,7.2 5.1,7.2 0,0 1.4,2.5 0.2,3.2 -1.2,0.7 -3.6,-2.8 -3.6,-2.8 l -3.7,-4.6 -4.9,-2.4 c 0,0 3.4,8.6 3.4,9.3 0,0.7 -0.1,1.7 -0.2,2.2 -0.1,0.5 -1.1,1.8 -1.1,1.8 z"
             inkscape:connector-curvature="0" />
          <path
             style="fill:#2090cf;fill-opacity:0.94313725"
             id="path66"
             d="m 409,145.1 c 0,2.1 1.7,3.8 3.8,3.8 2.1,0 3.8,-1.7 3.8,-3.8 0,-2.1 -1.7,-3.8 -3.8,-3.8 -2.2,0 -3.8,1.7 -3.8,3.8"
             inkscape:connector-curvature="0" />
        </g>
      </g>
      <text
         id="text4601"
         y="-319.03159"
         x="362.17175"
         style="font-style:normal;font-weight:normal;font-size:40px;line-height:125%;font-family:sans-serif;letter-spacing:0px;word-spacing:0px;fill:#000000;fill-opacity:1;stroke:none;stroke-width:1px;stroke-linecap:butt;stroke-linejoin:miter;stroke-opacity:1"
         xml:space="preserve"><tspan
           style="font-style:normal;font-variant:normal;font-weight:bold;font-stretch:normal;font-size:125px;font-family:'DIN Pro';-inkscape-font-specification:'DIN Pro Bold'"
           id="tspan4603"
           y="-319.03159"
           x="362.17175"
           sodipodi:role="line">30</tspan></text>
      <text
         xml:space="preserve"
         style="font-style:normal;font-weight:normal;font-size:40px;line-height:125%;font-family:sans-serif;letter-spacing:0px;word-spacing:0px;fill:#000000;fill-opacity:1;stroke:none;stroke-width:1px;stroke-linecap:butt;stroke-linejoin:miter;stroke-opacity:1"
         x="365.6745"
         y="-261.38934"
         id="text4605"><tspan
           sodipodi:role="line"
           x="365.6745"
           y="-261.38934"
           id="tspan4607"
           style="font-style:normal;font-variant:normal;font-weight:bold;font-stretch:normal;font-size:60px;font-family:'DIN Pro';-inkscape-font-specification:'DIN Pro Bold'">MPH</tspan></text>
      <text
         id="text4609"
         y="-225.77295"
         x="428.45901"
         style="font-style:normal;font-weight:normal;font-size:40px;line-height:125%;font-family:sans-serif;letter-spacing:0px;word-spacing:0px;fill:#000000;fill-opacity:1;stroke:none;stroke-width:1px;stroke-linecap:butt;stroke-linejoin:miter;stroke-opacity:1"
         xml:space="preserve"><tspan
           style="font-style:normal;font-variant:normal;font-weight:bold;font-stretch:normal;font-size:20px;font-family:'DIN Pro';-inkscape-font-specification:'DIN Pro Bold';text-align:center;text-anchor:middle"
           id="tspan4611"
           y="-225.77295"
           x="428.45901"
           sodipodi:role="line">HIZINDA İLERLEYEN</tspan><tspan
           id="tspan4613"
           style="font-style:normal;font-variant:normal;font-weight:bold;font-stretch:normal;font-size:20px;font-family:'DIN Pro';-inkscape-font-specification:'DIN Pro Bold';text-align:center;text-anchor:middle"
           y="-171.15198"
           x="428.45901"
           sodipodi:role="line">BİR ARAÇ ÇARPTIĞINDA</tspan></text>
      <text
         xml:space="preserve"
         style="font-style:normal;font-weight:normal;font-size:40px;line-height:125%;font-family:sans-serif;letter-spacing:0px;word-spacing:0px;fill:#000000;fill-opacity:1;stroke:none;stroke-width:1px;stroke-linecap:butt;stroke-linejoin:miter;stroke-opacity:1"
         x="428.21307"
         y="-126.89074"
         id="text4615"><tspan
           sodipodi:role="line"
           x="428.21307"
           y="-126.89074"
           style="font-style:normal;font-variant:normal;font-weight:bold;font-stretch:normal;font-size:20px;font-family:'DIN Pro';-inkscape-font-specification:'DIN Pro Bold';text-align:center;text-anchor:middle"
           id="tspan4617">10 yayadan 5'i kurtulur</tspan></text>
    </g>
  </g>
  <g
     id="g5068"
     transform="translate(-135.3418,449.3353)">
    <rect
       style="opacity:1;fill:#ffffff;fill-opacity:1;stroke:#000000;stroke-width:3;stroke-miterlimit:4;stroke-dasharray:none;stroke-opacity:1"
       id="rect5064"
       width="300"
       height="350"
       x="750.1275"
       y="-447.8353" />
    <g
       transform="translate(101.45739,-6.9091341)"
       id="g4845">
      <g
         id="g4568"
         transform="matrix(0.70707088,0,0,0.70707088,692.77663,138.82266)">
        <g
           id="g438"
           style="fill:#ef4637"
           transform="translate(-282.42108,-729.22517)">
          <circle
             id="circle440"
             r="4"
             cx="606.90002"
             cy="272.20001" />
          <path
             id="path442"
             d="m 602.1,315.4 c 0,1.2 1,2.3 2.3,2.3 1.3,0 2.3,-1 2.3,-2.3 v -19 h 1 v 19 c 0,1.2 1,2.3 2.3,2.3 1.3,0 2.3,-1 2.3,-2.3 v -32.7 h 1 v 12.1 c 0,2.4 3.2,2.4 3.2,0 v -12.3 c 0,-2.7 -1.6,-5.3 -4.7,-5.3 h -9 c -2.9,0 -4.6,2.3 -4.6,5.2 v 12.4 c 0,2.4 3.2,2.4 3.2,0 v -12.1 h 1 z"
             inkscape:connector-curvature="0" />
        </g>
        <g
           id="g444"
           style="fill:#ef4637"
           transform="translate(-282.42108,-729.22517)">
          <circle
             id="circle446"
             r="4"
             cx="568.79999"
             cy="272.20001" />
          <path
             id="path448"
             d="m 564.1,315.4 c 0,1.2 1,2.3 2.3,2.3 1.3,0 2.3,-1 2.3,-2.3 v -19 h 1 v 19 c 0,1.2 1,2.3 2.3,2.3 1.3,0 2.3,-1 2.3,-2.3 v -32.7 h 1 v 12.1 c 0,2.4 3.2,2.4 3.2,0 v -12.3 c 0,-2.7 -1.6,-5.3 -4.7,-5.3 h -9 c -2.9,0 -4.6,2.3 -4.6,5.2 v 12.4 c 0,2.4 3.2,2.4 3.2,0 v -12.1 h 1 z"
             inkscape:connector-curvature="0" />
        </g>
        <g
           id="g450"
           style="fill:#ef4637"
           transform="translate(-282.42108,-729.22517)">
          <circle
             id="circle452"
             r="4"
             cx="530.79999"
             cy="272.20001" />
          <path
             id="path454"
             d="m 526,315.4 c 0,1.2 1,2.3 2.3,2.3 1.3,0 2.3,-1 2.3,-2.3 v -19 h 1 v 19 c 0,1.2 1,2.3 2.3,2.3 1.3,0 2.3,-1 2.3,-2.3 v -32.7 h 1 v 12.1 c 0,2.4 3.2,2.4 3.2,0 v -12.3 c 0,-2.7 -1.6,-5.3 -4.7,-5.3 h -9 c -2.9,0 -4.6,2.3 -4.6,5.2 v 12.4 c 0,2.4 3.2,2.4 3.2,0 v -12.1 h 1 z"
             inkscape:connector-curvature="0" />
        </g>
        <g
           id="g456"
           style="fill:#ef4637"
           transform="translate(-282.42108,-729.22517)">
          <circle
             id="circle458"
             r="4"
             cx="492.79999"
             cy="272.20001" />
          <path
             id="path460"
             d="m 488,315.4 c 0,1.2 1,2.3 2.3,2.3 1.3,0 2.3,-1 2.3,-2.3 v -19 h 1 v 19 c 0,1.2 1,2.3 2.3,2.3 1.3,0 2.3,-1 2.3,-2.3 v -32.7 h 1 v 12.1 c 0,2.4 3.2,2.4 3.2,0 v -12.3 c 0,-2.7 -1.6,-5.3 -4.7,-5.3 h -9 c -2.9,0 -4.6,2.3 -4.6,5.2 v 12.4 c 0,2.4 3.2,2.4 3.2,0 v -12.1 h 1 z"
             inkscape:connector-curvature="0" />
        </g>
        <g
           id="g462"
           style="fill:#ef4637"
           transform="translate(-282.42108,-729.22517)">
          <circle
             id="circle464"
             r="4"
             cx="454.70001"
             cy="272.20001" />
          <path
             id="path466"
             d="m 450,315.4 c 0,1.2 1,2.3 2.3,2.3 1.3,0 2.3,-1 2.3,-2.3 v -19 h 1 v 19 c 0,1.2 1,2.3 2.3,2.3 1.3,0 2.3,-1 2.3,-2.3 v -32.7 h 1 v 12.1 c 0,2.4 3.2,2.4 3.2,0 v -12.3 c 0,-2.7 -1.6,-5.3 -4.7,-5.3 h -9 c -2.9,0 -4.6,2.3 -4.6,5.2 v 12.4 c 0,2.4 3.2,2.4 3.2,0 v -12.1 h 1 z"
             inkscape:connector-curvature="0" />
        </g>
        <g
           id="g4531">
          <g
             transform="translate(-282.42108,-729.22517)"
             style="fill:#2090ce;fill-opacity:0.94509804"
             id="g468">
            <path
               inkscape:connector-curvature="0"
               d="m 279.6,313.4 c 0,0 1,2.4 -1,3.2 -2,0.8 -3,-1.1 -3,-1.1 l -7.7,-17.6 c 0,0 -4.4,5.1 -4.5,5.7 -0.1,0.7 -1.5,11 -1.5,11 0,0 -0.2,2.5 -2.1,2.5 -1.8,0 -2.2,-2.2 -2.2,-2.2 0,0 1.3,-12 1.5,-13 0.2,-1 5.5,-7.6 5.5,-7.6 l -3,-11.5 c 0,0 -1.7,5.1 -2.3,5.5 -0.7,0.5 -6.8,2.3 -6.8,2.3 0,0 -4.3,1.3 -4.6,-0.1 -0.3,-1.4 1.7,-2.4 1.7,-2.4 0,0 7.5,-2.9 7.8,-3.1 0.3,-0.2 1.8,-6.7 2.3,-7.1 0.5,-0.5 4.4,-2.4 5.5,-2.3 1.1,0.1 9.5,3.2 10.2,4 0.7,0.8 5.1,7.2 5.1,7.2 0,0 1.4,2.5 0.2,3.2 -1.2,0.7 -3.6,-2.8 -3.6,-2.8 l -3.7,-4.6 -4.9,-2.4 c 0,0 3.4,8.6 3.4,9.3 0,0.7 -0.1,1.7 -0.2,2.2 -0.1,0.5 -1.1,1.8 -1.1,1.8 z"
               id="path470"
               style="fill:#2090ce;fill-opacity:0.94509804" />
            <path
               inkscape:connector-curvature="0"
               d="m 256.4,272.4 c 0,2.1 1.7,3.8 3.8,3.8 2.1,0 3.8,-1.7 3.8,-3.8 0,-2.1 -1.7,-3.8 -3.8,-3.8 -2.1,0.1 -3.8,1.8 -3.8,3.8"
               id="path472"
               style="fill:#2090ce;fill-opacity:0.94509804" />
          </g>
        </g>
        <g
           id="g474"
           style="fill:#ef4637"
           transform="translate(-282.42108,-729.22517)">
          <circle
             id="circle476"
             r="4"
             cx="416.70001"
             cy="272.20001" />
          <path
             id="path478"
             d="m 411.9,315.4 c 0,1.2 1,2.3 2.3,2.3 1.3,0 2.3,-1 2.3,-2.3 v -19 h 1 v 19 c 0,1.2 1,2.3 2.3,2.3 1.2,0 2.3,-1 2.3,-2.3 v -32.7 h 1 v 12.1 c 0,2.4 3.2,2.4 3.2,0 v -12.3 c 0,-2.7 -1.6,-5.3 -4.7,-5.3 h -9 c -2.9,0 -4.6,2.3 -4.6,5.2 v 12.4 c 0,2.4 3.2,2.4 3.2,0 v -12.1 h 1 z"
             inkscape:connector-curvature="0" />
        </g>
        <g
           id="g480"
           style="fill:#ef4637"
           transform="translate(-282.42108,-729.22517)">
          <circle
             id="circle482"
             r="4"
             cx="378.70001"
             cy="272.20001" />
          <path
             id="path484"
             d="m 373.9,315.4 c 0,1.2 1,2.3 2.3,2.3 1.3,0 2.3,-1 2.3,-2.3 v -19 h 1 v 19 c 0,1.2 1,2.3 2.3,2.3 1.3,0 2.3,-1 2.3,-2.3 v -32.7 h 1 v 12.1 c 0,2.4 3.2,2.4 3.2,0 v -12.3 c 0,-2.7 -1.6,-5.3 -4.7,-5.3 h -9 c -2.9,0 -4.6,2.3 -4.6,5.2 v 12.4 c 0,2.4 3.2,2.4 3.2,0 v -12.1 h 1 z"
             inkscape:connector-curvature="0" />
        </g>
        <g
           id="g486"
           style="fill:#ef4637"
           transform="translate(-282.42108,-729.22517)">
          <circle
             id="circle488"
             r="4"
             cx="340.60001"
             cy="272.20001" />
          <path
             id="path490"
             d="m 335.9,315.4 c 0,1.2 1,2.3 2.3,2.3 1.3,0 2.3,-1 2.3,-2.3 v -19 h 1 v 19 c 0,1.2 1,2.3 2.3,2.3 1.3,0 2.3,-1 2.3,-2.3 v -32.7 h 1 v 12.1 c 0,2.4 3.2,2.4 3.2,0 v -12.3 c 0,-2.7 -1.6,-5.3 -4.7,-5.3 h -9 c -2.9,0 -4.6,2.3 -4.6,5.2 v 12.4 c 0,2.4 3.2,2.4 3.2,0 v -12.1 h 1 z"
             inkscape:connector-curvature="0" />
        </g>
        <g
           id="g492"
           style="fill:#ef4637"
           transform="translate(-282.42108,-729.22517)">
          <circle
             id="circle494"
             r="4"
             cx="302.60001"
             cy="272.20001" />
          <path
             id="path496"
             d="m 297.8,315.4 c 0,1.2 1,2.3 2.3,2.3 1.3,0 2.3,-1 2.3,-2.3 v -19 h 1 v 19 c 0,1.2 1,2.3 2.3,2.3 1.3,0 2.3,-1 2.3,-2.3 v -32.7 h 1 v 12.1 c 0,2.4 3.2,2.4 3.2,0 v -12.3 c 0,-2.7 -1.6,-5.3 -4.7,-5.3 h -9 c -2.9,0 -4.6,2.3 -4.6,5.2 v 12.4 c 0,2.4 3.2,2.4 3.2,0 v -12.1 h 1 z"
             inkscape:connector-curvature="0" />
        </g>
      </g>
      <text
         xml:space="preserve"
         style="font-style:normal;font-weight:normal;font-size:40px;line-height:125%;font-family:sans-serif;letter-spacing:0px;word-spacing:0px;fill:#000000;fill-opacity:1;stroke:none;stroke-width:1px;stroke-linecap:butt;stroke-linejoin:miter;stroke-opacity:1"
         x="732.29706"
         y="-319.03159"
         id="text4743"><tspan
           sodipodi:role="line"
           x="732.29706"
           y="-319.03159"
           id="tspan4745"
           style="font-style:normal;font-variant:normal;font-weight:bold;font-stretch:normal;font-size:125px;font-family:'DIN Pro';-inkscape-font-specification:'DIN Pro Bold'">40</tspan></text>
      <text
         id="text4747"
         y="-261.38934"
         x="735.1123"
         style="font-style:normal;font-weight:normal;font-size:40px;line-height:125%;font-family:sans-serif;letter-spacing:0px;word-spacing:0px;fill:#000000;fill-opacity:1;stroke:none;stroke-width:1px;stroke-linecap:butt;stroke-linejoin:miter;stroke-opacity:1"
         xml:space="preserve"><tspan
           style="font-style:normal;font-variant:normal;font-weight:bold;font-stretch:normal;font-size:60px;font-family:'DIN Pro';-inkscape-font-specification:'DIN Pro Bold'"
           id="tspan4749"
           y="-261.38934"
           x="735.1123"
           sodipodi:role="line">MPH</tspan></text>
      <text
         xml:space="preserve"
         style="font-style:normal;font-weight:normal;font-size:40px;line-height:125%;font-family:sans-serif;letter-spacing:0px;word-spacing:0px;fill:#000000;fill-opacity:1;stroke:none;stroke-width:1px;stroke-linecap:butt;stroke-linejoin:miter;stroke-opacity:1"
         x="797.89679"
         y="-227.64752"
         id="text4751"><tspan
           sodipodi:role="line"
           x="797.89679"
           y="-227.64752"
           id="tspan4753"
           style="font-style:normal;font-variant:normal;font-weight:bold;font-stretch:normal;font-size:20px;font-family:'DIN Pro';-inkscape-font-specification:'DIN Pro Bold';text-align:center;text-anchor:middle">HIZINDA İLERLEYEN</tspan><tspan
           sodipodi:role="line"
           x="797.89679"
           y="-173.02655"
           style="font-style:normal;font-variant:normal;font-weight:bold;font-stretch:normal;font-size:20px;font-family:'DIN Pro';-inkscape-font-specification:'DIN Pro Bold';text-align:center;text-anchor:middle"
           id="tspan4755">BİR ARAÇ ÇARPTIĞINDA</tspan></text>
      <text
         id="text4757"
         y="-126.89074"
         x="797.65088"
         style="font-style:normal;font-weight:normal;font-size:40px;line-height:125%;font-family:sans-serif;letter-spacing:0px;word-spacing:0px;fill:#000000;fill-opacity:1;stroke:none;stroke-width:1px;stroke-linecap:butt;stroke-linejoin:miter;stroke-opacity:1"
         xml:space="preserve"><tspan
           id="tspan4759"
           style="font-style:normal;font-variant:normal;font-weight:bold;font-stretch:normal;font-size:20px;font-family:'DIN Pro';-inkscape-font-specification:'DIN Pro Bold';text-align:center;text-anchor:middle"
           y="-126.89074"
           x="797.65088"
           sodipodi:role="line">10 yayadan sadece 1'i kurtulur</tspan></text>
    </g>
  </g>
</svg>
