<?xml version="1.0" encoding="UTF-8" standalone="no"?>
<!-- Created with Inkscape (http://www.inkscape.org/) -->

<svg
   xmlns:dc="http://purl.org/dc/elements/1.1/"
   xmlns:cc="http://creativecommons.org/ns#"
   xmlns:rdf="http://www.w3.org/1999/02/22-rdf-syntax-ns#"
   xmlns:svg="http://www.w3.org/2000/svg"
   xmlns="http://www.w3.org/2000/svg"
   xmlns:sodipodi="http://sodipodi.sourceforge.net/DTD/sodipodi-0.dtd"
   xmlns:inkscape="http://www.inkscape.org/namespaces/inkscape"
   width="100.68533mm"
   height="65.999542mm"
   viewBox="0 0 100.68533 65.999543"
   version="1.1"
   id="svg3289"
   inkscape:version="0.92.0 unknown"
   sodipodi:docname="number-of-deaths.svg"
   inkscape:export-filename="/home/hsevay/workspace2/trakayad/website/trakayad.org/presentations/road-traffic-safety-policies-in-north-cyprus/images/number-of-deaths.png"
   inkscape:export-xdpi="360"
   inkscape:export-ydpi="360">
  <defs
     id="defs3283">
    <clipPath
       clipPathUnits="userSpaceOnUse"
       id="clipPath210">
      <path
         d="M 0,0 H 595.276 V 841.89 H 0 Z"
         id="path208"
         inkscape:connector-curvature="0" />
    </clipPath>
    <clipPath
       clipPathUnits="userSpaceOnUse"
       id="clipPath294">
      <path
         d="M 0,0 H 595.276 V 841.89 H 0 Z"
         id="path292"
         inkscape:connector-curvature="0" />
    </clipPath>
  </defs>
  <sodipodi:namedview
     id="base"
     pagecolor="#ffffff"
     bordercolor="#666666"
     borderopacity="1.0"
     inkscape:pageopacity="0.0"
     inkscape:pageshadow="2"
     inkscape:zoom="5.6"
     inkscape:cx="374.91511"
     inkscape:cy="52.900132"
     inkscape:document-units="mm"
     inkscape:current-layer="g3196"
     showgrid="false"
     fit-margin-top="0"
     fit-margin-left="0"
     fit-margin-right="0"
     fit-margin-bottom="0"
     inkscape:window-width="1920"
     inkscape:window-height="1056"
     inkscape:window-x="0"
     inkscape:window-y="24"
     inkscape:window-maximized="1"
     inkscape:measure-start="0,0"
     inkscape:measure-end="0,0" />
  <metadata
     id="metadata3286">
    <rdf:RDF>
      <cc:Work
         rdf:about="">
        <dc:format>image/svg+xml</dc:format>
        <dc:type
           rdf:resource="http://purl.org/dc/dcmitype/StillImage" />
        <dc:title></dc:title>
      </cc:Work>
    </rdf:RDF>
  </metadata>
  <g
     inkscape:label="Layer 1"
     inkscape:groupmode="layer"
     id="layer1"
     transform="translate(33.321857,-12.84366)">
    <g
       transform="matrix(0.35277777,0,0,-0.35277777,-43.135106,128.0933)"
       id="g3196">
      <g
         transform="translate(68.1247,289.9559)"
         id="g212">
        <path
           inkscape:connector-curvature="0"
           id="path214"
           style="fill:#007f33;fill-opacity:1;fill-rule:nonzero;stroke:none"
           d="m 0,0 c 10.145,0 18.368,8.224 18.368,18.367 0,10.146 -8.223,18.369 -18.368,18.369 -10.145,0 -18.368,-8.223 -18.368,-18.369 C -18.368,8.224 -10.145,0 0,0" />
      </g>
      <g
         id="g241"
         transform="translate(-1e-4)">
        <g
           id="g220"
           transform="translate(207.2329,219.0828)">
          <path
             d="m 0,0 c 1.305,-1.274 2.909,-1.91 4.813,-1.91 1.904,0 3.494,0.648 4.773,1.949 1.277,1.3 1.917,2.852 1.917,4.655 0,1.327 -0.381,2.534 -1.142,3.621 -0.762,1.087 -1.741,1.897 -2.937,2.427 -0.218,0.107 -0.477,0.199 -0.775,0.279 -0.3,0.081 -0.585,0.12 -0.857,0.12 H 3.753 C 3.48,11.141 3.194,11.102 2.896,11.021 2.597,10.941 2.338,10.849 2.121,10.742 0.869,10.158 -0.122,9.337 -0.857,8.275 -1.591,7.214 -1.958,6.021 -1.958,4.694 -1.958,2.837 -1.305,1.272 0,0 m -3.753,-64.622 c 0.108,-0.425 0.19,-0.691 0.245,-0.796 0.216,-0.796 0.665,-1.42 1.346,-1.87 0.679,-0.451 1.454,-0.676 2.325,-0.676 0.924,0 1.808,0.329 2.652,0.993 0.842,0.663 1.264,1.499 1.264,2.508 v 29.685 h 1.305 v -30.003 c 0.054,-0.319 0.136,-0.532 0.245,-0.637 0.272,-0.743 0.747,-1.353 1.428,-1.83 0.679,-0.479 1.454,-0.716 2.325,-0.716 0.761,0 1.469,0.171 2.121,0.517 0.653,0.343 1.142,0.887 1.469,1.631 0.053,0.106 0.19,0.45 0.408,1.035 v 51.092 h 1.305 v -19.1 c 0.108,-0.318 0.19,-0.505 0.245,-0.558 0.217,-0.584 0.571,-0.995 1.06,-1.232 0.49,-0.239 1.033,-0.359 1.632,-0.359 0.653,0 1.291,0.211 1.917,0.636 0.625,0.425 0.939,1.008 0.939,1.751 v 21.17 c 0,0.902 -0.218,1.83 -0.653,2.785 -0.436,0.955 -1.02,1.817 -1.754,2.586 -0.734,0.77 -1.564,1.406 -2.488,1.91 -0.926,0.504 -1.877,0.756 -2.856,0.756 H -3.427 c -1.415,0 -2.761,-0.516 -4.038,-1.552 -1.279,-1.034 -2.162,-2.135 -2.652,-3.301 -0.326,-0.426 -0.53,-0.876 -0.611,-1.354 -0.082,-0.477 -0.178,-0.954 -0.286,-1.432 v -21.806 c 0.108,-0.107 0.176,-0.238 0.204,-0.399 0.027,-0.159 0.067,-0.317 0.122,-0.476 0.272,-0.425 0.639,-0.744 1.102,-0.955 0.461,-0.213 0.938,-0.319 1.427,-0.319 0.543,0 1.061,0.106 1.551,0.319 0.489,0.211 0.842,0.583 1.06,1.114 0.054,0.106 0.19,0.345 0.408,0.716 v 19.1 l 1.061,0.08 0.326,-0.08 z"
             style="fill:#00748a;fill-opacity:1;fill-rule:nonzero;stroke:none"
             id="path222"
             inkscape:connector-curvature="0" />
        </g>
      </g>
      <g
         transform="translate(277.3843,196.2957)"
         id="g224">
        <path
           inkscape:connector-curvature="0"
           id="path226"
           style="fill:#00748a;fill-opacity:1;fill-rule:nonzero;stroke:none"
           d="m 0,0 c 0.867,-0.846 1.934,-1.27 3.199,-1.27 1.265,0 2.322,0.432 3.173,1.296 0.849,0.865 1.274,1.896 1.274,3.095 0,0.881 -0.253,1.684 -0.759,2.407 C 6.38,6.251 5.73,6.789 4.936,7.143 4.79,7.212 4.617,7.274 4.42,7.327 4.22,7.38 4.031,7.406 3.85,7.406 H 2.494 C 2.313,7.406 2.123,7.38 1.925,7.327 1.727,7.274 1.554,7.212 1.41,7.143 0.578,6.753 -0.082,6.207 -0.57,5.502 -1.059,4.796 -1.303,4.002 -1.303,3.121 -1.303,1.886 -0.868,0.846 0,0 m -2.495,-42.956 c 0.071,-0.283 0.126,-0.459 0.163,-0.528 0.144,-0.53 0.441,-0.945 0.895,-1.244 0.451,-0.3 0.966,-0.45 1.544,-0.45 0.615,0 1.204,0.22 1.764,0.661 0.56,0.441 0.84,0.996 0.84,1.667 v 19.732 h 0.868 v -19.944 c 0.036,-0.21 0.09,-0.353 0.163,-0.422 0.18,-0.495 0.496,-0.9 0.949,-1.218 0.452,-0.317 0.967,-0.476 1.545,-0.476 0.506,0 0.976,0.115 1.41,0.344 0.434,0.23 0.76,0.59 0.977,1.084 0.035,0.071 0.126,0.3 0.272,0.688 v 33.963 h 0.866 v -12.696 c 0.072,-0.212 0.127,-0.336 0.163,-0.371 0.144,-0.388 0.38,-0.661 0.705,-0.819 0.325,-0.159 0.685,-0.239 1.085,-0.239 0.434,0 0.858,0.141 1.274,0.423 0.414,0.282 0.623,0.67 0.623,1.164 v 14.073 c 0,0.598 -0.144,1.216 -0.433,1.851 -0.29,0.635 -0.678,1.207 -1.166,1.719 -0.489,0.512 -1.04,0.934 -1.655,1.27 C 9.742,-2.39 9.111,-2.222 8.46,-2.222 H -2.278 c -0.941,0 -1.835,-0.343 -2.685,-1.031 C -5.812,-3.94 -6.4,-4.673 -6.725,-5.449 -6.941,-5.73 -7.078,-6.031 -7.133,-6.348 -7.186,-6.666 -7.25,-6.982 -7.322,-7.3 v -14.495 c 0.072,-0.071 0.117,-0.159 0.136,-0.265 0.018,-0.106 0.045,-0.211 0.081,-0.317 0.181,-0.283 0.425,-0.495 0.732,-0.635 0.307,-0.141 0.624,-0.212 0.949,-0.212 0.362,0 0.705,0.071 1.031,0.212 0.325,0.14 0.56,0.388 0.705,0.741 0.035,0.07 0.125,0.228 0.271,0.476 v 12.696 l 0.705,0.053 0.217,-0.053 z" />
      </g>
      <g
         transform="translate(211.9648,237.63207)"
         id="g228">
        <path
           inkscape:connector-curvature="0"
           id="path230"
           style="fill:#007f33;fill-opacity:1;fill-rule:nonzero;stroke:none"
           d="m 0,0 c 10.145,0 18.368,8.224 18.368,18.368 0,10.145 -8.223,18.369 -18.368,18.369 -10.145,0 -18.368,-8.224 -18.368,-18.369 C -18.368,8.224 -10.145,0 0,0" />
      </g>
      <g
         transform="translate(280.5298,210.90828)"
         id="g236">
        <path
           inkscape:connector-curvature="0"
           id="path238"
           style="fill:#007f33;fill-opacity:1;fill-rule:nonzero;stroke:none"
           d="m 0,0 c 10.145,0 18.367,8.224 18.367,18.368 0,10.145 -8.222,18.369 -18.367,18.369 -10.145,0 -18.369,-8.224 -18.369,-18.369 C -18.369,8.224 -10.145,0 0,0" />
      </g>
      <path
         d="m 60.8517,263.745 c 2.007,-2.11 4.471,-3.165 7.399,-3.165 2.925,0 5.37,1.075 7.335,3.231 1.963,2.153 2.947,4.725 2.947,7.715 0,2.197 -0.586,4.198 -1.756,6.001 -1.171,1.801 -2.676,3.142 -4.514,4.022 -0.335,0.175 -0.733,0.33 -1.191,0.462 -0.461,0.131 -0.899,0.197 -1.317,0.197 h -3.135 c -0.419,0 -0.858,-0.066 -1.316,-0.197 -0.461,-0.132 -0.858,-0.287 -1.192,-0.462 -1.924,-0.969 -3.448,-2.331 -4.576,-4.088 -1.129,-1.76 -1.693,-3.738 -1.693,-5.935 0,-3.079 1.003,-5.671 3.009,-7.781 m -5.768,-107.088 c 0.167,-0.705 0.292,-1.144 0.376,-1.319 0.333,-1.319 1.023,-2.353 2.069,-3.099 1.045,-0.748 2.236,-1.121 3.574,-1.121 1.42,0 2.778,0.548 4.075,1.648 1.295,1.099 1.944,2.484 1.944,4.155 v 49.192 h 2.006 v -49.72 c 0.083,-0.527 0.208,-0.88 0.376,-1.055 0.418,-1.232 1.149,-2.242 2.195,-3.033 1.044,-0.791 2.235,-1.187 3.574,-1.187 1.169,0 2.257,0.284 3.26,0.857 1.003,0.571 1.756,1.472 2.257,2.703 0.082,0.176 0.292,0.747 0.627,1.715 v 84.668 h 2.006 V 209.41 c 0.167,-0.528 0.292,-0.837 0.377,-0.923 0.333,-0.969 0.877,-1.649 1.63,-2.045 0.752,-0.395 1.587,-0.593 2.508,-0.593 1.003,0 1.984,0.35 2.946,1.055 0.96,0.703 1.442,1.669 1.442,2.901 v 35.081 c 0,1.494 -0.335,3.033 -1.003,4.616 -0.67,1.582 -1.567,3.01 -2.696,4.286 -1.128,1.273 -2.404,2.328 -3.824,3.165 -1.423,0.835 -2.884,1.253 -4.389,1.253 h -24.828 c -2.175,0 -4.244,-0.857 -6.207,-2.572 -1.966,-1.714 -3.323,-3.54 -4.076,-5.473 -0.501,-0.705 -0.815,-1.451 -0.94,-2.242 -0.126,-0.791 -0.273,-1.582 -0.439,-2.374 V 209.41 c 0.166,-0.178 0.27,-0.396 0.313,-0.66 0.041,-0.263 0.104,-0.527 0.188,-0.791 0.418,-0.705 0.982,-1.232 1.693,-1.583 0.709,-0.352 1.442,-0.527 2.195,-0.527 0.834,0 1.63,0.175 2.382,0.527 0.753,0.351 1.295,0.967 1.63,1.847 0.083,0.175 0.292,0.571 0.627,1.187 v 31.651 l 1.63,0.132 0.502,-0.132 z"
         style="fill:#00748a;fill-opacity:1;fill-rule:nonzero;stroke:none"
         id="path218"
         inkscape:connector-curvature="0" />
      <g
         transform="translate(74.2515,228.7137)"
         id="g240">
        <path
           inkscape:connector-curvature="0"
           id="path242"
           style="fill:#e30613;fill-opacity:1;fill-rule:nonzero;stroke:none"
           d="m 0,0 c -0.057,0.057 -2.737,2.587 -5.469,5.825 2.794,3.483 5.507,7.604 5.507,10.485 0,3.458 -2.813,6.276 -6.276,6.276 -3.459,0 -6.276,-2.818 -6.276,-6.276 0,-3.043 2.619,-7.083 5.372,-10.492 -2.648,-3.179 -5.217,-5.699 -5.266,-5.75 -0.257,-0.244 -0.257,-0.657 -0.013,-0.907 0.252,-0.257 0.657,-0.257 0.909,-0.013 0.211,0.207 2.637,2.593 5.212,5.668 2.655,-3.137 5.198,-5.543 5.423,-5.75 0.125,-0.112 0.282,-0.174 0.439,-0.174 0.168,0 0.337,0.07 0.463,0.2 C 0.269,-0.645 0.257,-0.238 0,0 m -6.308,6.84 c -2.555,3.175 -4.923,6.828 -4.923,9.47 0,2.751 2.243,4.992 5,4.992 2.748,0 4.991,-2.241 4.991,-4.992 0,-2.493 -2.456,-6.219 -5.068,-9.47" />
      </g>
      <g
         transform="translate(74.2515,228.7137)"
         id="g244">
        <path
           inkscape:connector-curvature="0"
           id="path246"
           style="fill:none;stroke:#e30613;stroke-width:2.79699993;stroke-linecap:butt;stroke-linejoin:miter;stroke-miterlimit:10;stroke-dasharray:none;stroke-opacity:1"
           d="m 0,0 c -0.057,0.057 -2.737,2.587 -5.469,5.825 2.794,3.483 5.507,7.604 5.507,10.485 0,3.458 -2.813,6.276 -6.276,6.276 -3.459,0 -6.276,-2.818 -6.276,-6.276 0,-3.043 2.619,-7.083 5.372,-10.492 -2.648,-3.179 -5.217,-5.699 -5.266,-5.75 -0.257,-0.244 -0.257,-0.657 -0.013,-0.907 0.252,-0.257 0.657,-0.257 0.909,-0.013 0.211,0.207 2.637,2.593 5.212,5.668 2.655,-3.137 5.198,-5.543 5.423,-5.75 0.125,-0.112 0.282,-0.174 0.439,-0.174 0.168,0 0.337,0.07 0.463,0.2 C 0.269,-0.645 0.257,-0.238 0,0 Z m -6.308,6.84 c -2.555,3.175 -4.923,6.828 -4.923,9.47 0,2.751 2.243,4.992 5,4.992 2.748,0 4.991,-2.241 4.991,-4.992 0,-2.493 -2.456,-6.219 -5.068,-9.47 z" />
      </g>
      <g
         transform="translate(224.68173,198.9119)"
         id="g248">
        <path
           inkscape:connector-curvature="0"
           id="path250"
           style="fill:#e30613;fill-opacity:1;fill-rule:nonzero;stroke:none"
           d="m 0,0 c 0,4.569 -5.23,12.007 -8.441,12.007 -1.536,0 -2.344,-1.703 -2.758,-3.972 -0.25,0.284 -0.394,0.504 -0.527,0.655 v 5.825 c 0,0.567 -0.431,1.024 -0.992,1.024 -0.563,0 -0.992,-0.457 -0.992,-1.024 V 8.558 c -0.133,-0.265 -0.297,-0.508 -0.5,-0.739 -0.412,2.336 -1.211,4.106 -2.774,4.106 -3.216,0 -8.45,-7.433 -8.45,-12.004 0,-4.57 -0.608,-8.274 2.601,-8.274 3.215,0 9.033,3.704 9.033,8.274 0,1.614 0,3.582 -0.138,5.454 0.493,0.343 0.945,0.733 1.329,1.19 0.297,-0.332 0.667,-0.698 1.112,-1.073 -0.135,-1.884 -0.135,-3.867 -0.135,-5.492 0,-4.567 5.816,-8.274 9.03,-8.274 C 0.609,-8.274 0,-4.567 0,0" />
      </g>
      <g
         transform="translate(301.78667,203.44849)"
         id="g252">
        <path
           inkscape:connector-curvature="0"
           id="path254"
           style="fill:#e30613;fill-opacity:1;fill-rule:nonzero;stroke:none"
           d="m 0,0 c -0.797,-0.036 -1.6,-0.063 -2.337,-0.066 l 3.435,-4.18 C 1.579,-4.487 3.34,-5.466 4.707,-5.813 L 4.652,-6.099 c -0.007,0 -2.691,0.27 -4.041,1.334 l -3.811,4.626 -0.135,0.091 c -0.379,0.019 -0.749,0.036 -1.049,0.059 l 3.058,-3.715 -0.858,-3.155 c 0.21,-1.345 2.657,-5.491 2.667,-5.5 L 0.266,-12.55 c -1.843,1.353 -3.176,5.696 -3.176,5.696 l 0.808,2.977 -2.39,2.895 c 0.099,-0.523 0.165,-1.136 0.205,-1.811 0.051,-1.869 0.049,-3.333 -0.547,-3.519 -0.613,0.116 -0.792,1.568 -0.962,3.429 -0.04,0.665 -0.033,1.274 -0.008,1.803 l -2.013,-3.136 1.161,-2.94 c -0.16,-0.507 -1.127,-4.68 -2.496,-5.953 l -0.229,0.165 c -10e-4,0.008 1.94,4.416 2.011,5.715 l -1.248,3.084 2.608,4.058 c -0.306,-0.058 -0.66,-0.117 -1.047,-0.182 l -0.121,-0.106 -3.246,-5.062 c -1.204,-1.199 -3.838,-1.784 -3.849,-1.785 l -0.085,0.277 c 1.315,0.496 2.938,1.678 3.409,1.974 l 2.906,4.566 c -0.732,-0.085 -1.535,-0.153 -2.329,-0.199 -2.791,-0.126 -5.611,-0.114 -5.805,1.148 -0.008,0.12 0.015,0.251 0.077,0.375 0.298,0.692 1.209,0.929 2.37,1.008 2.005,0.119 4.812,-0.353 6.637,-0.704 l 0.533,0.57 c -0.667,0.17 -1.706,0.526 -2.443,1.22 l -0.088,0.125 -0.497,2.67 -2,2.162 0.196,0.211 2.441,-2.017 0.486,-2.671 c 0.621,-0.58 1.659,-0.908 2.242,-1.042 0.059,0.173 0.159,0.339 0.305,0.456 0.008,0.039 0.015,0.07 0.014,0.101 h -0.01 c -0.328,-0.02 -0.764,0.101 -0.792,0.579 -0.002,0.031 -0.004,0.059 -0.005,0.069 0.036,0.551 0.553,0.89 0.881,1.077 l -0.009,3.169 0.29,0.028 0.498,-3.199 C -4.711,4.562 -4.24,4.292 -4.16,3.808 -4.158,3.776 -4.148,3.76 -4.147,3.738 -4.118,3.272 -4.536,3.09 -4.863,3.07 L -4.874,3.069 c 0.013,-0.03 0.024,-0.071 0.026,-0.097 0.156,-0.113 0.274,-0.254 0.356,-0.429 0.561,0.213 1.564,0.652 2.077,1.228 L -2.166,6.646 -0.027,8.854 0.192,8.669 -1.512,6.347 -1.743,3.492 -1.787,3.44 C -2.43,2.666 -3.427,2.188 -4.069,1.94 L -3.471,1.438 C -1.714,2.02 1.029,2.803 3.034,2.929 4.196,2.979 5.139,2.854 5.517,2.202 5.583,2.086 5.619,1.968 5.616,1.848 5.582,0.562 2.794,0.216 0,0" />
      </g>
      <text
         id="text286"
         style="font-style:normal;font-variant:normal;font-weight:bold;font-stretch:normal;font-size:24px;line-height:30px;font-family:'Gravur Condensed CE';-inkscape-font-specification:'Gravur Condensed CE Bold';writing-mode:lr-tb;fill:#ffffff;fill-opacity:1;fill-rule:nonzero;stroke:none"
         transform="scale(1,-1)"
         x="267.32178"
         y="-221.92107">
        <tspan
           id="tspan284"
           sodipodi:role="line"
           style="font-style:normal;font-variant:normal;font-weight:bold;font-stretch:normal;font-size:24px;line-height:30px;font-family:'Gravur Condensed CE';-inkscape-font-specification:'Gravur Condensed CE Bold';font-variant-ligatures:normal;font-variant-caps:normal;font-variant-numeric:normal;font-feature-settings:normal;text-align:start;writing-mode:lr-tb;text-anchor:start"
           x="267.32178"
           y="-221.92107">0.6</tspan>
      </text>
      <g
         id="g1813"
         transform="translate(-0.21303518,-1.4732143)">
        <g
           id="g296"
           transform="translate(133.1373,259.0799)">
          <path
             d="M 0,0 C 0,0 -0.022,5.414 0.572,6.665 1.167,7.917 1.833,12 12,11.333 17.375,10.958 19.134,7.099 19.275,5.779 19.417,4.458 20.205,0.546 19.957,-0.145 19.709,-0.833 0.042,-0.75 0.042,-0.75 Z"
             style="fill:#e30613;fill-opacity:1;fill-rule:nonzero;stroke:none"
             id="path298"
             inkscape:connector-curvature="0" />
        </g>
        <g
           id="g300"
           transform="translate(148.6393,269.488)">
          <path
             d="m 0,0 c -4.309,-3.241 -12.955,-4.529 -15.195,-4.815 -0.121,-0.636 -0.2,-1.302 -0.243,-1.999 3.633,0.532 12.752,2.165 17.227,5.63 C 1.299,-0.727 0.703,-0.331 0,0"
             style="fill:#00748a;fill-opacity:0.95686275;fill-rule:nonzero;stroke:none"
             id="path302"
             inkscape:connector-curvature="0" />
        </g>
        <g
           id="g304"
           transform="translate(145.0123,270.4255)">
          <path
             d="m 0,0 c -3.393,-1.624 -7.76,-2.557 -10.541,-3.022 -0.326,-0.505 -0.576,-1.062 -0.762,-1.659 2.537,0.357 9.791,1.565 13.778,4.19 C 1.748,-0.267 0.928,-0.1 0,0"
             style="fill:#00748a;fill-opacity:0.95686275;fill-rule:nonzero;stroke:none"
             id="path306"
             inkscape:connector-curvature="0" />
        </g>
        <g
           id="g308"
           transform="translate(135.5885,268.6561)">
          <path
             d="M 0,0 C 2.084,0.396 4.695,1.013 7.061,1.889 3.605,1.864 1.404,1.162 0,0"
             style="fill:#0a6f85;fill-opacity:1;fill-rule:nonzero;stroke:none"
             id="path310"
             inkscape:connector-curvature="0" />
        </g>
        <g
           id="g312"
           transform="translate(152.903,260.8953)">
          <path
             d="M 0,0 C -0.023,0.997 -0.1,1.963 -0.254,2.88 -0.57,2.671 -0.9,2.465 -1.242,2.269 -0.721,1.498 -0.311,0.741 0,0"
             style="fill:#0a6f85;fill-opacity:1;fill-rule:nonzero;stroke:none"
             id="path314"
             inkscape:connector-curvature="0" />
        </g>
        <g
           id="g316"
           transform="translate(148.6902,261.741)">
          <path
             d="M 0,0 C 0.336,-0.561 0.601,-1.111 0.807,-1.646 H 3.438 C 3.141,-0.821 2.67,0.046 2.07,0.937 1.408,0.603 0.717,0.292 0,0"
             style="fill:#00748a;fill-opacity:0.95686275;fill-rule:nonzero;stroke:none"
             id="path318"
             inkscape:connector-curvature="0" />
        </g>
        <g
           id="g320"
           transform="translate(144.1549,260.0876)">
          <path
             d="M 0,0 C -0.014,0.046 -0.023,0.086 -0.039,0.132 -0.195,0.086 -0.355,0.046 -0.504,0 Z"
             style="fill:#0a6f85;fill-opacity:1;fill-rule:nonzero;stroke:none"
             id="path322"
             inkscape:connector-curvature="0" />
        </g>
        <g
           id="g328"
           transform="translate(145.2174,260.0936)">
          <path
             d="M 0,0 H 3.178 C 2.996,0.415 2.772,0.842 2.5,1.272 1.645,0.956 0.768,0.671 -0.115,0.41 -0.064,0.271 -0.035,0.135 0,0"
             style="fill:#00748a;fill-opacity:0.95686275;fill-rule:nonzero;stroke:none"
             id="path330"
             inkscape:connector-curvature="0" />
        </g>
        <g
           id="g332"
           transform="translate(152.4128,264.8583)">
          <path
             d="m 0,0 c -0.27,0.997 -0.682,1.898 -1.287,2.686 -4.785,-3.757 -14.369,-5.412 -17.975,-5.918 -0.006,-0.505 -0.017,-1.017 -0.017,-1.538 h 5.832 C -9.277,-3.963 -3.467,-2.465 0,0"
             style="fill:#00748a;fill-opacity:0.95686275;fill-rule:nonzero;stroke:none"
             id="path334"
             inkscape:connector-curvature="0" />
        </g>
      </g>
      <g
         transform="translate(143.024,245.96409)"
         id="g324">
        <path
           inkscape:connector-curvature="0"
           id="path326"
           style="fill:#00748a;fill-opacity:0.93981479;fill-rule:nonzero;stroke:none"
           d="m 0,0 c 5.615,0 10.166,4.555 10.166,10.166 0,0.456 -0.041,0.897 -0.096,1.333 h -20.136 c -0.061,-0.436 -0.1,-0.877 -0.1,-1.333 C -10.166,4.555 -5.617,0 0,0" />
      </g>
      <g
         transform="translate(164.3015,236.407)"
         id="g336">
        <path
           inkscape:connector-curvature="0"
           id="path338"
           style="fill:#00748a;fill-opacity:1;fill-rule:nonzero;stroke:none"
           d="m 0,0 c -0.625,1.372 -1.465,2.609 -2.52,3.715 -1.054,1.103 -2.246,2.018 -3.574,2.744 -1.33,0.724 -2.695,1.086 -4.101,1.086 h -23.206 c -2.034,0 -3.967,-0.743 -5.802,-2.23 -1.836,-1.485 -3.106,-3.068 -3.809,-4.745 -0.468,-0.61 -0.761,-1.257 -0.879,-1.942 -0.117,-0.687 -0.255,-1.372 -0.41,-2.059 v -31.325 c 0.155,-0.153 0.252,-0.343 0.293,-0.571 0.039,-0.23 0.097,-0.457 0.176,-0.687 0.39,-0.61 0.916,-1.067 1.582,-1.372 0.662,-0.304 1.348,-0.457 2.051,-0.457 0.779,0 1.523,0.153 2.226,0.457 0.703,0.305 1.211,0.838 1.525,1.602 0.075,0.15 0.272,0.494 0.586,1.028 v 27.439 l 1.522,0.114 0.47,-0.114 v -73.169 c 0.155,-0.612 0.272,-0.992 0.352,-1.143 0.311,-1.144 0.955,-2.04 1.932,-2.687 0.977,-0.649 2.091,-0.972 3.342,-0.972 1.326,0 2.596,0.475 3.809,1.429 1.209,0.952 1.816,2.153 1.816,3.601 v 42.644 h 1.876 v -2.709 l 11.485,1.918 v 31.088 h 1.875 v -27.439 c 0.154,-0.458 0.274,-0.725 0.352,-0.801 0.31,-0.839 0.82,-1.428 1.523,-1.771 0.703,-0.344 1.485,-0.515 2.345,-0.515 0.936,0 1.854,0.304 2.754,0.914 0.897,0.61 1.348,1.448 1.348,2.516 V -4.002 C 0.939,-2.707 0.625,-1.372 0,0" />
      </g>
      <g
         style="fill:#00748a;fill-opacity:1"
         transform="matrix(1,0,0,0.63089541,155.0533,154.63835)"
         id="g340">
        <path
           inkscape:connector-curvature="0"
           id="path342"
           style="fill:#00748a;fill-opacity:1;fill-rule:nonzero;stroke:none;stroke-width:1.10303438"
           d="M 0,1.251571 C 0,-2.6296533 -2.587,-5.776 -5.776,-5.776 c -3.191,0 -5.777,3.1463467 -5.777,7.027571 v 81.301307 c 0,3.882441 2.586,7.028788 5.777,7.028788 3.189,0 5.776,-3.146347 5.776,-7.028788 z" />
      </g>
      <path
         d="m 143.5006,170.4178 v -0.689 l 11.539,1.845 v 0.69 z"
         style="fill:#e30613;fill-opacity:1;fill-rule:nonzero;stroke:none"
         id="path346"
         inkscape:connector-curvature="0" />
      <path
         d="m 143.5006,167.0604 v -0.732 l 11.539,-4.563 v 0.733 z"
         style="fill:#e30613;fill-opacity:1;fill-rule:nonzero;stroke:none"
         id="path350"
         inkscape:connector-curvature="0" />
      <path
         d="m 143.5006,177.0203 v -0.689 l 11.539,1.845 v 0.69 z"
         style="fill:#e30613;fill-opacity:1;fill-rule:nonzero;stroke:none"
         id="path354"
         inkscape:connector-curvature="0" />
      <path
         d="m 143.5006,164.1346 v -0.732 l 11.539,-4.563 v 0.733 z"
         style="fill:#e30613;fill-opacity:1;fill-rule:nonzero;stroke:none"
         id="path358"
         inkscape:connector-curvature="0" />
      <path
         d="m 143.5006,173.7078 v -0.689 l 11.539,1.845 v 0.69 z"
         style="fill:#e30613;fill-opacity:1;fill-rule:nonzero;stroke:none"
         id="path362"
         inkscape:connector-curvature="0" />
      <text
         xml:space="preserve"
         style="font-style:normal;font-variant:normal;font-weight:normal;font-stretch:normal;font-size:10px;line-height:0px;font-family:'Gravur Condensed CE';-inkscape-font-specification:'Gravur Condensed CE';letter-spacing:0px;word-spacing:0px;fill:#000000;fill-opacity:1;stroke:none;stroke-width:0.75px;stroke-linecap:butt;stroke-linejoin:miter;stroke-opacity:1"
         x="27.519234"
         y="-139.65541"
         id="text133"
         transform="scale(1,-1)"><tspan
           sodipodi:role="line"
           id="tspan131"
           x="27.519234"
           y="-139.65541"
           style="font-style:normal;font-variant:normal;font-weight:normal;font-stretch:normal;font-size:10px;font-family:'Gravur Condensed CE';-inkscape-font-specification:'Gravur Condensed CE';font-variant-ligatures:normal;font-variant-caps:normal;font-variant-numeric:normal;font-feature-settings:normal;text-align:start;writing-mode:lr-tb;text-anchor:start;stroke-width:0.75px">AIDS-related deaths</tspan></text>
      <text
         transform="scale(1,-1)"
         id="text190"
         y="-139.65541"
         x="118.99501"
         style="font-style:normal;font-variant:normal;font-weight:normal;font-stretch:normal;font-size:10px;line-height:0px;font-family:'Gravur Condensed CE';-inkscape-font-specification:'Gravur Condensed CE, Normal';font-variant-ligatures:normal;font-variant-caps:normal;font-variant-numeric:normal;font-feature-settings:normal;text-align:start;letter-spacing:0px;word-spacing:0px;writing-mode:lr-tb;text-anchor:start;fill:#000000;fill-opacity:1;stroke:none;stroke-width:0.75px;stroke-linecap:butt;stroke-linejoin:miter;stroke-opacity:1"
         xml:space="preserve"><tspan
           style="font-style:normal;font-variant:normal;font-weight:normal;font-stretch:normal;font-size:10px;font-family:'Gravur Condensed CE';-inkscape-font-specification:'Gravur Condensed CE, Normal';font-variant-ligatures:normal;font-variant-caps:normal;font-variant-numeric:normal;font-feature-settings:normal;text-align:start;writing-mode:lr-tb;text-anchor:start;stroke-width:0.75px"
           y="-139.65541"
           x="118.99501"
           id="tspan188"
           sodipodi:role="line">Road traffic</tspan></text>
      <text
         xml:space="preserve"
         style="font-style:normal;font-variant:normal;font-weight:normal;font-stretch:normal;font-size:10px;line-height:0px;font-family:'Gravur Condensed CE';-inkscape-font-specification:'Gravur Condensed CE, Normal';font-variant-ligatures:normal;font-variant-caps:normal;font-variant-numeric:normal;font-feature-settings:normal;text-align:start;letter-spacing:0px;word-spacing:0px;writing-mode:lr-tb;text-anchor:start;fill:#000000;fill-opacity:1;stroke:none;stroke-width:0.75px;stroke-linecap:butt;stroke-linejoin:miter;stroke-opacity:1"
         x="187.46773"
         y="-139.65541"
         id="text233"
         transform="scale(1,-1)"><tspan
           sodipodi:role="line"
           id="tspan231"
           x="187.46773"
           y="-139.65541"
           style="font-style:normal;font-variant:normal;font-weight:normal;font-stretch:normal;font-size:10px;font-family:'Gravur Condensed CE';-inkscape-font-specification:'Gravur Condensed CE, Normal';font-variant-ligatures:normal;font-variant-caps:normal;font-variant-numeric:normal;font-feature-settings:normal;text-align:start;writing-mode:lr-tb;text-anchor:start;stroke-width:0.75px">Tuberculosis</tspan></text>
      <text
         transform="scale(1,-1)"
         id="text237"
         y="-139.65541"
         x="265.2627"
         style="font-style:normal;font-variant:normal;font-weight:normal;font-stretch:normal;font-size:10px;line-height:0px;font-family:'Gravur Condensed CE';-inkscape-font-specification:'Gravur Condensed CE, Normal';font-variant-ligatures:normal;font-variant-caps:normal;font-variant-numeric:normal;font-feature-settings:normal;text-align:start;letter-spacing:0px;word-spacing:0px;writing-mode:lr-tb;text-anchor:start;fill:#000000;fill-opacity:1;stroke:none;stroke-width:0.75px;stroke-linecap:butt;stroke-linejoin:miter;stroke-opacity:1"
         xml:space="preserve"><tspan
           style="font-style:normal;font-variant:normal;font-weight:normal;font-stretch:normal;font-size:10px;font-family:'Gravur Condensed CE';-inkscape-font-specification:'Gravur Condensed CE, Normal';font-variant-ligatures:normal;font-variant-caps:normal;font-variant-numeric:normal;font-feature-settings:normal;text-align:start;writing-mode:lr-tb;text-anchor:start;stroke-width:0.75px"
           y="-139.65541"
           x="265.2627"
           id="tspan235"
           sodipodi:role="line">Malaria</tspan></text>
      <text
         y="-300.41315"
         x="54.771183"
         transform="scale(1,-1)"
         style="font-variant:normal;font-weight:bold;font-stretch:normal;font-size:17.32500076px;font-family:ClarendonBT;-inkscape-font-specification:ClarendonBT-Bold;writing-mode:lr-tb;fill:#ffffff;fill-opacity:1;fill-rule:nonzero;stroke:none"
         id="text103">
        <tspan
           y="-300.41315"
           x="54.771183"
           style="font-style:normal;font-variant:normal;font-weight:bold;font-stretch:normal;font-size:24px;font-family:'Gravur Condensed CE';-inkscape-font-specification:'Gravur Condensed CE Bold';font-variant-ligatures:normal;font-variant-caps:normal;font-variant-numeric:normal;font-feature-settings:normal;text-align:start;writing-mode:lr-tb;text-anchor:start"
           sodipodi:role="line"
           id="tspan101">1.5</tspan>
      </text>
      <g
         id="g6392"
         transform="translate(0,2.9735888)">
        <g
           id="g232"
           transform="translate(142.62,273.6932)">
          <path
             d="m 0,0 c 10.145,0 18.368,8.224 18.368,18.368 0,10.145 -8.223,18.368 -18.368,18.368 -10.145,0 -18.367,-8.223 -18.367,-18.368 C -18.367,8.224 -10.145,0 0,0"
             style="fill:#007f33;fill-opacity:1;fill-rule:nonzero;stroke:none"
             id="path234"
             inkscape:connector-curvature="0" />
        </g>
        <text
           y="-283.75845"
           x="129.18495"
           transform="scale(1,-1)"
           style="font-style:normal;font-variant:normal;font-weight:bold;font-stretch:normal;font-size:24px;font-family:'Gravur Condensed CE';-inkscape-font-specification:'Gravur Condensed CE Bold';writing-mode:lr-tb;fill:#ffffff;fill-opacity:1;fill-rule:nonzero;stroke:none"
           id="text107">
          <tspan
             y="-283.75845"
             x="129.18495"
             style="font-style:normal;font-variant:normal;font-weight:bold;font-stretch:normal;font-size:24px;font-family:'Gravur Condensed CE';-inkscape-font-specification:'Gravur Condensed CE Bold';font-variant-ligatures:normal;font-variant-caps:normal;font-variant-numeric:normal;font-feature-settings:normal;text-align:start;writing-mode:lr-tb;text-anchor:start"
             sodipodi:role="line"
             id="tspan105">1.3</tspan>
        </text>
      </g>
      <text
         y="-249.30777"
         x="198.75777"
         transform="scale(1,-1)"
         style="font-style:normal;font-variant:normal;font-weight:bold;font-stretch:normal;font-size:24px;font-family:'Gravur Condensed CE';-inkscape-font-specification:'Gravur Condensed CE Bold';writing-mode:lr-tb;fill:#ffffff;fill-opacity:1;fill-rule:nonzero;stroke:none"
         id="text111">
        <tspan
           y="-249.30777"
           x="198.75777"
           style="font-style:normal;font-variant:normal;font-weight:bold;font-stretch:normal;font-size:24px;font-family:'Gravur Condensed CE';-inkscape-font-specification:'Gravur Condensed CE Bold';font-variant-ligatures:normal;font-variant-caps:normal;font-variant-numeric:normal;font-feature-settings:normal;text-align:start;writing-mode:lr-tb;text-anchor:start"
           sodipodi:role="line"
           id="tspan109">0.9</tspan>
      </text>
      <text
         xml:space="preserve"
         style="font-style:normal;font-variant:normal;font-weight:normal;font-stretch:normal;font-size:12px;line-height:13.0677166px;font-family:'Gravur Condensed CE';-inkscape-font-specification:'Gravur Condensed CE';letter-spacing:0px;word-spacing:0px;fill:#00748a;fill-opacity:1;stroke:none;stroke-width:0.75px;stroke-linecap:butt;stroke-linejoin:miter;stroke-opacity:1"
         x="225.21338"
         y="-318.33057"
         id="text6376"
         transform="scale(1,-1)"><tspan
           sodipodi:role="line"
           id="tspan6374"
           x="225.21338"
           y="-318.33057"
           style="font-style:normal;font-variant:normal;font-weight:bold;font-stretch:normal;line-height:13.0677166px;font-family:'Gravur Condensed CE';-inkscape-font-specification:'Gravur Condensed CE Bold';fill:#00748a;fill-opacity:1;stroke-width:0.75px">Number of deaths</tspan><tspan
           sodipodi:role="line"
           x="225.21338"
           y="-305.26285"
           style="font-style:normal;font-variant:normal;font-weight:bold;font-stretch:normal;line-height:13.0677166px;font-family:'Gravur Condensed CE';-inkscape-font-specification:'Gravur Condensed CE Bold';fill:#00748a;fill-opacity:1;stroke-width:0.75px"
           id="tspan6378">2012 (millions)</tspan><tspan
           sodipodi:role="line"
           x="225.21338"
           y="-292.19513"
           style="font-style:normal;font-variant:normal;font-weight:bold;font-stretch:normal;font-size:10px;line-height:13.0677166px;font-family:'Gravur Condensed CE';-inkscape-font-specification:'Gravur Condensed CE Bold';fill:#00748a;fill-opacity:1;stroke-width:0.75px"
           id="tspan6380">Source: GHE 2014</tspan></text>
      <text
         xml:space="preserve"
         style="font-style:normal;font-variant:normal;font-weight:normal;font-stretch:normal;font-size:12px;line-height:18.75px;font-family:'Gravur Condensed CE';-inkscape-font-specification:'Gravur Condensed CE';letter-spacing:0px;word-spacing:0px;fill:#ac9d93;fill-opacity:1;stroke:none;stroke-width:0.75px;stroke-linecap:butt;stroke-linejoin:miter;stroke-opacity:1;"
         x="139.24721"
         y="312.36493"
         id="text6384"
         transform="matrix(0,1,1,0,0,0)"><tspan
           sodipodi:role="line"
           id="tspan6382"
           x="139.24721"
           y="312.36493"
           style="font-size:4px;stroke-width:0.75px;fill:#ac9d93;">Figure modified slightly from original (WHO Fact Sheet#1--Road Safety: Basic Facts) by HS</tspan></text>
    </g>
  </g>
</svg>
