<?xml version="1.0" encoding="UTF-8" standalone="no"?>
<!-- Created with Inkscape (http://www.inkscape.org/) -->

<svg
   xmlns:dc="http://purl.org/dc/elements/1.1/"
   xmlns:cc="http://creativecommons.org/ns#"
   xmlns:rdf="http://www.w3.org/1999/02/22-rdf-syntax-ns#"
   xmlns:svg="http://www.w3.org/2000/svg"
   xmlns="http://www.w3.org/2000/svg"
   xmlns:sodipodi="http://sodipodi.sourceforge.net/DTD/sodipodi-0.dtd"
   xmlns:inkscape="http://www.inkscape.org/namespaces/inkscape"
   width="75.113892mm"
   height="19.954344mm"
   viewBox="0 0 75.113892 19.954344"
   version="1.1"
   id="svg3535"
   inkscape:version="0.92.0 unknown"
   sodipodi:docname="road-deaths-by-gender.svg"
   inkscape:export-filename="/home/hsevay/workspace2/trakayad/website/trakayad.org/presentations/omur-yilmaz-trnc-ethics-policies/images/road-deaths-by-gender.png"
   inkscape:export-xdpi="360"
   inkscape:export-ydpi="360">
  <defs
     id="defs3529">
    <clipPath
       clipPathUnits="userSpaceOnUse"
       id="clipPath112">
      <path
         d="M 0,0 H 595.276 V 841.89 H 0 Z"
         id="path110"
         inkscape:connector-curvature="0" />
    </clipPath>
    <clipPath
       clipPathUnits="userSpaceOnUse"
       id="clipPath138">
      <path
         d="M 0,0 H 595.276 V 841.89 H 0 Z"
         id="path136"
         inkscape:connector-curvature="0" />
    </clipPath>
  </defs>
  <sodipodi:namedview
     id="base"
     pagecolor="#ffffff"
     bordercolor="#666666"
     borderopacity="1.0"
     inkscape:pageopacity="0.0"
     inkscape:pageshadow="2"
     inkscape:zoom="3.959798"
     inkscape:cx="159.51286"
     inkscape:cy="33.683565"
     inkscape:document-units="mm"
     inkscape:current-layer="g3491"
     showgrid="false"
     fit-margin-top="0"
     fit-margin-left="0"
     fit-margin-right="0"
     fit-margin-bottom="0"
     inkscape:window-width="1920"
     inkscape:window-height="1056"
     inkscape:window-x="0"
     inkscape:window-y="24"
     inkscape:window-maximized="1" />
  <metadata
     id="metadata3532">
    <rdf:RDF>
      <cc:Work
         rdf:about="">
        <dc:format>image/svg+xml</dc:format>
        <dc:type
           rdf:resource="http://purl.org/dc/dcmitype/StillImage" />
        <dc:title></dc:title>
      </cc:Work>
    </rdf:RDF>
  </metadata>
  <g
     inkscape:label="Layer 1"
     inkscape:groupmode="layer"
     id="layer1"
     transform="translate(94.382549,-101.19125)">
    <g
       transform="matrix(0.35277777,0,0,-0.35277777,-217.74276,187.2945)"
       id="g3491">
      <text
         transform="scale(1,-1)"
         style="font-variant:normal;font-weight:bold;font-stretch:normal;font-size:41px;font-family:ClarendonBT;-inkscape-font-specification:ClarendonBT-Bold;writing-mode:lr-tb;fill:#007f33;fill-opacity:1;fill-rule:nonzero;stroke:none"
         id="text167"
         x="233.13641"
         y="-424.91519">
        <tspan
           x="315.87442"
           y="-425.20221"
           id="tspan165" />
      </text>
      <g
         id="g106"
         transform="translate(9.091373,-107.41619)">
        <g
           clip-path="url(#clipPath112)"
           id="g108">
          <g
             transform="translate(458.6786,303.2084)"
             id="g114">
            <path
               inkscape:connector-curvature="0"
               id="path116"
               style="fill:#007f33;fill-opacity:1;fill-rule:nonzero;stroke:none"
               d="m 0,0 c 0.065,-0.27 0.113,-0.438 0.146,-0.505 0.129,-0.505 0.396,-0.9 0.802,-1.186 0.405,-0.286 0.866,-0.429 1.385,-0.429 0.551,0 1.077,0.21 1.58,0.631 0.502,0.42 0.753,0.95 0.753,1.59 V 18.928 H 5.444 V -0.101 c 0.032,-0.202 0.08,-0.337 0.146,-0.404 0.161,-0.471 0.445,-0.858 0.85,-1.161 0.405,-0.303 0.867,-0.454 1.386,-0.454 0.453,0 0.875,0.109 1.263,0.328 0.389,0.219 0.681,0.563 0.875,1.035 0.032,0.067 0.113,0.285 0.243,0.656 v 32.405 h 0.778 V 20.19 c 0.065,-0.202 0.113,-0.32 0.146,-0.353 0.129,-0.371 0.34,-0.631 0.632,-0.782 0.291,-0.152 0.615,-0.228 0.972,-0.228 0.389,0 0.769,0.135 1.142,0.404 0.372,0.269 0.559,0.639 0.559,1.111 v 13.426 c 0,0.572 -0.13,1.161 -0.389,1.767 -0.26,0.606 -0.607,1.152 -1.045,1.64 -0.437,0.488 -0.932,0.892 -1.482,1.212 -0.552,0.319 -1.118,0.479 -1.702,0.479 H 0.194 c -0.843,0 -1.645,-0.328 -2.406,-0.984 -0.761,-0.656 -1.288,-1.355 -1.579,-2.095 -0.195,-0.269 -0.316,-0.555 -0.365,-0.858 -0.048,-0.303 -0.105,-0.606 -0.17,-0.908 V 20.19 c 0.065,-0.068 0.105,-0.151 0.122,-0.252 0.015,-0.101 0.04,-0.202 0.072,-0.303 0.162,-0.27 0.381,-0.472 0.657,-0.606 0.275,-0.135 0.559,-0.202 0.85,-0.202 0.324,0 0.632,0.067 0.924,0.202 0.291,0.134 0.502,0.37 0.632,0.707 0.032,0.067 0.113,0.218 0.243,0.454 V 32.304 L -0.194,32.355 0,32.304 Z m 2.236,40.986 c 0.778,-0.807 1.733,-1.211 2.868,-1.211 1.134,0 2.081,0.412 2.843,1.237 0.761,0.824 1.142,1.808 1.142,2.952 0,0.841 -0.227,1.607 -0.68,2.297 -0.454,0.689 -1.038,1.203 -1.75,1.539 -0.13,0.068 -0.284,0.127 -0.462,0.177 -0.178,0.051 -0.348,0.076 -0.51,0.076 H 4.472 C 4.309,48.053 4.139,48.028 3.961,47.977 3.783,47.927 3.629,47.868 3.5,47.8 2.754,47.43 2.163,46.908 1.725,46.236 1.288,45.562 1.069,44.805 1.069,43.964 c 0,-1.178 0.389,-2.17 1.167,-2.978 M 25.566,0 c 0.065,-0.27 0.113,-0.438 0.146,-0.505 0.129,-0.505 0.396,-0.9 0.802,-1.186 0.405,-0.286 0.867,-0.429 1.385,-0.429 0.551,0 1.077,0.21 1.58,0.631 0.502,0.42 0.753,0.95 0.753,1.59 V 18.928 H 31.01 V -0.101 c 0.032,-0.202 0.081,-0.337 0.146,-0.404 0.162,-0.471 0.445,-0.858 0.85,-1.161 0.405,-0.303 0.867,-0.454 1.386,-0.454 0.453,0 0.875,0.109 1.264,0.328 0.388,0.219 0.68,0.563 0.874,1.035 0.032,0.067 0.114,0.285 0.243,0.656 v 32.405 h 0.778 V 20.19 c 0.065,-0.202 0.113,-0.32 0.146,-0.353 0.129,-0.371 0.34,-0.631 0.632,-0.782 0.291,-0.152 0.615,-0.228 0.972,-0.228 0.389,0 0.769,0.135 1.142,0.404 0.372,0.269 0.559,0.639 0.559,1.111 v 13.426 c 0,0.572 -0.13,1.161 -0.389,1.767 -0.259,0.606 -0.607,1.152 -1.045,1.64 -0.437,0.488 -0.932,0.892 -1.482,1.212 -0.552,0.319 -1.118,0.479 -1.701,0.479 h -9.624 c -0.843,0 -1.645,-0.328 -2.406,-0.984 -0.762,-0.656 -1.289,-1.355 -1.58,-2.095 C 21.58,35.518 21.459,35.232 21.41,34.929 21.362,34.626 21.305,34.323 21.24,34.021 V 20.19 c 0.065,-0.068 0.105,-0.151 0.122,-0.252 0.016,-0.101 0.04,-0.202 0.073,-0.303 0.161,-0.27 0.38,-0.472 0.656,-0.606 0.275,-0.135 0.559,-0.202 0.85,-0.202 0.324,0 0.632,0.067 0.924,0.202 0.292,0.134 0.502,0.37 0.632,0.707 0.032,0.067 0.113,0.218 0.243,0.454 v 12.114 l 0.632,0.051 0.194,-0.051 z m 2.236,40.986 c 0.778,-0.807 1.733,-1.211 2.868,-1.211 1.134,0 2.082,0.412 2.843,1.237 0.761,0.824 1.143,1.808 1.143,2.952 0,0.841 -0.228,1.607 -0.681,2.297 -0.454,0.689 -1.037,1.203 -1.75,1.539 -0.13,0.068 -0.284,0.127 -0.462,0.177 -0.178,0.051 -0.348,0.076 -0.51,0.076 h -1.215 c -0.163,0 -0.333,-0.025 -0.51,-0.076 -0.179,-0.05 -0.333,-0.109 -0.462,-0.177 -0.746,-0.37 -1.337,-0.892 -1.774,-1.564 -0.438,-0.674 -0.657,-1.431 -0.657,-2.272 0,-1.178 0.389,-2.17 1.167,-2.978 M 51.132,0 c 0.065,-0.27 0.113,-0.438 0.146,-0.505 0.129,-0.505 0.397,-0.9 0.802,-1.186 0.405,-0.286 0.867,-0.429 1.385,-0.429 0.551,0 1.077,0.21 1.58,0.631 0.502,0.42 0.754,0.95 0.754,1.59 v 18.827 h 0.777 V -0.101 c 0.032,-0.202 0.081,-0.337 0.146,-0.404 0.162,-0.471 0.445,-0.858 0.851,-1.161 0.404,-0.303 0.866,-0.454 1.385,-0.454 0.453,0 0.875,0.109 1.264,0.328 0.389,0.219 0.68,0.563 0.875,1.035 0.031,0.067 0.113,0.285 0.243,0.656 v 32.405 h 0.777 V 20.19 c 0.065,-0.202 0.113,-0.32 0.146,-0.353 0.129,-0.371 0.34,-0.631 0.632,-0.782 0.292,-0.152 0.615,-0.228 0.972,-0.228 0.389,0 0.769,0.135 1.142,0.404 0.373,0.269 0.559,0.639 0.559,1.111 v 13.426 c 0,0.572 -0.13,1.161 -0.388,1.767 -0.26,0.606 -0.608,1.152 -1.046,1.64 -0.437,0.488 -0.931,0.892 -1.482,1.212 -0.551,0.319 -1.118,0.479 -1.701,0.479 h -9.624 c -0.843,0 -1.645,-0.328 -2.406,-0.984 -0.762,-0.656 -1.288,-1.355 -1.58,-2.095 -0.194,-0.269 -0.316,-0.555 -0.365,-0.858 -0.048,-0.303 -0.105,-0.606 -0.17,-0.908 V 20.19 c 0.065,-0.068 0.105,-0.151 0.122,-0.252 0.016,-0.101 0.04,-0.202 0.073,-0.303 0.162,-0.27 0.38,-0.472 0.656,-0.606 0.275,-0.135 0.559,-0.202 0.851,-0.202 0.323,0 0.631,0.067 0.923,0.202 0.292,0.134 0.502,0.37 0.632,0.707 0.032,0.067 0.113,0.218 0.243,0.454 v 12.114 l 0.632,0.051 0.194,-0.051 z m 2.236,40.986 c 0.778,-0.807 1.733,-1.211 2.868,-1.211 1.134,0 2.082,0.412 2.843,1.237 0.761,0.824 1.143,1.808 1.143,2.952 0,0.841 -0.227,1.607 -0.681,2.297 -0.454,0.689 -1.037,1.203 -1.75,1.539 -0.13,0.068 -0.284,0.127 -0.461,0.177 -0.179,0.051 -0.349,0.076 -0.511,0.076 h -1.215 c -0.162,0 -0.333,-0.025 -0.51,-0.076 -0.179,-0.05 -0.333,-0.109 -0.462,-0.177 -0.746,-0.37 -1.337,-0.892 -1.774,-1.564 -0.438,-0.674 -0.656,-1.431 -0.656,-2.272 0,-1.178 0.389,-2.17 1.166,-2.978 M 72.47,23.471 C 72.404,23.37 72.372,23.219 72.372,23.017 v -0.202 c 0,-0.505 0.154,-0.934 0.462,-1.287" />
          </g>
        </g>
      </g>
      <g
         id="g132"
         transform="translate(9.091373,-107.64339)">
        <g
           clip-path="url(#clipPath138)"
           id="g134">
          <g
             transform="translate(538.0074,302.6536)"
             id="g140">
            <path
               inkscape:connector-curvature="0"
               id="path142"
               style="fill:#00748a;fill-opacity:1;fill-rule:nonzero;stroke:none"
               d="m 0,0 c 0,-0.034 0.024,-0.11 0.073,-0.227 0.049,-0.118 0.089,-0.194 0.121,-0.227 0.13,-0.404 0.357,-0.69 0.681,-0.858 0.323,-0.169 0.68,-0.253 1.069,-0.253 0.81,0 1.393,0.421 1.75,1.262 0,0.067 0.016,0.134 0.049,0.202 0.032,0.067 0.048,0.118 0.048,0.151 v 14.537 h 1.07 V 0.05 c 0,-0.471 0.202,-0.858 0.607,-1.16 0.405,-0.303 0.818,-0.455 1.24,-0.455 0.486,0 0.85,0.093 1.093,0.278 0.243,0.184 0.429,0.429 0.559,0.732 0.129,0.303 0.202,0.656 0.219,1.06 0.016,0.404 0.024,0.807 0.024,1.211 l 0.049,12.821 0.097,0.05 H 13.61 L 8.214,33.869 h 0.827 l 0.097,-0.151 3.111,-10.752 c 0.162,-0.403 0.372,-0.731 0.632,-0.984 0.259,-0.252 0.583,-0.378 0.972,-0.378 0.583,0 1.004,0.184 1.264,0.555 0.258,0.37 0.388,0.841 0.388,1.413 v 0.202 c 0,0.067 -0.016,0.134 -0.048,0.202 l -3.403,11.912 c -0.162,0.505 -0.405,0.992 -0.729,1.464 -0.324,0.471 -0.697,0.883 -1.118,1.237 -0.421,0.353 -0.883,0.638 -1.385,0.858 -0.503,0.218 -1.013,0.328 -1.531,0.328 H 1.215 C 0.761,39.775 0.299,39.674 -0.17,39.472 -0.64,39.27 -1.078,39.009 -1.482,38.69 -1.888,38.369 -2.244,38 -2.552,37.579 -2.86,37.158 -3.079,36.729 -3.208,36.292 L -6.756,24.077 c -0.066,-0.101 -0.097,-0.252 -0.097,-0.454 v -0.202 c 0,-0.505 0.153,-0.934 0.461,-1.287 0.308,-0.354 0.705,-0.53 1.191,-0.53 0.356,0 0.681,0.108 0.972,0.328 0.292,0.218 0.486,0.512 0.584,0.883 l 3.208,11.054 H 0.34 L -5.006,14.587 h 4.957 L 0,14.537 Z m 1.531,42.046 c 0.761,-0.807 1.693,-1.211 2.795,-1.211 1.101,0 2.041,0.395 2.819,1.186 0.778,0.79 1.167,1.758 1.167,2.902 0,1.178 -0.389,2.162 -1.167,2.953 -0.778,0.79 -1.734,1.186 -2.868,1.186 -1.102,0 -2.025,-0.403 -2.77,-1.211 -0.746,-0.808 -1.118,-1.784 -1.118,-2.928 0,-1.11 0.38,-2.069 1.142,-2.877" />
          </g>
        </g>
      </g>
      <g
         id="g5743"
         transform="translate(1.7046324,-3.9333683)">
        <text
           transform="scale(1,-1)"
           id="text5729"
           y="-203.89165"
           x="347.34946"
           style="font-style:normal;font-weight:normal;font-size:9px;line-height:18.75px;font-family:sans-serif;letter-spacing:0px;word-spacing:0px;fill:#00748a;fill-opacity:1;stroke:none;stroke-width:0.75px;stroke-linecap:butt;stroke-linejoin:miter;stroke-opacity:1"
           xml:space="preserve"><tspan
             style="font-style:normal;font-variant:normal;font-weight:normal;font-stretch:normal;font-size:9px;line-height:0px;font-family:'Gravur Condensed CE';-inkscape-font-specification:'Gravur Condensed CE';fill:#00748a;fill-opacity:1;stroke-width:0.75px"
             y="-203.89165"
             x="347.34946"
             id="tspan5727"
             sodipodi:role="line">road deaths are among men </tspan></text>
        <g
           transform="translate(3.977476)"
           id="g5747">
          <text
             transform="scale(1,-1)"
             style="font-variant:normal;font-weight:bold;font-stretch:normal;font-size:41px;font-family:ClarendonBT;-inkscape-font-specification:ClarendonBT-Bold;writing-mode:lr-tb;fill:#007f33;fill-opacity:1;fill-rule:nonzero;stroke:none"
             x="341.77823"
             y="-214.57121"
             id="text179">
            <tspan
               style="font-style:normal;font-variant:normal;font-weight:bold;font-stretch:normal;font-family:'Gravur Condensed CE';-inkscape-font-specification:'Gravur Condensed CE Bold'"
               x="424.51624"
               y="-214.85823"
               id="tspan181">4</tspan>
          </text>
          <text
             y="-214.85823"
             x="341.77823"
             id="text177"
             style="font-variant:normal;font-weight:bold;font-stretch:normal;font-size:41px;font-family:ClarendonBT;-inkscape-font-specification:ClarendonBT-Bold;writing-mode:lr-tb;fill:#007f33;fill-opacity:1;fill-rule:nonzero;stroke:none"
             transform="scale(1,-1)">
            <tspan
               id="tspan5725"
               style="font-style:normal;font-variant:normal;font-weight:bold;font-stretch:normal;font-family:'Gravur Condensed CE';-inkscape-font-specification:'Gravur Condensed CE Bold'">3</tspan>
          </text>
          <text
             transform="scale(1,-1)"
             id="text5739"
             y="-222.81502"
             x="370.34122"
             style="font-style:normal;font-weight:normal;font-size:9px;line-height:18.75px;font-family:sans-serif;letter-spacing:0px;word-spacing:0px;fill:#00748a;fill-opacity:1;stroke:none;stroke-width:0.75px;stroke-linecap:butt;stroke-linejoin:miter;stroke-opacity:1"
             xml:space="preserve"><tspan
               style="font-style:normal;font-variant:normal;font-weight:normal;font-stretch:normal;font-size:18px;line-height:0px;font-family:'Gravur Condensed CE';-inkscape-font-specification:'Gravur Condensed CE';fill:#00748a;fill-opacity:1;stroke-width:0.75px"
               y="-222.81502"
               x="370.34122"
               id="tspan5737"
               sodipodi:role="line">out of</tspan></text>
        </g>
      </g>
      <text
         xml:space="preserve"
         style="font-style:normal;font-variant:normal;font-weight:normal;font-stretch:normal;font-size:12px;line-height:18.75px;font-family:'Gravur Condensed CE';-inkscape-font-specification:'Gravur Condensed CE';letter-spacing:0px;word-spacing:0px;fill:#ac9d93;fill-opacity:1;stroke:none;stroke-width:0.75px;stroke-linecap:butt;stroke-linejoin:miter;stroke-opacity:1"
         x="349.32312"
         y="-188.36809"
         id="text6384-2"
         transform="scale(1,-1)"><tspan
           sodipodi:role="line"
           id="tspan6382-9"
           x="349.32312"
           y="-188.36809"
           style="font-size:3.99999976px;fill:#ac9d93;stroke-width:0.75px">Figure modified slightly from original (WHO Fact Sheet#1--Road Safety: Basic Facts) by HS</tspan></text>
    </g>
  </g>
</svg>
