<?xml version="1.0" encoding="UTF-8" standalone="no"?>
<!-- Created with Inkscape (http://www.inkscape.org/) -->

<svg
   xmlns:dc="http://purl.org/dc/elements/1.1/"
   xmlns:cc="http://creativecommons.org/ns#"
   xmlns:rdf="http://www.w3.org/1999/02/22-rdf-syntax-ns#"
   xmlns:svg="http://www.w3.org/2000/svg"
   xmlns="http://www.w3.org/2000/svg"
   xmlns:sodipodi="http://sodipodi.sourceforge.net/DTD/sodipodi-0.dtd"
   xmlns:inkscape="http://www.inkscape.org/namespaces/inkscape"
   id="svg2"
   version="1.1"
   inkscape:version="0.92.0 unknown"
   width="977.3714"
   height="376.53333"
   viewBox="0 0 916.2857 353"
   sodipodi:docname="speed-vehicle-pedestrian-crash-survivalability-kph.svg"
   inkscape:export-filename="/home/hsevay/Pictures/hiz-yaya-carpisma-yasam-sansi-mph.png"
   inkscape:export-xdpi="90"
   inkscape:export-ydpi="90">
  <metadata
     id="metadata8">
    <rdf:RDF>
      <cc:Work
         rdf:about="">
        <dc:format>image/svg+xml</dc:format>
        <dc:type
           rdf:resource="http://purl.org/dc/dcmitype/StillImage" />
        <dc:title />
      </cc:Work>
    </rdf:RDF>
  </metadata>
  <defs
     id="defs6" />
  <sodipodi:namedview
     pagecolor="#ffffff"
     bordercolor="#666666"
     borderopacity="1"
     objecttolerance="10"
     gridtolerance="10"
     guidetolerance="10"
     inkscape:pageopacity="0"
     inkscape:pageshadow="2"
     inkscape:window-width="1920"
     inkscape:window-height="1056"
     id="namedview4"
     showgrid="false"
     inkscape:zoom="0.88332644"
     inkscape:cx="441.13045"
     inkscape:cy="247.54496"
     inkscape:window-x="0"
     inkscape:window-y="24"
     inkscape:window-maximized="1"
     inkscape:current-layer="svg2"
     fit-margin-top="0"
     fit-margin-left="0"
     fit-margin-right="0"
     fit-margin-bottom="0" />
  <rect
     style="opacity:1;fill:#ffffff;fill-opacity:1;stroke:#000000;stroke-width:3;stroke-miterlimit:4;stroke-dasharray:none;stroke-opacity:1"
     id="rect4888"
     width="300"
     height="350"
     x="1.5"
     y="1.5000024" />
  <text
     id="text4160"
     y="46.655411"
     x="150.48077"
     style="font-style:normal;font-weight:normal;font-size:40px;line-height:73.80000353%;font-family:sans-serif;letter-spacing:0px;word-spacing:0px;fill:#000000;fill-opacity:1;stroke:none;stroke-width:1px;stroke-linecap:butt;stroke-linejoin:miter;stroke-opacity:1"
     xml:space="preserve"><tspan
       style="font-style:normal;font-variant:normal;font-weight:bold;font-stretch:normal;font-size:27.5px;line-height:80.00000119%;font-family:'DIN Pro';-inkscape-font-specification:'DIN Pro Bold';text-align:center;text-anchor:middle"
       y="46.655411"
       x="150.48077"
       sodipodi:role="line"
       id="tspan2091">HIT BY A VEHICLE</tspan><tspan
       style="font-style:normal;font-variant:normal;font-weight:bold;font-stretch:normal;font-size:27.5px;line-height:80.00000119%;font-family:'DIN Pro';-inkscape-font-specification:'DIN Pro Bold';text-align:center;text-anchor:middle"
       y="76.175415"
       x="150.48077"
       sodipodi:role="line"
       id="tspan2095">TRAVELING AT:</tspan></text>
  <g
     id="g4313"
     transform="matrix(0.875,0,0,0.875,239.46662,-64.164193)">
    <g
       id="g2153">
      <g
         transform="matrix(0.80808081,0,0,0.80808081,-450.25826,374.16589)"
         style="fill:#2090cf;fill-opacity:1"
         id="g190">
        <path
           inkscape:connector-curvature="0"
           d="m 584.5,58.7 c 0,0 1,2.4 -1,3.2 -2,0.8 -3,-1.1 -3,-1.1 l -7.7,-17.6 c 0,0 -4.4,5.1 -4.5,5.7 -0.1,0.7 -1.5,11 -1.5,11 0,0 -0.2,2.5 -2.1,2.5 -1.8,0 -2.2,-2.2 -2.2,-2.2 0,0 1.3,-12 1.5,-13 0.2,-1 5.5,-7.6 5.5,-7.6 l -3,-11.5 c 0,0 -1.7,5.1 -2.3,5.5 -0.7,0.5 -6.8,2.3 -6.8,2.3 0,0 -4.3,1.3 -4.6,-0.1 -0.3,-1.4 1.7,-2.4 1.7,-2.4 0,0 7.5,-2.9 7.8,-3.1 0.3,-0.2 1.8,-6.7 2.3,-7.1 0.5,-0.5 4.4,-2.4 5.5,-2.3 1.1,0.1 9.5,3.2 10.2,4 0.7,0.8 5.1,7.2 5.1,7.2 0,0 1.4,2.5 0.2,3.2 -1.2,0.7 -3.6,-2.8 -3.6,-2.8 l -3.7,-4.6 -4.9,-2.4 c 0,0 3.4,8.6 3.4,9.3 0,0.7 -0.1,1.7 -0.2,2.2 -0.1,0.5 -1.1,1.8 -1.1,1.8 z"
           id="path192"
           style="fill:#2090cf;fill-opacity:1" />
        <path
           inkscape:connector-curvature="0"
           d="m 561.3,17.8 c 0,2.1 1.7,3.8 3.8,3.8 2.1,0 3.8,-1.7 3.8,-3.8 0,-2.1 -1.7,-3.8 -3.8,-3.8 -2.1,0 -3.8,1.7 -3.8,3.8"
           id="path194"
           style="fill:#2090cf;fill-opacity:1" />
      </g>
      <g
         transform="matrix(0.80808081,0,0,0.80808081,-450.25826,374.16589)"
         style="fill:#ef4637"
         id="g196">
        <circle
           cy="17.5"
           cx="607.5"
           r="4"
           id="circle198" />
        <path
           inkscape:connector-curvature="0"
           d="m 602.8,60.7 c 0,1.2 1,2.3 2.3,2.3 1.3,0 2.3,-1 2.3,-2.3 v -19 h 1 v 19 c 0,1.2 1,2.3 2.3,2.3 1.3,0 2.3,-1 2.3,-2.3 V 28 h 1 v 12 c 0,2.4 3.2,2.4 3.2,0 V 27.7 c 0,-2.7 -1.6,-5.3 -4.7,-5.3 h -9 c -2.9,0 -4.6,2.3 -4.6,5.2 V 40 c 0,2.4 3.2,2.4 3.2,0 V 28 h 1 z"
           id="path200" />
      </g>
      <g
         transform="matrix(0.80808081,0,0,0.80808081,-450.25826,374.16589)"
         style="fill:#2090cf;fill-opacity:1"
         id="g202">
        <path
           inkscape:connector-curvature="0"
           d="m 546.5,58.7 c 0,0 1,2.4 -1,3.2 -2,0.8 -3,-1.1 -3,-1.1 l -7.7,-17.6 c 0,0 -4.4,5.1 -4.5,5.7 -0.1,0.7 -1.5,11 -1.5,11 0,0 -0.2,2.5 -2.1,2.5 -1.8,0 -2.2,-2.2 -2.2,-2.2 0,0 1.3,-12 1.5,-13 0.2,-1 5.5,-7.6 5.5,-7.6 l -3,-11.5 c 0,0 -1.7,5.1 -2.3,5.5 -0.7,0.5 -6.8,2.3 -6.8,2.3 0,0 -4.3,1.3 -4.6,-0.1 -0.3,-1.4 1.7,-2.4 1.7,-2.4 0,0 7.5,-2.9 7.8,-3.1 0.3,-0.2 1.8,-6.7 2.3,-7.1 0.5,-0.5 4.4,-2.4 5.5,-2.3 1.1,0.1 9.5,3.2 10.2,4 0.7,0.8 5.1,7.2 5.1,7.2 0,0 1.4,2.5 0.2,3.2 -1.2,0.7 -3.6,-2.8 -3.6,-2.8 l -3.7,-4.6 -4.9,-2.4 c 0,0 3.4,8.6 3.4,9.3 0,0.7 -0.1,1.7 -0.2,2.2 -0.1,0.5 -1.1,1.8 -1.1,1.8 z"
           id="path204"
           style="fill:#2090cf;fill-opacity:1" />
        <path
           inkscape:connector-curvature="0"
           d="m 523.2,17.8 c 0,2.1 1.7,3.8 3.8,3.8 2.1,0 3.8,-1.7 3.8,-3.8 0,-2.1 -1.7,-3.8 -3.8,-3.8 -2.1,0 -3.8,1.7 -3.8,3.8"
           id="path206"
           style="fill:#2090cf;fill-opacity:1" />
      </g>
      <g
         transform="matrix(0.80808081,0,0,0.80808081,-450.25826,374.16589)"
         style="fill:#2090cf;fill-opacity:1"
         id="g208">
        <path
           inkscape:connector-curvature="0"
           d="m 508.4,58.7 c 0,0 1,2.4 -1,3.2 -2,0.8 -3,-1.1 -3,-1.1 l -7.7,-17.6 c 0,0 -4.4,5.1 -4.5,5.7 -0.1,0.7 -1.5,11 -1.5,11 0,0 -0.2,2.5 -2.1,2.5 -1.8,0 -2.2,-2.2 -2.2,-2.2 0,0 1.3,-12 1.5,-13 0.2,-1 5.5,-7.6 5.5,-7.6 l -3,-11.5 c 0,0 -1.7,5.1 -2.3,5.5 -0.7,0.5 -6.8,2.3 -6.8,2.3 0,0 -4.3,1.3 -4.6,-0.1 -0.3,-1.4 1.7,-2.4 1.7,-2.4 0,0 7.5,-2.9 7.8,-3.1 0.3,-0.2 1.8,-6.7 2.3,-7.1 0.5,-0.5 4.4,-2.4 5.5,-2.3 1.1,0.1 9.5,3.2 10.2,4 0.7,0.8 5.1,7.2 5.1,7.2 0,0 1.4,2.5 0.2,3.2 -1.2,0.7 -3.6,-2.8 -3.6,-2.8 l -3.7,-4.6 -4.9,-2.4 c 0,0 3.4,8.6 3.4,9.3 0,0.7 -0.1,1.7 -0.2,2.2 -0.1,0.5 -1.1,1.8 -1.1,1.8 z"
           id="path210"
           style="fill:#2090cf;fill-opacity:1" />
        <path
           inkscape:connector-curvature="0"
           d="m 485.2,17.8 c 0,2.1 1.7,3.8 3.8,3.8 2.1,0 3.8,-1.7 3.8,-3.8 0,-2.1 -1.7,-3.8 -3.8,-3.8 -2.1,0 -3.8,1.7 -3.8,3.8"
           id="path212"
           style="fill:#2090cf;fill-opacity:1" />
      </g>
      <g
         transform="matrix(0.80808081,0,0,0.80808081,-450.25826,374.16589)"
         style="fill:#2090cf;fill-opacity:1"
         id="g214">
        <path
           inkscape:connector-curvature="0"
           d="m 470.4,58.7 c 0,0 1,2.4 -1,3.2 -2,0.8 -3,-1.1 -3,-1.1 l -7.7,-17.6 c 0,0 -4.4,5.1 -4.5,5.7 -0.1,0.7 -1.5,11 -1.5,11 0,0 -0.2,2.5 -2.1,2.5 -1.8,0 -2.2,-2.2 -2.2,-2.2 0,0 1.3,-12 1.5,-13 0.2,-1 5.5,-7.6 5.5,-7.6 l -3,-11.5 c 0,0 -1.7,5.1 -2.3,5.5 -0.7,0.5 -6.8,2.3 -6.8,2.3 0,0 -4.3,1.3 -4.6,-0.1 -0.3,-1.4 1.7,-2.4 1.7,-2.4 0,0 7.5,-2.9 7.8,-3.1 0.3,-0.2 1.8,-6.7 2.3,-7.1 0.5,-0.5 4.4,-2.4 5.5,-2.3 1.1,0.1 9.5,3.2 10.2,4 0.7,0.8 5.1,7.2 5.1,7.2 0,0 1.4,2.5 0.2,3.2 -1.2,0.7 -3.6,-2.8 -3.6,-2.8 l -3.7,-4.6 -4.9,-2.4 c 0,0 3.4,8.6 3.4,9.3 0,0.7 -0.1,1.7 -0.2,2.2 -0.1,0.5 -1.1,1.8 -1.1,1.8 z"
           id="path216"
           style="fill:#2090cf;fill-opacity:1" />
        <path
           inkscape:connector-curvature="0"
           d="m 447.1,17.8 c 0,2.1 1.7,3.8 3.8,3.8 2.1,0 3.8,-1.7 3.8,-3.8 0,-2.1 -1.7,-3.8 -3.8,-3.8 -2.1,0 -3.8,1.7 -3.8,3.8"
           id="path218"
           style="fill:#2090cf;fill-opacity:1" />
      </g>
      <g
         transform="matrix(0.80808081,0,0,0.80808081,-450.25826,374.16589)"
         style="fill:#2090cf;fill-opacity:1"
         id="g220">
        <path
           inkscape:connector-curvature="0"
           d="m 394.2,58.7 c 0,0 1,2.4 -1,3.2 -2,0.8 -3,-1.1 -3,-1.1 l -7.7,-17.6 c 0,0 -4.4,5.1 -4.5,5.7 -0.1,0.7 -1.5,11 -1.5,11 0,0 -0.2,2.5 -2.1,2.5 -1.8,0 -2.2,-2.2 -2.2,-2.2 0,0 1.3,-12 1.5,-13 0.2,-1 5.5,-7.6 5.5,-7.6 l -3,-11.5 c 0,0 -1.7,5.1 -2.3,5.5 -0.7,0.5 -6.8,2.3 -6.8,2.3 0,0 -4.3,1.3 -4.6,-0.1 -0.3,-1.4 1.7,-2.4 1.7,-2.4 0,0 7.5,-2.9 7.8,-3.1 0.3,-0.2 1.8,-6.7 2.3,-7.1 0.5,-0.5 4.4,-2.4 5.5,-2.3 1.1,0.1 9.5,3.2 10.2,4 0.7,0.8 5.1,7.2 5.1,7.2 0,0 1.4,2.5 0.2,3.2 -1.2,0.7 -3.6,-2.8 -3.6,-2.8 l -3.7,-4.6 -4.9,-2.4 c 0,0 3.4,8.6 3.4,9.3 0,0.7 -0.1,1.7 -0.2,2.2 -0.1,0.5 -1.1,1.8 -1.1,1.8 z"
           id="path222"
           style="fill:#2090cf;fill-opacity:1" />
        <path
           inkscape:connector-curvature="0"
           d="m 371,17.8 c 0,2.1 1.7,3.8 3.8,3.8 2.1,0 3.8,-1.7 3.8,-3.8 0,-2.1 -1.7,-3.8 -3.8,-3.8 -2.1,0 -3.8,1.7 -3.8,3.8"
           id="path224"
           style="fill:#2090cf;fill-opacity:1" />
      </g>
      <g
         transform="matrix(0.80808081,0,0,0.80808081,-450.25826,374.16589)"
         style="fill:#2090cf;fill-opacity:1"
         id="g226">
        <path
           inkscape:connector-curvature="0"
           d="m 356.2,58.7 c 0,0 1,2.4 -1,3.2 -2,0.8 -3,-1.1 -3,-1.1 l -7.7,-17.6 c 0,0 -4.4,5.1 -4.5,5.7 -0.1,0.7 -1.5,11 -1.5,11 0,0 -0.2,2.5 -2.1,2.5 -1.8,0 -2.2,-2.2 -2.2,-2.2 0,0 1.3,-12 1.5,-13 0.2,-1 5.5,-7.6 5.5,-7.6 l -3,-11.5 c 0,0 -1.7,5.1 -2.3,5.5 -0.7,0.5 -6.8,2.3 -6.8,2.3 0,0 -4.3,1.3 -4.6,-0.1 -0.3,-1.4 1.7,-2.4 1.7,-2.4 0,0 7.5,-2.9 7.8,-3.1 0.3,-0.2 1.8,-6.7 2.3,-7.1 0.5,-0.5 4.4,-2.4 5.5,-2.3 1.1,0.1 9.5,3.2 10.2,4 0.7,0.8 5.1,7.2 5.1,7.2 0,0 1.4,2.5 0.2,3.2 -1.2,0.7 -3.6,-2.8 -3.6,-2.8 l -3.7,-4.6 -4.9,-2.4 c 0,0 3.4,8.6 3.4,9.3 0,0.7 -0.1,1.7 -0.2,2.2 -0.1,0.5 -1.1,1.8 -1.1,1.8 z"
           id="path228"
           style="fill:#2090cf;fill-opacity:1" />
        <path
           inkscape:connector-curvature="0"
           d="m 332.9,17.8 c 0,2.1 1.7,3.8 3.8,3.8 2.1,0 3.8,-1.7 3.8,-3.8 0,-2.1 -1.7,-3.8 -3.8,-3.8 -2.1,0 -3.8,1.7 -3.8,3.8"
           id="path230"
           style="fill:#2090cf;fill-opacity:1" />
      </g>
      <g
         transform="matrix(0.80808081,0,0,0.80808081,-450.25826,374.16589)"
         style="fill:#2090cf;fill-opacity:1"
         id="g232">
        <path
           inkscape:connector-curvature="0"
           d="m 318.1,58.7 c 0,0 1,2.4 -1,3.2 -2,0.8 -3,-1.1 -3,-1.1 l -7.7,-17.6 c 0,0 -4.4,5.1 -4.5,5.7 -0.1,0.7 -1.5,11 -1.5,11 0,0 -0.2,2.5 -2.1,2.5 -1.8,0 -2.2,-2.2 -2.2,-2.2 0,0 1.3,-12 1.5,-13 0.2,-1 5.5,-7.6 5.5,-7.6 l -3,-11.5 c 0,0 -1.7,5.1 -2.3,5.5 -0.7,0.5 -6.8,2.3 -6.8,2.3 0,0 -4.3,1.3 -4.6,-0.1 -0.3,-1.4 1.7,-2.4 1.7,-2.4 0,0 7.5,-2.9 7.8,-3.1 0.3,-0.2 1.8,-6.7 2.3,-7.1 0.5,-0.5 4.4,-2.4 5.5,-2.3 1.1,0.1 9.5,3.2 10.2,4 0.7,0.8 5.1,7.2 5.1,7.2 0,0 1.4,2.5 0.2,3.2 -1.2,0.7 -3.6,-2.8 -3.6,-2.8 l -3.7,-4.6 -4.9,-2.4 c 0,0 3.4,8.6 3.4,9.3 0,0.7 -0.1,1.7 -0.2,2.2 -0.1,0.5 -1.1,1.8 -1.1,1.8 z"
           id="path234"
           style="fill:#2090cf;fill-opacity:1" />
        <path
           inkscape:connector-curvature="0"
           d="m 294.9,17.8 c 0,2.1 1.7,3.8 3.8,3.8 2.1,0 3.8,-1.7 3.8,-3.8 0,-2.1 -1.7,-3.8 -3.8,-3.8 -2.1,0 -3.8,1.7 -3.8,3.8"
           id="path236"
           style="fill:#2090cf;fill-opacity:1" />
      </g>
      <g
         transform="matrix(0.80808081,0,0,0.80808081,-450.25826,374.16589)"
         style="fill:#2090cf;fill-opacity:1"
         id="g238">
        <path
           inkscape:connector-curvature="0"
           d="m 280.1,58.7 c 0,0 1,2.4 -1,3.2 -2,0.8 -3,-1.1 -3,-1.1 l -7.7,-17.6 c 0,0 -4.4,5.1 -4.5,5.7 -0.1,0.7 -1.5,11 -1.5,11 0,0 -0.2,2.5 -2.1,2.5 -1.8,0 -2.2,-2.2 -2.2,-2.2 0,0 1.3,-12 1.5,-13 0.2,-1 5.5,-7.6 5.5,-7.6 l -3,-11.5 c 0,0 -1.7,5.1 -2.3,5.5 -0.7,0.5 -6.8,2.3 -6.8,2.3 0,0 -4.3,1.3 -4.6,-0.1 -0.3,-1.4 1.7,-2.4 1.7,-2.4 0,0 7.5,-2.9 7.8,-3.1 0.3,-0.2 1.8,-6.7 2.3,-7.1 0.5,-0.5 4.4,-2.4 5.5,-2.3 1.1,0.1 9.5,3.2 10.2,4 0.7,0.8 5.1,7.2 5.1,7.2 0,0 1.4,2.5 0.2,3.2 -1.2,0.7 -3.6,-2.8 -3.6,-2.8 l -3.7,-4.6 -4.9,-2.4 c 0,0 3.4,8.6 3.4,9.3 0,0.7 -0.1,1.7 -0.2,2.2 -0.1,0.5 -1.1,1.8 -1.1,1.8 z"
           id="path240"
           style="fill:#2090cf;fill-opacity:1" />
        <path
           inkscape:connector-curvature="0"
           d="m 256.8,17.8 c 0,2.1 1.7,3.8 3.8,3.8 2.1,0 3.8,-1.7 3.8,-3.8 0,-2.1 -1.7,-3.8 -3.8,-3.8 -2.1,0 -3.8,1.7 -3.8,3.8"
           id="path242"
           style="fill:#2090cf;fill-opacity:1" />
      </g>
      <g
         transform="matrix(0.80808081,0,0,0.80808081,-450.25826,374.16589)"
         style="fill:#2090cf;fill-opacity:1"
         id="g244">
        <path
           inkscape:connector-curvature="0"
           d="m 432.3,58.7 c 0,0 1,2.4 -1,3.2 -2,0.8 -3,-1.1 -3,-1.1 l -7.7,-17.6 c 0,0 -4.4,5.1 -4.5,5.7 -0.1,0.7 -1.5,11 -1.5,11 0,0 -0.2,2.5 -2.1,2.5 -1.8,0 -2.2,-2.2 -2.2,-2.2 0,0 1.3,-12 1.5,-13 0.2,-1 5.5,-7.6 5.5,-7.6 l -3,-11.5 c 0,0 -1.7,5.1 -2.3,5.5 -0.7,0.5 -6.8,2.3 -6.8,2.3 0,0 -4.3,1.3 -4.6,-0.1 -0.3,-1.4 1.7,-2.4 1.7,-2.4 0,0 7.5,-2.9 7.8,-3.1 0.3,-0.2 1.8,-6.7 2.3,-7.1 0.5,-0.5 4.4,-2.4 5.5,-2.3 1.1,0.1 9.5,3.2 10.2,4 0.7,0.8 5.1,7.2 5.1,7.2 0,0 1.4,2.5 0.2,3.2 -1.2,0.7 -3.6,-2.8 -3.6,-2.8 l -3.7,-4.6 -4.9,-2.4 c 0,0 3.4,8.6 3.4,9.3 0,0.7 -0.1,1.7 -0.2,2.2 -0.1,0.5 -1.1,1.8 -1.1,1.8 z"
           id="path246"
           style="fill:#2090cf;fill-opacity:1" />
        <path
           inkscape:connector-curvature="0"
           d="m 409.1,17.8 c 0,2.1 1.7,3.8 3.8,3.8 2.1,0 3.8,-1.7 3.8,-3.8 0,-2.1 -1.7,-3.8 -3.8,-3.8 -2.2,0 -3.8,1.7 -3.8,3.8"
           id="path248"
           style="fill:#2090cf;fill-opacity:1" />
      </g>
    </g>
  </g>
  <rect
     style="opacity:1;fill:#ffffff;fill-opacity:1;stroke:#000000;stroke-width:3;stroke-miterlimit:4;stroke-dasharray:none;stroke-opacity:1"
     id="rect5066"
     width="300"
     height="350"
     x="308.14285"
     y="1.5000062" />
  <g
     id="g4536"
     transform="matrix(0.70850194,0,0,0.70850194,351.71623,689.60594)">
    <g
       id="g8"
       style="fill:#ef4637"
       transform="translate(-282.42108,-729.22517)">
      <circle
         id="circle10"
         r="4"
         cx="607.29999"
         cy="144.89999" />
      <path
         id="path12"
         d="m 602.5,188 c 0,1.2 1,2.3 2.3,2.3 1.3,0 2.3,-1 2.3,-2.3 v -19 h 1 v 19 c 0,1.2 1,2.3 2.3,2.3 1.3,0 2.3,-1 2.3,-2.3 v -32.7 h 1 v 12.1 c 0,2.4 3.2,2.4 3.2,0 v -12.3 c 0,-2.7 -1.6,-5.3 -4.7,-5.3 h -9 c -2.9,0 -4.6,2.3 -4.6,5.2 v 12.4 c 0,2.4 3.2,2.4 3.2,0 v -12.1 h 1 z"
         inkscape:connector-curvature="0" />
    </g>
    <g
       id="g14"
       style="fill:#ef4637"
       transform="translate(-282.42108,-729.22517)">
      <circle
         id="circle16"
         r="4"
         cx="569.29999"
         cy="144.89999" />
      <path
         id="path18"
         d="m 564.5,188 c 0,1.2 1,2.3 2.3,2.3 1.3,0 2.3,-1 2.3,-2.3 v -19 h 1 v 19 c 0,1.2 1,2.3 2.3,2.3 1.3,0 2.3,-1 2.3,-2.3 v -32.7 h 1 v 12.1 c 0,2.4 3.2,2.4 3.2,0 v -12.3 c 0,-2.7 -1.6,-5.3 -4.7,-5.3 h -9 c -2.9,0 -4.6,2.3 -4.6,5.2 v 12.4 c 0,2.4 3.2,2.4 3.2,0 v -12.1 h 1 z"
         inkscape:connector-curvature="0" />
    </g>
    <g
       id="g20"
       style="fill:#ef4637"
       transform="translate(-282.42108,-729.22517)">
      <circle
         id="circle22"
         r="4"
         cx="531.20001"
         cy="144.89999" />
      <path
         id="path24"
         d="m 526.5,188 c 0,1.2 1,2.3 2.3,2.3 1.3,0 2.3,-1 2.3,-2.3 v -19 h 1 v 19 c 0,1.2 1,2.3 2.3,2.3 1.2,0 2.3,-1 2.3,-2.3 v -32.7 h 1 v 12.1 c 0,2.4 3.2,2.4 3.2,0 v -12.3 c 0,-2.7 -1.6,-5.3 -4.7,-5.3 h -9 c -2.9,0 -4.6,2.3 -4.6,5.2 v 12.4 c 0,2.4 3.2,2.4 3.2,0 v -12.1 h 1 z"
         inkscape:connector-curvature="0" />
    </g>
    <g
       id="g26"
       style="fill:#ef4637"
       transform="translate(-282.42108,-729.22517)">
      <circle
         id="circle28"
         r="4"
         cx="493.20001"
         cy="144.89999" />
      <path
         id="path30"
         d="m 488.4,188 c 0,1.2 1,2.3 2.3,2.3 1.3,0 2.3,-1 2.3,-2.3 v -19 h 1 v 19 c 0,1.2 1,2.3 2.3,2.3 1.3,0 2.3,-1 2.3,-2.3 v -32.7 h 1 v 12.1 c 0,2.4 3.2,2.4 3.2,0 v -12.3 c 0,-2.7 -1.6,-5.3 -4.7,-5.3 h -9 c -2.9,0 -4.6,2.3 -4.6,5.2 v 12.4 c 0,2.4 3.2,2.4 3.2,0 v -12.1 h 1 z"
         inkscape:connector-curvature="0" />
    </g>
    <g
       id="g32"
       style="fill:#ef4637"
       transform="translate(-282.42108,-729.22517)">
      <circle
         id="circle34"
         r="4"
         cx="455.20001"
         cy="144.89999" />
      <path
         id="path36"
         d="m 450.4,188 c 0,1.2 1,2.3 2.3,2.3 1.3,0 2.3,-1 2.3,-2.3 v -19 h 1 v 19 c 0,1.2 1,2.3 2.3,2.3 1.3,0 2.3,-1 2.3,-2.3 v -32.7 h 1 v 12.1 c 0,2.4 3.2,2.4 3.2,0 v -12.3 c 0,-2.7 -1.6,-5.3 -4.7,-5.3 h -9 c -2.9,0 -4.6,2.3 -4.6,5.2 v 12.4 c 0,2.4 3.2,2.4 3.2,0 v -12.1 h 1 z"
         inkscape:connector-curvature="0" />
    </g>
    <g
       id="g38"
       style="fill:#2090cf;fill-opacity:0.94313725"
       transform="translate(-282.42108,-729.22517)">
      <path
         style="fill:#2090cf;fill-opacity:0.94313725"
         id="path40"
         d="m 394.2,186 c 0,0 1,2.4 -1,3.2 -2,0.8 -3,-1.1 -3,-1.1 l -7.7,-17.6 c 0,0 -4.4,5.1 -4.5,5.7 -0.1,0.7 -1.5,11 -1.5,11 0,0 -0.2,2.5 -2.1,2.5 -1.8,0 -2.2,-2.2 -2.2,-2.2 0,0 1.3,-12 1.5,-13 0.2,-1 5.5,-7.6 5.5,-7.6 l -3,-11.5 c 0,0 -1.7,5.1 -2.3,5.5 -0.7,0.5 -6.8,2.3 -6.8,2.3 0,0 -4.3,1.3 -4.6,-0.1 -0.3,-1.4 1.7,-2.4 1.7,-2.4 0,0 7.5,-2.9 7.8,-3.1 0.3,-0.2 1.8,-6.7 2.3,-7.1 0.5,-0.5 4.4,-2.4 5.5,-2.3 1.1,0.1 9.5,3.2 10.2,4 0.7,0.8 5.1,7.2 5.1,7.2 0,0 1.4,2.5 0.2,3.2 -1.2,0.7 -3.6,-2.8 -3.6,-2.8 l -3.7,-4.6 -4.9,-2.4 c 0,0 3.4,8.6 3.4,9.3 0,0.7 -0.1,1.7 -0.2,2.2 -0.1,0.5 -1.1,1.8 -1.1,1.8 z"
         inkscape:connector-curvature="0" />
      <path
         style="fill:#2090cf;fill-opacity:0.94313725"
         id="path42"
         d="m 370.9,145.1 c 0,2.1 1.7,3.8 3.8,3.8 2.1,0 3.8,-1.7 3.8,-3.8 0,-2.1 -1.7,-3.8 -3.8,-3.8 -2.1,0 -3.8,1.7 -3.8,3.8"
         inkscape:connector-curvature="0" />
    </g>
    <g
       id="g44"
       style="fill:#2090cf;fill-opacity:0.94313725"
       transform="translate(-282.42108,-729.22517)">
      <path
         style="fill:#2090cf;fill-opacity:0.94313725"
         id="path46"
         d="m 356.1,186 c 0,0 1,2.4 -1,3.2 -2,0.8 -3,-1.1 -3,-1.1 l -7.7,-17.6 c 0,0 -4.4,5.1 -4.5,5.7 -0.1,0.7 -1.5,11 -1.5,11 0,0 -0.2,2.5 -2.1,2.5 -1.8,0 -2.2,-2.2 -2.2,-2.2 0,0 1.3,-12 1.5,-13 0.2,-1 5.5,-7.6 5.5,-7.6 l -3,-11.5 c 0,0 -1.7,5.1 -2.3,5.5 -0.7,0.5 -6.8,2.3 -6.8,2.3 0,0 -4.3,1.3 -4.6,-0.1 -0.3,-1.4 1.7,-2.4 1.7,-2.4 0,0 7.5,-2.9 7.8,-3.1 0.3,-0.2 1.8,-6.7 2.3,-7.1 0.5,-0.5 4.4,-2.4 5.5,-2.3 1.1,0.1 9.5,3.2 10.2,4 0.7,0.8 5.1,7.2 5.1,7.2 0,0 1.4,2.5 0.2,3.2 -1.2,0.7 -3.6,-2.8 -3.6,-2.8 l -3.7,-4.6 -4.9,-2.4 c 0,0 3.4,8.6 3.4,9.3 0,0.7 -0.1,1.7 -0.2,2.2 -0.1,0.5 -1.1,1.8 -1.1,1.8 z"
         inkscape:connector-curvature="0" />
      <path
         style="fill:#2090cf;fill-opacity:0.94313725"
         id="path48"
         d="m 332.9,145.1 c 0,2.1 1.7,3.8 3.8,3.8 2.1,0 3.8,-1.7 3.8,-3.8 0,-2.1 -1.7,-3.8 -3.8,-3.8 -2.1,0 -3.8,1.7 -3.8,3.8"
         inkscape:connector-curvature="0" />
    </g>
    <g
       id="g50"
       style="fill:#2090cf;fill-opacity:0.94313725"
       transform="translate(-282.42108,-729.22517)">
      <path
         style="fill:#2090cf;fill-opacity:0.94313725"
         id="path52"
         d="m 318.1,186 c 0,0 1,2.4 -1,3.2 -2,0.8 -3,-1.1 -3,-1.1 l -7.7,-17.6 c 0,0 -4.4,5.1 -4.5,5.7 -0.1,0.7 -1.5,11 -1.5,11 0,0 -0.2,2.5 -2.1,2.5 -1.8,0 -2.2,-2.2 -2.2,-2.2 0,0 1.3,-12 1.5,-13 0.2,-1 5.5,-7.6 5.5,-7.6 l -3,-11.5 c 0,0 -1.7,5.1 -2.3,5.5 -0.7,0.5 -6.8,2.3 -6.8,2.3 0,0 -4.3,1.3 -4.6,-0.1 -0.3,-1.4 1.7,-2.4 1.7,-2.4 0,0 7.5,-2.9 7.8,-3.1 0.3,-0.2 1.8,-6.7 2.3,-7.1 0.5,-0.5 4.4,-2.4 5.5,-2.3 1.1,0.1 9.5,3.2 10.2,4 0.7,0.8 5.1,7.2 5.1,7.2 0,0 1.4,2.5 0.2,3.2 -1.2,0.7 -3.6,-2.8 -3.6,-2.8 l -3.7,-4.6 -4.9,-2.4 c 0,0 3.4,8.6 3.4,9.3 0,0.7 -0.1,1.7 -0.2,2.2 -0.1,0.5 -1.1,1.8 -1.1,1.8 z"
         inkscape:connector-curvature="0" />
      <path
         style="fill:#2090cf;fill-opacity:0.94313725"
         id="path54"
         d="m 294.9,145.1 c 0,2.1 1.7,3.8 3.8,3.8 2.1,0 3.8,-1.7 3.8,-3.8 0,-2.1 -1.7,-3.8 -3.8,-3.8 -2.2,0 -3.8,1.7 -3.8,3.8"
         inkscape:connector-curvature="0" />
    </g>
    <g
       id="g56"
       style="fill:#2090cf;fill-opacity:0.94313725"
       transform="translate(-282.42108,-729.22517)">
      <path
         style="fill:#2090cf;fill-opacity:0.94313725"
         id="path58"
         d="m 280.1,186 c 0,0 1,2.4 -1,3.2 -2,0.8 -3,-1.1 -3,-1.1 l -7.7,-17.6 c 0,0 -4.4,5.1 -4.5,5.7 -0.1,0.7 -1.5,11 -1.5,11 0,0 -0.2,2.5 -2.1,2.5 -1.8,0 -2.2,-2.2 -2.2,-2.2 0,0 1.3,-12 1.5,-13 0.2,-1 5.5,-7.6 5.5,-7.6 l -3,-11.5 c 0,0 -1.7,5.1 -2.3,5.5 -0.7,0.5 -6.8,2.3 -6.8,2.3 0,0 -4.3,1.3 -4.6,-0.1 -0.3,-1.4 1.7,-2.4 1.7,-2.4 0,0 7.5,-2.9 7.8,-3.1 0.3,-0.2 1.8,-6.7 2.3,-7.1 0.5,-0.5 4.4,-2.4 5.5,-2.3 1.1,0.1 9.5,3.2 10.2,4 0.7,0.8 5.1,7.2 5.1,7.2 0,0 1.4,2.5 0.2,3.2 -1.2,0.7 -3.6,-2.8 -3.6,-2.8 l -3.7,-4.6 -4.9,-2.4 c 0,0 3.4,8.6 3.4,9.3 0,0.7 -0.1,1.7 -0.2,2.2 -0.1,0.5 -1.1,1.8 -1.1,1.8 z"
         inkscape:connector-curvature="0" />
      <path
         style="fill:#2090cf;fill-opacity:0.94313725"
         id="path60"
         d="m 256.8,145.1 c 0,2.1 1.7,3.8 3.8,3.8 2.1,0 3.8,-1.7 3.8,-3.8 0,-2.1 -1.7,-3.8 -3.8,-3.8 -2.1,0 -3.8,1.7 -3.8,3.8"
         inkscape:connector-curvature="0" />
    </g>
    <g
       id="g62"
       style="fill:#2090cf;fill-opacity:0.94313725"
       transform="translate(-282.42108,-729.22517)">
      <path
         style="fill:#2090cf;fill-opacity:0.94313725"
         id="path64"
         d="m 432.2,186 c 0,0 1,2.4 -1,3.2 -2,0.8 -3,-1.1 -3,-1.1 l -7.7,-17.6 c 0,0 -4.4,5.1 -4.5,5.7 -0.1,0.7 -1.5,11 -1.5,11 0,0 -0.2,2.5 -2.1,2.5 -1.8,0 -2.2,-2.2 -2.2,-2.2 0,0 1.3,-12 1.5,-13 0.2,-1 5.5,-7.6 5.5,-7.6 l -3,-11.5 c 0,0 -1.7,5.1 -2.3,5.5 -0.7,0.5 -6.8,2.3 -6.8,2.3 0,0 -4.3,1.3 -4.6,-0.1 -0.3,-1.4 1.7,-2.4 1.7,-2.4 0,0 7.5,-2.9 7.8,-3.1 0.3,-0.2 1.8,-6.7 2.3,-7.1 0.5,-0.5 4.4,-2.4 5.5,-2.3 1.1,0.1 9.5,3.2 10.2,4 0.7,0.8 5.1,7.2 5.1,7.2 0,0 1.4,2.5 0.2,3.2 -1.2,0.7 -3.6,-2.8 -3.6,-2.8 l -3.7,-4.6 -4.9,-2.4 c 0,0 3.4,8.6 3.4,9.3 0,0.7 -0.1,1.7 -0.2,2.2 -0.1,0.5 -1.1,1.8 -1.1,1.8 z"
         inkscape:connector-curvature="0" />
      <path
         style="fill:#2090cf;fill-opacity:0.94313725"
         id="path66"
         d="m 409,145.1 c 0,2.1 1.7,3.8 3.8,3.8 2.1,0 3.8,-1.7 3.8,-3.8 0,-2.1 -1.7,-3.8 -3.8,-3.8 -2.2,0 -3.8,1.7 -3.8,3.8"
         inkscape:connector-curvature="0" />
    </g>
  </g>
  <rect
     y="1.5000033"
     x="614.78571"
     height="350"
     width="300"
     id="rect5064"
     style="opacity:1;fill:#ffffff;fill-opacity:1;stroke:#000000;stroke-width:3;stroke-miterlimit:4;stroke-dasharray:none;stroke-opacity:1" />
  <g
     id="g4568"
     transform="matrix(0.70707088,0,0,0.70707088,658.89223,598.75388)">
    <g
       id="g438"
       style="fill:#ef4637"
       transform="translate(-282.42108,-729.22517)">
      <circle
         id="circle440"
         r="4"
         cx="606.90002"
         cy="272.20001" />
      <path
         id="path442"
         d="m 602.1,315.4 c 0,1.2 1,2.3 2.3,2.3 1.3,0 2.3,-1 2.3,-2.3 v -19 h 1 v 19 c 0,1.2 1,2.3 2.3,2.3 1.3,0 2.3,-1 2.3,-2.3 v -32.7 h 1 v 12.1 c 0,2.4 3.2,2.4 3.2,0 v -12.3 c 0,-2.7 -1.6,-5.3 -4.7,-5.3 h -9 c -2.9,0 -4.6,2.3 -4.6,5.2 v 12.4 c 0,2.4 3.2,2.4 3.2,0 v -12.1 h 1 z"
         inkscape:connector-curvature="0" />
    </g>
    <g
       id="g444"
       style="fill:#ef4637"
       transform="translate(-282.42108,-729.22517)">
      <circle
         id="circle446"
         r="4"
         cx="568.79999"
         cy="272.20001" />
      <path
         id="path448"
         d="m 564.1,315.4 c 0,1.2 1,2.3 2.3,2.3 1.3,0 2.3,-1 2.3,-2.3 v -19 h 1 v 19 c 0,1.2 1,2.3 2.3,2.3 1.3,0 2.3,-1 2.3,-2.3 v -32.7 h 1 v 12.1 c 0,2.4 3.2,2.4 3.2,0 v -12.3 c 0,-2.7 -1.6,-5.3 -4.7,-5.3 h -9 c -2.9,0 -4.6,2.3 -4.6,5.2 v 12.4 c 0,2.4 3.2,2.4 3.2,0 v -12.1 h 1 z"
         inkscape:connector-curvature="0" />
    </g>
    <g
       id="g450"
       style="fill:#ef4637"
       transform="translate(-282.42108,-729.22517)">
      <circle
         id="circle452"
         r="4"
         cx="530.79999"
         cy="272.20001" />
      <path
         id="path454"
         d="m 526,315.4 c 0,1.2 1,2.3 2.3,2.3 1.3,0 2.3,-1 2.3,-2.3 v -19 h 1 v 19 c 0,1.2 1,2.3 2.3,2.3 1.3,0 2.3,-1 2.3,-2.3 v -32.7 h 1 v 12.1 c 0,2.4 3.2,2.4 3.2,0 v -12.3 c 0,-2.7 -1.6,-5.3 -4.7,-5.3 h -9 c -2.9,0 -4.6,2.3 -4.6,5.2 v 12.4 c 0,2.4 3.2,2.4 3.2,0 v -12.1 h 1 z"
         inkscape:connector-curvature="0" />
    </g>
    <g
       id="g456"
       style="fill:#ef4637"
       transform="translate(-282.42108,-729.22517)">
      <circle
         id="circle458"
         r="4"
         cx="492.79999"
         cy="272.20001" />
      <path
         id="path460"
         d="m 488,315.4 c 0,1.2 1,2.3 2.3,2.3 1.3,0 2.3,-1 2.3,-2.3 v -19 h 1 v 19 c 0,1.2 1,2.3 2.3,2.3 1.3,0 2.3,-1 2.3,-2.3 v -32.7 h 1 v 12.1 c 0,2.4 3.2,2.4 3.2,0 v -12.3 c 0,-2.7 -1.6,-5.3 -4.7,-5.3 h -9 c -2.9,0 -4.6,2.3 -4.6,5.2 v 12.4 c 0,2.4 3.2,2.4 3.2,0 v -12.1 h 1 z"
         inkscape:connector-curvature="0" />
    </g>
    <g
       id="g462"
       style="fill:#ef4637"
       transform="translate(-282.42108,-729.22517)">
      <circle
         id="circle464"
         r="4"
         cx="454.70001"
         cy="272.20001" />
      <path
         id="path466"
         d="m 450,315.4 c 0,1.2 1,2.3 2.3,2.3 1.3,0 2.3,-1 2.3,-2.3 v -19 h 1 v 19 c 0,1.2 1,2.3 2.3,2.3 1.3,0 2.3,-1 2.3,-2.3 v -32.7 h 1 v 12.1 c 0,2.4 3.2,2.4 3.2,0 v -12.3 c 0,-2.7 -1.6,-5.3 -4.7,-5.3 h -9 c -2.9,0 -4.6,2.3 -4.6,5.2 v 12.4 c 0,2.4 3.2,2.4 3.2,0 v -12.1 h 1 z"
         inkscape:connector-curvature="0" />
    </g>
    <g
       id="g4531">
      <g
         transform="translate(-282.42108,-729.22517)"
         style="fill:#2090ce;fill-opacity:0.94509804"
         id="g468">
        <path
           inkscape:connector-curvature="0"
           d="m 279.6,313.4 c 0,0 1,2.4 -1,3.2 -2,0.8 -3,-1.1 -3,-1.1 l -7.7,-17.6 c 0,0 -4.4,5.1 -4.5,5.7 -0.1,0.7 -1.5,11 -1.5,11 0,0 -0.2,2.5 -2.1,2.5 -1.8,0 -2.2,-2.2 -2.2,-2.2 0,0 1.3,-12 1.5,-13 0.2,-1 5.5,-7.6 5.5,-7.6 l -3,-11.5 c 0,0 -1.7,5.1 -2.3,5.5 -0.7,0.5 -6.8,2.3 -6.8,2.3 0,0 -4.3,1.3 -4.6,-0.1 -0.3,-1.4 1.7,-2.4 1.7,-2.4 0,0 7.5,-2.9 7.8,-3.1 0.3,-0.2 1.8,-6.7 2.3,-7.1 0.5,-0.5 4.4,-2.4 5.5,-2.3 1.1,0.1 9.5,3.2 10.2,4 0.7,0.8 5.1,7.2 5.1,7.2 0,0 1.4,2.5 0.2,3.2 -1.2,0.7 -3.6,-2.8 -3.6,-2.8 l -3.7,-4.6 -4.9,-2.4 c 0,0 3.4,8.6 3.4,9.3 0,0.7 -0.1,1.7 -0.2,2.2 -0.1,0.5 -1.1,1.8 -1.1,1.8 z"
           id="path470"
           style="fill:#2090ce;fill-opacity:0.94509804" />
        <path
           inkscape:connector-curvature="0"
           d="m 256.4,272.4 c 0,2.1 1.7,3.8 3.8,3.8 2.1,0 3.8,-1.7 3.8,-3.8 0,-2.1 -1.7,-3.8 -3.8,-3.8 -2.1,0.1 -3.8,1.8 -3.8,3.8"
           id="path472"
           style="fill:#2090ce;fill-opacity:0.94509804" />
      </g>
    </g>
    <g
       id="g474"
       style="fill:#ef4637"
       transform="translate(-282.42108,-729.22517)">
      <circle
         id="circle476"
         r="4"
         cx="416.70001"
         cy="272.20001" />
      <path
         id="path478"
         d="m 411.9,315.4 c 0,1.2 1,2.3 2.3,2.3 1.3,0 2.3,-1 2.3,-2.3 v -19 h 1 v 19 c 0,1.2 1,2.3 2.3,2.3 1.2,0 2.3,-1 2.3,-2.3 v -32.7 h 1 v 12.1 c 0,2.4 3.2,2.4 3.2,0 v -12.3 c 0,-2.7 -1.6,-5.3 -4.7,-5.3 h -9 c -2.9,0 -4.6,2.3 -4.6,5.2 v 12.4 c 0,2.4 3.2,2.4 3.2,0 v -12.1 h 1 z"
         inkscape:connector-curvature="0" />
    </g>
    <g
       id="g480"
       style="fill:#ef4637"
       transform="translate(-282.42108,-729.22517)">
      <circle
         id="circle482"
         r="4"
         cx="378.70001"
         cy="272.20001" />
      <path
         id="path484"
         d="m 373.9,315.4 c 0,1.2 1,2.3 2.3,2.3 1.3,0 2.3,-1 2.3,-2.3 v -19 h 1 v 19 c 0,1.2 1,2.3 2.3,2.3 1.3,0 2.3,-1 2.3,-2.3 v -32.7 h 1 v 12.1 c 0,2.4 3.2,2.4 3.2,0 v -12.3 c 0,-2.7 -1.6,-5.3 -4.7,-5.3 h -9 c -2.9,0 -4.6,2.3 -4.6,5.2 v 12.4 c 0,2.4 3.2,2.4 3.2,0 v -12.1 h 1 z"
         inkscape:connector-curvature="0" />
    </g>
    <g
       id="g486"
       style="fill:#ef4637"
       transform="translate(-282.42108,-729.22517)">
      <circle
         id="circle488"
         r="4"
         cx="340.60001"
         cy="272.20001" />
      <path
         id="path490"
         d="m 335.9,315.4 c 0,1.2 1,2.3 2.3,2.3 1.3,0 2.3,-1 2.3,-2.3 v -19 h 1 v 19 c 0,1.2 1,2.3 2.3,2.3 1.3,0 2.3,-1 2.3,-2.3 v -32.7 h 1 v 12.1 c 0,2.4 3.2,2.4 3.2,0 v -12.3 c 0,-2.7 -1.6,-5.3 -4.7,-5.3 h -9 c -2.9,0 -4.6,2.3 -4.6,5.2 v 12.4 c 0,2.4 3.2,2.4 3.2,0 v -12.1 h 1 z"
         inkscape:connector-curvature="0" />
    </g>
    <g
       id="g492"
       style="fill:#ef4637"
       transform="translate(-282.42108,-729.22517)">
      <circle
         id="circle494"
         r="4"
         cx="302.60001"
         cy="272.20001" />
      <path
         id="path496"
         d="m 297.8,315.4 c 0,1.2 1,2.3 2.3,2.3 1.3,0 2.3,-1 2.3,-2.3 v -19 h 1 v 19 c 0,1.2 1,2.3 2.3,2.3 1.3,0 2.3,-1 2.3,-2.3 v -32.7 h 1 v 12.1 c 0,2.4 3.2,2.4 3.2,0 v -12.3 c 0,-2.7 -1.6,-5.3 -4.7,-5.3 h -9 c -2.9,0 -4.6,2.3 -4.6,5.2 v 12.4 c 0,2.4 3.2,2.4 3.2,0 v -12.1 h 1 z"
         inkscape:connector-curvature="0" />
    </g>
  </g>
  <g
     id="g2085"
     transform="translate(0,66.939301)">
    <text
       id="text4138"
       y="123.39458"
       x="84.439453"
       style="font-style:normal;font-weight:normal;font-size:40px;line-height:125%;font-family:sans-serif;letter-spacing:0px;word-spacing:0px;fill:#000000;fill-opacity:1;stroke:none;stroke-width:1px;stroke-linecap:butt;stroke-linejoin:miter;stroke-opacity:1"
       xml:space="preserve"><tspan
         style="font-style:normal;font-variant:normal;font-weight:bold;font-stretch:normal;font-size:125px;font-family:'DIN Pro';-inkscape-font-specification:'DIN Pro Bold'"
         id="tspan4142"
         y="123.39458"
         x="84.439453"
         sodipodi:role="line">30</tspan></text>
    <text
       xml:space="preserve"
       style="font-style:normal;font-weight:normal;font-size:40px;line-height:125%;font-family:sans-serif;letter-spacing:0px;word-spacing:0px;fill:#000000;fill-opacity:1;stroke:none;stroke-width:1px;stroke-linecap:butt;stroke-linejoin:miter;stroke-opacity:1"
       x="76.411407"
       y="181.03682"
       id="text4144"><tspan
         sodipodi:role="line"
         x="76.411407"
         y="181.03682"
         id="tspan4148"
         style="font-style:normal;font-variant:normal;font-weight:bold;font-stretch:normal;font-size:60px;font-family:'DIN Pro';-inkscape-font-specification:'DIN Pro Bold'">KM/S</tspan></text>
    <text
       xml:space="preserve"
       style="font-style:normal;font-weight:normal;font-size:40px;line-height:125%;font-family:sans-serif;letter-spacing:0px;word-spacing:0px;fill:#000000;fill-opacity:1;stroke:none;stroke-width:1px;stroke-linecap:butt;stroke-linejoin:miter;stroke-opacity:1"
       x="390.14481"
       y="123.39458"
       id="text4601"><tspan
         sodipodi:role="line"
         x="390.14481"
         y="123.39458"
         id="tspan4603"
         style="font-style:normal;font-variant:normal;font-weight:bold;font-stretch:normal;font-size:125px;font-family:'DIN Pro';-inkscape-font-specification:'DIN Pro Bold'">50</tspan></text>
    <text
       id="text4605"
       y="181.03682"
       x="383.05426"
       style="font-style:normal;font-weight:normal;font-size:40px;line-height:125%;font-family:sans-serif;letter-spacing:0px;word-spacing:0px;fill:#000000;fill-opacity:1;stroke:none;stroke-width:1px;stroke-linecap:butt;stroke-linejoin:miter;stroke-opacity:1"
       xml:space="preserve"><tspan
         style="font-style:normal;font-variant:normal;font-weight:bold;font-stretch:normal;font-size:60px;font-family:'DIN Pro';-inkscape-font-specification:'DIN Pro Bold'"
         id="tspan4607"
         y="181.03682"
         x="383.05426"
         sodipodi:role="line">KM/S</tspan></text>
    <text
       id="text4743"
       y="123.39458"
       x="696.97516"
       style="font-style:normal;font-weight:normal;font-size:40px;line-height:125%;font-family:sans-serif;letter-spacing:0px;word-spacing:0px;fill:#000000;fill-opacity:1;stroke:none;stroke-width:1px;stroke-linecap:butt;stroke-linejoin:miter;stroke-opacity:1"
       xml:space="preserve"><tspan
         style="font-style:normal;font-variant:normal;font-weight:bold;font-stretch:normal;font-size:125px;font-family:'DIN Pro';-inkscape-font-specification:'DIN Pro Bold'"
         id="tspan4745"
         y="123.39458"
         x="696.97516"
         sodipodi:role="line">65</tspan></text>
    <text
       xml:space="preserve"
       style="font-style:normal;font-weight:normal;font-size:40px;line-height:125%;font-family:sans-serif;letter-spacing:0px;word-spacing:0px;fill:#000000;fill-opacity:1;stroke:none;stroke-width:1px;stroke-linecap:butt;stroke-linejoin:miter;stroke-opacity:1"
       x="689.69714"
       y="181.03682"
       id="text4747"><tspan
         sodipodi:role="line"
         x="689.69714"
         y="181.03682"
         id="tspan4749"
         style="font-style:normal;font-variant:normal;font-weight:bold;font-stretch:normal;font-size:60px;font-family:'DIN Pro';-inkscape-font-specification:'DIN Pro Bold'">KM/S</tspan></text>
  </g>
  <text
     xml:space="preserve"
     style="font-style:normal;font-weight:normal;font-size:40px;line-height:125%;font-family:sans-serif;letter-spacing:0px;word-spacing:0px;fill:#000000;fill-opacity:1;stroke:none;stroke-width:1px;stroke-linecap:butt;stroke-linejoin:miter;stroke-opacity:1"
     x="458.06259"
     y="336.04282"
     id="text4615"><tspan
       sodipodi:role="line"
       x="458.06259"
       y="336.04282"
       style="font-style:normal;font-variant:normal;font-weight:bold;font-stretch:normal;font-size:17.5px;font-family:'DIN Pro';-inkscape-font-specification:'DIN Pro Bold';text-align:center;text-anchor:middle"
       id="tspan4617">5 out of 10 pedestrians survive</tspan></text>
  <text
     id="text4757"
     y="336.04282"
     x="764.68793"
     style="font-style:normal;font-weight:normal;font-size:40px;line-height:125%;font-family:sans-serif;letter-spacing:0px;word-spacing:0px;fill:#000000;fill-opacity:1;stroke:none;stroke-width:1px;stroke-linecap:butt;stroke-linejoin:miter;stroke-opacity:1"
     xml:space="preserve"><tspan
       id="tspan4759"
       style="font-style:normal;font-variant:normal;font-weight:bold;font-stretch:normal;font-size:17.5px;font-family:'DIN Pro';-inkscape-font-specification:'DIN Pro Bold';text-align:center;text-anchor:middle"
       y="336.04282"
       x="764.68793"
       sodipodi:role="line">Only 1 out of 10 pedestrians survive</tspan></text>
  <text
     xml:space="preserve"
     style="font-style:normal;font-weight:normal;font-size:40px;line-height:125%;font-family:sans-serif;letter-spacing:0px;word-spacing:0px;fill:#000000;fill-opacity:1;stroke:none;stroke-width:1px;stroke-linecap:butt;stroke-linejoin:miter;stroke-opacity:1"
     x="151.47224"
     y="336.04282"
     id="text2089"><tspan
       sodipodi:role="line"
       x="151.47224"
       y="336.04282"
       style="font-style:normal;font-variant:normal;font-weight:bold;font-stretch:normal;font-size:17.5px;font-family:'DIN Pro';-inkscape-font-specification:'DIN Pro Bold';text-align:center;text-anchor:middle"
       id="tspan2087">9 out of 10 pedestrians survive</tspan></text>
  <text
     xml:space="preserve"
     style="font-style:normal;font-weight:normal;font-size:40px;line-height:73.80000353%;font-family:sans-serif;letter-spacing:0px;word-spacing:0px;fill:#000000;fill-opacity:1;stroke:none;stroke-width:1px;stroke-linecap:butt;stroke-linejoin:miter;stroke-opacity:1"
     x="457.14459"
     y="46.655411"
     id="text2101"><tspan
       id="tspan2097"
       sodipodi:role="line"
       x="457.14459"
       y="46.655411"
       style="font-style:normal;font-variant:normal;font-weight:bold;font-stretch:normal;font-size:27.5px;line-height:80.00000119%;font-family:'DIN Pro';-inkscape-font-specification:'DIN Pro Bold';text-align:center;text-anchor:middle">HIT BY A VEHICLE</tspan><tspan
       id="tspan2099"
       sodipodi:role="line"
       x="457.14459"
       y="76.175415"
       style="font-style:normal;font-variant:normal;font-weight:bold;font-stretch:normal;font-size:27.5px;line-height:80.00000119%;font-family:'DIN Pro';-inkscape-font-specification:'DIN Pro Bold';text-align:center;text-anchor:middle">TRAVELING AT:</tspan></text>
  <text
     id="text2107"
     y="46.655411"
     x="771.71661"
     style="font-style:normal;font-weight:normal;font-size:40px;line-height:73.80000353%;font-family:sans-serif;letter-spacing:0px;word-spacing:0px;fill:#000000;fill-opacity:1;stroke:none;stroke-width:1px;stroke-linecap:butt;stroke-linejoin:miter;stroke-opacity:1"
     xml:space="preserve"><tspan
       style="font-style:normal;font-variant:normal;font-weight:bold;font-stretch:normal;font-size:27.5px;line-height:80.00000119%;font-family:'DIN Pro';-inkscape-font-specification:'DIN Pro Bold';text-align:center;text-anchor:middle"
       y="46.655411"
       x="771.71661"
       sodipodi:role="line"
       id="tspan2103">HIT BY A VEHICLE</tspan><tspan
       style="font-style:normal;font-variant:normal;font-weight:bold;font-stretch:normal;font-size:27.5px;line-height:80.00000119%;font-family:'DIN Pro';-inkscape-font-specification:'DIN Pro Bold';text-align:center;text-anchor:middle"
       y="76.175415"
       x="771.71661"
       sodipodi:role="line"
       id="tspan2105">TRAVELING AT:</tspan></text>
</svg>
