<?xml version="1.0" encoding="UTF-8" standalone="no"?>
<svg
   xmlns:dc="http://purl.org/dc/elements/1.1/"
   xmlns:cc="http://creativecommons.org/ns#"
   xmlns:rdf="http://www.w3.org/1999/02/22-rdf-syntax-ns#"
   xmlns:svg="http://www.w3.org/2000/svg"
   xmlns="http://www.w3.org/2000/svg"
   xmlns:xlink="http://www.w3.org/1999/xlink"
   xmlns:sodipodi="http://sodipodi.sourceforge.net/DTD/sodipodi-0.dtd"
   xmlns:inkscape="http://www.inkscape.org/namespaces/inkscape"
   id="svg2221"
   sodipodi:version="0.32"
   inkscape:version="0.91 r13725"
   width="345"
   height="345"
   sodipodi:docname="trakayad-logo-web-2016.svg"
   inkscape:output_extension="org.inkscape.output.svg.inkscape"
   version="1.0"
   inkscape:export-filename="/home/hsevay/workspace2/trakayad/presentations/tabipler-birligi-panel-sunumu-15dec2016/images/trakayad-logo-web-2016.png"
   inkscape:export-xdpi="39.049362"
   inkscape:export-ydpi="39.049362"
   sodipodi:modified="TRUE">
  <sodipodi:namedview
     inkscape:window-height="1056"
     inkscape:window-width="1920"
     inkscape:pageshadow="2"
     inkscape:pageopacity="0.0"
     guidetolerance="10.0"
     gridtolerance="10.0"
     objecttolerance="10.0"
     borderopacity="1.0"
     bordercolor="#666666"
     pagecolor="#ffffff"
     id="base"
     inkscape:zoom="1.7800235"
     inkscape:cx="256.21449"
     inkscape:cy="209.97062"
     inkscape:window-x="0"
     inkscape:window-y="24"
     inkscape:current-layer="g3418"
     showgrid="false"
     inkscape:window-maximized="1"
     showguides="true"
     inkscape:guide-bbox="true" />
  <metadata
     id="metadata2223">
    <rdf:RDF>
      <cc:Work
         rdf:about="">
        <dc:title>Stop Sign</dc:title>
        <dc:description>An American street sign: stop. A red and white octagon with the word STOP in the center.</dc:description>
        <dc:subject>
          <rdf:Bag>
            <rdf:li>traffic</rdf:li>
            <rdf:li />
            <rdf:li>stop</rdf:li>
            <rdf:li>street</rdf:li>
            <rdf:li>roadsign</rdf:li>
            <rdf:li>sign</rdf:li>
            <rdf:li>transportation</rdf:li>
          </rdf:Bag>
        </dc:subject>
        <dc:publisher>
          <cc:Agent
             rdf:about="http://www.openclipart.org">
            <dc:title>Public Domain</dc:title>
          </cc:Agent>
        </dc:publisher>
        <dc:creator>
          <cc:Agent>
            <dc:title>Richard D. Worth</dc:title>
          </cc:Agent>
        </dc:creator>
        <dc:rights>
          <cc:Agent>
            <dc:title>Public Domain</dc:title>
          </cc:Agent>
        </dc:rights>
        <dc:date />
        <dc:format>image/svg+xml</dc:format>
        <dc:type
           rdf:resource="http://purl.org/dc/dcmitype/StillImage" />
        <cc:license
           rdf:resource="http://web.resource.org/cc/PublicDomain" />
        <dc:language>en</dc:language>
      </cc:Work>
      <cc:License
         rdf:about="http://web.resource.org/cc/PublicDomain">
        <cc:permits
           rdf:resource="http://web.resource.org/cc/Reproduction" />
        <cc:permits
           rdf:resource="http://web.resource.org/cc/Distribution" />
        <cc:permits
           rdf:resource="http://web.resource.org/cc/DerivativeWorks" />
      </cc:License>
    </rdf:RDF>
  </metadata>
  <title
     id="title2225">Stop Sign</title>
  <desc
     id="desc2227">An American street sign: stop. A red and white octagon with the word STOP in the center.</desc>
  <defs
     id="defs2229">
    <linearGradient
       id="linearGradient3679">
      <stop
         id="stop3687"
         offset="0"
         style="stop-color:#790000;stop-opacity:0.84705883;" />
      <stop
         style="stop-color:#d40000;stop-opacity:0;"
         offset="1"
         id="stop3683" />
    </linearGradient>
    <linearGradient
       id="linearGradient3709">
      <stop
         style="stop-color:#690606;stop-opacity:1;"
         offset="0"
         id="stop3711" />
      <stop
         style="stop-color:#000000;stop-opacity:0;"
         offset="1"
         id="stop3713" />
    </linearGradient>
    <linearGradient
       inkscape:collect="always"
       id="linearGradient3647">
      <stop
         style="stop-color:#812500;stop-opacity:1;"
         offset="0"
         id="stop3649" />
      <stop
         style="stop-color:#812500;stop-opacity:0;"
         offset="1"
         id="stop3651" />
    </linearGradient>
    <inkscape:perspective
       sodipodi:type="inkscape:persp3d"
       inkscape:vp_x="0 : 187.5 : 1"
       inkscape:vp_y="0 : 1000 : 0"
       inkscape:vp_z="375 : 187.5 : 1"
       inkscape:persp3d-origin="187.5 : 125 : 1"
       id="perspective62" />
    <linearGradient
       id="linearGradient3280">
      <stop
         style="stop-color:#ffffff;stop-opacity:0.62616825;"
         offset="0"
         id="stop3282" />
      <stop
         style="stop-color:#ffffff;stop-opacity:0;"
         offset="1"
         id="stop3284" />
    </linearGradient>
    <linearGradient
       inkscape:collect="always"
       id="linearGradient3177">
      <stop
         style="stop-color:#ff0000;stop-opacity:1;"
         offset="0"
         id="stop3179" />
      <stop
         style="stop-color:#ff0000;stop-opacity:0;"
         offset="1"
         id="stop3181" />
    </linearGradient>
    <linearGradient
       inkscape:collect="always"
       id="linearGradient3157">
      <stop
         style="stop-color:#ff0000;stop-opacity:1;"
         offset="0"
         id="stop3159" />
      <stop
         style="stop-color:#ff0000;stop-opacity:0;"
         offset="1"
         id="stop3161" />
    </linearGradient>
    <linearGradient
       id="linearGradient3241">
      <stop
         style="stop-color:#ff0000;stop-opacity:1;"
         offset="0"
         id="stop3243" />
      <stop
         style="stop-color:#8f0000;stop-opacity:1;"
         offset="1"
         id="stop3245" />
    </linearGradient>
    <linearGradient
       id="linearGradient3233">
      <stop
         style="stop-color:#009dcf;stop-opacity:1;"
         offset="0"
         id="stop3235" />
      <stop
         style="stop-color:#04275e;stop-opacity:1;"
         offset="1"
         id="stop3237" />
    </linearGradient>
    <path
       d="m 0,-150 62.132,0 L 150,-62.132 150,62.132 62.132,150 -62.132,150 -149,62.132 -149,-62.132 -61.132,-150 1,-150 l -1,0 z"
       id="stop_octagon"
       inkscape:connector-curvature="0" />
    <radialGradient
       inkscape:collect="always"
       xlink:href="#linearGradient3233"
       id="radialGradient3239"
       cx="-107.87819"
       cy="-99.098099"
       fx="-107.87819"
       fy="-99.098099"
       r="149.5"
       gradientTransform="matrix(1.3213291,1.4520542,-1.20916,1.1003022,-85.161052,166.25329)"
       gradientUnits="userSpaceOnUse" />
    <linearGradient
       inkscape:collect="always"
       xlink:href="#linearGradient3241"
       id="linearGradient3251"
       x1="0.5"
       y1="138.16936"
       x2="0.5"
       y2="-152.67812"
       gradientUnits="userSpaceOnUse" />
    <linearGradient
       inkscape:collect="always"
       xlink:href="#linearGradient3157"
       id="linearGradient3163"
       x1="-270.27368"
       y1="75.198547"
       x2="-63.391953"
       y2="75.198547"
       gradientUnits="userSpaceOnUse" />
    <linearGradient
       inkscape:collect="always"
       xlink:href="#linearGradient3177"
       id="linearGradient3183"
       x1="-180.85239"
       y1="82.208336"
       x2="-145.80347"
       y2="282.68811"
       gradientUnits="userSpaceOnUse" />
    <linearGradient
       inkscape:collect="always"
       xlink:href="#linearGradient3177"
       id="linearGradient3186"
       gradientUnits="userSpaceOnUse"
       x1="-180.85239"
       y1="82.208336"
       x2="-145.80347"
       y2="282.68811"
       gradientTransform="matrix(0.9309086,0.3652522,-0.3652522,0.9309086,-118.35376,-90.74942)" />
    <linearGradient
       inkscape:collect="always"
       xlink:href="#linearGradient3233"
       id="linearGradient3234"
       x1="0.5"
       y1="142.67488"
       x2="-8.018856"
       y2="-152.67812"
       gradientUnits="userSpaceOnUse" />
    <linearGradient
       inkscape:collect="always"
       xlink:href="#linearGradient3241"
       id="linearGradient3238"
       x1="0.5"
       y1="-152.41164"
       x2="9.0576067"
       y2="143.35487"
       gradientUnits="userSpaceOnUse" />
    <linearGradient
       inkscape:collect="always"
       xlink:href="#linearGradient3233"
       id="linearGradient3253"
       x1="-321.64584"
       y1="-4.7129636"
       x2="-202.68588"
       y2="-4.7129636"
       gradientUnits="userSpaceOnUse"
       gradientTransform="translate(16.460205,-147.5687)" />
    <linearGradient
       inkscape:collect="always"
       xlink:href="#linearGradient3233"
       id="linearGradient3270"
       x1="-216.92825"
       y1="-84.530846"
       x2="-308.06824"
       y2="130.9814"
       gradientUnits="userSpaceOnUse" />
    <linearGradient
       inkscape:collect="always"
       xlink:href="#linearGradient3233"
       id="linearGradient3278"
       x1="-312.99957"
       y1="127.34094"
       x2="-312.99957"
       y2="-157.1208"
       gradientUnits="userSpaceOnUse"
       gradientTransform="translate(1.2649505e-6,6.5696281e-7)" />
    <radialGradient
       inkscape:collect="always"
       xlink:href="#linearGradient3280"
       id="radialGradient3290"
       cx="-312.99954"
       cy="41.938194"
       fx="-312.99954"
       fy="41.938194"
       r="142.23091"
       gradientTransform="matrix(1.9573642,-0.09502798,0.06618981,1.3633649,296.87866,-82.02201)"
       gradientUnits="userSpaceOnUse" />
    <radialGradient
       inkscape:collect="always"
       xlink:href="#linearGradient3280"
       id="radialGradient3243"
       gradientUnits="userSpaceOnUse"
       gradientTransform="matrix(1.9573642,-0.09502798,0.06618981,1.3633649,789.31394,113.37042)"
       cx="-312.99954"
       cy="41.938194"
       fx="-312.99954"
       fy="41.938194"
       r="142.23091" />
    <linearGradient
       inkscape:collect="always"
       xlink:href="#linearGradient3233"
       id="linearGradient3248"
       gradientUnits="userSpaceOnUse"
       gradientTransform="translate(492.43528,195.39243)"
       x1="-312.99957"
       y1="127.34094"
       x2="-312.99957"
       y2="-157.1208" />
    <linearGradient
       inkscape:collect="always"
       xlink:href="#linearGradient3233"
       id="linearGradient3252"
       gradientUnits="userSpaceOnUse"
       x1="-216.92825"
       y1="-84.530846"
       x2="-308.06824"
       y2="130.9814"
       gradientTransform="matrix(1.2293559,-0.5218306,0.5218306,1.2293559,475.29926,14.97075)" />
    <linearGradient
       inkscape:collect="always"
       xlink:href="#linearGradient3233"
       id="linearGradient3269"
       x1="-68.908119"
       y1="92.114204"
       x2="-90.298927"
       y2="40.472229"
       gradientUnits="userSpaceOnUse" />
    <linearGradient
       inkscape:collect="always"
       xlink:href="#linearGradient3233"
       id="linearGradient3283"
       x1="-90.534569"
       y1="39.903343"
       x2="-68.942833"
       y2="92.030403"
       gradientUnits="userSpaceOnUse" />
    <linearGradient
       inkscape:collect="always"
       xlink:href="#linearGradient3233"
       id="linearGradient3298"
       gradientUnits="userSpaceOnUse"
       x1="-90.534569"
       y1="39.903343"
       x2="-68.942833"
       y2="92.030403"
       gradientTransform="matrix(-4.6558285,1.928507,1.928507,4.6558285,1.1355325,45.879936)" />
    <linearGradient
       inkscape:collect="always"
       xlink:href="#linearGradient3280"
       id="linearGradient3301"
       gradientUnits="userSpaceOnUse"
       gradientTransform="matrix(-4.6558285,1.928507,1.928507,4.6558285,1.1355325,45.879936)"
       x1="-80.718124"
       y1="67.181396"
       x2="-92.852165"
       y2="38.398518" />
    <linearGradient
       inkscape:collect="always"
       xlink:href="#linearGradient3233"
       id="linearGradient3312"
       gradientUnits="userSpaceOnUse"
       x1="-68.908119"
       y1="92.114204"
       x2="-90.298927"
       y2="40.472229" />
    <linearGradient
       inkscape:collect="always"
       xlink:href="#linearGradient3233"
       id="linearGradient3314"
       gradientUnits="userSpaceOnUse"
       x1="-90.534569"
       y1="39.903343"
       x2="-68.942833"
       y2="92.030403" />
    <linearGradient
       inkscape:collect="always"
       xlink:href="#linearGradient3280"
       id="linearGradient3316"
       gradientUnits="userSpaceOnUse"
       gradientTransform="matrix(-4.6558285,1.928507,1.928507,4.6558285,1.1355325,45.879936)"
       x1="-80.718124"
       y1="67.181396"
       x2="-92.852165"
       y2="38.398518" />
    <linearGradient
       inkscape:collect="always"
       xlink:href="#linearGradient3280"
       id="linearGradient3319"
       gradientUnits="userSpaceOnUse"
       gradientTransform="matrix(-4.6558285,1.928507,1.928507,4.6558285,1.1355325,45.879936)"
       x1="-80.718124"
       y1="67.181396"
       x2="-92.852165"
       y2="38.398518" />
    <linearGradient
       inkscape:collect="always"
       xlink:href="#linearGradient3280"
       id="linearGradient3376"
       gradientUnits="userSpaceOnUse"
       gradientTransform="matrix(-4.6558285,1.928507,1.928507,4.6558285,1.1355325,45.879936)"
       x1="-80.718124"
       y1="67.181396"
       x2="-92.852165"
       y2="38.398518" />
    <linearGradient
       inkscape:collect="always"
       xlink:href="#linearGradient3280"
       id="linearGradient3379"
       gradientUnits="userSpaceOnUse"
       gradientTransform="matrix(-4.6558285,1.575425,1.928507,3.8034131,11.007296,53.456942)"
       x1="-84.172371"
       y1="60.789932"
       x2="-92.852165"
       y2="38.398518" />
    <linearGradient
       inkscape:collect="always"
       xlink:href="#linearGradient3647"
       id="linearGradient3653"
       x1="433.5043"
       y1="230.56557"
       x2="594.33148"
       y2="230.56557"
       gradientUnits="userSpaceOnUse" />
    <inkscape:perspective
       id="perspective3174"
       inkscape:persp3d-origin="0.5 : 0.33333333 : 1"
       inkscape:vp_z="1 : 0.5 : 1"
       inkscape:vp_y="0 : 1000 : 0"
       inkscape:vp_x="0 : 0.5 : 1"
       sodipodi:type="inkscape:persp3d" />
    <inkscape:perspective
       id="perspective3174-9"
       inkscape:persp3d-origin="0.5 : 0.33333333 : 1"
       inkscape:vp_z="1 : 0.5 : 1"
       inkscape:vp_y="0 : 1000 : 0"
       inkscape:vp_x="0 : 0.5 : 1"
       sodipodi:type="inkscape:persp3d" />
    <inkscape:perspective
       id="perspective3174-7"
       inkscape:persp3d-origin="0.5 : 0.33333333 : 1"
       inkscape:vp_z="1 : 0.5 : 1"
       inkscape:vp_y="0 : 1000 : 0"
       inkscape:vp_x="0 : 0.5 : 1"
       sodipodi:type="inkscape:persp3d" />
    <inkscape:perspective
       id="perspective2903"
       inkscape:persp3d-origin="0.5 : 0.33333333 : 1"
       inkscape:vp_z="1 : 0.5 : 1"
       inkscape:vp_y="0 : 1000 : 0"
       inkscape:vp_x="0 : 0.5 : 1"
       sodipodi:type="inkscape:persp3d" />
    <inkscape:perspective
       id="perspective2925"
       inkscape:persp3d-origin="0.5 : 0.33333333 : 1"
       inkscape:vp_z="1 : 0.5 : 1"
       inkscape:vp_y="0 : 1000 : 0"
       inkscape:vp_x="0 : 0.5 : 1"
       sodipodi:type="inkscape:persp3d" />
    <inkscape:perspective
       id="perspective2891"
       inkscape:persp3d-origin="0.5 : 0.33333333 : 1"
       inkscape:vp_z="1 : 0.5 : 1"
       inkscape:vp_y="0 : 1000 : 0"
       inkscape:vp_x="0 : 0.5 : 1"
       sodipodi:type="inkscape:persp3d" />
    <filter
       inkscape:collect="always"
       id="filter3689">
      <feGaussianBlur
         inkscape:collect="always"
         stdDeviation="1.3121377"
         id="feGaussianBlur3691" />
    </filter>
    <linearGradient
       inkscape:collect="always"
       xlink:href="#linearGradient3709"
       id="linearGradient3719"
       gradientUnits="userSpaceOnUse"
       x1="-110.37776"
       y1="65.96875"
       x2="-49.122238"
       y2="65.96875" />
    <inkscape:perspective
       id="perspective3739"
       inkscape:persp3d-origin="0.5 : 0.33333333 : 1"
       inkscape:vp_z="1 : 0.5 : 1"
       inkscape:vp_y="0 : 1000 : 0"
       inkscape:vp_x="0 : 0.5 : 1"
       sodipodi:type="inkscape:persp3d" />
    <filter
       inkscape:collect="always"
       id="filter3777">
      <feGaussianBlur
         inkscape:collect="always"
         stdDeviation="0.93690505"
         id="feGaussianBlur3779" />
    </filter>
    <linearGradient
       inkscape:collect="always"
       xlink:href="#linearGradient3679"
       id="linearGradient3300"
       gradientUnits="userSpaceOnUse"
       x1="-118.67561"
       y1="83.916306"
       x2="-48.120308"
       y2="55.480011" />
  </defs>
  <g
     inkscape:groupmode="layer"
     id="layer3"
     inkscape:label="Background"
     style="display:inline"
     transform="translate(0,-30)" />
  <g
     inkscape:groupmode="layer"
     id="layer5"
     style="display:inline"
     transform="translate(-312.57275,-23.292963)"
     inkscape:label="Outer Octagon" />
  <g
     inkscape:groupmode="layer"
     id="layer1"
     inkscape:label="Inner Octagon"
     style="display:inline"
     transform="translate(0,-30)" />
  <g
     inkscape:groupmode="layer"
     id="layer2"
     inkscape:label="Lettering and Lines"
     style="display:inline"
     transform="translate(0,-30)">
    <g
       id="g4351">
      <g
         id="g3359"
         transform="translate(-12.500001,12.500008)">
        <path
           transform="matrix(-5.092463,-2.1093669,2.1093669,-5.092463,-357.71472,355.23568)"
           d="m -58.146967,87.558606 -21.591734,8.943589 -21.591729,-8.943588 -8.94359,-21.591734 8.94359,-21.591733 21.591729,-8.943589 21.591733,8.943589 8.943589,21.591733 z"
           inkscape:randomized="0"
           inkscape:rounded="0"
           inkscape:flatsided="true"
           sodipodi:arg2="1.1780972"
           sodipodi:arg1="0.78539816"
           sodipodi:r2="28.210958"
           sodipodi:r1="30.535322"
           sodipodi:cy="65.966873"
           sodipodi:cx="-79.738701"
           sodipodi:sides="8"
           id="path2881"
           style="display:inline;opacity:0.68246442;fill:#434343;fill-opacity:1;fill-rule:nonzero;stroke:none;filter:url(#filter3689)"
           sodipodi:type="star" />
        <path
           sodipodi:type="inkscape:offset"
           inkscape:radius="-0.62541318"
           inkscape:original="M -80 35 C -80.050155 35.006102 -80.085235 35.017486 -80.15625 35.03125 C -80.24101 35.047678 -80.229132 35.040055 -80.3125 35.0625 C -80.395868 35.084945 -80.387199 35.096652 -80.46875 35.125 C -80.550301 35.153348 -80.545685 35.153395 -80.625 35.1875 L -100.90625 43.59375 C -100.96085 43.616415 -100.94657 43.599688 -101 43.625 C -101.05343 43.650312 -101.04162 43.659601 -101.09375 43.6875 C -101.14588 43.715399 -101.1368 43.719582 -101.1875 43.75 C -101.2382 43.780418 -101.2321 43.779635 -101.28125 43.8125 C -101.3304 43.845365 -101.32752 43.839768 -101.375 43.875 C -101.42248 43.910232 -101.42306 43.899985 -101.46875 43.9375 C -101.51444 43.975015 -101.5187 43.960292 -101.5625 44 C -101.6063 44.039708 -101.58319 44.051945 -101.625 44.09375 C -101.66681 44.135555 -101.67904 44.112447 -101.71875 44.15625 C -101.75846 44.200053 -101.74374 44.204305 -101.78125 44.25 C -101.81876 44.295695 -101.80852 44.296273 -101.84375 44.34375 C -101.87898 44.391227 -101.87339 44.388354 -101.90625 44.4375 C -101.93911 44.486646 -101.93833 44.480554 -101.96875 44.53125 C -101.99917 44.581946 -102.00335 44.572875 -102.03125 44.625 C -102.05915 44.677125 -102.06844 44.665321 -102.09375 44.71875 C -102.11906 44.772179 -102.10233 44.757895 -102.125 44.8125 L -110.53125 65.09375 C -110.55375 65.148305 -110.54269 65.16316 -110.5625 65.21875 C -110.58231 65.27434 -110.60793 65.256009 -110.625 65.3125 C -110.64207 65.368991 -110.64196 65.348992 -110.65625 65.40625 C -110.67054 65.463508 -110.64478 65.473362 -110.65625 65.53125 C -110.66772 65.589138 -110.67887 65.56662 -110.6875 65.625 C -110.69613 65.68338 -110.68174 65.691268 -110.6875 65.75 C -110.69326 65.808732 -110.71587 65.784807 -110.71875 65.84375 C -110.72163 65.902693 -110.71875 65.909736 -110.71875 65.96875 C -110.71875 66.027764 -110.72163 66.034807 -110.71875 66.09375 C -110.71587 66.152693 -110.69326 66.128768 -110.6875 66.1875 C -110.68174 66.246232 -110.69613 66.25412 -110.6875 66.3125 C -110.67887 66.37088 -110.66772 66.348362 -110.65625 66.40625 C -110.64478 66.464138 -110.67054 66.473992 -110.65625 66.53125 C -110.64196 66.588508 -110.64207 66.568509 -110.625 66.625 C -110.60793 66.681491 -110.58231 66.66316 -110.5625 66.71875 C -110.54269 66.77434 -110.55375 66.789195 -110.53125 66.84375 L -102.125 87.125 C -102.10233 87.179605 -102.11906 87.165321 -102.09375 87.21875 C -102.06844 87.272179 -102.05915 87.260375 -102.03125 87.3125 C -102.00335 87.364625 -101.99917 87.355554 -101.96875 87.40625 C -101.93833 87.456946 -101.93911 87.450854 -101.90625 87.5 C -101.87339 87.549146 -101.87898 87.546273 -101.84375 87.59375 C -101.80852 87.641227 -101.81876 87.641805 -101.78125 87.6875 C -101.74374 87.733195 -101.75846 87.737447 -101.71875 87.78125 C -101.67904 87.825053 -101.66681 87.801945 -101.625 87.84375 C -101.58319 87.885555 -101.6063 87.897792 -101.5625 87.9375 C -101.5187 87.977208 -101.51444 87.962485 -101.46875 88 C -101.42306 88.037515 -101.42248 88.027268 -101.375 88.0625 C -101.32752 88.097732 -101.3304 88.092135 -101.28125 88.125 C -101.2321 88.157865 -101.2382 88.157082 -101.1875 88.1875 C -101.1368 88.217918 -101.14588 88.222101 -101.09375 88.25 C -101.04162 88.277899 -101.05343 88.287188 -101 88.3125 C -100.94657 88.337812 -100.96085 88.321085 -100.90625 88.34375 L -80.625 96.75 C -80.570445 96.772504 -80.55559 96.76144 -80.5 96.78125 C -80.44441 96.80106 -80.462741 96.826681 -80.40625 96.84375 C -80.349759 96.860819 -80.369758 96.860713 -80.3125 96.875 C -80.255242 96.889287 -80.245388 96.863529 -80.1875 96.875 C -80.129612 96.886471 -80.15213 96.897623 -80.09375 96.90625 C -80.03537 96.914877 -80.027482 96.900487 -79.96875 96.90625 C -79.910018 96.912013 -79.933943 96.934615 -79.875 96.9375 C -79.816057 96.940385 -79.809014 96.9375 -79.75 96.9375 C -79.690986 96.9375 -79.683943 96.940385 -79.625 96.9375 C -79.566057 96.934615 -79.589982 96.912013 -79.53125 96.90625 C -79.472518 96.900487 -79.46463 96.914877 -79.40625 96.90625 C -79.34787 96.897623 -79.370388 96.886471 -79.3125 96.875 C -79.254612 96.863529 -79.244758 96.889287 -79.1875 96.875 C -79.130242 96.860713 -79.150241 96.860819 -79.09375 96.84375 C -79.037259 96.826681 -79.05559 96.80106 -79 96.78125 C -78.94441 96.76144 -78.929555 96.772504 -78.875 96.75 L -58.59375 88.34375 C -58.539145 88.321085 -58.553429 88.337812 -58.5 88.3125 C -58.446571 88.287188 -58.458375 88.277899 -58.40625 88.25 C -58.354125 88.222101 -58.363196 88.217918 -58.3125 88.1875 C -58.261804 88.157082 -58.267896 88.157865 -58.21875 88.125 C -58.169604 88.092135 -58.172477 88.097732 -58.125 88.0625 C -58.077523 88.027268 -58.076945 88.037515 -58.03125 88 C -57.985555 87.962485 -57.981303 87.977208 -57.9375 87.9375 C -57.893697 87.897792 -57.916805 87.885555 -57.875 87.84375 C -57.833195 87.801945 -57.820958 87.825053 -57.78125 87.78125 C -57.741542 87.737447 -57.756265 87.733195 -57.71875 87.6875 C -57.681235 87.641805 -57.691482 87.641227 -57.65625 87.59375 C -57.621018 87.546273 -57.626615 87.549146 -57.59375 87.5 C -57.560885 87.450854 -57.561668 87.456946 -57.53125 87.40625 C -57.500832 87.355554 -57.496649 87.364625 -57.46875 87.3125 C -57.440851 87.260375 -57.431562 87.272179 -57.40625 87.21875 C -57.380938 87.165321 -57.397665 87.179605 -57.375 87.125 L -48.96875 66.84375 C -48.946246 66.789195 -48.95731 66.77434 -48.9375 66.71875 C -48.91769 66.66316 -48.892069 66.681491 -48.875 66.625 C -48.857931 66.568509 -48.858037 66.588508 -48.84375 66.53125 C -48.829463 66.473992 -48.855221 66.464138 -48.84375 66.40625 C -48.832279 66.348362 -48.821127 66.37088 -48.8125 66.3125 C -48.803873 66.25412 -48.818263 66.246232 -48.8125 66.1875 C -48.806737 66.128768 -48.784135 66.152693 -48.78125 66.09375 C -48.778365 66.034807 -48.78125 66.027764 -48.78125 65.96875 C -48.78125 65.909736 -48.778365 65.902693 -48.78125 65.84375 C -48.784135 65.784807 -48.806737 65.808732 -48.8125 65.75 C -48.818263 65.691268 -48.803873 65.68338 -48.8125 65.625 C -48.821127 65.56662 -48.832279 65.589138 -48.84375 65.53125 C -48.855221 65.473362 -48.829463 65.463508 -48.84375 65.40625 C -48.858037 65.348992 -48.857931 65.368991 -48.875 65.3125 C -48.892069 65.256009 -48.91769 65.27434 -48.9375 65.21875 C -48.95731 65.16316 -48.946246 65.148305 -48.96875 65.09375 L -57.375 44.8125 C -57.397665 44.757895 -57.380938 44.772179 -57.40625 44.71875 C -57.431562 44.665321 -57.440851 44.677125 -57.46875 44.625 C -57.496649 44.572875 -57.500832 44.581946 -57.53125 44.53125 C -57.561668 44.480554 -57.560885 44.486646 -57.59375 44.4375 C -57.626615 44.388354 -57.621018 44.391227 -57.65625 44.34375 C -57.691482 44.296273 -57.681235 44.295695 -57.71875 44.25 C -57.756265 44.204305 -57.741542 44.200053 -57.78125 44.15625 C -57.820958 44.112447 -57.833195 44.135555 -57.875 44.09375 C -57.916805 44.051945 -57.893697 44.039708 -57.9375 44 C -57.981303 43.960292 -57.985555 43.975015 -58.03125 43.9375 C -58.076945 43.899985 -58.077523 43.910232 -58.125 43.875 C -58.172477 43.839768 -58.169604 43.845365 -58.21875 43.8125 C -58.267896 43.779635 -58.261804 43.780418 -58.3125 43.75 C -58.363196 43.719582 -58.354125 43.715399 -58.40625 43.6875 C -58.458375 43.659601 -58.446571 43.650312 -58.5 43.625 C -58.553429 43.599688 -58.539145 43.616415 -58.59375 43.59375 L -78.875 35.1875 C -78.944187 35.158247 -78.960377 35.149893 -79.03125 35.125 C -79.102123 35.100107 -79.083966 35.114185 -79.15625 35.09375 C -79.228534 35.073315 -79.207834 35.078399 -79.28125 35.0625 C -79.354666 35.046601 -79.363237 35.042551 -79.4375 35.03125 C -79.511763 35.019949 -79.487678 35.006659 -79.5625 35 C -79.637322 34.993341 -79.643659 35.001991 -79.71875 35 C -79.793841 34.998009 -79.76868 34.997316 -79.84375 35 C -79.903806 35.002147 -79.930177 34.996293 -79.96875 35 C -79.978393 35.000927 -79.985049 34.99853 -80 35 z "
           style="display:inline;opacity:0.7488152;fill:#ffffff;fill-opacity:1;stroke:none;filter:url(#filter3777)"
           id="path3781"
           d="m -79.933594,35.623047 c -0.0345,0.0072 -0.176432,0.03581 -0.21289,0.04297 -7.35e-4,3.54e-4 -0.0031,-3.77e-4 -0.0039,0 -0.0269,0.01291 -0.05923,0.03004 -0.113281,0.04883 -0.07443,0.02587 -0.02764,0.0092 -0.115234,0.04687 a 0.62547572,0.62547572 0 0 1 -0.0059,0.0039 l -20.281254,8.40625 c -0.0212,0.0088 -0.0345,0.0094 -0.0625,0.01758 -0.0292,0.02097 -0.0408,0.03301 -0.0703,0.04883 -0.001,6.86e-4 0.0468,-0.03078 0.0449,-0.0293 -0.002,0.0015 -0.061,0.04794 -0.11132,0.07813 -0.0358,0.02147 -0.003,0.0013 -0.0684,0.04492 -0.067,0.04483 -0.0366,0.02137 -0.0684,0.04492 -0.048,0.03563 -0.11509,0.07501 -0.11719,0.07617 -0.002,0.0012 0.0471,-0.03341 0.0469,-0.0332 -0.0226,0.0186 -0.035,0.02362 -0.0625,0.04102 -0.0219,0.03231 -0.026,0.05136 -0.0488,0.07422 -0.0222,0.02216 -0.0411,0.02558 -0.0723,0.04687 -0.0177,0.02816 -0.0219,0.04119 -0.041,0.06445 -0.0147,0.02436 -0.0237,0.04166 -0.0449,0.07031 -0.0236,0.03175 -10e-5,0.0013 -0.0449,0.06836 -0.0436,0.0652 -0.0234,0.03257 -0.0449,0.06836 -0.0302,0.0503 -0.0766,0.109447 -0.0781,0.111328 -0.001,0.0019 0.03,-0.04622 0.0293,-0.04492 -0.0158,0.02956 -0.0279,0.04108 -0.0488,0.07031 -0.008,0.02801 -0.009,0.04129 -0.0176,0.0625 l -8.40039,20.265625 c -0.007,0.037 -0.008,0.06182 -0.0254,0.109375 -0.0132,0.03711 -0.0362,0.04971 -0.0625,0.08984 -0.004,0.01101 -0.004,0.01341 -0.008,0.02344 4.6e-4,0.0478 0.009,0.06575 0,0.111328 -0.004,0.02027 -0.014,0.03385 -0.0234,0.06055 0.001,0.03682 0.006,0.0556 0.002,0.09766 -0.002,0.02349 -0.0192,0.04297 -0.0293,0.07422 -8.5e-4,0.02328 0,0.01289 0,0.08398 0,0.07109 -8.5e-4,0.0607 0,0.08398 0.0101,0.03125 0.027,0.05073 0.0293,0.07422 0.004,0.04206 -5.5e-4,0.06084 -0.002,0.09766 0.009,0.02669 0.0194,0.04028 0.0234,0.06055 0.009,0.04558 4.6e-4,0.06353 0,0.111328 0.004,0.01003 0.004,0.01242 0.008,0.02344 0.0263,0.04014 0.0493,0.05274 0.0625,0.08984 0.017,0.04756 0.0181,0.07237 0.0254,0.109375 l 8.40039,20.265625 c 0.009,0.02121 0.009,0.03449 0.0176,0.0625 0.021,0.02923 0.033,0.04075 0.0488,0.07031 7e-4,0.0013 -0.0308,-0.0468 -0.0293,-0.04492 0.001,0.0019 0.048,0.06103 0.0781,0.111328 0.0215,0.03579 0.001,0.0032 0.0449,0.06836 0.0448,0.06703 0.0214,0.03661 0.0449,0.06836 0.0213,0.02865 0.0302,0.04596 0.0449,0.07031 0.0191,0.02326 0.0233,0.0363 0.041,0.06445 0.0312,0.02129 0.0501,0.02472 0.0723,0.04687 0.0229,0.02286 0.0269,0.0419 0.0488,0.07422 0.0275,0.0174 0.0399,0.02242 0.0625,0.04102 2.6e-4,2.12e-4 -0.049,-0.03437 -0.0469,-0.0332 0.002,0.0012 0.0692,0.04054 0.11719,0.07617 0.0317,0.02356 0.001,9.4e-5 0.0684,0.04492 0.0652,0.0436 0.0326,0.02345 0.0684,0.04492 0.0503,0.03019 0.10944,0.07664 0.11132,0.07813 0.002,0.0015 -0.0462,-0.02998 -0.0449,-0.0293 0.0296,0.01582 0.0411,0.02786 0.0703,0.04883 0.028,0.0082 0.0413,0.0088 0.0625,0.01758 l 20.265629,8.400391 c 0.03701,0.0073 0.06181,0.0084 0.109375,0.02539 0.03711,0.01322 0.0497,0.0362 0.08984,0.0625 0.01102,0.0038 0.0134,0.0041 0.02344,0.0078 0.0478,-4.6e-4 0.06575,-0.009 0.111328,0 0.02027,0.004 0.03385,0.014 0.06055,0.02344 0.03682,-0.0014 0.0556,-0.0061 0.09766,-0.002 0.02348,0.0023 0.04298,0.01924 0.07422,0.0293 0.02325,8.52e-4 0.01286,0 0.08398,0 0.07113,0 0.06074,8.52e-4 0.08398,0 0.03124,-0.01005 0.05074,-0.02699 0.07422,-0.0293 0.04206,-0.0041 0.06083,5.46e-4 0.09766,0.002 0.0267,-0.0094 0.04027,-0.01942 0.06055,-0.02344 0.04558,-0.009 0.06353,-4.6e-4 0.111328,0 0.01003,-0.0037 0.01242,-0.004 0.02344,-0.0078 0.04014,-0.0263 0.05274,-0.04928 0.08984,-0.0625 0.04756,-0.01695 0.07237,-0.01809 0.109375,-0.02539 l 20.265625,-8.400391 c 0.02121,-0.0088 0.0345,-0.0094 0.0625,-0.01758 0.02923,-0.02097 0.04076,-0.03301 0.07031,-0.04883 0.0013,-6.91e-4 -0.0468,0.03078 -0.04492,0.0293 0.0019,-0.0015 0.06102,-0.04794 0.111328,-0.07813 0.0358,-0.02148 0.0032,-0.0013 0.06836,-0.04492 0.06706,-0.04484 0.03664,-0.02138 0.06836,-0.04492 0.04801,-0.03563 0.115072,-0.075 0.117188,-0.07617 0.0021,-0.0012 -0.04714,0.03342 -0.04687,0.0332 0.02264,-0.01859 0.03501,-0.02362 0.0625,-0.04102 0.02188,-0.03231 0.02597,-0.05136 0.04883,-0.07422 0.02286,-0.02286 0.04191,-0.02695 0.07422,-0.04883 0.01739,-0.02749 0.02243,-0.03986 0.04102,-0.0625 2.17e-4,-2.64e-4 -0.03437,0.04899 -0.0332,0.04687 0.0012,-0.0021 0.04054,-0.06917 0.07617,-0.117188 0.02354,-0.03172 7.9e-5,-0.0013 0.04492,-0.06836 0.04359,-0.06518 0.02344,-0.03256 0.04492,-0.06836 0.03018,-0.0503 0.07664,-0.109444 0.07813,-0.111328 0.0015,-0.0019 -0.02999,0.04621 -0.0293,0.04492 0.01582,-0.02956 0.02786,-0.04108 0.04883,-0.07031 0.0082,-0.028 0.0088,-0.04129 0.01758,-0.0625 l 8.400391,-20.265625 c 0.0073,-0.03701 0.0084,-0.06181 0.02539,-0.109375 0.01322,-0.03711 0.03619,-0.0497 0.0625,-0.08984 0.0038,-0.01102 0.0041,-0.0134 0.0078,-0.02344 -4.6e-4,-0.0478 -0.009,-0.06575 0,-0.111328 0.004,-0.02027 0.014,-0.03385 0.02344,-0.06055 -0.0014,-0.03682 -0.0061,-0.0556 -0.002,-0.09766 0.0023,-0.02348 0.01924,-0.04298 0.0293,-0.07422 8.52e-4,-0.02325 0,-0.01286 0,-0.08398 0,-0.07113 8.52e-4,-0.06074 0,-0.08398 -0.01005,-0.03124 -0.02699,-0.05074 -0.0293,-0.07422 -0.0041,-0.04206 5.46e-4,-0.06083 0.002,-0.09766 -0.0094,-0.0267 -0.01942,-0.04027 -0.02344,-0.06055 -0.009,-0.04558 -4.6e-4,-0.06353 0,-0.111328 -0.0037,-0.01003 -0.004,-0.01242 -0.0078,-0.02344 -0.02631,-0.04014 -0.04928,-0.05274 -0.0625,-0.08984 -0.01695,-0.04756 -0.01809,-0.07237 -0.02539,-0.109375 l -8.400391,-20.265625 c -0.0088,-0.02121 -0.0094,-0.0345 -0.01758,-0.0625 -0.02097,-0.02923 -0.03301,-0.04076 -0.04883,-0.07031 -6.91e-4,-0.0013 0.03078,0.0468 0.0293,0.04492 -0.0015,-0.0019 -0.04794,-0.06102 -0.07813,-0.111328 -0.02148,-0.0358 -0.0013,-0.0032 -0.04492,-0.06836 -0.04484,-0.06706 -0.02138,-0.03664 -0.04492,-0.06836 -0.03563,-0.04801 -0.075,-0.115072 -0.07617,-0.117188 -0.0012,-0.0021 0.03342,0.04714 0.0332,0.04687 -0.01859,-0.02264 -0.02362,-0.03501 -0.04102,-0.0625 -0.03231,-0.02188 -0.05136,-0.02597 -0.07422,-0.04883 -0.02286,-0.02286 -0.02695,-0.04191 -0.04883,-0.07422 -0.02749,-0.01739 -0.03986,-0.02243 -0.0625,-0.04102 -2.64e-4,-2.17e-4 0.04899,0.03437 0.04687,0.0332 -0.0021,-0.0012 -0.06917,-0.04054 -0.117188,-0.07617 -0.03172,-0.02354 -0.0013,-7.9e-5 -0.06836,-0.04492 -0.06518,-0.04359 -0.03256,-0.02344 -0.06836,-0.04492 -0.05031,-0.03018 -0.109444,-0.07664 -0.111328,-0.07813 -0.0019,-0.0015 0.04621,0.02999 0.04492,0.0293 -0.02956,-0.01582 -0.04108,-0.02786 -0.07031,-0.04883 -0.028,-0.0082 -0.04129,-0.0088 -0.0625,-0.01758 l -20.28125,-8.40625 a 0.62547572,0.62547572 0 0 1 -0.0039,-0.002 c -0.07629,-0.03226 -0.06145,-0.02857 -0.11914,-0.04883 -0.02666,-0.0051 -0.04875,-0.0085 -0.08789,-0.01953 -0.07623,-0.02155 -0.01129,-0.0049 -0.08789,-0.02148 -0.08505,-0.01842 -0.05782,-0.0144 -0.117188,-0.02344 -0.03463,-0.0053 -0.05177,-0.01509 -0.0918,-0.02734 -0.01741,9.64e-4 -0.05696,0.0034 -0.111328,0.002 -0.08263,-0.0022 -0.01167,-0.0027 -0.08789,0 -0.107152,0.0038 -0.136793,0.0029 -0.08594,-0.002 -0.11306,0.01087 -0.06837,0.0049 -0.02539,0 z"
           transform="matrix(-4.7863702,-1.9825791,1.9825791,-4.7863702,-325.00129,345.12762)" />
        <g
           transform="translate(-7.9080505e-7,-5.4186698e-6)"
           id="g3264">
          <g
             id="g3418"
             transform="translate(-2.5000008,2.499992)">
            <path
               sodipodi:type="star"
               style="display:inline;fill:#bb0000;fill-opacity:1;fill-rule:nonzero;stroke:none"
               id="path3266"
               sodipodi:sides="8"
               sodipodi:cx="-79.738701"
               sodipodi:cy="65.966873"
               sodipodi:r1="30.535322"
               sodipodi:r2="28.210958"
               sodipodi:arg1="0.78539816"
               sodipodi:arg2="1.1780972"
               inkscape:flatsided="true"
               inkscape:rounded="0"
               inkscape:randomized="0"
               d="m -58.146967,87.558606 -21.591734,8.943589 -21.591729,-8.943588 -8.94359,-21.591734 8.94359,-21.591733 21.591729,-8.943589 21.591733,8.943589 8.943589,21.591733 z"
               transform="matrix(-5.092463,-2.1093669,2.1093669,-5.092463,-357.71472,355.23569)" />
            <path
               transform="matrix(-4.6558285,-1.928507,1.928507,-4.6558285,-310.96729,340.85381)"
               d="m -58.146967,87.558606 -21.591734,8.943589 -21.591729,-8.943588 -8.94359,-21.591734 8.94359,-21.591733 21.591729,-8.943589 21.591733,8.943589 8.943589,21.591733 z"
               inkscape:randomized="0"
               inkscape:rounded="0"
               inkscape:flatsided="true"
               sodipodi:arg2="1.1780972"
               sodipodi:arg1="0.78539816"
               sodipodi:r2="28.210958"
               sodipodi:r1="30.535322"
               sodipodi:cy="65.966873"
               sodipodi:cx="-79.738701"
               sodipodi:sides="8"
               id="path3268"
               style="display:inline;fill:#bb0000;fill-opacity:1;fill-rule:nonzero;stroke:#ffffff;stroke-width:1.58748043;stroke-linecap:round;stroke-miterlimit:4;stroke-dasharray:none;stroke-opacity:1"
               sodipodi:type="star" />
            <path
               sodipodi:type="inkscape:offset"
               inkscape:radius="-0.66905648"
               inkscape:original="M -79.75 35.4375 L -101.34375 44.375 L -110.28125 65.96875 L -101.34375 87.5625 L -79.75 96.5 L -58.15625 87.5625 L -49.21875 65.96875 L -58.15625 44.375 L -79.75 35.4375 z "
               style="display:inline;fill:url(#linearGradient3300);fill-opacity:1;fill-rule:nonzero;stroke:none"
               id="path3272"
               d="m -79.75,36.162109 -21.08203,8.72461 -8.72461,21.082031 8.72461,21.082031 21.08203,8.72461 21.082031,-8.72461 8.72461,-21.082031 -8.72461,-21.082031 L -79.75,36.162109 Z"
               transform="matrix(-4.6558285,-1.928507,1.928507,-4.6558285,-311.02351,340.84075)" />
            <path
               sodipodi:type="inkscape:offset"
               inkscape:radius="2.2763691"
               inkscape:original="M -79.75 38.65625 L -99.0625 46.65625 L -107.0625 65.96875 L -99.0625 85.28125 L -79.75 93.28125 L -60.4375 85.28125 L -52.4375 65.96875 L -60.4375 46.65625 L -79.75 38.65625 z "
               style="display:inline;fill:none;stroke:none"
               id="path3274"
               d="m -79.767578,36.380859 a 2.2765967,2.2765967 0 0 0 -0.853516,0.171875 l -19.3125,8 a 2.2765967,2.2765967 0 0 0 -1.232426,1.232422 l -8,19.3125 a 2.2765967,2.2765967 0 0 0 0,1.742188 l 8,19.3125 a 2.2765967,2.2765967 0 0 0 1.232426,1.232422 l 19.3125,8 a 2.2765967,2.2765967 0 0 0 1.742188,0 l 19.3125,-8 a 2.2765967,2.2765967 0 0 0 1.232422,-1.232422 l 8,-19.3125 a 2.2765967,2.2765967 0 0 0 0,-1.742188 l -8,-19.3125 a 2.2765967,2.2765967 0 0 0 -1.232422,-1.232422 l -19.3125,-8 a 2.2765967,2.2765967 0 0 0 -0.888672,-0.171875 z"
               transform="matrix(-4.6559483,-1.914732,1.9285566,-4.6225726,-305.16593,335.61352)" />
            <path
               sodipodi:type="inkscape:offset"
               inkscape:radius="2.2763691"
               inkscape:original="M -79.75 38.65625 L -99.0625 46.65625 L -107.0625 65.96875 L -99.0625 85.28125 L -79.75 93.28125 L -60.4375 85.28125 L -52.4375 65.96875 L -60.4375 46.65625 L -79.75 38.65625 z "
               style="display:inline;fill:none;stroke:none"
               id="path3276"
               d="m -79.767578,36.380859 a 2.2765967,2.2765967 0 0 0 -0.853516,0.171875 l -19.3125,8 a 2.2765967,2.2765967 0 0 0 -1.232426,1.232422 l -8,19.3125 a 2.2765967,2.2765967 0 0 0 0,1.742188 l 8,19.3125 a 2.2765967,2.2765967 0 0 0 1.232426,1.232422 l 19.3125,8 a 2.2765967,2.2765967 0 0 0 1.742188,0 l 19.3125,-8 a 2.2765967,2.2765967 0 0 0 1.232422,-1.232422 l 8,-19.3125 a 2.2765967,2.2765967 0 0 0 0,-1.742188 l -8,-19.3125 a 2.2765967,2.2765967 0 0 0 -1.232422,-1.232422 l -19.3125,-8 a 2.2765967,2.2765967 0 0 0 -0.888672,-0.171875 z"
               transform="matrix(-4.6559483,-1.914732,1.9285566,-4.6225726,-296.23735,331.93705)" />
            <path
               sodipodi:type="inkscape:offset"
               inkscape:radius="2.2763691"
               inkscape:original="M -79.75 38.65625 L -99.0625 46.65625 L -107.0625 65.96875 L -99.0625 85.28125 L -79.75 93.28125 L -60.4375 85.28125 L -52.4375 65.96875 L -60.4375 46.65625 L -79.75 38.65625 z "
               style="display:inline;fill:none;stroke:none"
               id="path3286"
               d="m -79.767578,36.380859 a 2.2765967,2.2765967 0 0 0 -0.853516,0.171875 l -19.3125,8 a 2.2765967,2.2765967 0 0 0 -1.232426,1.232422 l -8,19.3125 a 2.2765967,2.2765967 0 0 0 0,1.742188 l 8,19.3125 a 2.2765967,2.2765967 0 0 0 1.232426,1.232422 l 19.3125,8 a 2.2765967,2.2765967 0 0 0 1.742188,0 l 19.3125,-8 a 2.2765967,2.2765967 0 0 0 1.232422,-1.232422 l 8,-19.3125 a 2.2765967,2.2765967 0 0 0 0,-1.742188 l -8,-19.3125 a 2.2765967,2.2765967 0 0 0 -1.232422,-1.232422 l -19.3125,-8 a 2.2765967,2.2765967 0 0 0 -0.888672,-0.171875 z"
               transform="matrix(-4.6559483,-1.914732,1.9285566,-4.6225726,-300.43903,333.51268)" />
            <text
               sodipodi:linespacing="125%"
               id="text3288"
               y="184.77908"
               x="62.202526"
               style="font-style:normal;font-variant:normal;font-weight:normal;font-stretch:normal;font-size:82.00968933px;line-height:125%;font-family:'Blue Highway D Type';-inkscape-font-specification:'Blue Highway D Type';text-align:start;writing-mode:lr-tb;text-anchor:start;display:inline;fill:#ffffff;fill-opacity:1;stroke:none"
               xml:space="preserve"
               transform="scale(0.94897469,1.0537689)"><tspan
                 style="font-style:normal;font-variant:normal;font-weight:normal;font-stretch:normal;font-size:67.62352753px;line-height:125%;font-family:'Gravur Condensed CE';-inkscape-font-specification:'Gravur Condensed CE, Normal';text-align:start;writing-mode:lr-tb;text-anchor:start"
                 y="184.77908"
                 x="62.202526"
                 id="tspan3290"
                 sodipodi:role="line">TRAKAYAD</tspan></text>
            <rect
               style="display:inline;fill:#ffffff;fill-opacity:1;stroke:none"
               id="rect3292"
               width="255"
               height="5"
               x="60"
               y="355" />
            <text
               xml:space="preserve"
               style="font-style:normal;font-variant:normal;font-weight:normal;font-stretch:normal;font-size:32px;line-height:125%;font-family:'Roadgeek 2005 Series C';-inkscape-font-specification:'Roadgeek 2005 Series C';text-align:start;writing-mode:lr-tb;text-anchor:start;display:inline;fill:#ffffff;fill-opacity:1;stroke:none"
               x="80.163574"
               y="243.366"
               id="text3278"
               sodipodi:linespacing="125%"><tspan
                 sodipodi:role="line"
                 id="tspan3280"
                 x="80.163574"
                 y="243.366"
                 style="font-style:normal;font-variant:normal;font-weight:bold;font-stretch:normal;font-size:30px;line-height:125%;font-family:'Gravur Condensed CE';-inkscape-font-specification:'Gravur Condensed CE, Bold';text-align:start;writing-mode:lr-tb;text-anchor:start">TRAFİKTE KAZASIZ</tspan></text>
            <text
               xml:space="preserve"
               style="font-style:normal;font-variant:normal;font-weight:normal;font-stretch:normal;font-size:32px;line-height:125%;font-family:'Roadgeek 2005 Series C';-inkscape-font-specification:'Roadgeek 2005 Series C';text-align:start;writing-mode:lr-tb;text-anchor:start;display:inline;fill:#ffffff;fill-opacity:1;stroke:none"
               x="92.717285"
               y="277.90799"
               id="text3282"
               sodipodi:linespacing="125%"><tspan
                 sodipodi:role="line"
                 id="tspan3284"
                 x="92.717285"
                 y="277.90799"
                 style="font-style:normal;font-variant:normal;font-weight:bold;font-stretch:normal;font-size:30px;line-height:125%;font-family:'Gravur Condensed CE';-inkscape-font-specification:'Gravur Condensed CE, Bold';text-align:start;writing-mode:lr-tb;text-anchor:start">YAŞAM DERNEĞİ</tspan></text>
            <text
               sodipodi:linespacing="100%"
               id="text3296"
               y="311.664"
               x="160.30516"
               style="font-style:normal;font-variant:normal;font-weight:normal;font-stretch:normal;font-size:28px;line-height:100%;font-family:'Roadgeek 2005 Series C';-inkscape-font-specification:'Roadgeek 2005 Series C';text-align:start;writing-mode:lr-tb;text-anchor:start;display:inline;fill:#ffffff;fill-opacity:1;stroke:none"
               xml:space="preserve"><tspan
                 y="311.664"
                 x="160.30516"
                 id="tspan3298"
                 sodipodi:role="line"
                 style="font-style:normal;font-variant:normal;font-weight:bold;font-stretch:normal;font-size:30px;line-height:100%;font-family:'Gravur Condensed CE';-inkscape-font-specification:'Gravur Condensed CE Bold';text-align:start;writing-mode:lr-tb;text-anchor:start">2010</tspan></text>
            <path
               style="fill:none;fill-rule:evenodd;stroke:#ffffff;stroke-width:5;stroke-linecap:round;stroke-linejoin:miter;stroke-miterlimit:4;stroke-dasharray:none;stroke-opacity:1"
               d="m 62.535609,132.97476 250.001241,0"
               id="path3358"
               inkscape:connector-curvature="0" />
            <path
               inkscape:connector-curvature="0"
               id="path3360"
               d="m 62.535609,207.14976 250.001241,0"
               style="fill:none;fill-rule:evenodd;stroke:#ffffff;stroke-width:5;stroke-linecap:round;stroke-linejoin:miter;stroke-miterlimit:4;stroke-dasharray:none;stroke-opacity:1" />
          </g>
        </g>
      </g>
    </g>
  </g>
</svg>
