<?xml version="1.0" encoding="UTF-8" standalone="no"?>
<!-- Created with Inkscape (http://www.inkscape.org/) -->

<svg
   xmlns:dc="http://purl.org/dc/elements/1.1/"
   xmlns:cc="http://creativecommons.org/ns#"
   xmlns:rdf="http://www.w3.org/1999/02/22-rdf-syntax-ns#"
   xmlns:svg="http://www.w3.org/2000/svg"
   xmlns="http://www.w3.org/2000/svg"
   xmlns:sodipodi="http://sodipodi.sourceforge.net/DTD/sodipodi-0.dtd"
   xmlns:inkscape="http://www.inkscape.org/namespaces/inkscape"
   id="svg2"
   version="1.1"
   inkscape:version="0.91 r13725"
   xml:space="preserve"
   width="650"
   height="400"
   viewBox="0 0 649.99998 400"
   sodipodi:docname="tzd-logo.svg"
   inkscape:export-filename="/home/hsevay/workspace2/trakayad/presentations/kanalt-01feb2017/images/tzd-logo.png"
   inkscape:export-xdpi="90"
   inkscape:export-ydpi="90"><metadata
     id="metadata8"><rdf:RDF><cc:Work
         rdf:about=""><dc:format>image/svg+xml</dc:format><dc:type
           rdf:resource="http://purl.org/dc/dcmitype/StillImage" /><dc:title></dc:title></cc:Work></rdf:RDF></metadata><defs
     id="defs6"><clipPath
       clipPathUnits="userSpaceOnUse"
       id="clipPath192"><path
         d="m 36.204,29.407 539.591,0 0,61.034 -539.591,0 0,-61.034 z"
         id="path194"
         inkscape:connector-curvature="0" /></clipPath></defs><sodipodi:namedview
     pagecolor="#ffffff"
     bordercolor="#666666"
     borderopacity="1"
     objecttolerance="10"
     gridtolerance="10"
     guidetolerance="10"
     inkscape:pageopacity="0"
     inkscape:pageshadow="2"
     inkscape:window-width="1920"
     inkscape:window-height="1056"
     id="namedview4"
     showgrid="false"
     inkscape:zoom="1.3485026"
     inkscape:cx="274.4073"
     inkscape:cy="143.71346"
     inkscape:window-x="0"
     inkscape:window-y="24"
     inkscape:window-maximized="1"
     inkscape:current-layer="g5012"
     fit-margin-top="0"
     fit-margin-left="0"
     fit-margin-right="0"
     fit-margin-bottom="0" /><g
     id="g10"
     inkscape:groupmode="layer"
     inkscape:label="TZD_Strategy_12_1_2014"
     transform="matrix(1.25,0,0,-1.25,-45.51375,438.708)"><g
       id="g4906"
       transform="matrix(1.7738557,0,0,1.7738557,-28.216863,111.73146)"><g
         id="g5012"><g
           id="g4876"
           transform="matrix(1.6245938,0,0,1.6245938,-22.719531,-27.899481)"><g
             transform="translate(76.7305,57.9161)"
             id="g272"><path
               inkscape:connector-curvature="0"
               id="path274"
               style="fill:#231f20;fill-opacity:1;fill-rule:nonzero;stroke:none"
               d="m 0,0 0,-2.365 -3.121,0 0,-11.634 -2.676,0 0,11.634 -3.123,0 L -8.92,0 0,0 Z" /></g><g
             transform="translate(78.8845,47.0971)"
             id="g276"><path
               inkscape:connector-curvature="0"
               id="path278"
               style="fill:#231f20;fill-opacity:1;fill-rule:nonzero;stroke:none"
               d="m 0,0 c 0,-0.814 0.582,-1.24 1.435,-1.24 0.853,0 1.435,0.426 1.435,1.24 l 0,4.188 C 2.87,5.002 2.288,5.429 1.435,5.429 0.582,5.429 0,5.002 0,4.188 L 0,0 Z m -2.444,3.568 c 0,2.792 1.436,3.995 3.879,3.995 2.443,0 3.877,-1.203 3.877,-3.995 l 0,-2.948 c 0,-2.792 -1.434,-3.994 -3.877,-3.994 -2.443,0 -3.879,1.202 -3.879,3.994 l 0,2.948 z" /></g><g
             transform="translate(84.8353,54.4659)"
             id="g280"><path
               inkscape:connector-curvature="0"
               id="path282"
               style="fill:#231f20;fill-opacity:1;fill-rule:nonzero;stroke:none"
               d="m 0,0 2.289,0 1.416,-6.592 0.037,0 1.417,6.592 2.093,0 1.494,-6.592 0.038,0 1.338,6.592 2.289,0 -2.482,-10.548 -2.288,0 -1.493,6.592 -0.039,0 -1.3,-6.592 -2.287,0 L 0,0 Z" /></g><g
             transform="translate(102.927,49.0753)"
             id="g284"><path
               inkscape:connector-curvature="0"
               id="path286"
               style="fill:#231f20;fill-opacity:1;fill-rule:nonzero;stroke:none"
               d="m 0,0 c -1.455,-0.504 -2.928,-1.319 -2.928,-2.425 0,-0.696 0.425,-1.105 1.086,-1.105 0.736,0 1.261,0.389 1.842,0.97 L 0,0 Z m -5.06,2.308 c 0.173,2.346 1.956,3.276 3.916,3.276 2.597,0 3.587,-1.318 3.587,-3.199 l 0,-6.691 c 0,-0.29 0.057,-0.581 0.136,-0.852 l -2.443,0 c -0.058,0.271 -0.097,0.601 -0.175,1.027 -0.717,-0.717 -1.687,-1.221 -2.908,-1.221 -1.473,0 -2.425,0.814 -2.425,2.521 0,2.443 2.327,3.489 5.372,4.401 l 0,0.775 c 0,0.912 -0.562,1.262 -1.26,1.262 -0.738,0 -1.358,-0.544 -1.358,-1.299 l -2.442,0 z" /></g><g
             transform="translate(107.2114,43.9174)"
             id="g288"><path
               inkscape:connector-curvature="0"
               id="path290"
               style="fill:#231f20;fill-opacity:1;fill-rule:nonzero;stroke:none"
               d="m 0,0 0,10.548 2.384,0 0,-1.396 0.04,0 c 0.562,1.048 1.298,1.59 2.52,1.59 l 0,-2.637 C 4.537,8.221 4.071,8.375 3.645,8.375 2.85,8.375 2.443,7.775 2.443,7.213 L 2.443,0 0,0 Z" /></g><g
             transform="translate(118.0106,52.0805)"
             id="g292"><path
               inkscape:connector-curvature="0"
               id="path294"
               style="fill:#231f20;fill-opacity:1;fill-rule:nonzero;stroke:none"
               d="m 0,0 c -0.484,0.524 -0.93,0.756 -1.473,0.756 -0.659,0 -1.203,-0.426 -1.203,-2.52 l 0,-2.25 c 0,-2.094 0.544,-2.521 1.203,-2.521 0.543,0 0.989,0.233 1.473,0.756 L 0,0 Z m 0.194,-8.163 0,1.28 -0.038,0 c -0.426,-0.66 -1.513,-1.475 -2.598,-1.475 -1.901,0 -2.677,1.475 -2.677,4.189 l 0,2.559 c 0,2.715 0.776,4.189 2.677,4.189 0.658,0 1.279,-0.31 2.442,-1.163 l 0,4.42 2.444,0 0,-13.999 -2.25,0 z" /></g><g
             transform="translate(127.0264,57.9161)"
             id="g296"><path
               inkscape:connector-curvature="0"
               id="path298"
               style="fill:#231f20;fill-opacity:1;fill-rule:nonzero;stroke:none"
               d="m 0,0 7.756,0 0,-2.248 -5.293,-9.385 5.41,0 0,-2.366 -8.416,0 0,2.268 5.294,9.366 L 0,-2.365 0,0 Z" /></g><g
             transform="translate(141.2384,50.5872)"
             id="g300"><path
               inkscape:connector-curvature="0"
               id="path302"
               style="fill:#231f20;fill-opacity:1;fill-rule:nonzero;stroke:none"
               d="m 0,0 0,0.582 c 0,0.931 -0.445,1.512 -1.435,1.512 -0.989,0 -1.434,-0.581 -1.434,-1.512 L -2.869,0 0,0 Z m -2.869,-1.977 0,-1.397 c 0,-1.046 0.62,-1.513 1.434,-1.513 1.028,0 1.435,0.661 1.435,1.474 l 2.444,0 c -0.116,-2.171 -1.415,-3.451 -3.879,-3.451 -2.326,0 -3.877,1.435 -3.877,3.744 l 0,3.45 c 0,2.307 1.551,3.742 3.877,3.742 2.27,0 3.879,-1.435 3.879,-3.587 l 0,-2.462 -5.313,0 z" /></g><g
             transform="translate(145.2328,43.9174)"
             id="g304"><path
               inkscape:connector-curvature="0"
               id="path306"
               style="fill:#231f20;fill-opacity:1;fill-rule:nonzero;stroke:none"
               d="m 0,0 0,10.548 2.386,0 0,-1.396 0.038,0 c 0.562,1.048 1.298,1.59 2.52,1.59 l 0,-2.637 C 4.537,8.221 4.072,8.375 3.645,8.375 2.85,8.375 2.443,7.775 2.443,7.213 L 2.443,0 0,0 Z" /></g><g
             transform="translate(153.3566,47.0971)"
             id="g308"><path
               inkscape:connector-curvature="0"
               id="path310"
               style="fill:#231f20;fill-opacity:1;fill-rule:nonzero;stroke:none"
               d="m 0,0 c 0,-0.814 0.582,-1.24 1.436,-1.24 0.852,0 1.434,0.426 1.434,1.24 l 0,4.188 C 2.87,5.002 2.288,5.429 1.436,5.429 0.582,5.429 0,5.002 0,4.188 L 0,0 Z m -2.442,3.568 c 0,2.792 1.435,3.995 3.878,3.995 2.443,0 3.878,-1.203 3.878,-3.995 l 0,-2.948 c 0,-2.792 -1.435,-3.994 -3.878,-3.994 -2.443,0 -3.878,1.202 -3.878,3.994 l 0,2.948 z" /></g><g
             transform="translate(167.7435,46.2828)"
             id="g312"><path
               inkscape:connector-curvature="0"
               id="path314"
               style="fill:#231f20;fill-opacity:1;fill-rule:nonzero;stroke:none"
               d="m 0,0 0.931,0 c 1.474,0 2.328,0.698 2.328,2.793 l 0,3.683 c 0,1.979 -0.66,2.792 -2.328,2.792 L 0,9.268 0,0 Z m -2.676,11.633 3.723,0 c 3.064,0 4.771,-1.317 4.886,-4.848 l 0,-4.302 C 5.818,-1.047 4.111,-2.365 1.047,-2.365 l -3.723,0 0,13.998 z" /></g><g
             transform="translate(180.3461,50.5872)"
             id="g316"><path
               inkscape:connector-curvature="0"
               id="path318"
               style="fill:#231f20;fill-opacity:1;fill-rule:nonzero;stroke:none"
               d="m 0,0 0,0.582 c 0,0.931 -0.446,1.512 -1.435,1.512 -0.989,0 -1.433,-0.581 -1.433,-1.512 L -2.868,0 0,0 Z m -2.868,-1.977 0,-1.397 c 0,-1.046 0.619,-1.513 1.433,-1.513 1.028,0 1.435,0.661 1.435,1.474 l 2.444,0 c -0.117,-2.171 -1.415,-3.451 -3.879,-3.451 -2.326,0 -3.877,1.435 -3.877,3.744 l 0,3.45 c 0,2.307 1.551,3.742 3.877,3.742 2.27,0 3.879,-1.435 3.879,-3.587 l 0,-2.462 -5.312,0 z" /></g><g
             transform="translate(189.1684,49.0753)"
             id="g320"><path
               inkscape:connector-curvature="0"
               id="path322"
               style="fill:#231f20;fill-opacity:1;fill-rule:nonzero;stroke:none"
               d="m 0,0 c -1.454,-0.504 -2.928,-1.319 -2.928,-2.425 0,-0.696 0.428,-1.105 1.087,-1.105 0.736,0 1.26,0.389 1.841,0.97 L 0,0 Z m -5.061,2.308 c 0.174,2.346 1.959,3.276 3.917,3.276 2.598,0 3.588,-1.318 3.588,-3.199 l 0,-6.691 c 0,-0.29 0.058,-0.581 0.135,-0.852 l -2.443,0 c -0.058,0.271 -0.097,0.601 -0.175,1.027 -0.717,-0.717 -1.687,-1.221 -2.908,-1.221 -1.473,0 -2.424,0.814 -2.424,2.521 0,2.443 2.328,3.489 5.371,4.401 l 0,0.775 c 0,0.912 -0.563,1.262 -1.26,1.262 -0.737,0 -1.358,-0.544 -1.358,-1.299 l -2.443,0 z" /></g><g
             transform="translate(192.4064,52.0222)"
             id="g324"><path
               inkscape:connector-curvature="0"
               id="path326"
               style="fill:#231f20;fill-opacity:1;fill-rule:nonzero;stroke:none"
               d="m 0,0 0,1.978 0.969,0 0,2.869 2.444,0 0,-2.869 1.571,0 0,-1.978 -1.571,0 0,-5.391 c 0,-0.523 0.445,-0.775 1.103,-0.775 0.177,0 0.331,0 0.486,0.018 l 0,-2.054 C 4.537,-8.28 4.071,-8.299 3.607,-8.299 c -1.591,0 -2.638,0.581 -2.638,2.095 L 0.969,0 0,0 Z" /></g><g
             transform="translate(198.2623,43.9174)"
             id="g328"><path
               inkscape:connector-curvature="0"
               id="path330"
               style="fill:#231f20;fill-opacity:1;fill-rule:nonzero;stroke:none"
               d="m 0,0 0,13.999 2.442,0 0,-4.653 c 0.815,0.776 1.649,1.396 2.657,1.396 1.493,0 2.27,-0.757 2.27,-2.715 l 0,-8.027 -2.445,0 0,7.756 c 0,0.699 -0.232,1.163 -0.892,1.163 -0.503,0 -1.066,-0.485 -1.59,-0.95 L 2.442,0 0,0 Z" /></g><g
             transform="translate(212.0284,51.2469)"
             id="g332"><path
               inkscape:connector-curvature="0"
               id="path334"
               style="fill:#231f20;fill-opacity:1;fill-rule:nonzero;stroke:none"
               d="m 0,0 c -0.329,0.969 -0.95,1.435 -1.687,1.435 -0.561,0 -0.989,-0.407 -0.989,-0.95 0,-1.629 4.77,-1.668 4.77,-4.809 0,-2.094 -1.473,-3.2 -3.51,-3.2 -1.473,0 -2.792,0.369 -3.975,3.006 l 2.192,0.601 c 0.213,-0.989 0.814,-1.629 1.783,-1.629 0.737,0 1.183,0.349 1.183,0.932 0,2.015 -4.769,1.53 -4.769,5.079 0,1.998 1.609,2.948 3.335,2.948 1.823,0 3.083,-1.047 3.685,-2.638 L 0,0 Z" /></g><g
             style="fill:#f7ad3f;fill-opacity:1"
             transform="translate(70.2634,32.7115)"
             id="g336"><path
               inkscape:connector-curvature="0"
               id="path338"
               style="fill:#f7ad3f;fill-opacity:1;fill-rule:nonzero;stroke:none"
               d="m 0,0 0,6.561 1.044,0 2.864,-5.051 0.036,0 0,5.051 0.655,0 L 4.599,0 3.998,0 0.672,5.853 0.655,5.853 0.655,0 0,0 Z" /></g><g
             style="fill:#f7ad3f;fill-opacity:1"
             transform="translate(79.1163,35.2648)"
             id="g340"><path
               inkscape:connector-curvature="0"
               id="path342"
               style="fill:#f7ad3f;fill-opacity:1;fill-rule:nonzero;stroke:none"
               d="m 0,0 c -1.5,-0.263 -2.234,-0.7 -2.234,-1.353 0,-0.436 0.417,-0.728 0.781,-0.728 0.472,0 1.072,0.346 1.453,0.782 L 0,0 Z m -2.753,1.263 c 0.3,0.546 0.881,1 1.772,1 0.8,0 1.635,-0.381 1.635,-1.417 l 0,-2.381 c 0,-0.518 0.047,-0.773 0.11,-1.018 l -0.673,0 -0.072,0.654 c -0.328,-0.363 -0.855,-0.745 -1.563,-0.745 -0.727,0 -1.346,0.436 -1.346,1.301 0,1.034 0.791,1.553 2.89,1.925 L 0,0.837 C 0,1.464 -0.409,1.7 -0.972,1.7 -1.7,1.7 -2.053,1.282 -2.182,0.963 l -0.571,0.3 z" /></g><g
             style="fill:#f7ad3f;fill-opacity:1"
             transform="translate(81.3268,37.4374)"
             id="g344"><path
               inkscape:connector-curvature="0"
               id="path346"
               style="fill:#f7ad3f;fill-opacity:1;fill-rule:nonzero;stroke:none"
               d="m 0,0 0,1.553 0.654,0 0,-1.553 1.091,0 0,-0.563 -1.091,0 0,-3.363 c 0,-0.218 0.155,-0.327 0.536,-0.327 0.219,0 0.409,0.018 0.582,0.045 l 0,-0.535 C 1.653,-4.781 1.39,-4.817 1.009,-4.817 0.299,-4.817 0,-4.635 0,-4.035 l 0,3.472 -0.772,0 0,0.563 L 0,0 Z" /></g><path
             inkscape:connector-curvature="0"
             id="path348"
             style="fill:#f7ad3f;fill-opacity:1;fill-rule:nonzero;stroke:none"
             d="m 84.353,37.437 0.655,0 0,-4.726 -0.655,0 0,4.726 z m 0.654,1.146 -0.655,0 0,0.781 0.655,0 0,-0.781 z" /><g
             style="fill:#f7ad3f;fill-opacity:1"
             transform="translate(88.2163,36.965)"
             id="g350"><path
               inkscape:connector-curvature="0"
               id="path352"
               style="fill:#f7ad3f;fill-opacity:1;fill-rule:nonzero;stroke:none"
               d="m 0,0 c -0.782,0 -1.281,-0.673 -1.281,-1.89 0,-1.219 0.499,-1.891 1.281,-1.891 0.782,0 1.282,0.672 1.282,1.891 C 1.282,-0.673 0.782,0 0,0 m 0,-4.344 c -1.29,0 -1.935,1.09 -1.935,2.454 0,1.362 0.645,2.453 1.935,2.453 1.291,0 1.935,-1.091 1.935,-2.453 0,-1.364 -0.644,-2.454 -1.935,-2.454" /></g><g
             style="fill:#f7ad3f;fill-opacity:1"
             transform="translate(91.9534,37.4374)"
             id="g354"><path
               inkscape:connector-curvature="0"
               id="path356"
               style="fill:#f7ad3f;fill-opacity:1;fill-rule:nonzero;stroke:none"
               d="m 0,0 0,-0.637 0.018,0 c 0.372,0.418 0.863,0.728 1.398,0.728 0.7,0 1.365,-0.364 1.365,-1.382 l 0,-3.435 -0.655,0 0,3.417 c 0,0.627 -0.299,0.837 -0.773,0.837 -0.491,0 -1.053,-0.4 -1.353,-0.719 l 0,-3.535 -0.655,0 0,4.726 L 0,0 Z" /></g><g
             style="fill:#f7ad3f;fill-opacity:1"
             transform="translate(98.8151,35.2648)"
             id="g358"><path
               inkscape:connector-curvature="0"
               id="path360"
               style="fill:#f7ad3f;fill-opacity:1;fill-rule:nonzero;stroke:none"
               d="m 0,0 c -1.5,-0.263 -2.236,-0.7 -2.236,-1.353 0,-0.436 0.417,-0.728 0.783,-0.728 0.472,0 1.072,0.346 1.453,0.782 L 0,0 Z m -2.753,1.263 c 0.3,0.546 0.881,1 1.772,1 0.8,0 1.635,-0.381 1.635,-1.417 l 0,-2.381 c 0,-0.518 0.047,-0.773 0.109,-1.018 l -0.672,0 -0.072,0.654 c -0.328,-0.363 -0.855,-0.745 -1.564,-0.745 -0.726,0 -1.345,0.436 -1.345,1.301 0,1.034 0.791,1.553 2.89,1.925 L 0,0.837 C 0,1.464 -0.409,1.7 -0.972,1.7 -1.7,1.7 -2.053,1.282 -2.181,0.963 l -0.572,0.3 z" /></g><path
             inkscape:connector-curvature="0"
             id="path362"
             style="fill:#f7ad3f;fill-opacity:1;fill-rule:nonzero;stroke:none"
             d="m 101.679,32.712 -0.654,0 0,6.561 0.654,0 0,-6.561 z" /><g
             style="fill:#f7ad3f;fill-opacity:1"
             transform="translate(109.4594,37.6006)"
             id="g364"><path
               inkscape:connector-curvature="0"
               id="path366"
               style="fill:#f7ad3f;fill-opacity:1;fill-rule:nonzero;stroke:none"
               d="m 0,0 c -0.163,0.637 -0.681,1.145 -1.526,1.145 -0.763,0 -1.218,-0.363 -1.227,-1.018 -0.018,-1.436 3.69,-1.071 3.69,-3.18 0,-0.955 -0.537,-1.928 -2.208,-1.928 -1.437,0 -2,0.928 -2.345,1.71 l 0.663,0.236 c 0.263,-0.69 0.753,-1.327 1.717,-1.327 0.964,0 1.446,0.509 1.446,1.181 0,1.672 -3.691,1.182 -3.691,3.254 0,0.946 0.791,1.69 1.972,1.69 1.019,0 1.819,-0.536 2.163,-1.617 L 0,0 Z" /></g><g
             style="fill:#f7ad3f;fill-opacity:1"
             transform="translate(111.879,37.4374)"
             id="g368"><path
               inkscape:connector-curvature="0"
               id="path370"
               style="fill:#f7ad3f;fill-opacity:1;fill-rule:nonzero;stroke:none"
               d="m 0,0 0,1.553 0.654,0 0,-1.553 1.09,0 0,-0.563 -1.09,0 0,-3.363 c 0,-0.218 0.154,-0.327 0.536,-0.327 0.218,0 0.409,0.018 0.581,0.045 l 0,-0.535 C 1.653,-4.781 1.39,-4.817 1.009,-4.817 0.299,-4.817 0,-4.635 0,-4.035 l 0,3.472 -0.772,0 0,0.563 L 0,0 Z" /></g><g
             style="fill:#f7ad3f;fill-opacity:1"
             transform="translate(114.6056,37.4374)"
             id="g372"><path
               inkscape:connector-curvature="0"
               id="path374"
               style="fill:#f7ad3f;fill-opacity:1;fill-rule:nonzero;stroke:none"
               d="m 0,0 0.655,0 0,-0.936 0.018,0 c 0.364,0.645 0.754,1.009 1.536,1.009 l 0,-0.654 C 1.391,-0.601 0.964,-1.136 0.655,-2.109 l 0,-2.617 L 0,-4.726 0,0 Z" /></g><g
             style="fill:#f7ad3f;fill-opacity:1"
             transform="translate(120.2683,35.2648)"
             id="g376"><path
               inkscape:connector-curvature="0"
               id="path378"
               style="fill:#f7ad3f;fill-opacity:1;fill-rule:nonzero;stroke:none"
               d="m 0,0 c -1.5,-0.263 -2.235,-0.7 -2.235,-1.353 0,-0.436 0.416,-0.728 0.781,-0.728 0.472,0 1.072,0.346 1.454,0.782 L 0,0 Z m -2.753,1.263 c 0.299,0.546 0.88,1 1.771,1 0.799,0 1.636,-0.381 1.636,-1.417 l 0,-2.381 c 0,-0.518 0.046,-0.773 0.108,-1.018 l -0.671,0 -0.073,0.654 c -0.327,-0.363 -0.855,-0.745 -1.563,-0.745 -0.727,0 -1.346,0.436 -1.346,1.301 0,1.034 0.79,1.553 2.891,1.925 L 0,0.837 C 0,1.464 -0.41,1.7 -0.973,1.7 -1.7,1.7 -2.054,1.282 -2.182,0.963 l -0.571,0.3 z" /></g><g
             style="fill:#f7ad3f;fill-opacity:1"
             transform="translate(122.4788,37.4374)"
             id="g380"><path
               inkscape:connector-curvature="0"
               id="path382"
               style="fill:#f7ad3f;fill-opacity:1;fill-rule:nonzero;stroke:none"
               d="m 0,0 0,1.553 0.653,0 0,-1.553 1.091,0 0,-0.563 -1.091,0 0,-3.363 c 0,-0.218 0.155,-0.327 0.536,-0.327 0.219,0 0.41,0.018 0.582,0.045 l 0,-0.535 C 1.653,-4.781 1.39,-4.817 1.008,-4.817 0.299,-4.817 0,-4.635 0,-4.035 l 0,3.472 -0.773,0 0,0.563 L 0,0 Z" /></g><g
             style="fill:#f7ad3f;fill-opacity:1"
             transform="translate(128.0044,35.5113)"
             id="g384"><path
               inkscape:connector-curvature="0"
               id="path386"
               style="fill:#f7ad3f;fill-opacity:1;fill-rule:nonzero;stroke:none"
               d="M 0,0 C 0,0.872 -0.418,1.453 -1.128,1.453 -1.918,1.453 -2.344,0.872 -2.4,0 L 0,0 Z M 0.799,-1.79 C 0.49,-2.327 0.053,-2.891 -1.019,-2.891 c -1.054,0 -2.054,0.727 -2.054,2.454 0,1.526 0.764,2.454 1.927,2.454 0.982,0 1.799,-0.636 1.799,-2.145 l 0,-0.435 -3.072,0 c 0,-1.037 0.619,-1.764 1.4,-1.764 0.582,0 1.037,0.309 1.309,0.799 L 0.799,-1.79 Z" /></g><g
             style="fill:#f7ad3f;fill-opacity:1"
             transform="translate(131.2585,36.965)"
             id="g388"><path
               inkscape:connector-curvature="0"
               id="path390"
               style="fill:#f7ad3f;fill-opacity:1;fill-rule:nonzero;stroke:none"
               d="m 0,0 c -0.745,0 -1.144,-0.473 -1.144,-1.091 0,-0.627 0.49,-1.09 1.216,-1.09 0.745,0 1.128,0.49 1.128,1.053 C 1.2,-0.437 0.801,0 0,0 m -0.027,-4.053 c -1.027,0 -1.317,-0.454 -1.317,-0.791 0,-0.354 0.217,-0.591 1.526,-0.591 0.781,0 1.417,0.219 1.426,0.682 -0.009,0.463 -0.482,0.7 -1.635,0.7 M 2.218,0 C 1.944,0 1.654,-0.047 1.491,-0.128 c 0.137,-0.163 0.327,-0.527 0.327,-0.963 0,-0.936 -0.773,-1.653 -1.727,-1.653 -0.381,0 -0.581,0.053 -0.836,0.127 -0.254,-0.074 -0.373,-0.227 -0.373,-0.437 0,-0.218 0.155,-0.345 0.391,-0.345 2.235,0 2.954,-0.4 2.954,-1.327 0,-0.69 -0.682,-1.272 -2.155,-1.272 -1.326,0 -2.034,0.362 -2.034,1.144 0,0.474 0.29,0.701 0.799,0.964 -0.364,0.109 -0.59,0.39 -0.59,0.673 0,0.408 0.272,0.582 0.635,0.808 -0.445,0.337 -0.645,0.799 -0.645,1.318 0,1 0.781,1.654 1.79,1.654 0.51,0 0.863,-0.11 1.173,-0.326 0.28,0.2 0.663,0.38 1.018,0.416 L 2.218,0 Z" /></g><g
             style="fill:#f7ad3f;fill-opacity:1"
             transform="translate(137.5485,37.4374)"
             id="g392"><path
               inkscape:connector-curvature="0"
               id="path394"
               style="fill:#f7ad3f;fill-opacity:1;fill-rule:nonzero;stroke:none"
               d="m 0,0 -1.663,-5.144 c -0.346,-1.053 -0.972,-1.327 -1.59,-1.327 -0.219,0 -0.346,0.037 -0.473,0.055 l 0,0.536 c 0.091,-0.009 0.21,-0.027 0.355,-0.027 0.4,0 1.009,0.092 1.236,1.126 L -3.78,0 l 0.69,0 1.272,-3.609 0.018,0 L -0.691,0 0,0 Z" /></g><g
             style="fill:#f7ad3f;fill-opacity:1"
             transform="translate(142.7388,36.965)"
             id="g396"><path
               inkscape:connector-curvature="0"
               id="path398"
               style="fill:#f7ad3f;fill-opacity:1;fill-rule:nonzero;stroke:none"
               d="m 0,0 c -0.78,0 -1.281,-0.673 -1.281,-1.89 0,-1.219 0.501,-1.891 1.281,-1.891 0.782,0 1.282,0.672 1.282,1.891 C 1.282,-0.673 0.782,0 0,0 m 0,-4.344 c -1.29,0 -1.935,1.09 -1.935,2.454 0,1.362 0.645,2.453 1.935,2.453 1.29,0 1.936,-1.091 1.936,-2.453 C 1.936,-3.254 1.29,-4.344 0,-4.344" /></g><g
             style="fill:#f7ad3f;fill-opacity:1"
             transform="translate(146.4754,37.4374)"
             id="g400"><path
               inkscape:connector-curvature="0"
               id="path402"
               style="fill:#f7ad3f;fill-opacity:1;fill-rule:nonzero;stroke:none"
               d="m 0,0 0,-0.637 0.019,0 c 0.372,0.418 0.864,0.728 1.399,0.728 0.7,0 1.363,-0.364 1.363,-1.382 l 0,-3.435 -0.654,0 0,3.417 c 0,0.627 -0.3,0.837 -0.773,0.837 -0.491,0 -1.054,-0.4 -1.354,-0.719 l 0,-3.535 -0.654,0 0,4.726 L 0,0 Z" /></g><g
             style="fill:#f7ad3f;fill-opacity:1"
             transform="translate(158.4187,39.2725)"
             id="g404"><path
               inkscape:connector-curvature="0"
               id="path406"
               style="fill:#f7ad3f;fill-opacity:1;fill-rule:nonzero;stroke:none"
               d="m 0,0 0,-6.561 -0.727,0 0,3.126 -3.145,0 0,-3.126 -0.727,0 0,6.561 0.727,0 0,-2.817 3.145,0 0,2.817 L 0,0 Z" /></g><path
             inkscape:connector-curvature="0"
             id="path408"
             style="fill:#f7ad3f;fill-opacity:1;fill-rule:nonzero;stroke:none"
             d="m 160.337,37.437 0.654,0 0,-4.726 -0.654,0 0,4.726 z m 0.656,1.146 -0.654,0 0,0.781 0.654,0 0,-0.781 z" /><g
             style="fill:#f7ad3f;fill-opacity:1"
             transform="translate(164.0738,36.965)"
             id="g410"><path
               inkscape:connector-curvature="0"
               id="path412"
               style="fill:#f7ad3f;fill-opacity:1;fill-rule:nonzero;stroke:none"
               d="m 0,0 c -0.745,0 -1.144,-0.473 -1.144,-1.091 0,-0.627 0.49,-1.09 1.216,-1.09 0.746,0 1.128,0.49 1.128,1.053 C 1.2,-0.437 0.8,0 0,0 m -0.028,-4.053 c -1.026,0 -1.316,-0.454 -1.316,-0.791 0,-0.354 0.218,-0.591 1.526,-0.591 0.782,0 1.418,0.219 1.426,0.682 -0.008,0.463 -0.481,0.7 -1.636,0.7 M 2.218,0 C 1.945,0 1.653,-0.047 1.491,-0.128 c 0.137,-0.163 0.328,-0.527 0.328,-0.963 0,-0.936 -0.773,-1.653 -1.728,-1.653 -0.381,0 -0.581,0.053 -0.836,0.127 -0.254,-0.074 -0.373,-0.227 -0.373,-0.437 0,-0.218 0.155,-0.345 0.391,-0.345 2.235,0 2.954,-0.4 2.954,-1.327 0,-0.69 -0.683,-1.272 -2.155,-1.272 -1.326,0 -2.035,0.362 -2.035,1.144 0,0.474 0.292,0.701 0.8,0.964 -0.364,0.109 -0.59,0.39 -0.59,0.673 0,0.408 0.272,0.582 0.635,0.808 -0.444,0.337 -0.645,0.799 -0.645,1.318 0,1 0.782,1.654 1.79,1.654 0.509,0 0.863,-0.11 1.173,-0.326 0.281,0.2 0.663,0.38 1.018,0.416 L 2.218,0 Z" /></g><g
             style="fill:#f7ad3f;fill-opacity:1"
             transform="translate(167.9373,39.2725)"
             id="g414"><path
               inkscape:connector-curvature="0"
               id="path416"
               style="fill:#f7ad3f;fill-opacity:1;fill-rule:nonzero;stroke:none"
               d="m 0,0 0,-2.471 0.019,0 c 0.372,0.418 0.863,0.727 1.399,0.727 0.7,0 1.363,-0.365 1.363,-1.382 l 0,-3.435 -0.654,0 0,3.417 c 0,0.626 -0.299,0.836 -0.773,0.836 -0.492,0 -1.053,-0.4 -1.354,-0.718 l 0,-3.535 -0.653,0 0,6.561 L 0,0 Z" /></g><g
             style="fill:#f7ad3f;fill-opacity:1"
             transform="translate(171.674,37.4374)"
             id="g418"><path
               inkscape:connector-curvature="0"
               id="path420"
               style="fill:#f7ad3f;fill-opacity:1;fill-rule:nonzero;stroke:none"
               d="m 0,0 0.663,0 0.955,-3.635 0.017,0 0.927,3.635 0.663,0 0.946,-3.653 0.018,0 L 5.107,0 5.771,0 4.507,-4.726 l -0.663,0 -0.945,3.654 -0.018,0 -0.936,-3.654 -0.665,0 L 0,0 Z" /></g><g
             style="fill:#f7ad3f;fill-opacity:1"
             transform="translate(180.8628,35.2648)"
             id="g422"><path
               inkscape:connector-curvature="0"
               id="path424"
               style="fill:#f7ad3f;fill-opacity:1;fill-rule:nonzero;stroke:none"
               d="m 0,0 c -1.499,-0.263 -2.234,-0.7 -2.234,-1.353 0,-0.436 0.416,-0.728 0.782,-0.728 0.471,0 1.07,0.346 1.452,0.782 L 0,0 Z m -2.753,1.263 c 0.3,0.546 0.881,1 1.772,1 0.8,0 1.636,-0.381 1.636,-1.417 l 0,-2.381 c 0,-0.518 0.045,-0.773 0.109,-1.018 l -0.673,0 -0.072,0.654 c -0.327,-0.363 -0.855,-0.745 -1.562,-0.745 -0.728,0 -1.346,0.436 -1.346,1.301 0,1.034 0.79,1.553 2.889,1.925 L 0,0.837 C 0,1.464 -0.408,1.7 -0.972,1.7 -1.699,1.7 -2.053,1.282 -2.18,0.963 l -0.573,0.3 z" /></g><g
             style="fill:#f7ad3f;fill-opacity:1"
             transform="translate(186.0262,37.4374)"
             id="g426"><path
               inkscape:connector-curvature="0"
               id="path428"
               style="fill:#f7ad3f;fill-opacity:1;fill-rule:nonzero;stroke:none"
               d="m 0,0 -1.663,-5.144 c -0.346,-1.053 -0.972,-1.327 -1.59,-1.327 -0.218,0 -0.346,0.037 -0.471,0.055 l 0,0.536 c 0.089,-0.009 0.207,-0.027 0.351,-0.027 0.401,0 1.01,0.092 1.237,1.126 L -3.781,0 l 0.691,0 1.272,-3.609 0.02,0 L -0.691,0 0,0 Z" /></g><g
             style="fill:#f7ad3f;fill-opacity:1"
             transform="translate(193.0165,37.6006)"
             id="g430"><path
               inkscape:connector-curvature="0"
               id="path432"
               style="fill:#f7ad3f;fill-opacity:1;fill-rule:nonzero;stroke:none"
               d="m 0,0 c -0.163,0.637 -0.681,1.145 -1.527,1.145 -0.763,0 -1.217,-0.363 -1.226,-1.018 -0.018,-1.436 3.689,-1.071 3.689,-3.18 0,-0.955 -0.536,-1.928 -2.208,-1.928 -1.436,0 -1.999,0.928 -2.345,1.71 l 0.663,0.236 c 0.265,-0.69 0.755,-1.327 1.718,-1.327 0.964,0 1.445,0.509 1.445,1.181 0,1.672 -3.689,1.182 -3.689,3.254 0,0.946 0.791,1.69 1.972,1.69 1.018,0 1.817,-0.536 2.163,-1.617 L 0,0 Z" /></g><g
             style="fill:#f7ad3f;fill-opacity:1"
             transform="translate(197.7701,35.2648)"
             id="g434"><path
               inkscape:connector-curvature="0"
               id="path436"
               style="fill:#f7ad3f;fill-opacity:1;fill-rule:nonzero;stroke:none"
               d="m 0,0 c -1.499,-0.263 -2.234,-0.7 -2.234,-1.353 0,-0.436 0.417,-0.728 0.782,-0.728 0.472,0 1.071,0.346 1.452,0.782 L 0,0 Z m -2.752,1.263 c 0.3,0.546 0.881,1 1.772,1 0.799,0 1.634,-0.381 1.634,-1.417 l 0,-2.381 c 0,-0.518 0.047,-0.773 0.11,-1.018 l -0.673,0 -0.071,0.654 c -0.329,-0.363 -0.856,-0.745 -1.564,-0.745 -0.727,0 -1.346,0.436 -1.346,1.301 0,1.034 0.792,1.553 2.89,1.925 L 0,0.837 C 0,1.464 -0.408,1.7 -0.971,1.7 -1.699,1.7 -2.053,1.282 -2.18,0.963 l -0.572,0.3 z" /></g><g
             style="fill:#f7ad3f;fill-opacity:1"
             transform="translate(200.0898,32.7115)"
             id="g438"><path
               inkscape:connector-curvature="0"
               id="path440"
               style="fill:#f7ad3f;fill-opacity:1;fill-rule:nonzero;stroke:none"
               d="m 0,0 0,4.162 -0.8,0 0,0.564 0.8,0 0,0.537 c 0,1.117 0.382,1.389 1.155,1.389 0.19,0 0.39,-0.028 0.58,-0.045 l 0,-0.581 C 1.581,6.043 1.409,6.089 1.263,6.089 0.818,6.089 0.654,5.944 0.654,5.416 l 0,-0.69 1.027,0 0,-0.564 -1.027,0 L 0.654,0 0,0 Z" /></g><g
             style="fill:#f7ad3f;fill-opacity:1"
             transform="translate(205.5067,35.5113)"
             id="g442"><path
               inkscape:connector-curvature="0"
               id="path444"
               style="fill:#f7ad3f;fill-opacity:1;fill-rule:nonzero;stroke:none"
               d="M 0,0 C 0,0.872 -0.419,1.453 -1.127,1.453 -1.918,1.453 -2.345,0.872 -2.4,0 L 0,0 Z m 0.8,-1.79 c -0.309,-0.537 -0.746,-1.101 -1.819,-1.101 -1.053,0 -2.053,0.727 -2.053,2.454 0,1.526 0.763,2.454 1.927,2.454 0.981,0 1.799,-0.636 1.799,-2.145 l 0,-0.435 -3.072,0 c 0,-1.037 0.619,-1.764 1.399,-1.764 0.582,0 1.037,0.309 1.309,0.799 L 0.8,-1.79 Z" /></g><g
             style="fill:#f7ad3f;fill-opacity:1"
             transform="translate(207.5529,37.4374)"
             id="g446"><path
               inkscape:connector-curvature="0"
               id="path448"
               style="fill:#f7ad3f;fill-opacity:1;fill-rule:nonzero;stroke:none"
               d="m 0,0 0,1.553 0.654,0 0,-1.553 1.091,0 0,-0.563 -1.091,0 0,-3.363 c 0,-0.218 0.155,-0.327 0.536,-0.327 0.219,0 0.409,0.018 0.582,0.045 l 0,-0.535 C 1.654,-4.781 1.39,-4.817 1.008,-4.817 0.299,-4.817 0,-4.635 0,-4.035 l 0,3.472 -0.772,0 0,0.563 L 0,0 Z" /></g><g
             style="fill:#f7ad3f;fill-opacity:1"
             transform="translate(213.5329,37.4374)"
             id="g450"><path
               inkscape:connector-curvature="0"
               id="path452"
               style="fill:#f7ad3f;fill-opacity:1;fill-rule:nonzero;stroke:none"
               d="m 0,0 -1.663,-5.144 c -0.345,-1.053 -0.972,-1.327 -1.59,-1.327 -0.219,0 -0.347,0.037 -0.472,0.055 l 0,0.536 c 0.09,-0.009 0.208,-0.027 0.353,-0.027 0.401,0 1.009,0.092 1.236,1.126 L -3.78,0 l 0.69,0 1.272,-3.609 0.018,0 L -0.69,0 0,0 Z" /></g><path
             inkscape:connector-curvature="0"
             id="path454"
             style="fill:#231f20;fill-opacity:1;fill-rule:nonzero;stroke:none"
             d="m 62.435,32.346 -26.024,0 0,26.024 26.024,0 0,-26.024 z" /><g
             transform="translate(41.7106,49.1422)"
             id="g456"><path
               inkscape:connector-curvature="0"
               id="path458"
               style="fill:#fbb040;fill-opacity:1;fill-rule:nonzero;stroke:none"
               d="m 0,0 -1.847,0 0,1.662 5.603,0 0,-1.662 -1.848,0 0,-9.451 L 0,-9.451 0,0 Z" /></g><g
             transform="translate(46.6192,49.1422)"
             id="g460"><path
               inkscape:connector-curvature="0"
               id="path462"
               style="fill:#fbb040;fill-opacity:1;fill-rule:nonzero;stroke:none"
               d="m 0,0 0,1.662 5.049,0 0,-1.816 -3.51,-7.633 3.51,0 0,-1.664 -5.48,0 0,1.817 L 3.124,0 0,0 Z" /></g><path
             inkscape:connector-curvature="0"
             id="path464"
             style="fill:#fbb040;fill-opacity:1;fill-rule:nonzero;stroke:none"
             d="m 58.678,53.65 -18.793,0 0,1.694 18.793,0 0,-1.694 z" /><path
             inkscape:connector-curvature="0"
             id="path466"
             style="fill:#fbb040;fill-opacity:1;fill-rule:nonzero;stroke:none"
             d="m 58.678,35.22 -18.793,0 0,1.695 18.793,0 0,-1.695 z" /><g
             transform="translate(55.9467,50.8045)"
             id="g468"><path
               inkscape:connector-curvature="0"
               id="path470"
               style="fill:#fbb040;fill-opacity:1;fill-rule:nonzero;stroke:none"
               d="m 0,0 -2.833,0 0,-11.113 2.833,0 c 1.969,0 3.017,1.077 3.017,3.355 l 0,4.403 C 3.017,-1.077 1.969,0 0,0" /></g><g
             transform="translate(58.0165,45.2625)"
             id="g472"><path
               inkscape:connector-curvature="0"
               id="path474"
               style="fill:#231f20;fill-opacity:1;fill-rule:nonzero;stroke:none"
               d="m 0,0 -1.874,-3.903 -1.8,0 L -1.8,0 l -1.874,3.897 1.8,0 L 0,0 Z" /></g><text
             id="text476"
             style="font-variant:normal;font-weight:normal;font-stretch:normal;font-size:4.94999981px;font-family:'POWAUR +NewsGothicMT';-inkscape-font-specification:NewsGothicMT;writing-mode:lr-tb;fill:#231f20;fill-opacity:1;fill-rule:nonzero;stroke:none"
             transform="matrix(1,0,0,-1,212.5881,54.2673)"><tspan
               id="tspan478"
               y="0"
               x="0">®</tspan></text>
</g></g></g></g></svg>