<?xml version="1.0" encoding="UTF-8" standalone="no"?>
<!-- Created with Inkscape (http://www.inkscape.org/) -->

<svg
   xmlns:dc="http://purl.org/dc/elements/1.1/"
   xmlns:cc="http://creativecommons.org/ns#"
   xmlns:rdf="http://www.w3.org/1999/02/22-rdf-syntax-ns#"
   xmlns:svg="http://www.w3.org/2000/svg"
   xmlns="http://www.w3.org/2000/svg"
   version="1.1"
   width="585.50995"
   height="88.51255"
   id="svg3222">
  <defs
     id="defs3224" />
  <g
     transform="translate(-90.102166,-430.96305)"
     id="layer1">
    <path
       d="m 667.28427,493.07506 c -1.68709,2.04107 -4.4047,3.40558 -8.59531,3.41129 l -5.60364,0 0,-22.58587 4.31906,0 c 3.79381,0 6.84827,1.01911 8.94928,2.95455 2.10672,1.93544 3.29424,4.8015 3.29424,8.58674 0,2.82609 -0.67369,5.59223 -2.36363,7.63329 m 3.73671,-17.74726 c -2.5863,-2.75472 -6.73408,-4.63878 -12.94576,-4.78437 -1.27602,-0.0428 -2.56061,-0.0428 -3.80237,-0.0428 l -7.01955,0 0,0.50527 0.15415,0.0685 c 0.43105,0.19412 0.73079,0.57379 0.92776,1.10475 0.19982,0.5224 0.2769,1.17611 0.2769,1.83838 l 0,22.39175 c 0.006,0.62802 -0.02,1.2589 -0.18841,1.76702 -0.16271,0.50242 -0.43961,0.88494 -1.01054,1.12473 l -0.15986,0.0685 0,0.51383 12.46048,0 c 3.85946,0 7.5762,-1.3217 10.34234,-3.82521 2.76614,-2.50351 4.5617,-6.20026 4.55599,-10.90756 0,-3.48836 -1.00483,-7.07378 -3.59113,-9.82279 m -35.26044,-4.33334 0.13988,0.0742 c 0.5852,0.30545 0.86495,0.69083 1.03623,1.18182 0.16272,0.48529 0.18555,1.08762 0.18555,1.76702 l 0,17.34476 -17.1906,-20.86167 -4.29623,0 0,0.49385 0.14273,0.0742 c 0.58235,0.30545 0.86496,0.69083 1.03338,1.18182 0.15986,0.48529 0.18841,1.09333 0.18841,1.76702 l 0,22.39175 c 0,0.62802 -0.0228,1.25889 -0.18841,1.76702 -0.17413,0.50241 -0.45103,0.88494 -1.01625,1.12472 l -0.15986,0.0685 0,0.51384 6.28876,0 0,-0.50242 -0.14558,-0.0742 c -0.5852,-0.28261 -0.85925,-0.65085 -1.02482,-1.13614 -0.16842,-0.47958 -0.19126,-1.08762 -0.19126,-1.76131 l 0,-18.0156 17.97563,21.81797 2.19236,0 0,-26.19412 c 0,-0.65657 0.02,-1.28173 0.18841,-1.78986 0.16842,-0.50241 0.45103,-0.89064 1.02481,-1.15327 l 0.14559,-0.0742 0,-0.49956 -6.32873,0 0,0.49385 z m -41.28942,16.04305 3.74528,-9.59728 3.78524,9.59728 -7.53052,0 z m 15.98309,9.44313 -10.4137,-26.34828 -2.66052,0 -10.3766,26.22553 c -0.55665,1.4216 -1.29886,2.59771 -2.16381,2.94312 l -0.15986,0.0685 0,0.51384 6.24309,0 0,-0.51955 -0.16557,-0.0628 c -0.23408,-0.0942 -0.53097,-0.35112 -0.53667,-0.9563 0,-0.19697 0.0799,-0.60233 0.19697,-0.8935 l 2.7747,-7.09662 10.0426,0 2.53777,6.35442 c 0.32828,0.87066 0.38823,1.09903 0.39394,1.51295 0,0.35683 -0.11133,0.59091 -0.2455,0.76219 -0.13987,0.17413 -0.31115,0.27405 -0.42819,0.32257 l -0.15701,0.0685 0,0.50813 7.40492,0 0,-0.49671 -0.13987,-0.0742 c -0.67941,-0.35112 -1.63856,-1.56148 -2.14669,-2.83179 m -33.59619,0.006 -5.93478,0 0,-22.46883 c 0,-0.65657 0.0228,-1.28173 0.19126,-1.78985 0.16557,-0.50242 0.44532,-0.89065 1.0191,-1.15328 l 0.1513,-0.0742 0,-0.49956 -7.19082,0 0,0.49385 0.13131,0.0742 c 0.59091,0.30545 0.87066,0.69083 1.03909,1.18182 0.16556,0.48529 0.1884,1.09333 0.1884,1.76702 l 0,22.39175 c 0,0.62802 -0.0228,1.25889 -0.1884,1.76702 -0.17414,0.50241 -0.44818,0.88494 -1.01625,1.12472 l -0.15415,0.0685 0,0.51384 16.53975,0 1.18752,-5.12978 -0.54523,0.37396 c -1.5101,1.03052 -3.25714,1.35309 -5.4181,1.3588 m -37.37287,-25.98573 -0.59662,4.69302 0.47958,-0.35112 c 0.1827,-0.13417 0.66228,-0.37967 1.39877,-0.57949 0.7365,-0.19983 1.74989,-0.36254 3.02877,-0.36254 l 4.44181,0 0,22.50879 c 0,0.62802 -0.0228,1.25889 -0.1884,1.76702 -0.16843,0.50241 -0.44533,0.88493 -1.01625,1.12472 l -0.15986,0.0685 0,0.51384 7.19653,0 0,-0.50242 -0.14559,-0.0742 c -0.57949,-0.28261 -0.85639,-0.65086 -1.02481,-1.13614 -0.16272,-0.47958 -0.18841,-1.08762 -0.18841,-1.76131 l 0,-22.50879 4.44181,0 c 2.5549,0 3.99935,0.65371 4.43896,0.94774 l 0.46816,0.31115 -0.59662,-4.65876 -21.97783,0 z m -8.34124,22.73145 c -1.56148,2.26087 -4.03645,3.9394 -7.90162,3.95081 -3.20005,-0.006 -5.68073,-1.38164 -7.3878,-3.61682 -1.70421,-2.23803 -2.6177,-5.34673 -2.6177,-8.78656 0,-2.28656 0.61089,-5.204 2.14098,-7.52196 1.53865,-2.32082 3.95081,-4.05358 7.65898,-4.05358 3.45125,0 5.98902,1.51581 7.69895,3.85661 1.70707,2.33794 2.56632,5.51515 2.56632,8.78942 0,2.26658 -0.60233,5.11836 -2.15811,7.38208 m -7.98441,-23.43369 c -4.72156,0 -8.45257,1.77844 -10.97892,4.62736 -2.53492,2.86034 -3.87374,6.77405 -3.87374,11.056 0,4.20202 1.49868,7.98441 4.08213,10.70488 2.56917,2.73188 6.23166,4.39899 10.52503,4.39899 4.95565,0 8.79228,-1.84695 11.37001,-4.8015 2.57488,-2.95454 3.90228,-6.991 3.90228,-11.37286 0,-4.36759 -1.4787,-8.03008 -4.10496,-10.59355 -2.62626,-2.5606 -6.38867,-4.01932 -10.92183,-4.01932 m -17.6188,23.96751 -0.11133,0.0999 c -0.86496,0.7422 -4.29908,2.94883 -8.57532,2.94313 -3.25999,-0.006 -5.81489,-1.14186 -7.5762,-3.16579 -1.7556,-2.02394 -2.72618,-4.94994 -2.72618,-8.53536 0,-3.44554 0.73079,-6.35156 2.27515,-8.36979 1.54435,-2.02393 3.89657,-3.20575 7.28502,-3.20575 4.77866,-0.006 8.08147,2.28085 8.85508,2.98309 l 0.0771,0.0657 0.47387,0 0,-4.80435 -0.16557,-0.0628 c -1.68423,-0.6166 -4.33904,-1.70992 -8.99495,-1.70421 -4.38757,-0.006 -8.0729,1.45015 -10.64778,4.1021 -2.57488,2.6434 -4.04217,6.47431 -4.04217,11.16162 0,4.75012 1.42732,8.53821 4.00791,11.13022 2.57774,2.59201 6.27734,3.97365 10.76197,3.96794 3.42271,0 6.834,-0.73935 9.11485,-2.01251 l 0.12275,-0.0599 0.0114,-0.13988 0.29973,-4.24199 -0.31115,-0.0999 -0.13417,-0.0514 z m -31.62935,-9.65723 -4.08212,-2.55775 c -2.278,-1.42161 -3.5112,-3.00593 -3.5112,-4.77295 0.006,-1.54436 0.57949,-2.45784 1.39306,-3.04019 0.82499,-0.57378 1.92973,-0.78502 2.97167,-0.78502 2.74331,-0.006 4.92996,1.53294 5.7264,2.20663 l 0.0999,0.0856 0.29117,-0.0685 0.1513,-0.0371 1.04194,-3.94796 -0.19697,-0.0942 c -1.82697,-0.79929 -4.64734,-1.296 -6.95103,-1.29885 -2.3979,0 -4.57884,0.65085 -6.17743,1.96113 -1.59003,1.31028 -2.57774,3.28283 -2.57774,5.84914 -0.003,3.20005 1.30743,5.46948 4.24484,7.34783 l 4.69873,3.04304 c 2.11814,1.35595 3.39131,2.88318 3.3856,4.82433 0,1.26461 -0.37396,2.40361 -1.15898,3.22289 -0.78217,0.81357 -1.99254,1.33882 -3.73672,1.33882 -2.30369,0.006 -4.83289,-1.21037 -6.24023,-2.29227 l -0.0657,-0.0571 -0.35683,0 -1.14756,3.67962 0.1827,0.10277 c 2.58059,1.39877 5.86056,1.76131 7.50483,1.76702 2.50352,0 4.86144,-0.7365 6.60277,-2.17523 1.74418,-1.43303 2.85463,-3.57972 2.85463,-6.32873 0,-3.66249 -2.22661,-6.26021 -4.94708,-7.97299 m -29.0487,-14.31027 c -1.24748,0 -2.98881,0.21124 -4.5874,1.34167 -1.60145,1.12758 -3.02306,3.17436 -3.6682,6.74836 l 0.25691,0.0485 -0.25691,-0.0457 -0.50813,2.87747 -3.42271,0.69653 -0.37395,2.04677 3.29995,0 c -2.26943,12.86298 -3.12868,16.78811 -4.05929,19.6199 -0.93632,2.87747 -2.63768,5.02416 -4.33048,6.39438 l -0.18555,0.1513 1.21608,1.80127 0.21124,-0.12846 c 1.71278,-1.04194 4.43896,-3.06016 6.32301,-6.86825 1.12188,-2.24088 1.91832,-4.35046 2.87177,-9.42885 l 2.22376,-11.54129 5.65503,0 0.46245,-2.61484 -5.64932,0 0.73078,-4.11924 c 0.28547,-1.6614 0.77646,-2.76614 1.39021,-3.44554 0.60518,-0.67655 1.32455,-0.95345 2.14954,-0.95916 1.61858,0 3.16864,1.06478 3.90514,2.27514 l 0.0714,0.12275 0.51384,0 0.91919,-3.6368 -0.16271,-0.0999 c -0.80216,-0.48529 -2.90888,-1.2332 -4.99561,-1.23606 m -20.88451,23.96751 c -1.07048,2.25231 -2.73759,3.95367 -5.26394,3.95367 -1.86122,-0.0114 -2.84893,-0.93632 -3.44554,-2.16952 -0.5852,-1.23321 -0.71366,-2.77185 -0.71366,-3.84234 0,-1.86122 0.41392,-4.53887 1.46728,-6.71125 1.05907,-2.18094 2.71476,-3.83662 5.24682,-3.83662 1.92402,0.006 2.92029,0.99912 3.5112,2.21234 0.57949,1.22178 0.68511,2.66623 0.68511,3.43127 0,1.944 -0.41678,4.71014 -1.48727,6.96245 m 3.61968,-12.86298 c -1.50154,-1.56149 -3.60826,-2.44071 -6.00044,-2.44071 -3.58542,-0.006 -6.48002,1.67281 -8.45257,4.14207 -1.98397,2.46926 -3.05446,5.7264 -3.06017,8.93786 0,2.73189 0.87352,4.96135 2.36935,6.5 1.48726,1.53865 3.57971,2.38077 5.97189,2.38077 3.54546,0 6.44862,-1.68995 8.45257,-4.1535 1.99539,-2.46925 3.09728,-5.72068 3.10299,-8.89218 0,-2.67765 -0.88494,-4.90712 -2.38362,-6.47431 m -48.76001,-10.40229 -0.59661,4.68731 0.47957,-0.34541 c 0.19127,-0.13417 0.66513,-0.37967 1.40734,-0.57949 0.73935,-0.19982 1.74418,-0.36254 3.0202,-0.36254 l 4.44467,0 0,22.50879 c 0,0.62802 -0.0228,1.2589 -0.18555,1.76702 -0.17128,0.50242 -0.45104,0.88494 -1.01911,1.12473 l -0.157,0.0685 0,0.51383 7.19938,0 0,-0.50242 -0.14558,-0.0742 c -0.5852,-0.28261 -0.86496,-0.65085 -1.02482,-1.13614 -0.16842,-0.47958 -0.19697,-1.08762 -0.19697,-1.76131 l 0,-22.50879 4.44467,0 c 2.54633,0 3.99078,0.65371 4.42754,0.94774 l 0.46816,0.31115 -0.59091,-4.65876 -21.97498,0 z m -6.60562,13.60804 -4.08213,-2.55775 c -2.28085,-1.42161 -3.5169,-3.00593 -3.5112,-4.77295 0.006,-1.54435 0.57379,-2.45784 1.39878,-3.04018 0.81928,-0.57378 1.92402,-0.78503 2.96596,-0.78503 2.7433,-0.006 4.93566,1.53294 5.7264,2.20664 l 0.10562,0.0856 0.29117,-0.0685 0.14844,-0.0371 1.0448,-3.94796 -0.20268,-0.0942 c -1.82126,-0.7993 -4.64449,-1.29601 -6.95104,-1.29886 -2.39218,0 -4.57883,0.65086 -6.17171,1.96113 -1.59574,1.31028 -2.58345,3.28283 -2.58345,5.84915 -0.006,3.20004 1.31028,5.46948 4.24484,7.34783 l 4.70444,3.04304 c 2.11814,1.35595 3.3856,2.88318 3.3856,4.82433 0,1.2646 -0.37967,2.4036 -1.16184,3.22288 -0.78502,0.81357 -1.99539,1.33882 -3.73386,1.33882 -2.30369,0.006 -4.83575,-1.21036 -6.24023,-2.29227 l -0.36254,-0.26263 -0.0657,0.20554 -1.14756,3.67962 0.1827,0.10277 c 2.5863,1.39877 5.86627,1.76131 7.50483,1.76702 2.50351,0 4.86144,-0.7365 6.60562,-2.17523 1.74133,-1.43303 2.85464,-3.57972 2.84893,-6.32873 0.006,-3.66249 -2.21805,-6.26021 -4.94423,-7.97299 m -19.99957,12.37769 -6.7512,-0.0428 0,-10.33377 3.20575,0 c 0.87066,0 2.04106,0.0799 3.06017,0.18555 1.02196,0.10562 1.92402,0.25121 2.17523,0.3397 l 0.30544,0.0942 0.48529,-4.4989 -0.34541,0.0657 c -0.97057,0.20838 -2.86034,0.41392 -4.32191,0.41392 l -4.56456,0 0,-8.8094 4.56456,0 c 2.73759,0.006 4.04501,0.48528 4.89569,0.80786 l 0.40251,0.157 -0.0571,-0.42819 c -0.16557,-1.2332 -0.28831,-2.42644 -0.40535,-3.70246 l -0.0285,-0.23408 -15.20949,0 0,0.49385 0.13988,0.0742 c 0.5852,0.30545 0.8678,0.69082 1.03052,1.18182 0.16842,0.48529 0.19411,1.09332 0.19411,1.76702 l 0,22.39175 c 0,0.62802 -0.0257,1.25889 -0.19411,1.76702 -0.16557,0.50241 -0.44532,0.88493 -1.00769,1.12472 l -0.16271,0.0685 0,0.51383 16.95938,0 1.18182,-5.14119 -0.55095,0.38537 c -1.34453,0.95345 -2.93171,1.3531 -5.00132,1.35881 m -20.9473,-25.47476 0.157,0.0628 c 0.20554,0.0999 0.54524,0.36825 0.54524,0.96487 0.006,0.25121 -0.14844,0.78503 -0.39394,1.38735 l -7.68467,20.12803 -4.17062,-10.50506 3.79666,-9.55731 c 0.43676,-1.13044 1.08761,-2.0953 1.8812,-2.41217 l 0.15415,-0.0685 0,-0.51097 -5.70356,0 0,0.50527 0.1513,0.0685 c 0.17699,0.0828 0.42249,0.3397 0.42249,0.87922 0.006,0.13417 -0.12846,0.88779 -0.18841,1.02196 l -2.31511,5.78635 -2.02679,-5.1726 c -0.2141,-0.51954 -0.44818,-1.19324 -0.44247,-1.46728 0.006,-0.67941 0.36825,-0.93632 0.61946,-1.04194 l 0.16842,-0.0628 0,-0.51669 -6.70268,0 0,0.48814 0.12846,0.0742 c 0.5852,0.32257 1.44444,1.33311 1.82696,2.34651 l 4.29337,10.75055 -3.67962,9.19192 -7.75889,-20.21081 c -0.11704,-0.30544 -0.23408,-0.75648 -0.23408,-0.97914 0,-0.33684 0.11133,-0.57092 0.24835,-0.74791 0.14559,-0.17984 0.33114,-0.29117 0.44818,-0.33399 l 0.16557,-0.0628 0,-0.51669 -7.39922,0 0,0.48814 0.13417,0.0742 c 0.5852,0.32828 1.53009,1.33882 1.9069,2.34651 l 10.74484,26.89065 2.4921,0 4.69587,-11.77536 4.68731,11.77536 2.49209,0 10.45938,-26.2712 c 0.27976,-0.70795 0.62517,-1.38164 1.00483,-1.90689 0.37396,-0.53667 0.77932,-0.90778 1.15328,-1.04194 l 0.16842,-0.0628 0,-0.51669 -6.24594,0 0,0.51098 z m 341.83672,-12.68884 -0.54523,0.39108 c -1.35024,0.94774 -2.93742,1.34739 -5.00703,1.34739 l -6.75692,-0.0371 0,-10.33092 3.21147,0 c 0.87351,0 2.04677,0.0828 3.06587,0.1884 1.01911,0.10562 1.91832,0.2455 2.16952,0.334 l 0.30545,0.0999 0.47958,-4.49891 -0.34541,0.0685 c -0.95916,0.19983 -2.85464,0.40536 -4.31621,0.40536 l -4.57027,0 0,-8.80369 4.57027,0 c 2.7376,0 4.04216,0.48529 4.90141,0.80215 l 0.4025,0.15701 -0.0571,-0.4282 c -0.15986,-1.22749 -0.28261,-2.42073 -0.41678,-3.70246 l -0.0228,-0.22837 -15.20949,0 0,0.49671 0.13988,0.0714 c 0.5852,0.30545 0.86781,0.68511 1.03623,1.17611 0.16272,0.491 0.18841,1.09333 0.1827,1.76702 l 0,22.39175 c 0.006,0.63658 -0.02,1.25889 -0.1827,1.76702 -0.17413,0.50812 -0.45103,0.8935 -1.01625,1.13329 l -0.15986,0.0657 0,0.51383 16.95368,0 1.18752,-5.1469 z m -29.36562,3.43412 c -0.17127,0.50813 -0.45103,0.8935 -1.0191,1.13329 l -0.15701,0.0657 0,0.51383 7.19939,0 0,-0.50241 -0.15129,-0.0714 c -0.55951,-0.26834 -0.83641,-0.63658 -1.01054,-1.12187 -0.17128,-0.49671 -0.20554,-1.11045 -0.20554,-1.78415 l 0,-22.39175 c 0,-0.65085 0.0228,-1.27602 0.19412,-1.78414 0.16842,-0.50813 0.44817,-0.89065 1.02196,-1.15328 l 0.15129,-0.0714 0,-0.50242 -7.19939,0 0,0.491 0.13988,0.0771 c 0.56807,0.30545 0.84783,0.6737 1.01911,1.14757 0.16842,0.47958 0.20838,1.0819 0.20838,1.79556 l 0,8.8979 -12.76877,0 0,-8.8979 c -0.006,-0.65085 0.0228,-1.27602 0.18269,-1.78414 0.17413,-0.50813 0.4596,-0.89065 1.02767,-1.15328 l 0.14844,-0.0714 0,-0.50242 -7.19082,0 0,0.491 0.13417,0.0771 c 0.54523,0.27976 0.83069,0.65657 1.00768,1.14757 0.17413,0.49099 0.21981,1.10474 0.21981,1.79556 l 0,22.39175 c 0,0.63658 -0.0285,1.25889 -0.19126,1.76702 -0.16557,0.50812 -0.44533,0.8935 -1.0134,1.13329 l -0.157,0.0657 0,0.51383 7.19082,0 0,-0.50241 -0.14844,-0.0714 c -0.56522,-0.26834 -0.84212,-0.61946 -1.01054,-1.09904 -0.16557,-0.47387 -0.20553,-1.08761 -0.19982,-1.80698 l 0,-10.00835 12.76877,0 0,10.00835 c 0,0.63658 -0.0285,1.25889 -0.19126,1.76702 m -30.45323,0 c -0.15986,-0.48529 -0.18841,-1.08762 -0.18841,-1.76702 l 0,-22.50308 4.44752,0 c 2.54919,-0.006 3.99363,0.65371 4.43325,0.94774 l 0.46816,0.3083 -0.59662,-4.65591 -21.97783,0 -0.59662,4.68731 0.47958,-0.34541 c 0.1827,-0.13988 0.66228,-0.37967 1.39877,-0.57949 0.74221,-0.19983 1.74989,-0.36254 3.02877,-0.36254 l 4.44181,0 0,22.50308 c 0,0.63658 -0.02,1.25889 -0.18841,1.76702 -0.16842,0.50812 -0.44532,0.8935 -1.01339,1.13329 l -0.15701,0.0657 0,0.51383 7.19083,0 0,-0.50241 -0.14274,-0.0714 c -0.58234,-0.28547 -0.85924,-0.65372 -1.02766,-1.139 m -26.86211,-11.44138 0.48529,-4.4989 -0.34541,0.0685 c -0.96487,0.19982 -2.85464,0.40536 -4.31621,0.40536 l -4.56456,0 0,-8.80369 4.56456,0 c 2.73188,0 4.03645,0.48529 4.90141,0.80215 l 0.4025,0.157 -0.0571,-0.42819 c -0.16843,-1.22749 -0.29118,-2.42073 -0.41107,-3.70246 l -0.0285,-0.22837 -15.20949,0 0,0.4967 0.14274,0.0714 c 0.58234,0.30545 0.86495,0.68511 1.02766,1.17611 0.16557,0.491 0.18841,1.09332 0.18841,1.76702 l 0,22.39175 c 0,0.63658 -0.0228,1.25889 -0.18841,1.76702 -0.16842,0.50812 -0.44532,0.8935 -1.01054,1.13329 l -0.15986,0.0657 0,0.51383 7.19083,0 0,-0.50242 -0.13988,-0.0714 c -0.5852,-0.28546 -0.8621,-0.65371 -1.03052,-1.13899 -0.16272,-0.48529 -0.18841,-1.08762 -0.1827,-1.76702 l 0,-10.29667 3.20575,0 c 0.86781,0 2.03821,0.0828 3.06017,0.18841 1.01911,0.10562 1.92403,0.2455 2.17523,0.33399 l 0.29974,0.0999 z m -25.66892,6.50285 c -1.56148,2.25802 -4.03645,3.94225 -7.89592,3.94511 -3.20575,-0.003 -5.68072,-1.37594 -7.38779,-3.61111 -1.70993,-2.23518 -2.62626,-5.35244 -2.62626,-8.79228 0,-2.28085 0.61374,-5.20399 2.14097,-7.51625 1.53865,-2.32652 3.95367,-4.05358 7.66184,-4.05358 3.45125,0 5.98902,1.51581 7.69895,3.85376 1.70707,2.3408 2.56631,5.51801 2.5606,8.79227 0.006,2.26373 -0.60232,5.11836 -2.15239,7.38208 m 2.93742,-19.42007 c -2.62626,-2.56632 -6.39438,-4.01362 -10.91612,-4.01362 -4.72157,-0.006 -8.45828,1.77273 -10.99034,4.62737 -2.5235,2.85463 -3.86803,6.77404 -3.86803,11.05599 0,4.20202 1.49868,7.9787 4.07641,10.70488 2.57488,2.72618 6.23738,4.39899 10.53646,4.39328 4.94423,0.006 8.78085,-1.84695 11.36144,-4.79578 2.57774,-2.95455 3.90514,-6.99671 3.90514,-11.37287 0,-4.37044 -1.4787,-8.0415 -4.10496,-10.59925 m -58.14604,-0.27976 7.63329,12.4719 0,10.39943 c 0,0.63088 -0.0343,1.2589 -0.20554,1.76702 -0.17984,0.50813 -0.46816,0.8935 -1.03908,1.13329 l -0.15986,0.0657 0,0.51383 7.2365,0 0,-0.50241 -0.14559,-0.0714 c -0.5852,-0.28546 -0.85925,-0.64229 -1.02481,-1.11045 -0.16843,-0.47387 -0.19127,-1.0762 -0.19127,-1.79557 l 0,-10.40514 7.67897,-13.21696 c 0.61375,-1.06192 1.01911,-1.44444 1.57576,-1.70707 l 0.15129,-0.0714 0,-0.50242 -6.24879,0 0,0.49671 0.14273,0.0714 c 0.0856,0.0457 0.25121,0.15701 0.37396,0.32258 0.12846,0.16842 0.22837,0.37966 0.22837,0.64229 0,0.22837 -0.06,0.50242 -0.46245,1.23606 l -5.18402,9.10628 -5.42095,-8.98924 c -0.31686,-0.54524 -0.42248,-0.99627 -0.42248,-1.31028 0,-0.33399 0.0999,-0.55094 0.22266,-0.70224 0.12846,-0.15415 0.28546,-0.24835 0.40821,-0.29974 l 0.15415,-0.0685 0,-0.50527 -7.48199,0 0,0.48529 0.12845,0.0771 c 0.61946,0.35682 1.3217,1.28173 2.05249,2.46925 m -17.89285,0.36825 0,22.50308 c 0,0.63659 -0.02,1.2589 -0.19412,1.76702 -0.16842,0.50813 -0.44532,0.8935 -1.00768,1.13329 l -0.16272,0.0657 0,0.51383 7.19654,0 0,-0.50241 -0.14273,-0.0714 c -0.58235,-0.28547 -0.86496,-0.65371 -1.02767,-1.139 -0.16557,-0.48529 -0.19412,-1.08762 -0.18841,-1.76702 l 0,-22.50308 4.44181,0 c 2.5549,-0.006 3.99364,0.65371 4.43896,0.94774 l 0.46245,0.3083 -0.59091,-4.65591 -21.98354,0 -0.59662,4.68731 0.47958,-0.34541 c 0.18555,-0.13988 0.66228,-0.37967 1.40448,-0.57949 0.7365,-0.19983 1.74704,-0.36254 3.02306,-0.36254 l 4.44752,0 z m -12.17501,25.48047 -0.14559,-0.0714 c -0.5852,-0.28547 -0.85925,-0.65372 -1.03052,-1.139 -0.16272,-0.48529 -0.18556,-1.08762 -0.18556,-1.76702 l 0,-22.39175 c 0,-0.65086 0.0228,-1.27602 0.18556,-1.78415 0.17127,-0.50812 0.45103,-0.89064 1.0191,-1.15327 l 0.15701,-0.0714 0,-0.50241 -7.19939,0 0,0.4967 0.14558,0.0714 c 0.5852,0.30545 0.86496,0.68511 1.03053,1.17611 0.16271,0.491 0.18555,1.09332 0.18555,1.76702 l 0,22.39175 c 0,0.63658 -0.0228,1.25889 -0.18555,1.76702 -0.17128,0.50812 -0.44533,0.8935 -1.0134,1.13329 l -0.16271,0.0657 0,0.51383 7.19939,0 0,-0.50242 z m -11.49276,-7.30501 c 0,-3.6625 -2.22376,-6.25451 -4.94994,-7.973 l -4.08212,-2.55204 c -2.278,-1.42732 -3.5112,-3.00593 -3.50549,-4.77295 0.006,-1.54435 0.57378,-2.45784 1.39306,-3.03733 0.82499,-0.57663 1.92973,-0.79359 2.96596,-0.78788 2.74901,-0.006 4.93566,1.52723 5.73211,2.20378 l 0.0999,0.0885 0.29688,-0.0771 0.14273,-0.0343 1.05051,-3.94796 -0.20839,-0.0885 c -1.82126,-0.80501 -4.63878,-1.29886 -6.94532,-1.29886 -2.3979,0 -4.57884,0.65086 -6.17743,1.96114 -1.59003,1.31027 -2.57774,3.27997 -2.57774,5.84343 -0.006,3.20576 1.30457,5.47519 4.24484,7.34783 l 4.69873,3.0516 c 2.11814,1.34739 3.39131,2.88033 3.3856,4.81577 0,1.27031 -0.37396,2.40931 -1.16184,3.22859 -0.78502,0.81357 -1.98968,1.33883 -3.73386,1.33883 -2.30369,0.006 -4.8329,-1.21037 -6.23452,-2.29798 l -0.0714,-0.0542 -0.35683,0 -1.14756,3.68533 0.1827,0.0999 c 2.58059,1.39306 5.86056,1.76131 7.50483,1.76131 2.50351,0 4.86144,-0.7365 6.59991,-2.16953 1.74133,-1.43873 2.85464,-3.58542 2.85464,-6.33443 m -35.89417,-18.34102 2.87747,0 c 1.76131,0 3.11155,0.53952 4.02503,1.45301 0.91349,0.92204 1.41019,2.23803 1.41019,3.85946 0,1.32741 -0.42248,2.60343 -1.23605,3.54546 -0.81928,0.94203 -2.04107,1.55577 -3.70817,1.55577 l -3.36847,0 0,-10.4137 z m 1.36166,25.60036 -0.1513,-0.0714 c -0.51954,-0.23979 -0.80215,-0.56237 -0.98199,-1.03624 -0.17699,-0.46245 -0.23408,-1.08761 -0.22837,-1.86407 l 0,-8.8979 3.59684,0 5.90338,10.10255 c 0.92205,1.56149 2.17523,2.73189 4.18204,2.72047 0.7365,0 1.37308,-0.17128 1.85266,-0.41107 0.48529,-0.23979 0.82499,-0.53096 1.00197,-0.81357 l 0.13417,-0.2141 -0.20553,-0.13702 c -0.33399,-0.23979 -0.73079,-0.47387 -1.27317,-1.02196 -0.53381,-0.54523 -1.21322,-1.40448 -2.07246,-2.85463 l -5.05841,-8.39548 c 3.25142,-1.64427 4.8072,-4.69587 4.8072,-7.47629 0.006,-3.30281 -1.28173,-5.46091 -3.10584,-6.74264 -1.82411,-1.28744 -4.14779,-1.72135 -6.26592,-1.72135 l -9.28898,0 0,0.54524 0.15129,0.0685 c 0.51669,0.2455 0.79645,0.56807 0.97343,1.04194 0.17984,0.46816 0.23408,1.10474 0.23408,1.90119 l 0,22.30611 c 0,0.81071 -0.0599,1.45586 -0.24264,1.92402 -0.18555,0.46816 -0.4596,0.76504 -0.95345,0.97629 l -0.16271,0.06 0,0.5595 7.15371,0 0,-0.54809 z m -10.81621,-4.59882 -0.54809,0.39109 c -1.34739,0.94773 -2.93171,1.34738 -5.00703,1.34738 l -6.7455,-0.0371 0,-10.33092 3.20576,0 c 0.86495,0 2.03535,0.0828 3.06016,0.18841 1.01625,0.10562 1.91832,0.2455 2.17524,0.33399 l 0.30259,0.0999 0.48528,-4.4989 -0.34826,0.0685 c -0.96201,0.19982 -2.86034,0.40535 -4.31906,0.40535 l -4.56171,0 0,-8.80369 4.56171,0 c 2.73759,0 4.04216,0.48529 4.9014,0.80216 l 0.39965,0.157 -0.0542,-0.42819 c -0.16843,-1.2275 -0.29118,-2.42073 -0.41393,-3.70247 l -0.0228,-0.22837 -15.19808,0 0,0.49671 0.13417,0.0714 c 0.5852,0.30544 0.87067,0.68511 1.03623,1.17611 0.16272,0.49099 0.18556,1.09332 0.18556,1.76701 l 0,22.39175 c 0,0.63659 -0.0228,1.2589 -0.18556,1.76702 -0.17127,0.50813 -0.44532,0.8935 -1.01339,1.13329 l -0.15701,0.0657 0,0.51384 16.94511,0 1.18182,-5.14691 z m -46.67898,-21.32697 10.66492,26.87923 2.65481,0 10.58213,-26.7993 -0.23408,-0.0971 0.23408,0.0971 c 0.43105,-1.11045 1.23891,-2.09816 1.96969,-2.41502 l 0.14844,-0.0714 0,-0.50241 -6.24308,0 0,0.50527 0.157,0.0685 c 0.20554,0.0942 0.53953,0.36825 0.54524,0.95916 0,0.0171 -0.0343,0.2512 -0.10562,0.50241 -0.0685,0.25406 -0.17413,0.56807 -0.28547,0.84212 l -7.62183,19.61419 -7.73891,-19.85397 c -0.11704,-0.30831 -0.23408,-0.75934 -0.22837,-0.982 0,-0.33399 0.10562,-0.56807 0.25121,-0.7422 0.13987,-0.17699 0.32257,-0.28832 0.44532,-0.334 l 0.16842,-0.0685 0,-0.51098 -7.40492,0 0,0.491 0.12846,0.0714 c 0.59091,0.32257 1.53294,1.33882 1.9126,2.34651 m -4.57026,25.97146 -0.1513,-0.0714 c -0.57949,-0.28547 -0.85925,-0.65372 -1.02767,-1.139 -0.16557,-0.48529 -0.1884,-1.08762 -0.1884,-1.76702 l 0,-22.39175 c 0,-0.65086 0.0228,-1.27602 0.1884,-1.78415 0.16842,-0.50812 0.44818,-0.89064 1.02196,-1.15327 l 0.15701,-0.0714 0,-0.50242 -7.19939,0 0,0.49671 0.13417,0.0714 c 0.59091,0.30545 0.87637,0.68511 1.03623,1.17611 0.16271,0.491 0.19126,1.09333 0.19126,1.76702 l 0,22.39175 c 0,0.63658 -0.0228,1.25889 -0.19126,1.76702 -0.17128,0.50812 -0.44532,0.8935 -1.0134,1.13329 l -0.157,0.0657 0,0.51383 7.19939,0 0,-0.50241 z m -32.32303,0 -0.14273,-0.0714 c -0.58805,-0.28547 -0.86495,-0.65372 -1.03338,-1.139 -0.15986,-0.48529 -0.1884,-1.08762 -0.1884,-1.76702 l 0,-18.0156 17.97563,21.82368 2.1895,0 0,-26.19983 c 0,-0.65086 0.0228,-1.27602 0.19697,-1.78415 0.16557,-0.50812 0.44533,-0.89064 1.0134,-1.15327 l 0.15129,-0.0714 0,-0.50242 -6.32872,0 0,0.49671 0.13988,0.0714 c 0.5852,0.30545 0.87066,0.68511 1.03052,1.17611 0.16842,0.491 0.19697,1.09333 0.19697,1.76702 l 0,17.34476 -17.19061,-20.85596 -4.29908,0 0,0.49671 0.13988,0.0714 c 0.5852,0.30545 0.86496,0.68511 1.03052,1.17611 0.16272,0.491 0.19126,1.09333 0.19126,1.76702 l 0,22.39175 c 0,0.63658 -0.0228,1.25889 -0.19126,1.76702 -0.17127,0.50812 -0.44532,0.8935 -1.01339,1.13329 l -0.15701,0.0657 0,0.51383 6.28876,0 0,-0.50241 z m -35.86562,-27.13616 c 0.16557,0.491 0.18841,1.09333 0.18841,1.76702 l 0,16.04019 c -0.006,3.60255 1.20465,6.26307 3.31137,7.99583 2.10387,1.73562 5.06983,2.53206 8.57532,2.53206 3.09443,0 5.91766,-0.86495 7.96158,-2.64339 2.04677,-1.77273 3.30852,-4.45894 3.30852,-8.00725 l 0,-15.91744 c 0,-0.65085 0.0314,-1.27602 0.20553,-1.77843 0.17699,-0.51384 0.46816,-0.89636 1.04194,-1.15899 l 0.1513,-0.0714 0,-0.50242 -6.32872,0 0,0.49671 0.13987,0.0714 c 0.5852,0.30544 0.87067,0.68511 1.03053,1.1761 0.16271,0.491 0.19696,1.09333 0.19696,1.76702 l 0,15.42359 c 0,2.12956 -0.4967,3.99078 -1.6671,5.31247 -1.17897,1.31599 -3.05731,2.14098 -5.95477,2.14669 -2.36649,0 -4.23342,-0.67084 -5.51515,-1.90119 -1.27031,-1.2332 -1.97826,-3.0516 -1.97826,-5.43237 l 0,-15.54919 c -0.006,-0.65085 0.02,-1.27602 0.18269,-1.78414 0.16843,-0.50813 0.44533,-0.89065 1.01911,-1.15328 l 0.15129,-0.0714 0,-0.50242 -7.19653,0 0,0.49671 0.14559,0.0714 c 0.5852,0.30544 0.8621,0.68511 1.03052,1.1761"
       id="path142"
       style="fill:#000000;fill-opacity:1;fill-rule:nonzero;stroke:none" />
    <path
       d="m 233.9709,504.12535 c 0,-4.09925 2.85463,-7.11375 6.57422,-7.32214 1.19895,10.00835 7.81599,17.20203 18.40383,17.20203 9.54589,0 16.78239,-5.86627 16.78239,-14.55293 0,-23.36518 -36.30238,-20.76175 -36.30238,-46.31358 0,-12.90295 10.91897,-21.17568 23.44511,-21.17568 9.51164,0 15.00966,2.73189 15.38362,3.10585 l -1.03623,13.27404 -1.61287,0 c -0.78502,-7.19938 -6.65701,-12.52898 -14.05622,-12.52898 -7.44774,0 -14.22749,5.16403 -14.22749,12.6917 0,20.639 36.88758,19.31731 36.88758,45.48859 0,15.79469 -12.7802,24.48135 -27.17041,24.48135 -10.25099,0 -23.07115,-4.92139 -23.07115,-14.35025 m -55.24574,-21.08718 c 3.96794,-11.74682 9.22047,-27.33598 12.28349,-37.1759 l -2.36078,-5.45806 c -1.15898,-2.68907 -2.85464,-4.96992 -7.07378,-4.96992 l 0,-1.61001 3.22859,0 c 5.04413,0 5.66359,-0.11704 9.63439,-0.11704 3.93083,0 4.30479,3.13438 5.45806,6.32301 4.92139,13.64801 12.28349,35.14626 14.88692,41.93172 2.89174,-8.89218 11.90953,-34.73519 11.90953,-42.80238 0,-2.97739 -2.31511,-3.55117 -4.83575,-3.7253 l 0.0799,-1.61001 c 3.06017,0.16842 6.86825,0.37395 9.83992,0.37395 3.02021,0 5.86913,-0.20553 9.01494,-0.37395 l 0.12275,1.61001 c -4.42183,0.5852 -5.37528,1.98683 -7.14801,6.57993 -4.21915,10.9618 -13.56522,37.75254 -20.67897,58.75979 l -2.35792,0 c -5.29247,-15.79469 -10.91609,-32.37726 -16.82804,-48.54591 -5.4181,15.67194 -11.41283,32.5885 -16.37419,48.54591 l -2.35792,0 c -5.33532,-14.39021 -17.53602,-47.01868 -22.53734,-57.51517 -2.02964,-4.26197 -3.89087,-7.82455 -9.38889,-7.82455 l 0,-1.61001 3.59684,0 c 3.31137,0 5.25252,-0.16272 9.26043,-0.16272 3.85376,0 5.00703,3.22859 6.25165,6.49144 4.29622,11.29008 10.95323,28.99166 16.37418,42.88517 M 149.2425,472.57308 c -0.0457,24.68973 -12.16074,29.65108 -26.79645,29.65108 -11.04458,0 -26.094212,-3.27426 -26.094212,-25.5975 l 0,-15.71191 c 0,-9.06061 -0.128458,-14.14471 -1.036232,-20.22793 -0.456741,-3.13725 -0.824989,-4.78722 -4.21344,-5.25253 l 0.07708,-1.61001 c 3.105842,0.29117 6.86825,0.37395 9.799964,0.37395 3.02306,0 6.8654,-0.20553 9.92556,-0.37395 l 0.0828,1.61001 c -2.72617,0.37967 -3.67962,0.74791 -4.38186,3.56258 -0.90777,3.68248 -1.03052,22.61441 -1.03052,28.20093 0,14.8441 -0.0457,30.01934 19.10036,30.01934 18.60649,0 19.47716,-14.43018 19.4372,-29.10871 l 0,-7.80742 c 0,-4.33619 -0.16842,-12.23782 -0.41392,-15.91744 l 1.3217,-0.50242 c 2.19235,2.90031 4.05358,7.81884 4.25911,9.06061 l -0.0371,19.63132 z"
       id="path146"
       style="fill:#000000;fill-opacity:1;fill-rule:nonzero;stroke:none" />
  </g>
</svg>
