<?xml version="1.0" encoding="UTF-8" standalone="no"?>
<!-- Created with Inkscape (http://www.inkscape.org/) -->

<svg
   xmlns:dc="http://purl.org/dc/elements/1.1/"
   xmlns:cc="http://creativecommons.org/ns#"
   xmlns:rdf="http://www.w3.org/1999/02/22-rdf-syntax-ns#"
   xmlns:svg="http://www.w3.org/2000/svg"
   xmlns="http://www.w3.org/2000/svg"
   xmlns:sodipodi="http://sodipodi.sourceforge.net/DTD/sodipodi-0.dtd"
   xmlns:inkscape="http://www.inkscape.org/namespaces/inkscape"
   version="1.1"
   width="196.46576"
   height="89.868027"
   id="svg3222"
   sodipodi:docname="uws-logo.svg"
   inkscape:export-filename="/home/hsevay/workspace2/trakayad/website/trakayad.org/presentations/omur-yilmaz-trnc-ethics-policies/images/uws-logo.png"
   inkscape:export-xdpi="360"
   inkscape:export-ydpi="360"
   inkscape:version="0.92.0 unknown">
  <metadata
     id="metadata9">
    <rdf:RDF>
      <cc:Work
         rdf:about="">
        <dc:format>image/svg+xml</dc:format>
        <dc:type
           rdf:resource="http://purl.org/dc/dcmitype/StillImage" />
        <dc:title></dc:title>
      </cc:Work>
    </rdf:RDF>
  </metadata>
  <sodipodi:namedview
     pagecolor="#ffffff"
     bordercolor="#666666"
     borderopacity="1"
     objecttolerance="10"
     gridtolerance="10"
     guidetolerance="10"
     inkscape:pageopacity="0"
     inkscape:pageshadow="2"
     inkscape:window-width="1920"
     inkscape:window-height="1056"
     id="namedview7"
     showgrid="false"
     fit-margin-top="0"
     fit-margin-left="0"
     fit-margin-right="0"
     fit-margin-bottom="0"
     inkscape:zoom="2.0016739"
     inkscape:cx="217.46498"
     inkscape:cy="98.73663"
     inkscape:window-x="0"
     inkscape:window-y="24"
     inkscape:window-maximized="1"
     inkscape:current-layer="svg3222" />
  <defs
     id="defs3224">
    <filter
       inkscape:collect="always"
       style="color-interpolation-filters:sRGB"
       id="filter4496"
       x="-0.008687973"
       width="1.0173759"
       y="-0.01939299"
       height="1.0387861">
      <feGaussianBlur
         inkscape:collect="always"
         stdDeviation="0.6990571"
         id="feGaussianBlur4498" />
    </filter>
  </defs>
  <path
     d="m 144.54647,73.840037 c 0,-4.09925 2.85463,-7.11375 6.57422,-7.32214 1.19895,10.00835 7.81599,17.20203 18.40383,17.20203 9.54589,0 16.78239,-5.86627 16.78239,-14.55293 0,-23.36518 -36.30238,-20.76175 -36.30238,-46.31358 0,-12.90295 10.91897,-21.17568 23.44511,-21.17568 9.51164,0 15.00966,2.73189 15.38362,3.10585 l -1.03623,13.27404 h -1.61287 c -0.78502,-7.19938 -6.65701,-12.52898 -14.05622,-12.52898 -7.44774,0 -14.22749,5.16403 -14.22749,12.6917 0,20.639 36.88758,19.31731 36.88758,45.48859 0,15.79469 -12.7802,24.48135 -27.17041,24.48135 -10.25099,0 -23.07115,-4.92139 -23.07115,-14.35025 M 89.300731,52.752857 c 3.967936,-11.74682 9.220466,-27.33598 12.283489,-37.1759 l -2.360783,-5.45806 c -1.15898,-2.68907 -2.85464,-4.96992 -7.07378,-4.96992 v -1.61001 h 3.22859 c 5.044133,0 5.663593,-0.11704 9.634393,-0.11704 3.93083,0 4.30479,3.13438 5.45806,6.32301 4.92139,13.64801 12.28349,35.14626 14.88692,41.93172 2.89174,-8.89218 11.90953,-34.73519 11.90953,-42.80238 0,-2.97739 -2.31511,-3.55117 -4.83575,-3.7253 l 0.0799,-1.61001 c 3.06017,0.16842 6.86825,0.37395 9.83992,0.37395 3.02021,0 5.86913,-0.20553 9.01494,-0.37395 l 0.12275,1.61001 c -4.42183,0.5852 -5.37528,1.98683 -7.14801,6.57993 -4.21915,10.9618 -13.56522,37.75254 -20.67897,58.75979 h -2.35792 c -5.29247,-15.79469 -10.91609,-32.37726 -16.82804,-48.54591 -5.418103,15.67194 -11.412833,32.5885 -16.374189,48.54591 h -2.35792 c -5.33532,-14.39021 -17.53602,-47.01868 -22.53734,-57.51517 -2.02964,-4.26197 -3.89087,-7.82455 -9.38889,-7.82455 v -1.61001 h 3.59684 c 3.31137,0 5.25252,-0.16272 9.26043,-0.16272 3.85376,0 5.00703,3.22859 6.25165,6.49144 4.29622,11.29008 10.95323,28.99166 16.37418,42.88517 m -29.48266,-10.46509 c -0.0457,24.68973 -12.16074,29.65108 -26.79645,29.65108 -11.04458,0 -26.094212,-3.27426 -26.094212,-25.5975 v -15.71191 c 0,-9.06061 -0.128458,-14.14471 -1.036232,-20.22793 -0.456741,-3.13725 -0.824989,-4.78722 -4.21344,-5.25253 l 0.07708,-1.61001 c 3.105842,0.29117 6.86825,0.37395 9.799964,0.37395 3.02306,0 6.8654,-0.20553 9.92556,-0.37395 l 0.0828,1.61001 c -2.72617,0.37967 -3.67962,0.74791 -4.38186,3.56258 -0.90777,3.68248 -1.03052,22.61441 -1.03052,28.20093 0,14.8441 -0.0457,30.01934 19.10036,30.01934 18.60649,0 19.47716,-14.43018 19.4372,-29.10871 v -7.80742 c 0,-4.33619 -0.16842,-12.23782 -0.41392,-15.91744 l 1.3217,-0.50242 c 2.19235,2.90031 4.05358,7.81884 4.25911,9.06061 l -0.0371,19.63132 z"
     id="path4490"
     style="fill:#808080;fill-opacity:1;fill-rule:nonzero;stroke:none;filter:url(#filter4496)"
     inkscape:connector-curvature="0" />
  <path
     inkscape:connector-curvature="0"
     style="fill:#333333;fill-opacity:1;fill-rule:nonzero;stroke:none"
     id="path146"
     d="m 144.42372,72.230027 c 0,-4.09925 2.85463,-7.11375 6.57422,-7.32214 1.19895,10.00835 7.81599,17.20203 18.40383,17.20203 9.54589,0 16.78239,-5.86627 16.78239,-14.55293 0,-23.36518 -36.30238,-20.76175 -36.30238,-46.31358 0,-12.90295 10.91897,-21.17568002 23.44511,-21.17568002 9.51164,0 15.00966,2.73189002 15.38362,3.10585002 l -1.03623,13.27404 h -1.61287 c -0.78502,-7.19938 -6.65701,-12.52898 -14.05622,-12.52898 -7.44774,0 -14.22749,5.16403 -14.22749,12.6917 0,20.639 36.88758,19.31731 36.88758,45.48859 0,15.79469 -12.7802,24.48135 -27.17041,24.48135 -10.25099,0 -23.07115,-4.92139 -23.07115,-14.35025 M 89.177981,51.142847 c 3.96794,-11.74682 9.220466,-27.33598 12.283489,-37.1759 l -2.360783,-5.45806 c -1.15898,-2.68907 -2.854636,-4.96992 -7.073776,-4.96992 v -1.61001 h 3.22859 c 5.044129,0 5.663589,-0.11704 9.634389,-0.11704 3.93083,0 4.30479,3.13438 5.45806,6.32301 4.92139,13.64801 12.28349,35.14626 14.88692,41.93172 2.89174,-8.89218 11.90953,-34.73519 11.90953,-42.80238 0,-2.97739 -2.31511,-3.55117 -4.83575,-3.7253 l 0.0799,-1.61001 c 3.06017,0.16842 6.86825,0.37395 9.83992,0.37395 3.02021,0 5.86913,-0.20553 9.01494,-0.37395 l 0.12275,1.61001 c -4.42183,0.5852 -5.37528,1.98683 -7.14801,6.57993 -4.21915,10.9618 -13.56522,37.75254 -20.67897,58.75979 h -2.35792 c -5.29247,-15.79469 -10.91609,-32.37726 -16.82804,-48.54591 -5.418103,15.67194 -11.412829,32.5885 -16.374189,48.54591 h -2.35792 c -5.33532,-14.39021 -17.53602,-47.01868 -22.53734,-57.51517 -2.02964,-4.26197 -3.89087,-7.82455 -9.38889,-7.82455 v -1.61001 h 3.59684 c 3.31137,0 5.25252,-0.16272 9.26043,-0.16272 3.85376,0 5.00703,3.22859 6.25165,6.49144 4.29622,11.29008 10.95323,28.99166 16.37418,42.88517 m -29.48266,-10.46509 c -0.0457,24.68973 -12.16074,29.65108 -26.79645,29.65108 -11.04458,0 -26.094212,-3.27426 -26.094212,-25.5975 v -15.71191 c 0,-9.06061 -0.128458,-14.14471 -1.036232,-20.22793 -0.456741,-3.13725 -0.824989,-4.78722 -4.21344,-5.25253 l 0.07708,-1.61001 c 3.105842,0.29117 6.86825,0.37395 9.799964,0.37395 3.02306,0 6.8654,-0.20553 9.92556,-0.37395 l 0.0828,1.61001 c -2.72617,0.37967 -3.67962,0.74791 -4.38186,3.56258 -0.90777,3.68248 -1.03052,22.61441 -1.03052,28.20093 0,14.8441 -0.0457,30.01934 19.10036,30.01934 18.60649,0 19.47716,-14.43018 19.4372,-29.10871 v -7.80742 c 0,-4.33619 -0.16842,-12.23782 -0.41392,-15.91744 l 1.3217,-0.50242 c 2.19235,2.90031 4.05358,7.81884 4.25911,9.06061 l -0.0371,19.63132 z" />
</svg>
