<?xml version="1.0" encoding="UTF-8" standalone="no"?>
<!-- Created with Inkscape (http://www.inkscape.org/) -->

<svg
   xmlns:dc="http://purl.org/dc/elements/1.1/"
   xmlns:cc="http://creativecommons.org/ns#"
   xmlns:rdf="http://www.w3.org/1999/02/22-rdf-syntax-ns#"
   xmlns:svg="http://www.w3.org/2000/svg"
   xmlns="http://www.w3.org/2000/svg"
   xmlns:sodipodi="http://sodipodi.sourceforge.net/DTD/sodipodi-0.dtd"
   xmlns:inkscape="http://www.inkscape.org/namespaces/inkscape"
   id="svg3180"
   version="1.1"
   inkscape:version="0.48.4 r9939"
   width="300"
   height="299.99603"
   xml:space="preserve"
   sodipodi:docname="vision-zero.svg"
   inkscape:export-filename="/home/hsevay/reveal.js-dev/images/vision-zero.png"
   inkscape:export-xdpi="90"
   inkscape:export-ydpi="90"><metadata
     id="metadata3186"><rdf:RDF><cc:Work
         rdf:about=""><dc:format>image/svg+xml</dc:format><dc:type
           rdf:resource="http://purl.org/dc/dcmitype/StillImage" /><dc:title></dc:title></cc:Work></rdf:RDF></metadata><defs
     id="defs3184"><clipPath
       clipPathUnits="userSpaceOnUse"
       id="clipPath3194"><path
         d="m 260.788,68.598 84.189,0 0,51.307 -84.189,0 0,-51.307 z"
         id="path3196"
         inkscape:connector-curvature="0" /></clipPath><clipPath
       clipPathUnits="userSpaceOnUse"
       id="clipPath3282"><path
         d="m 265.323,73.746 75.685,0 0,42.332 -75.685,0 0,-42.332 z"
         id="path3284"
         inkscape:connector-curvature="0" /></clipPath><clipPath
       clipPathUnits="userSpaceOnUse"
       id="clipPath3314"><path
         d="m 260.788,68.598 84.189,0 0,51.307 -84.189,0 0,-51.307 z"
         id="path3316"
         inkscape:connector-curvature="0" /></clipPath><clipPath
       clipPathUnits="userSpaceOnUse"
       id="clipPath3326"><path
         d="m 265.323,73.746 75.685,0 0,42.332 -75.685,0 0,-42.332 z"
         id="path3328"
         inkscape:connector-curvature="0" /></clipPath><clipPath
       clipPathUnits="userSpaceOnUse"
       id="clipPath3346"><path
         d="m 260.788,68.598 84.189,0 0,51.307 -84.189,0 0,-51.307 z"
         id="path3348"
         inkscape:connector-curvature="0" /></clipPath><clipPath
       clipPathUnits="userSpaceOnUse"
       id="clipPath3370"><path
         d="m 265.323,73.746 75.685,0 0,42.332 -75.685,0 0,-42.332 z"
         id="path3372"
         inkscape:connector-curvature="0" /></clipPath><clipPath
       clipPathUnits="userSpaceOnUse"
       id="clipPath3386"><path
         d="m 260.788,68.598 84.189,0 0,51.307 -84.189,0 0,-51.307 z"
         id="path3388"
         inkscape:connector-curvature="0" /></clipPath><clipPath
       clipPathUnits="userSpaceOnUse"
       id="clipPath3426"><path
         d="m 62.622,84.02 157.323,0 0,30.783 -157.323,0 0,-30.783 z"
         id="path3428"
         inkscape:connector-curvature="0" /></clipPath><clipPath
       clipPathUnits="userSpaceOnUse"
       id="clipPath3546"><path
         d="m 111.775,278.885 196.866,0 0,196.863 -196.866,0 0,-196.863 z"
         id="path3548"
         inkscape:connector-curvature="0" /></clipPath><clipPath
       clipPathUnits="userSpaceOnUse"
       id="clipPath3566"><path
         d="m 107.717,267.874 204.095,0 0,215.433 -204.095,0 0,-215.433 z"
         id="path3568"
         inkscape:connector-curvature="0" /></clipPath><clipPath
       clipPathUnits="userSpaceOnUse"
       id="clipPath3730"><path
         d="m 0,481.89 419.528,0 0,113.386 L 0,595.276 0,481.89 z"
         id="path3732"
         inkscape:connector-curvature="0" /></clipPath><clipPath
       clipPathUnits="userSpaceOnUse"
       id="clipPath3742"><path
         d="m 0,157.323 419.528,0 0,114.4 -419.528,0 0,-114.4 z"
         id="path3744"
         inkscape:connector-curvature="0" /></clipPath></defs><sodipodi:namedview
     pagecolor="#ffffff"
     bordercolor="#666666"
     borderopacity="1"
     objecttolerance="10"
     gridtolerance="10"
     guidetolerance="10"
     inkscape:pageopacity="0"
     inkscape:pageshadow="2"
     inkscape:window-width="1920"
     inkscape:window-height="1056"
     id="namedview3182"
     showgrid="false"
     inkscape:zoom="1.1707805"
     inkscape:cx="253.1678"
     inkscape:cy="256.61905"
     inkscape:window-x="0"
     inkscape:window-y="24"
     inkscape:window-maximized="1"
     inkscape:current-layer="g3188"
     fit-margin-top="0"
     fit-margin-left="0"
     fit-margin-right="0"
     fit-margin-bottom="0" /><g
     id="g3188"
     inkscape:groupmode="layer"
     inkscape:label="VZI"
     transform="matrix(1.25,0,0,-1.25,-139.71924,648.60228)"><g
       id="g3094"
       transform="matrix(1.2191058,0,0,1.2191058,-24.490636,-61.105319)"><g
         id="g3542"><g
           clip-path="url(#clipPath3546)"
           id="g3544"><g
             transform="translate(169.3024,418.2234)"
             id="g3550"><path
               inkscape:connector-curvature="0"
               id="path3552"
               style="fill:#111216;fill-opacity:1;fill-rule:nonzero;stroke:none"
               d="m 0,0 c -10.502,-10.533 -16.936,-24.868 -16.945,-40.906 0.009,-16.041 6.443,-30.376 16.945,-40.909 10.533,-10.498 24.866,-16.933 40.906,-16.946 16.04,0.013 30.373,6.448 40.906,16.946 10.501,10.533 16.934,24.868 16.945,40.909 C 98.746,-24.866 92.313,-10.533 81.812,0 71.279,10.501 56.946,16.934 40.906,16.945 24.866,16.934 10.533,10.501 0,0 m 40.906,-139.339 c -27.118,-0.012 -51.853,11.05 -69.602,28.83 -17.781,17.748 -28.84,42.485 -28.831,69.603 -0.009,27.116 11.05,51.853 28.831,69.602 17.749,17.781 42.484,28.84 69.602,28.829 27.116,0.011 51.853,-11.048 69.602,-28.829 17.781,-17.749 28.84,-42.486 28.831,-69.602 0.009,-27.118 -11.05,-51.853 -28.831,-69.603 -17.74,-17.772 -42.461,-28.831 -69.561,-28.83 l -0.041,0 z" /></g></g></g><g
         transform="translate(144.6576,359.226)"
         id="g3554"><path
           inkscape:connector-curvature="0"
           id="path3556"
           style="fill:#00adef;fill-opacity:1;fill-rule:nonzero;stroke:none"
           d="m 0,0 1.223,-3.324 -16,-12.701 -1.701,4.629 9.049,6.809 -11.286,-0.723 -1.206,4.656 L 0,0 z" /></g><g
         transform="translate(142.9686,364.4728)"
         id="g3558"><path
           inkscape:connector-curvature="0"
           id="path3560"
           style="fill:#00adef;fill-opacity:1;fill-rule:nonzero;stroke:none"
           d="M 0,0 -19.194,-1.593 -19.702,3.136 -0.781,4.651 0,0 z" /></g><g
         id="g3562"><g
           clip-path="url(#clipPath3566)"
           id="g3564"><g
             transform="translate(142.2433,378.9456)"
             id="g3570"><path
               inkscape:connector-curvature="0"
               id="path3572"
               style="fill:#00adef;fill-opacity:1;fill-rule:nonzero;stroke:none"
               d="m 0,0 c -0.111,-2.969 -0.746,-5.373 -2.836,-7.261 l -2.936,3.166 c 1.045,0.971 1.467,2.728 1.524,4.28 0.069,1.879 -0.525,2.801 -1.641,2.843 C -6.352,3.046 -6.737,2.95 -7.047,2.689 -7.301,2.453 -7.506,2.052 -7.612,1.429 l -0.414,-2.331 c -0.308,-1.706 -0.929,-2.993 -1.861,-3.831 -0.961,-0.865 -2.283,-1.251 -3.945,-1.19 -3.541,0.132 -6.027,2.898 -5.864,7.311 0.103,2.778 0.834,4.85 2.559,6.451 l 2.885,-3.108 c -1.273,-1.181 -1.251,-2.79 -1.282,-3.635 -0.061,-1.661 0.866,-2.377 1.71,-2.408 0.244,-0.01 0.602,0.059 0.912,0.347 0.255,0.236 0.516,0.636 0.623,1.312 l 0.413,2.331 c 0.311,1.735 0.901,2.967 1.751,3.754 1.045,0.997 2.505,1.353 4.303,1.285 C -1.873,7.57 0.153,4.086 0,0" /></g><g
             transform="translate(142.8367,389.0091)"
             id="g3574"><path
               inkscape:connector-curvature="0"
               id="path3576"
               style="fill:#00adef;fill-opacity:1;fill-rule:nonzero;stroke:none"
               d="M 0,0 -19.006,3.915 -18.043,8.587 0.962,4.672 0,0 z" /></g><g
             transform="translate(134.3687,410.665)"
             id="g3578"><path
               inkscape:connector-curvature="0"
               id="path3580"
               style="fill:#00adef;fill-opacity:1;fill-rule:nonzero;stroke:none"
               d="m 0,0 c -0.564,-0.151 -1.176,-0.637 -1.507,-1.444 -0.33,-0.807 -0.235,-1.582 0.058,-2.085 0.364,-0.621 0.865,-1.121 4.143,-2.466 3.278,-1.344 3.961,-1.33 4.656,-1.143 0.565,0.152 1.201,0.627 1.532,1.434 0.33,0.807 0.212,1.592 -0.082,2.096 -0.364,0.62 -0.842,1.11 -4.12,2.455 C 1.402,0.192 0.694,0.187 0,0 m 12.855,-1.472 c 0.774,-1.849 0.861,-3.652 -0.039,-5.846 -0.9,-2.194 -2.227,-3.417 -4.076,-4.19 -2.666,-1.116 -5.157,-0.006 -7.855,1.101 -2.698,1.106 -5.25,2.064 -6.366,4.73 -0.774,1.851 -0.859,3.652 0.042,5.846 0.899,2.195 2.225,3.417 4.074,4.191 2.666,1.116 5.157,0.006 7.855,-1.101 2.698,-1.106 5.251,-2.065 6.365,-4.731" /></g><g
             transform="translate(157.6116,420.8766)"
             id="g3582"><path
               inkscape:connector-curvature="0"
               id="path3584"
               style="fill:#00adef;fill-opacity:1;fill-rule:nonzero;stroke:none"
               d="m 0,0 -11.288,0.83 7.649,-5.668 -2.723,-4.011 -15.501,11.674 2.508,3.331 11.533,-0.906 -7.794,5.869 2.869,3.812 L 2.755,3.256 0,0 z" /></g><g
             transform="translate(162.4523,426.0678)"
             id="g3586"><path
               inkscape:connector-curvature="0"
               id="path3588"
               style="fill:#fff200;fill-opacity:1;fill-rule:nonzero;stroke:none"
               d="m 0,0 -2.318,2.893 -1.357,13.585 -5.55,-4.45 -2.66,3.317 10.014,8.031 2.32,-2.892 L 1.785,6.881 7.761,11.697 10.42,8.379 0,0 z" /></g><g
             transform="translate(175.4665,436.1054)"
             id="g3590"><path
               inkscape:connector-curvature="0"
               id="path3592"
               style="fill:#fff200;fill-opacity:1;fill-rule:nonzero;stroke:none"
               d="M 0,0 -8.382,17.501 3.514,23.2 5.35,19.366 -2.246,15.727 -0.843,12.802 5.646,15.91 7.482,12.075 0.993,8.968 2.465,5.895 10.061,9.533 11.898,5.699 0,0 z" /></g><g
             transform="translate(194.7449,458.9953)"
             id="g3594"><path
               inkscape:connector-curvature="0"
               id="path3596"
               style="fill:#fff200;fill-opacity:1;fill-rule:nonzero;stroke:none"
               d="m 0,0 -2.905,-0.581 0.856,-3.83 2.825,0.563 C 2.06,-3.588 2.619,-2.503 2.42,-1.513 2.22,-0.525 1.283,0.258 0,0 m 5.245,-14.099 -4.751,6.136 -1.69,-0.388 1.67,-6.711 -4.802,-1.239 -4.439,18.866 8.136,1.672 C 3.59,5.089 6.464,2.554 7.094,-0.571 7.617,-3.161 6.341,-5.116 4.995,-6.165 l 5.907,-7.308 -5.657,-0.626 z" /></g><g
             transform="translate(216.0528,459.5444)"
             id="g3598"><path
               inkscape:connector-curvature="0"
               id="path3600"
               style="fill:#fff200;fill-opacity:1;fill-rule:nonzero;stroke:none"
               d="m 0,0 c -0.338,0.477 -1.006,0.881 -1.876,0.911 -0.872,0.031 -1.566,-0.327 -1.937,-0.777 -0.454,-0.558 -0.75,-1.203 -0.875,-4.743 -0.12,-3.543 0.13,-4.178 0.546,-4.764 0.339,-0.475 1.004,-0.908 1.876,-0.939 0.872,-0.03 1.566,0.356 1.939,0.807 0.455,0.556 0.749,1.173 0.873,4.714 C 0.668,-1.249 0.417,-0.586 0,0 m 3.082,-12.569 c -1.462,-1.368 -3.125,-2.074 -5.495,-1.992 -2.369,0.082 -3.976,0.902 -5.344,2.367 -1.975,2.114 -1.798,4.835 -1.697,7.749 0.102,2.916 0.114,5.642 2.229,7.614 1.465,1.368 3.124,2.074 5.495,1.992 C 0.64,5.079 2.249,4.259 3.615,2.794 5.589,0.681 5.411,-2.042 5.311,-4.956 5.208,-7.871 5.197,-10.596 3.082,-12.569" /></g><g
             transform="translate(223.2449,444.3947)"
             id="g3602"><path
               inkscape:connector-curvature="0"
               id="path3604"
               style="fill:#00adef;fill-opacity:1;fill-rule:nonzero;stroke:none"
               d="M 0,0 4.035,18.727 8.698,17.712 4.657,-1.017 0,0 z" /></g><g
             transform="translate(241.2493,438.1156)"
             id="g3606"><path
               inkscape:connector-curvature="0"
               id="path3608"
               style="fill:#00adef;fill-opacity:1;fill-rule:nonzero;stroke:none"
               d="m 0,0 -1.697,11.446 -3.979,-8.912 -4.586,1.672 8.143,17.995 3.808,-1.7 1.696,-11.446 4.771,8.71 4.609,-1.941 L 3.798,-1.95 0,0 z" /></g><g
             transform="translate(247.8875,434.5458)"
             id="g3610"><path
               inkscape:connector-curvature="0"
               id="path3612"
               style="fill:#00adef;fill-opacity:1;fill-rule:nonzero;stroke:none"
               d="M 0,0 11.958,15.281 15.715,12.341 3.758,-2.941 0,0 z" /></g><g
             transform="translate(270.9276,434.312)"
             id="g3614"><path
               inkscape:connector-curvature="0"
               id="path3616"
               style="fill:#00adef;fill-opacity:1;fill-rule:nonzero;stroke:none"
               d="M 0,0 -11.077,-10.065 -14.394,-6.754 -3.347,3.394 -6.695,6.788 -3.669,9.772 6.973,-0.921 3.618,-3.691 0,0 z" /></g><g
             transform="translate(263.8589,419.458)"
             id="g3618"><path
               inkscape:connector-curvature="0"
               id="path3620"
               style="fill:#00adef;fill-opacity:1;fill-rule:nonzero;stroke:none"
               d="M 0,0 17.723,9.614 20.056,5.453 2.72,-3.835 0,0 z" /></g><g
             transform="translate(282.3823,411.3322)"
             id="g3622"><path
               inkscape:connector-curvature="0"
               id="path3624"
               style="fill:#00adef;fill-opacity:1;fill-rule:nonzero;stroke:none"
               d="M 0,0 -5.436,-0.538 -4.051,-3.619 0,0 z m -9.043,-8.222 1.884,1.827 -2.454,5.441 -2.704,-0.628 -2.203,4.038 20.422,2.353 1.51,-3.353 -14.729,-14.386 -1.726,4.708 z" /></g><g
             transform="translate(291.8336,395.0561)"
             id="g3626"><path
               inkscape:connector-curvature="0"
               id="path3628"
               style="fill:#00adef;fill-opacity:1;fill-rule:nonzero;stroke:none"
               d="m 0,0 -14.405,-4.027 -1.466,4.518 14.579,4.098 -1.288,4.59 4.091,1.15 L 5.378,-3.439 1.289,-4.59 0,0 z" /></g><g
             transform="translate(277.8897,384.749)"
             id="g3630"><path
               inkscape:connector-curvature="0"
               id="path3632"
               style="fill:#00adef;fill-opacity:1;fill-rule:nonzero;stroke:none"
               d="M 0,0 19.191,2.533 19.814,-2.541 0.54,-4.738 0,0 z" /></g><g
             transform="translate(277.8002,369.9443)"
             id="g3634"><path
               inkscape:connector-curvature="0"
               id="path3636"
               style="fill:#00adef;fill-opacity:1;fill-rule:nonzero;stroke:none"
               d="M 0,0 0.322,3.504 20.508,7.435 19.89,2.539 8.715,0.656 19.074,-3.898 18.449,-8.821 0,0 z" /></g><g
             transform="translate(276.7596,363.7857)"
             id="g3638"><path
               inkscape:connector-curvature="0"
               id="path3640"
               style="fill:#00adef;fill-opacity:1;fill-rule:nonzero;stroke:none"
               d="m 0,0 18.433,-6.033 -4.098,-12.532 -4.04,1.322 2.618,8 -3.08,1.01 -2.239,-6.835 -4.035,1.321 2.234,6.835 -3.237,1.059 -2.618,-8.001 -4.039,1.324 L 0,0 z" /></g><g
             transform="translate(144.1023,337.6202)"
             id="g3642"><path
               inkscape:connector-curvature="0"
               id="path3644"
               style="fill:#ffffff;fill-opacity:1;fill-rule:nonzero;stroke:none"
               d="M 0,0 -5.475,-3.139 -6.217,-1.845 -0.742,1.294 -1.735,3.025 -0.58,3.688 2.148,-1.07 0.993,-1.731 0,0 z" /></g><g
             transform="translate(148.0252,331.5528)"
             id="g3646"><path
               inkscape:connector-curvature="0"
               id="path3648"
               style="fill:#ffffff;fill-opacity:1;fill-rule:nonzero;stroke:none"
               d="m 0,0 -0.81,1.15 -1.651,-1.162 0.811,-1.151 c 0.377,-0.535 0.967,-0.645 1.449,-0.304 C 0.282,-1.128 0.378,-0.535 0,0 m -4.494,-4.585 1.634,2.977 -0.619,0.878 -2.493,-1.757 -0.86,1.22 6.251,4.404 1.725,-2.449 C 2.041,-0.585 1.704,-1.951 0.659,-2.688 -0.218,-3.306 -1.14,-3.154 -1.786,-2.703 l -1.712,-3.295 -0.996,1.413 z" /></g><g
             transform="translate(151.859,325.1454)"
             id="g3650"><path
               inkscape:connector-curvature="0"
               id="path3652"
               style="fill:#ffffff;fill-opacity:1;fill-rule:nonzero;stroke:none"
               d="M 0,0 -2.74,-1.077 -1.503,-2.519 0,0 z m -2.931,-4.862 0.733,1.223 -1.768,2.061 -1.328,-0.528 -1.014,1.181 7.614,2.866 0.762,-0.889 -3.986,-7.096 -1.013,1.182 z" /></g><g
             transform="translate(156.8404,321.1324)"
             id="g3654"><path
               inkscape:connector-curvature="0"
               id="path3656"
               style="fill:#ffffff;fill-opacity:1;fill-rule:nonzero;stroke:none"
               d="m 0,0 -1.309,-1.348 2.164,-2.102 -0.928,-0.955 -2.164,2.102 -2.162,-2.225 -1.07,1.039 5.327,5.483 L 3.469,-1.515 2.541,-2.47 0,0 z" /></g><g
             transform="translate(162.3509,316.1969)"
             id="g3658"><path
               inkscape:connector-curvature="0"
               id="path3660"
               style="fill:#ffffff;fill-opacity:1;fill-rule:nonzero;stroke:none"
               d="M 0,0 -1.166,-1.473 1.201,-3.346 0.375,-4.39 -1.992,-2.518 -3.918,-4.953 -5.088,-4.026 -0.345,1.971 3.606,-1.153 2.78,-2.198 0,0 z" /></g><g
             transform="translate(163.5201,307.4631)"
             id="g3662"><path
               inkscape:connector-curvature="0"
               id="path3664"
               style="fill:#ffffff;fill-opacity:1;fill-rule:nonzero;stroke:none"
               d="M 0,0 4.238,6.358 5.48,5.531 1.241,-0.827 0,0 z" /></g><g
             transform="translate(169.5641,303.6756)"
             id="g3666"><path
               inkscape:connector-curvature="0"
               id="path3668"
               style="fill:#ffffff;fill-opacity:1;fill-rule:nonzero;stroke:none"
               d="m 0,0 c -0.733,0.405 -1.188,1.001 -1.398,1.732 -0.302,1.05 0.18,1.876 0.82,3.032 0.64,1.155 1.084,2.001 2.135,2.303 0.73,0.21 1.476,0.14 2.209,-0.266 C 5.016,6.109 5.597,4.854 5.057,3.324 L 3.732,4.058 C 3.897,4.666 3.788,5.267 3.13,5.631 2.773,5.828 2.41,5.858 2.102,5.746 1.693,5.605 1.44,5.327 0.728,4.041 0.015,2.753 -0.086,2.393 0.011,1.969 0.079,1.65 0.298,1.358 0.655,1.16 1.312,0.795 1.879,1.022 2.307,1.484 L 3.631,0.751 C 2.621,-0.519 1.24,-0.687 0,0" /></g><g
             transform="translate(180.6219,298.6999)"
             id="g3670"><path
               inkscape:connector-curvature="0"
               id="path3672"
               style="fill:#ffffff;fill-opacity:1;fill-rule:nonzero;stroke:none"
               d="M 0,0 C -1.092,0.387 -1.84,0.913 -2.294,1.882 L -1.062,2.47 C -0.767,1.855 -0.204,1.484 0.464,1.248 1.294,0.955 1.85,1.111 2.053,1.688 2.143,1.94 2.147,2.178 2.046,2.374 1.95,2.555 1.814,2.682 1.498,2.852 L 0.671,3.28 C 0.086,3.59 -0.302,3.943 -0.515,4.371 -0.737,4.837 -0.744,5.363 -0.53,5.97 -0.076,7.255 1.194,7.819 2.752,7.268 3.743,6.917 4.376,6.421 4.782,5.606 L 3.58,5.04 C 3.279,5.636 2.754,5.889 2.278,6.058 1.53,6.323 1.019,6.037 0.844,5.541 0.779,5.359 0.772,5.145 0.874,4.95 0.969,4.769 1.162,4.576 1.441,4.431 L 2.248,4.009 C 2.874,3.686 3.224,3.356 3.427,2.966 3.683,2.466 3.669,1.879 3.444,1.241 2.95,-0.155 1.508,-0.532 0,0" /></g><g
             transform="translate(189.4734,301.7421)"
             id="g3674"><path
               inkscape:connector-curvature="0"
               id="path3676"
               style="fill:#ffffff;fill-opacity:1;fill-rule:nonzero;stroke:none"
               d="M 0,0 -1.6,-2.472 0.246,-2.924 0,0 z m 0.45,-5.66 -0.116,1.422 -2.639,0.645 -0.771,-1.205 -1.512,0.371 4.519,6.765 L 1.068,2.06 1.963,-6.03 0.45,-5.66 z" /></g><g
             transform="translate(195.6162,301.4459)"
             id="g3678"><path
               inkscape:connector-curvature="0"
               id="path3680"
               style="fill:#ffffff;fill-opacity:1;fill-rule:nonzero;stroke:none"
               d="M 0,0 -0.274,-1.859 2.71,-2.3 2.516,-3.618 -0.469,-3.176 -0.923,-6.246 -2.399,-6.028 -1.281,1.535 3.7,0.798 3.506,-0.518 0,0 z" /></g><g
             transform="translate(201.2101,294.4041)"
             id="g3682"><path
               inkscape:connector-curvature="0"
               id="path3684"
               style="fill:#ffffff;fill-opacity:1;fill-rule:nonzero;stroke:none"
               d="M 0,0 0.399,7.631 5.425,7.368 5.355,6.039 1.819,6.224 1.725,4.434 4.737,4.277 4.667,2.947 1.656,3.104 1.559,1.25 5.096,1.067 5.027,-0.263 0,0 z" /></g><g
             transform="translate(212.1481,300.5395)"
             id="g3686"><path
               inkscape:connector-curvature="0"
               id="path3688"
               style="fill:#ffffff;fill-opacity:1;fill-rule:nonzero;stroke:none"
               d="m 0,0 0.184,-6.31 -1.491,-0.044 -0.185,6.31 -1.996,-0.058 -0.038,1.33 L 1.957,1.389 1.996,0.059 0,0 z" /></g><g
             transform="translate(219.8367,297.9053)"
             id="g3690"><path
               inkscape:connector-curvature="0"
               id="path3692"
               style="fill:#ffffff;fill-opacity:1;fill-rule:nonzero;stroke:none"
               d="M 0,0 0.319,-3.117 -1.155,-3.269 -1.474,-0.15 -4.217,4.1 -2.605,4.264 -0.871,1.346 0.213,4.553 1.825,4.718 0,0 z" /></g><g
             transform="translate(231.423,300.0054)"
             id="g3694"><path
               inkscape:connector-curvature="0"
               id="path3696"
               style="fill:#ffffff;fill-opacity:1;fill-rule:nonzero;stroke:none"
               d="m 0,0 -1.514,-0.362 0.437,-1.828 1.514,0.362 c 0.658,0.157 0.872,0.65 0.751,1.152 C 1.069,-0.175 0.659,0.157 0,0 m -0.816,2.996 -1.421,-0.34 0.41,-1.713 1.421,0.34 C 0.21,1.43 0.472,1.858 0.35,2.369 0.227,2.88 -0.2,3.143 -0.816,2.996 m 1.709,-6.084 -3.112,-0.744 -1.78,7.436 2.988,0.715 C 0.44,4.665 1.482,4.053 1.786,2.779 1.984,1.954 1.569,1.292 1.235,1.024 1.734,0.923 2.42,0.59 2.658,-0.403 2.99,-1.791 2.22,-2.771 0.893,-3.088" /></g><g
             transform="translate(239.2325,302.2404)"
             id="g3698"><path
               inkscape:connector-curvature="0"
               id="path3700"
               style="fill:#ffffff;fill-opacity:1;fill-rule:nonzero;stroke:none"
               d="M 0,0 1.016,-2.965 -0.385,-3.446 -1.402,-0.48 -5.038,3.041 -3.504,3.567 -1.153,1.115 -0.822,4.486 0.712,5.012 0,0 z" /></g><g
             transform="translate(250.5897,303.7069)"
             id="g3702"><path
               inkscape:connector-curvature="0"
               id="path3704"
               style="fill:#ffffff;fill-opacity:1;fill-rule:nonzero;stroke:none"
               d="m 0,0 c -1.025,-0.54 -1.917,-0.733 -2.938,-0.411 l 0.403,1.306 C -1.882,0.694 -1.229,0.856 -0.602,1.187 0.175,1.598 0.438,2.113 0.152,2.654 0.027,2.891 -0.144,3.055 -0.356,3.113 -0.555,3.166 -0.742,3.153 -1.08,3.034 L -1.956,2.717 C -2.581,2.497 -3.102,2.452 -3.561,2.586 -4.054,2.739 -4.446,3.09 -4.747,3.659 c -0.636,1.205 -0.189,2.52 1.271,3.292 0.929,0.491 1.724,0.619 2.599,0.365 l -0.4,-1.267 C -1.918,6.232 -2.462,6.019 -2.907,5.783 -3.609,5.412 -3.745,4.842 -3.5,4.378 -3.41,4.206 -3.258,4.056 -3.045,3.999 -2.848,3.946 -2.574,3.957 -2.279,4.063 l 0.857,0.308 C -0.76,4.611 -0.28,4.646 0.144,4.53 0.685,4.38 1.107,3.971 1.423,3.373 2.114,2.064 1.414,0.747 0,0" /></g><g
             transform="translate(261.1111,310.4293)"
             id="g3706"><path
               inkscape:connector-curvature="0"
               id="path3708"
               style="fill:#ffffff;fill-opacity:1;fill-rule:nonzero;stroke:none"
               d="m 0,0 -1.017,-0.719 -3.826,2.974 1.53,-4.597 -1.018,-0.72 -6.079,5.064 1.272,0.898 3.747,-3.254 -1.644,4.741 0.912,0.645 L -2.2,1.902 -4.011,6.526 -2.74,7.425 0,0 z" /></g><g
             transform="translate(264.7645,313.4178)"
             id="g3710"><path
               inkscape:connector-curvature="0"
               id="path3712"
               style="fill:#ffffff;fill-opacity:1;fill-rule:nonzero;stroke:none"
               d="M 0,0 -5.19,5.608 -1.496,9.028 -0.591,8.052 -3.192,5.645 -1.974,4.33 0.239,6.379 1.143,5.402 -1.07,3.353 0.191,1.99 2.791,4.396 3.695,3.419 0,0 z" /></g><g
             transform="translate(268.6924,325.7682)"
             id="g3714"><path
               inkscape:connector-curvature="0"
               id="path3716"
               style="fill:#ffffff;fill-opacity:1;fill-rule:nonzero;stroke:none"
               d="m 0,0 c -0.405,0.009 -0.752,-0.145 -1.089,-0.534 l -0.738,-0.853 3.769,-3.263 0.739,0.853 c 0.337,0.39 0.44,0.755 0.373,1.154 C 2.977,-2.206 2.59,-1.815 1.713,-1.057 0.836,-0.297 0.442,-0.013 0,0 M 4.549,-2.558 C 4.599,-3.27 4.298,-3.962 3.779,-4.563 l -1.807,-2.088 -5.784,5.006 1.807,2.088 c 0.52,0.6 1.161,0.998 1.874,1.049 1.213,0.087 1.953,-0.667 2.822,-1.42 0.868,-0.751 1.77,-1.418 1.858,-2.63" /></g><g
             transform="translate(275.8881,325.3978)"
             id="g3718"><path
               inkscape:connector-curvature="0"
               id="path3720"
               style="fill:#ffffff;fill-opacity:1;fill-rule:nonzero;stroke:none"
               d="M 0,0 -6.251,4.404 -3.35,8.522 -2.261,7.754 -4.302,4.857 -2.836,3.824 -1.098,6.292 -0.01,5.524 -1.748,3.056 -0.228,1.987 1.812,4.884 2.901,4.118 0,0 z" /></g><g
             transform="translate(282.4879,335.7573)"
             id="g3722"><path
               inkscape:connector-curvature="0"
               id="path3724"
               style="fill:#ffffff;fill-opacity:1;fill-rule:nonzero;stroke:none"
               d="m 0,0 -5.578,-0.328 4.087,-2.309 -0.734,-1.3 -6.659,3.762 0.655,1.159 5.568,0.334 -4.078,2.303 0.735,1.3 L 0.654,1.16 0,0 z" /></g></g></g></g></g></svg>