<?xml version="1.0" encoding="UTF-8" standalone="no"?>
<!-- Created with Inkscape (http://www.inkscape.org/) -->

<svg
   xmlns:dc="http://purl.org/dc/elements/1.1/"
   xmlns:cc="http://creativecommons.org/ns#"
   xmlns:rdf="http://www.w3.org/1999/02/22-rdf-syntax-ns#"
   xmlns:svg="http://www.w3.org/2000/svg"
   xmlns="http://www.w3.org/2000/svg"
   xmlns:sodipodi="http://sodipodi.sourceforge.net/DTD/sodipodi-0.dtd"
   xmlns:inkscape="http://www.inkscape.org/namespaces/inkscape"
   width="92.500099mm"
   height="83.12162mm"
   viewBox="0 0 92.500099 83.12162"
   version="1.1"
   id="svg8129"
   inkscape:version="0.92.0 unknown"
   sodipodi:docname="vulnerable-road-users.svg"
   inkscape:export-filename="/home/hsevay/workspace2/trakayad/website/trakayad.org/presentations/road-traffic-safety-policies-in-north-cyprus/images/vulnerable-road-users.png"
   inkscape:export-xdpi="360"
   inkscape:export-ydpi="360">
  <defs
     id="defs8123">
    <clipPath
       clipPathUnits="userSpaceOnUse"
       id="clipPath7217">
      <path
         d="M 0,0 H 595.276 V 841.89 H 0 Z"
         id="path7215"
         inkscape:connector-curvature="0" />
    </clipPath>
    <clipPath
       clipPathUnits="userSpaceOnUse"
       id="clipPath7183">
      <path
         d="M 0,0 H 595.276 V 841.89 H 0 Z"
         id="path7181"
         inkscape:connector-curvature="0" />
    </clipPath>
  </defs>
  <sodipodi:namedview
     id="base"
     pagecolor="#ffffff"
     bordercolor="#666666"
     borderopacity="1.0"
     inkscape:pageopacity="0.0"
     inkscape:pageshadow="2"
     inkscape:zoom="2.8284271"
     inkscape:cx="200.59125"
     inkscape:cy="174.4716"
     inkscape:document-units="mm"
     inkscape:current-layer="layer1"
     showgrid="false"
     inkscape:window-width="1920"
     inkscape:window-height="1056"
     inkscape:window-x="0"
     inkscape:window-y="24"
     inkscape:window-maximized="1"
     fit-margin-top="0"
     fit-margin-left="0"
     fit-margin-right="0"
     fit-margin-bottom="0" />
  <metadata
     id="metadata8126">
    <rdf:RDF>
      <cc:Work
         rdf:about="">
        <dc:format>image/svg+xml</dc:format>
        <dc:type
           rdf:resource="http://purl.org/dc/dcmitype/StillImage" />
        <dc:title></dc:title>
      </cc:Work>
    </rdf:RDF>
  </metadata>
  <g
     inkscape:label="Layer 1"
     inkscape:groupmode="layer"
     id="layer1"
     transform="translate(51.541716,-77.672882)">
    <path
       d="m 40.958381,132.46837 h -92.500095 v 26.36379 h 92.500095 z"
       style="fill:#007f33;fill-opacity:1;fill-rule:nonzero;stroke:none;stroke-width:0.35277775"
       id="path7209"
       inkscape:connector-curvature="0" />
    <g
       id="g9668"
       transform="translate(-0.52865731)">
      <g
         transform="translate(-4.7625002,4.7625002)"
         id="g9618">
        <g
           id="g7201"
           transform="matrix(0.35277777,0,0,-0.35277777,-31.010577,105.01475)">
          <path
             d="m 0,0 c -14.816,0 -26.869,12.054 -26.869,26.869 0,14.816 12.053,26.869 26.869,26.869 14.816,0 26.869,-12.053 26.869,-26.869 C 26.869,12.054 14.816,0 0,0"
             style="fill:#00aaca;fill-opacity:1;fill-rule:nonzero;stroke:none"
             id="path7203"
             inkscape:connector-curvature="0" />
        </g>
        <g
           id="g7205"
           transform="matrix(0.35277777,0,0,-0.35277777,-31.010753,86.196528)">
          <path
             d="m 0,0 c 14.598,0 26.475,-11.876 26.475,-26.473 0,-14.598 -11.877,-26.474 -26.475,-26.474 -14.597,0 -26.474,11.876 -26.474,26.474 C -26.474,-11.876 -14.597,0 0,0 m 0,0.79 c -15.057,0 -27.263,-12.206 -27.263,-27.263 0,-15.058 12.206,-27.265 27.263,-27.265 15.056,0 27.264,12.207 27.264,27.265 C 27.264,-11.416 15.056,0.79 0,0.79"
             style="fill:#ffffff;fill-opacity:1;fill-rule:nonzero;stroke:none"
             id="path7207"
             inkscape:connector-curvature="0" />
        </g>
        <text
           xml:space="preserve"
           style="font-style:normal;font-variant:normal;font-weight:normal;font-stretch:normal;font-size:8.46666622px;line-height:6.61458302px;font-family:'Gravur Condensed CE';-inkscape-font-specification:'Gravur Condensed CE';letter-spacing:0px;word-spacing:0px;fill:#ffffff;fill-opacity:1;stroke:none;stroke-width:0.26458332px;stroke-linecap:butt;stroke-linejoin:miter;stroke-opacity:1"
           x="-37.980694"
           y="98.464989"
           id="text8799"><tspan
             sodipodi:role="line"
             id="tspan8797"
             x="-37.980694"
             y="98.464989"
             style="font-style:normal;font-variant:normal;font-weight:bold;font-stretch:normal;font-size:8.46666622px;font-family:'Gravur Condensed CE';-inkscape-font-specification:'Gravur Condensed CE Bold';fill:#ffffff;stroke-width:0.26458332px">23<tspan
   style="font-style:normal;font-variant:normal;font-weight:normal;font-stretch:normal;font-family:'Gravur Condensed CE';-inkscape-font-specification:'Gravur Condensed CE'"
   id="tspan8834">%</tspan></tspan></text>
      </g>
      <g
         transform="translate(-3.9563485,1.9407365)"
         id="g9627">
        <g
           id="g7185"
           transform="matrix(0.35277777,0,0,-0.35277777,-0.8066615,107.83634)">
          <path
             d="m 0,0 c -14.816,0 -26.869,12.053 -26.869,26.869 0,14.815 12.053,26.868 26.869,26.868 14.815,0 26.868,-12.053 26.868,-26.868 C 26.868,12.053 14.815,0 0,0"
             style="fill:#00aaca;fill-opacity:1;fill-rule:nonzero;stroke:none"
             id="path7187"
             inkscape:connector-curvature="0" />
        </g>
        <g
           id="g7189"
           transform="matrix(0.35277777,0,0,-0.35277777,-0.8066615,89.018468)">
          <path
             d="m 0,0 c 14.597,0 26.473,-11.876 26.473,-26.473 0,-14.598 -11.876,-26.474 -26.473,-26.474 -14.598,0 -26.474,11.876 -26.474,26.474 C -26.474,-11.876 -14.598,0 0,0 m 0,0.79 c -15.057,0 -27.264,-12.206 -27.264,-27.263 0,-15.057 12.207,-27.264 27.264,-27.264 15.057,0 27.263,12.207 27.263,27.264 C 27.263,-11.416 15.057,0.79 0,0.79"
             style="fill:#ffffff;fill-opacity:1;fill-rule:nonzero;stroke:none"
             id="path7191"
             inkscape:connector-curvature="0" />
        </g>
        <text
           id="text8828"
           y="101.28675"
           x="-7.785223"
           style="font-style:normal;font-variant:normal;font-weight:normal;font-stretch:normal;font-size:8.46666622px;line-height:6.61458302px;font-family:'Gravur Condensed CE';-inkscape-font-specification:'Gravur Condensed CE';letter-spacing:0px;word-spacing:0px;fill:#ffffff;fill-opacity:1;stroke:none;stroke-width:0.26458332px;stroke-linecap:butt;stroke-linejoin:miter;stroke-opacity:1"
           xml:space="preserve"><tspan
             style="font-size:8.46666622px;fill:#ffffff;stroke-width:0.26458332px"
             y="101.28675"
             x="-7.785223"
             id="tspan8826"
             sodipodi:role="line"><tspan
   style="font-style:normal;font-variant:normal;font-weight:bold;font-stretch:normal;font-family:'Gravur Condensed CE';-inkscape-font-specification:'Gravur Condensed CE Bold'"
   id="tspan8836">22</tspan>%</tspan></text>
      </g>
      <g
         transform="translate(-4.7624994,-4.4306067)"
         id="g9636">
        <g
           id="g7193"
           transform="matrix(0.35277777,0,0,-0.35277777,31.009378,114.20786)">
          <path
             d="m 0,0 c -14.816,0 -26.869,12.054 -26.869,26.869 0,14.816 12.053,26.869 26.869,26.869 14.816,0 26.869,-12.053 26.869,-26.869 C 26.869,12.054 14.816,0 0,0"
             style="fill:#00aaca;fill-opacity:1;fill-rule:nonzero;stroke:none"
             id="path7195"
             inkscape:connector-curvature="0" />
        </g>
        <g
           id="g7197"
           transform="matrix(0.35277777,0,0,-0.35277777,31.009378,95.389635)">
          <path
             d="m 0,0 c 14.598,0 26.474,-11.876 26.474,-26.473 0,-14.598 -11.876,-26.474 -26.474,-26.474 -14.598,0 -26.474,11.876 -26.474,26.474 C -26.474,-11.876 -14.598,0 0,0 m 0,0.79 c -15.057,0 -27.264,-12.206 -27.264,-27.263 0,-15.058 12.207,-27.265 27.264,-27.265 15.056,0 27.264,12.207 27.264,27.265 C 27.264,-11.416 15.056,0.79 0,0.79"
             style="fill:#ffffff;fill-opacity:1;fill-rule:nonzero;stroke:none"
             id="path7199"
             inkscape:connector-curvature="0" />
        </g>
        <text
           xml:space="preserve"
           style="font-style:normal;font-variant:normal;font-weight:normal;font-stretch:normal;font-size:8.46666622px;line-height:6.61458302px;font-family:'Gravur Condensed CE';-inkscape-font-specification:'Gravur Condensed CE';letter-spacing:0px;word-spacing:0px;fill:#ffffff;fill-opacity:1;stroke:none;stroke-width:0.26458332px;stroke-linecap:butt;stroke-linejoin:miter;stroke-opacity:1"
           x="26.023636"
           y="107.6581"
           id="text8832"><tspan
             sodipodi:role="line"
             id="tspan8830"
             x="26.023636"
             y="107.6581"
             style="font-size:8.46666622px;fill:#ffffff;stroke-width:0.26458332px"><tspan
   style="font-style:normal;font-variant:normal;font-weight:bold;font-stretch:normal;font-family:'Gravur Condensed CE';-inkscape-font-specification:'Gravur Condensed CE Bold'"
   id="tspan8838">4</tspan>%</tspan></text>
      </g>
    </g>
    <g
       transform="matrix(0.35277777,0,0,-0.35277777,-66.541472,289.22906)"
       id="g7211">
      <g
         id="g7213"
         clip-path="url(#clipPath7217)">
        <g
           id="g7219"
           transform="translate(127.3928,443.5747)">
          <path
             d="m 0,0 c 5.986,1.863 9.911,7.182 9.813,14.273 -0.804,5.784 -4.687,10.473 -10.36,12.077 0.412,0.12 1.337,0.235 1.661,0.583 0.06,0.052 -3.241,0.918 -3.593,0.966 -1.389,0.188 -2.83,0.244 -4.227,0.145 -1.188,-0.079 -2.801,-0.84 -3.746,-0.131 -0.693,0.529 -1.231,2.398 -1.622,3.165 -0.593,1.154 -1.186,2.311 -1.784,3.47 -0.229,0.455 0.721,1.831 1.303,1.837 1.089,0.018 1.175,0.106 2.154,-0.345 0.41,-0.414 2.616,-0.732 2.603,-0.065 1.019,-0.214 3.148,-1.448 4.01,-1.436 1.6,-0.42 3.198,-0.871 4.794,-1.313 0.76,-0.215 1.362,-0.569 0.951,0.436 -0.894,2.185 -3.322,3.511 -5.27,4.634 -0.918,0.524 -2.847,1.416 -3.007,2.262 -0.055,0.303 0.605,1.964 0.585,2.603 -0.014,0.612 -0.154,1.482 -0.487,2.021 -1.129,5.201 -7.248,8.505 -9.683,13.151 -0.703,-0.721 -3.752,-2.312 -3.198,-3.387 1.628,-1.223 3.898,-2.619 4.791,-4.477 0.924,-2.037 -0.434,-3.051 -1.592,-4.646 -0.275,-0.381 0.689,-1.147 0.927,-1.129 l 0.157,-0.155 0.109,0.16 c -0.515,-2.132 -1.401,-1.177 -2.287,-0.189 -0.267,0.294 -0.436,0.162 -0.72,0.765 -0.32,0.667 -0.56,-0.042 -1.095,0.112 -1.175,0.57 -2.403,0.553 -3.151,1.126 0.834,0.278 -0.451,-0.448 -0.435,-0.262 0.052,0.608 0.869,0.283 0.722,0.283 h -0.154 c 1.175,1.93 -1.479,2.416 -2.195,2.403 -0.512,-0.006 -0.408,-0.93 -0.408,-1.229 -0.752,0.564 -0.662,2.352 -0.674,3.145 -0.018,1.248 -0.56,2.934 -0.052,4.011 0.197,0.757 0.782,1.05 0.551,1.993 -0.135,0.557 -1.53,3.034 -2.232,2.562 -0.322,-0.218 0.084,-1.146 -0.274,-1.151 0.3,0.002 -1.341,-5.37 1.009,-4.118 0.02,-1.505 0.208,-2.793 0.046,-4.262 -0.59,0.382 -1.307,0.569 -2.053,0.454 -0.453,-0.07 -0.588,-0.114 -0.815,-0.164 l -0.561,-0.149 -1.042,-0.298 -2.002,-0.61 -1.938,-0.608 c -0.604,1.089 -1.06,2.415 -1.318,3.759 -0.192,0.989 -0.285,2.008 -0.274,2.993 0,0.063 0.008,0.114 0.012,0.173 0.129,0.616 0.228,1.141 0.288,1.62 0.196,-0.147 0.508,-0.329 0.646,-0.453 0.264,-0.291 0.792,-0.652 0.815,-0.584 -0.02,-0.009 -0.165,0.031 -0.126,-0.003 0.403,-0.34 0.66,-0.626 1.102,-0.942 0.116,-0.078 0.172,-0.129 0.306,-0.193 0.067,-0.035 0.107,-0.047 0.191,-0.073 0.086,-0.018 0.177,-0.024 0.286,0.006 0.105,0.028 0.196,0.09 0.159,0.073 l 0.045,0.011 0.056,0.02 c 0.04,0.007 0.078,0.023 0.119,0.035 0.154,0.058 0.306,0.182 0.392,0.336 0.089,0.153 0.111,0.32 0.114,0.475 0,0.077 -0.003,0.128 0,0.186 0,0.056 0.007,0.115 0.013,0.174 0.034,0.241 0.101,0.486 0.183,0.721 0.042,0.117 0.091,0.235 0.146,0.343 0.051,0.106 0.118,0.229 0.175,0.282 0.039,0.029 0.101,0.073 0.163,0.134 0.015,0.023 0.034,0.041 0.05,0.08 0.017,0.03 0.02,0.085 0.009,0.128 -0.026,0.076 -0.069,0.101 -0.092,0.128 -0.056,0.046 -0.09,0.068 -0.139,0.1 0.044,0.023 0.083,0.05 0.12,0.067 0.069,0.028 0.139,0.065 0.206,0.093 0.063,0.028 0.148,0.059 0.226,0.12 0.038,0.033 0.083,0.076 0.103,0.135 0.021,0.065 0.021,0.127 0.009,0.178 -0.014,0.062 -0.024,0.138 -0.038,0.213 l -0.062,0.44 -0.037,0.222 c -0.002,0.026 -0.005,0.046 -0.005,0.071 0.017,0.004 0.03,0.004 0.055,0.008 l 0.055,0.019 0.049,0.008 0.213,0.045 0.437,0.086 c 0.039,0.004 0.067,0.011 0.099,0.017 l 0.111,0.008 c 0.041,0.008 0.086,0.013 0.139,0.029 0.051,0.017 0.114,0.05 0.163,0.116 0.049,0.065 0.062,0.142 0.062,0.199 0,0.056 -0.013,0.104 -0.026,0.147 -0.027,0.092 -0.056,0.15 -0.079,0.224 -0.049,0.138 -0.1,0.275 -0.147,0.413 -0.092,0.281 -0.177,0.564 -0.254,0.842 -0.142,0.55 -0.263,1.122 -0.255,1.658 0.005,0.009 0.01,0.016 0.01,0.022 1.52,-0.57 3.279,-0.787 3.334,-0.512 -0.113,0.05 -1.331,1.173 -1.713,1.542 0.142,0.184 -0.119,0.951 -0.42,1.019 -0.018,0.06 -0.037,0.109 -0.064,0.162 0.025,0.002 0.093,0.192 0.093,0.192 l -0.15,0.829 c -0.034,0.006 -0.08,0.041 -0.114,0.049 -0.004,1.042 -2.768,5.818 -7.877,5.009 -5.262,-0.843 -5.862,-5.722 -5.77,-7.387 -0.401,-0.17 0.139,-1.148 0.45,-1.491 0.079,-0.086 0.335,-0.458 0.71,-0.921 -0.207,-0.059 -0.414,-0.126 -0.616,-0.222 -0.186,-0.088 -0.352,-0.19 -0.529,-0.279 -7.658,-2.884 -12.997,-9.06 -15.296,-13.52 0.228,-0.575 0.572,-1.023 0.978,-1.368 -0.022,-0.045 -0.044,-0.079 -0.065,-0.119 -0.569,-1.111 -1.087,-2.284 -1.514,-3.597 -0.295,-0.935 -0.554,-1.947 -0.69,-3.095 -1.464,2.051 -4.192,1.455 -6.471,1.596 -5.627,0.364 -10.633,2.769 -16.188,2.695 -1.395,-0.022 -1.126,-1.092 0.103,-1.318 0.595,-0.112 2.297,-0.429 2.696,-0.769 1.096,-0.941 0.063,-2.648 -0.328,-3.405 -0.606,0.147 -2.956,1.123 -3.405,0.589 -0.544,-0.004 0.613,-2.608 0.675,-2.911 0.449,0.195 0.993,0.113 0.804,-0.465 -0.852,-1.485 0.802,-1.372 1.613,-1.36 -0.681,-0.513 -1.307,-1.53 -1.777,-2.364 -0.025,-0.052 -1.127,-2.299 -0.922,-2.295 0.269,-0.262 1.015,-0.134 1.164,0.182 1.714,0.019 2.325,2.652 3.241,3.648 0.66,0.59 2.985,1.477 3.653,1.326 0.732,-0.356 1.677,-0.203 2.396,-0.68 0.983,-0.646 1.961,-1.297 2.94,-1.947 2.362,-1.566 4.722,-3.133 7.084,-4.699 -0.484,-1.309 -2.969,1.168 -3.674,1.652 -1.242,0.857 -2.479,1.702 -3.714,2.551 -0.312,0.715 -1.744,-0.515 -2.362,-0.967 -0.674,-0.499 -1.401,0.664 -1.567,-0.809 -0.143,-0.951 0.661,-0.884 0.418,-1.666 -0.081,-0.271 -0.185,-0.607 -0.306,-0.857 -0.488,-1.021 0.255,-1.496 1.034,-2.002 -2.047,-0.575 -3.231,-2.022 -5.004,-2.938 0.255,0.332 1.798,1.594 1.299,2.087 -0.833,0.823 -1.851,-0.283 -2.404,-0.826 -0.558,-0.55 -2.052,-1.271 -1.91,-2.206 -0.556,-0.571 -0.847,-1.363 -1.248,-2.033 -0.352,-0.097 -0.617,-0.311 -0.792,-0.646 -0.318,-0.851 0.144,-2.406 -0.219,-3.196 -0.857,-1.757 1.031,-0.163 1.38,0.021 -0.205,-0.431 -0.002,-0.481 -0.097,-0.797 -1.598,-5.79 2.073,-11.605 7.232,-14.215 -9.082,-4.094 -2.464,-2.904 -2.464,-3.618 0,-1.072 0.066,0 29.867,0 29.8,0 51.236,2.641 46.502,2.929 m -75.617,39.097 c 0.185,0.032 0.325,-0.02 0.428,-0.156 -0.537,-0.225 -1.852,-0.293 -2.343,0.179 0.539,1.572 0.813,2.151 2.476,1.677 -0.015,-0.023 -1.312,-1.712 -0.561,-1.7 m 64.824,-33.12 c 0.547,0.88 0.994,1.808 1.559,2.676 0.326,-0.547 0.865,-0.915 1.346,-1.311 -0.216,-0.186 -0.496,-0.501 -0.802,-0.808 0.355,0.299 0.718,0.552 1.066,0.653 -0.129,-0.975 -0.255,-1.956 -0.382,-2.93 -0.705,0.31 -1.336,0.674 -1.981,1.091 0.207,0.174 0.426,0.381 0.65,0.597 -0.526,-0.399 -1.058,-0.567 -1.456,0.032 m -2.991,5.267 c -0.139,0.465 -0.202,0.947 -0.178,1.433 -0.059,0.259 -0.007,0.579 -0.009,0.849 0.361,-0.066 2.798,-0.519 2.459,-1.344 -0.027,-0.069 -0.133,-0.147 -0.268,-0.219 0.12,0.037 0.228,0.075 0.323,0.111 0.355,-0.603 0.963,-0.786 1.187,-1.526 l -3.29,-0.253 c -0.327,0.52 -0.147,0.858 0.233,1.1 -0.198,-0.06 -0.364,-0.116 -0.457,-0.151 m 0.181,2.339 1.642,0.343 c 0.089,-0.289 0.042,-0.656 0.067,-0.956 -0.574,0.202 -1.138,0.41 -1.709,0.613 m 3.333,-3.142 c -1.436,-1.632 -2.497,-3.718 -3.288,-0.307 1.096,0.103 2.195,0.204 3.288,0.307 m -1.825,-2.253 c 0.644,0.715 1.289,1.437 1.936,2.153 0.097,-0.318 0.4,-1.198 0.757,-1.371 -0.381,-0.204 -0.823,-0.341 -1.28,-0.454 0.491,0.107 0.985,0.187 1.395,0.293 -0.378,-0.927 -1.111,-1.82 -1.665,-2.676 -0.551,0.262 -1.15,1.204 -1.458,1.676 0.339,0.31 0.84,0.49 1.369,0.622 -0.362,-0.08 -0.723,-0.156 -1.054,-0.243 m 2.561,2.797 c 0.163,-0.268 0.007,-0.397 0,0 m 0.1,0.32 c -0.332,0.348 0.384,0.201 0,0 m 0.505,-1.689 c -0.161,-0.105 -0.429,-0.01 0,0 m 0.431,-0.424 c -0.218,0.102 -0.218,0.205 -0.003,0.319 0.215,-0.104 0.215,-0.209 0.003,-0.319 m 0.139,1.384 c 0.191,0.08 0.253,0.062 0.111,-0.109 z M -8.537,8.341 C -8.788,8.087 -8.745,8.595 -8.758,8.606 -8.771,8.623 -8.305,8.347 -8.537,8.341 m 2.71,-0.066 C -5.831,8.397 -5.831,8.516 -5.834,8.644 -5.726,8.641 -5.619,8.595 -5.514,8.595 -5.587,8.442 -5.757,8.413 -5.827,8.275 M -5.813,7.156 -5.92,7.212 c 0.103,0.092 0.138,0.071 0.107,-0.056 m -0.025,1.808 c 0.163,0.179 0.318,0.16 0.322,-0.103 z M -5.945,9.065 C -5.963,9.191 -5.984,9.315 -6.007,9.438 -5.913,9.44 -5.789,9.29 -5.739,9.228 -5.786,9.151 -5.859,9.098 -5.945,9.065 M -5.909,6.36 C -5.675,6.285 -5.565,5.714 -5.502,5.105 -5.516,5.54 -5.506,5.97 -5.537,6.256 -5.005,6.133 -4.491,6.064 -3.941,6.071 -4.286,5.36 -4.332,4.34 -4.549,3.558 c -0.594,-0.135 -0.816,0.32 -0.904,0.915 0.023,-0.377 0.037,-0.707 0.058,-0.87 -0.864,0.068 -1.67,0.278 -2.453,0.655 0.319,0.389 1.485,2.248 1.939,2.102 m 0.583,0.061 C -5.54,6.526 -5.543,6.649 -5.329,6.793 -5.114,6.657 -5.112,6.534 -5.326,6.421 m 0.193,13.171 c 0.056,-0.099 0.11,-0.206 0.163,-0.312 -0.093,-0.079 -0.202,-0.08 -0.318,-0.008 -0.06,0.17 -0.007,0.275 0.155,0.32 m 0.45,-1.852 c 0.103,0.22 0.213,0.22 0.321,0.006 -0.101,-0.213 -0.21,-0.213 -0.321,-0.006 M -2.179,9.384 C -2.447,9.189 -2.748,9.062 -3.075,8.997 c 0.267,0.169 0.56,0.368 0.896,0.387 m -0.662,9.553 c 0.375,-0.134 0.171,-0.173 0,0 M -1.913,9.544 C -2.479,9.25 -1.961,9.652 -1.864,9.708 -1.856,9.647 -1.876,9.59 -1.913,9.544 m 0.06,-0.9 C -1.827,8.416 -2.004,8.282 -2.009,8.54 c 0.041,0.052 0.096,0.089 0.156,0.104 M -2.308,7.153 C -2.596,7.29 -2.596,7.415 -2.313,7.52 -2.098,7.415 -2.093,7.293 -2.308,7.153 M -2.838,7.092 C -2.625,6.983 -2.625,6.858 -2.831,6.72 -3.118,6.858 -3.118,6.982 -2.838,7.092 m -0.169,0.845 c -0.013,0.093 0.003,0.181 0.046,0.267 0.151,10e-4 0.248,-0.065 0.267,-0.208 z m 1.08,-1.522 c -0.006,-0.821 0.151,-1.99 -0.176,-2.607 -0.406,0.759 -0.748,1.555 -1.147,2.318 0.448,0.011 0.895,0.169 1.323,0.289 m -1.268,11.503 c -0.055,-0.063 -0.127,-0.1 -0.21,-0.104 -0.092,0.004 -0.163,0.037 -0.218,0.096 0.094,0.036 0.25,0.043 0.428,0.008 m -0.077,1.49 c 0.214,-0.103 0.216,-0.21 0.005,-0.315 -0.217,0.097 -0.22,0.205 -0.005,0.315 M -3.387,8.305 C -3.41,7.967 -3.774,7.875 -3.705,8.193 c 0.088,0.099 0.193,0.137 0.318,0.112 m 0.132,-1.75 C -3.281,6.46 -3.311,6.368 -3.363,6.286 l -0.162,0.372 c 0.11,0.018 0.198,-0.013 0.27,-0.103 M -3.461,6.126 C -3.187,6.103 -2.376,4.069 -2.21,3.751 -2.943,3.562 -3.685,3.508 -4.438,3.558 c 0.134,0.518 0.321,2.625 0.977,2.568 m -0.593,0.843 c 0.209,-0.136 0.21,-0.26 0.002,-0.374 -0.214,0.109 -0.217,0.235 -0.002,0.374 M -6.231,6.515 C -6.831,5.883 -7.279,5.128 -7.85,4.473 -7.741,5.34 -7.624,6.212 -7.513,7.082 -7.125,6.809 -6.701,6.619 -6.231,6.515 M -7.358,7.294 C -7.22,7.508 -7.096,7.511 -6.985,7.299 -7.09,7.086 -7.215,7.086 -7.358,7.294 m 0.795,0.118 C -6.598,7.444 -5.9,7.103 -6.342,7.096 -6.598,7.13 -6.672,7.232 -6.563,7.412 m -0.011,0.797 c 0.083,-0.077 0.063,-0.381 0,0 M -6.96,9.425 c 0.576,0.292 0.928,0.207 0.908,-0.413 -0.352,0.033 -0.649,0.17 -0.908,0.413 m -0.271,0.103 c -0.019,0.273 0.067,0.574 0.099,0.852 0.183,-0.267 0.417,-0.471 0.697,-0.63 C -6.614,9.652 -6.96,9.555 -7.231,9.528 m -0.106,0.104 c -0.702,0.458 -1.141,1.043 -0.014,1.064 0.131,-0.355 0.203,-0.653 0.014,-1.064 M -1.65,9.073 c 0.321,-0.249 0.231,-0.179 0,0 m 0.093,-2.284 c -0.117,0 -0.248,0.264 -0.113,0.264 0.066,-0.136 0.339,-0.223 0.113,-0.264 m 0.46,0.961 C -1.231,7.536 -1.353,7.533 -1.465,7.747 c 0.1,0.283 0.223,0.283 0.368,0.003 m -0.224,1.276 c -0.115,0.117 -0.273,0.055 -0.219,0.207 0.131,0.011 0.378,-0.207 0.219,-0.207 m -0.293,9.66 c 0.3,0.333 0.21,-0.157 0.265,-0.208 -0.083,0.072 -0.449,0.017 -0.265,0.208 m 0.119,-1.004 -0.003,0.206 0.056,-0.048 c 0.093,-0.092 0.075,-0.142 -0.053,-0.158 m 0.1,-7.541 C -1.377,9.919 -1.534,9.847 -1.706,9.658 l -0.001,0.155 c 0.105,0.11 0.206,0.218 0.312,0.328 M -1.581,8.543 c 0,-0.121 -0.114,-0.202 -0.21,-0.213 -0.056,0.274 -0.045,0.468 0.21,0.213 M -1.788,3.862 C -1.827,6.901 -1.636,6.95 0.592,4.908 -0.196,4.426 -0.883,4.105 -1.788,3.862 m 0.655,2.829 c 0.394,0.24 0.936,0.47 1.265,0.811 C 0.441,6.734 0.784,5.977 1.008,5.176 0.361,4.742 -0.617,6.201 -1.133,6.691 m 1.846,4.857 c -0.066,0.105 -0.32,-0.07 -0.323,0.154 -0.007,0.71 0.42,-0.305 0.323,-0.154 M 0.645,12.77 c 0.347,-0.083 0.002,-0.147 0,0 M -0.13,10.902 c -0.066,-0.023 -0.106,0.015 -0.108,0.099 0.108,0.023 0.197,-0.013 0.267,-0.097 z m -0.214,0.419 c -0.045,-0.159 -0.083,-0.144 -0.109,0.052 z m -0.197,2.704 0.103,0.005 c 0.286,0.036 0.11,-0.082 0.001,-0.161 z m 0.107,-0.315 c 0.616,0.645 0.824,-0.322 0.119,-0.583 0.012,0.165 0.004,0.464 -0.119,0.583 m 0.344,2.239 0.107,0.158 C 0.08,15.973 0.147,15.826 -0.09,15.949 M 0.229,7.979 C 0.255,7.909 0.237,7.855 0.181,7.819 L 0.017,8.081 C 0.114,8.116 0.183,8.078 0.229,7.979 M 0.17,8.62 C 0.272,8.835 0.396,8.835 0.541,8.624 0.4,8.406 0.279,8.406 0.17,8.62 M 0.317,9.256 C 0.454,9.474 0.579,9.475 0.693,9.261 0.592,8.973 0.466,8.972 0.317,9.256 m -0.092,3.027 c 0.1,0.286 0.223,0.29 0.371,0.004 C 0.46,12.074 0.337,12.074 0.225,12.283 m 0.386,-1.057 c 0.002,-0.322 -0.339,-0.238 0,0 m -0.088,2.445 c -0.082,0.03 -0.114,0.084 -0.103,0.16 l 0.213,-0.057 c -0.04,-0.03 -0.072,-0.066 -0.11,-0.103 m -1.178,4.764 2.371,1.577 C 1.3,19.116 0.888,18.226 0.478,17.33 c -0.359,0.344 -0.714,0.837 -1.133,1.105 m -0.056,-3.933 c 0.782,1.372 0.928,-1.232 0,0 M -0.568,8.025 C -0.35,7.922 -0.348,7.814 -0.564,7.707 -0.779,7.809 -0.781,7.918 -0.568,8.025 M 1.174,5.231 C 1.015,5.459 -0.107,8.158 0.631,7.756 1.349,7.369 2.072,6.976 2.796,6.585 2.338,6.115 1.76,5.534 1.174,5.231 M 2.848,6.688 C 2.302,6.679 1.175,7.633 0.655,7.937 1.038,8.269 1.355,8.665 1.596,9.115 1.71,8.903 3.68,6.698 2.848,6.688 M 2.179,13.27 C 2.393,13.16 2.393,13.039 2.182,12.896 1.897,13.033 1.895,13.16 2.179,13.27 M 1.991,15.229 C 2.911,15.241 3.833,15.194 4.752,15.213 3.98,14.798 3.206,14.38 2.431,13.959 2.333,14.418 2.202,14.813 1.991,15.229 M 2.047,11.036 C 1.833,11.167 1.831,11.29 2.041,11.407 2.33,11.308 2.331,11.186 2.047,11.036 m -0.062,0.843 c -0.107,-0.28 -0.211,-0.282 -0.32,-0.002 0.101,0.215 0.207,0.219 0.32,0.002 m -0.2,-1.223 C 1.656,10.441 1.528,10.441 1.417,10.652 1.515,10.94 1.637,10.94 1.785,10.656 M 1.484,9.38 c -0.139,0.311 -0.106,0.24 0,0 M 1.436,9.271 C 1.27,9.246 1.186,9.309 1.217,9.485 1.257,9.498 1.355,9.394 1.436,9.271 M 0.94,10.395 c 0.018,0.002 0.296,1.934 0.322,0.006 0,0 -0.261,-0.004 -0.322,-0.006 m 0.046,4.235 c 0.011,-0.543 -0.258,-0.004 0,0 M 3.267,7.12 C 3.086,7.296 1.048,9.762 2.023,9.639 2.87,9.53 3.721,9.422 4.565,9.315 4.283,8.516 3.833,7.75 3.267,7.12 M 1.957,9.809 C 2.01,10.2 2.259,10.742 2.421,11.094 3.045,10.496 3.954,10.083 4.671,9.58 4.058,9.394 2.761,9.709 1.957,9.809 M 4.719,9.688 c -0.627,0.622 -2.158,0.978 -2.204,1.884 0.943,0.062 1.879,0.13 2.817,0.199 -0.169,-0.7 -0.352,-1.41 -0.613,-2.083 m 0.649,3.147 c -0.157,0 -0.639,0.05 -1.158,0.146 0.509,-0.134 0.953,-0.319 1.113,-0.629 -0.116,-0.846 -1.951,-0.607 -2.81,-0.62 0.053,0.378 0.177,1.214 -0.02,1.591 0.286,-0.071 0.665,-0.129 1.054,-0.2 -0.802,0.206 -1.409,0.518 -0.711,0.901 0.747,0.407 1.511,0.895 2.292,1.193 0.095,-0.796 0.23,-1.58 0.24,-2.382 M 5.067,15.43 C 4.009,15.413 2.852,15.316 1.831,15.492 2.638,16.173 3.437,16.861 4.242,17.544 4.497,16.818 4.909,16.19 5.067,15.43 M 3.646,18.495 C 3.314,18.324 2.953,18.157 2.59,17.993 c 0.613,0.224 1.172,0.328 1.386,0.024 0.326,-0.762 -1.594,-1.813 -2.258,-2.37 -0.343,0.502 -0.735,0.972 -1.079,1.479 0.255,0.098 0.666,0.307 1.117,0.52 C 1.339,17.48 0.926,17.333 0.53,17.226 l 1.341,2.89 c 0.533,-0.104 1.486,-0.948 1.775,-1.621 m -4.114,2.276 c 0.114,0.39 0.215,0.725 0.245,0.858 0.713,-0.342 1.565,-0.674 2.094,-1.3 -0.379,-0.308 -2.39,-1.948 -2.717,-1.74 -0.094,0.064 -0.063,0.387 0.018,0.79 -0.083,-0.263 -0.161,-0.504 -0.201,-0.684 -0.517,0.336 -0.945,0.541 -1.552,0.723 l 1.509,2.515 c 0.594,-0.064 0.684,-0.558 0.604,-1.162 m -0.764,1.212 c -0.194,-0.193 -1.641,-2.932 -1.747,-2.337 -0.16,0.947 -0.33,1.893 -0.492,2.84 0.732,-0.061 1.556,-0.208 2.239,-0.503 M -3.06,19.572 c -0.495,0.073 -0.992,0.199 -1.491,0.188 l 0.973,2.726 c 0.173,-0.974 0.348,-1.942 0.518,-2.914 m -0.677,2.911 c -0.101,-0.202 -0.998,-3.455 -1.396,-2.617 -0.383,0.81 -0.764,1.612 -1.15,2.422 0.811,0.243 1.711,0.284 2.546,0.195 m -3.182,-0.364 c 0.876,0.22 1.324,-1.574 1.732,-2.365 -1.687,-0.361 -1.791,0.943 -1.732,2.365 m -0.162,0 c 0.021,-0.403 0.126,-0.877 0.075,-1.273 l -0.496,1.16 c 0.141,0.038 0.282,0.077 0.421,0.113 M -7.454,10.746 C -7.559,10.73 -7.8,10.713 -7.879,10.794 l 0.156,0.264 c 0.106,-0.088 0.19,-0.195 0.269,-0.312 m -0.38,0.369 c -0.382,-0.486 -0.902,-0.249 -0.475,0.043 0.156,0.004 0.314,-0.049 0.475,-0.043 m -0.916,1.08 0.319,0.004 c 0.012,0 -0.143,-0.003 -0.319,-0.004 m 0.128,6.237 c -0.058,0.144 -0.112,0.281 -0.166,0.424 0.141,-0.095 0.199,-0.232 0.166,-0.424 m -0.276,0.796 -0.333,1.057 c 0.307,-0.33 0.463,-0.744 0.333,-1.057 m -0.767,1.69 c 0.313,-0.884 0.623,-1.766 0.937,-2.647 -1.106,-0.081 -1.329,1.279 -1.726,2.051 0.19,0.236 0.54,0.407 0.789,0.596 m -1.207,-0.974 c 0.392,-0.285 0.291,-0.491 0.274,-0.743 -0.319,0.275 -0.51,0.202 -0.528,-0.215 -0.163,0.049 -0.296,0.157 -0.377,0.312 0.14,0.241 0.433,0.444 0.631,0.646 m 0.19,-2.336 -0.864,1.049 c 0.546,-0.212 1.038,-0.562 0.864,-1.049 m -1.629,-0.831 c -0.329,0.091 -0.617,0.187 -0.754,0.216 0.345,0.576 0.714,1.388 1.197,1.876 0.329,-0.324 1.515,-1.473 1.249,-2.057 10e-4,-0.31 -0.416,-0.314 -0.911,-0.22 0.209,-0.063 0.414,-0.122 0.598,-0.156 -0.537,-0.516 -0.255,-0.981 -0.246,-1.545 l -2.198,1.352 c 0.156,0.537 0.577,0.608 1.065,0.534 m 0.772,-2.473 c -0.486,-0.487 -1.748,-0.481 -2.387,-0.617 0.125,0.819 0.165,1.674 0.5,2.451 0.598,-0.59 2.62,-0.944 1.887,-1.834 m -2.381,15.161 c -0.182,0.123 -0.363,0.141 -0.534,0.048 -0.132,0.56 -0.263,1.126 -0.398,1.686 0.304,-0.584 0.637,-1.149 0.932,-1.734 m -5.317,15.702 c -0.521,0.099 -0.797,-0.067 -0.909,0.521 0.088,-0.019 1.366,-0.515 0.909,-0.521 m -2.399,-3.063 0.005,-0.477 c -0.354,0.064 -0.803,0.112 -1.223,0.146 l 0.146,0.906 c 0.068,-0.747 0.447,-1.02 1.072,-0.575 m -0.447,1.568 h -0.053 c 0.031,0 0.205,-0.34 -0.475,-0.552 -0.006,0.515 0.485,1.882 -0.392,1.873 -2.106,-0.03 -0.539,-0.102 -1.866,0.556 1.233,0.02 2.429,0.689 2.786,-1.877 m -3.282,1.893 c 0.103,-0.02 0.201,-0.051 0.283,-0.105 0.262,-0.496 2.183,-1.501 2.373,-0.602 -0.248,-0.945 -0.286,-2.01 -0.412,-2.985 l -0.429,0.1 c 0.901,1.248 -1.985,2.484 -2.692,2.837 h -0.025 c 0.352,0.192 0.659,0.446 0.902,0.755 m -22.754,-3.574 c 0.591,-0.276 1.119,-0.506 1.48,-0.625 1.119,1.699 3.861,4.483 5.646,6.231 0.037,0.014 0.071,0.035 0.102,0.055 0.146,-0.309 0.297,-0.621 0.461,-0.928 0.639,-1.199 1.441,-2.363 2.488,-3.421 -1.059,-0.75 -2.055,-1.593 -2.975,-2.507 -0.799,-0.793 -1.627,-1.632 -2.178,-2.623 -0.126,-0.228 -0.264,-0.301 -0.42,-0.327 -1.206,0.917 -2.441,1.794 -3.726,2.598 -0.815,0.406 -1.047,0.939 -0.878,1.547 m 9.558,-28.848 c -0.48,-0.026 -0.959,-0.049 -1.436,-0.075 0.415,0.523 0.766,0.278 1.436,0.075 m -1.649,-0.079 c -0.153,-0.011 -0.299,0 -0.213,0.157 z m -1.915,0.4 c -0.259,-0.293 -0.549,-0.36 -0.9,-0.223 0.041,0.243 0.203,0.479 0.417,0.642 0.074,-0.043 0.093,-0.116 0.058,-0.208 0.227,0.071 0.394,0.026 0.425,-0.211 m -2.132,0.237 c 0.004,-0.138 -0.171,-0.138 -0.264,-0.114 l 0.263,0.22 z m -3.881,-4.049 c 0.062,-0.074 0.13,-0.154 0.189,-0.231 -0.12,-0.044 -0.235,-0.084 -0.392,0.188 0.095,0.06 0.152,0.058 0.203,0.043 m -1.521,14.652 c 0.178,0.092 0.343,0.172 0,0 m 0.549,-1.052 c -0.07,-0.11 -0.14,-0.218 -0.21,-0.324 -0.045,0.188 -0.191,0.581 -0.536,0.578 0.176,0.171 0.474,0 0.746,-0.254 m 0.4,-13.966 c -0.294,-0.101 -0.648,-0.114 -0.951,-0.119 -0.461,-0.122 -0.902,-0.153 -0.911,0.254 -0.067,0.126 -0.348,-0.16 -0.187,0.025 0.499,0.483 0.537,0.052 0.771,-0.07 0.446,0.136 0.864,0.116 1.278,-0.09 m -0.757,9.833 c -0.003,-0.002 -0.003,-0.003 -0.007,-0.003 -0.082,-0.101 -0.166,-0.2 -0.249,-0.298 -0.303,-0.08 -0.52,-0.098 -0.768,0.325 0.351,0.068 0.699,0.063 1.024,-0.024 m -1.335,-0.301 c -0.225,0.027 -0.44,0.093 -0.64,0.206 0.318,-0.063 0.478,0.131 0.64,-0.206 m -0.903,-7.872 c -0.19,0.117 0.507,0.418 0.578,0.485 0.003,-0.254 0.436,-0.637 0.645,-0.735 -0.729,-0.078 -2.183,0.084 -2.809,-0.252 -1.431,-0.019 -1.329,0.128 -1.139,1.369 0.006,-0.021 0.491,-0.858 0.487,-0.578 -0.005,0.307 0.028,0.65 -0.012,0.957 l 0.323,-0.03 -0.149,-0.34 1.652,-0.162 c 0.176,-0.389 0.426,-0.897 0.424,-0.714 m 0.861,-1.317 c -0.163,-0.274 -0.495,-0.349 -0.84,-0.277 0.084,0.311 0.449,0.352 0.84,0.277 m -4.075,10.835 c 0.294,0.637 0.415,1.192 1.16,0.651 -0.335,-0.284 -0.759,-0.519 -1.16,-0.651 m 0.512,-2.225 c -0.073,0.434 0.156,0.561 0.577,0.487 0.055,-0.79 -0.242,-1.276 -0.577,-0.487 m -0.535,4.135 c 0.211,0.475 0.571,0.364 0.954,-0.037 -0.349,-0.362 -0.673,-0.354 -0.954,0.037 m 0.222,-0.688 c -0.287,-0.045 -0.321,0.182 -0.478,0.315 0.159,-0.104 0.318,-0.211 0.478,-0.315 m 0.095,-3.029 c -0.33,-0.567 -0.539,-0.321 -1.115,-0.33 0.134,0.212 0.648,0.351 1.115,0.33 m 1.453,-9.324 c -0.338,-0.361 -1.34,-0.443 -1.8,-0.45 0.027,0.825 1.318,0.925 1.8,0.45 m 1.289,18.13 c 0.005,-0.263 0.041,-0.702 -0.033,-0.956 l -0.911,0.359 c 0.246,0.433 0.409,0.681 0.944,0.597 m -1.13,-2.244 c -0.762,-0.394 -0.503,-0.011 -0.644,0.414 0.242,-0.15 0.242,-0.424 0.644,-0.414 m -0.452,-1.972 c -0.722,0.389 -1.415,0.603 -0.813,1.157 0.594,-0.157 0.957,-0.547 0.813,-1.157 m -0.945,2.905 c -0.071,-0.123 -0.139,-0.248 -0.21,-0.372 l -1.121,0.73 c 0.329,-0.044 0.861,-0.135 1.331,-0.358 m -1.427,-0.763 c 0.218,-0.067 0.536,-0.259 0.701,-0.411 -0.241,-0.561 -0.37,-0.282 -0.739,-0.17 0.009,0.193 0.027,0.389 0.038,0.581 M -60.703,8.434 c -0.375,-0.383 -0.704,-0.885 -0.994,-1.342 -0.395,0.615 -0.792,1.23 -1.189,1.842 0.357,-0.003 0.769,-0.021 1.161,-0.093 0.008,0.021 0.086,0.07 0.273,0.165 0.209,-0.034 0.312,0.179 0.479,-0.206 -0.193,0.098 -0.554,0.031 -0.694,0.024 0.362,-0.072 0.704,-0.186 0.964,-0.39 m 0.774,1.869 c -0.137,-0.611 -0.412,-1.007 -0.669,-1.553 -0.941,0.336 0.078,1.531 0.669,1.553 m -0.217,0.21 0.317,0.11 c -0.03,-0.196 -0.153,-0.196 -0.317,-0.11 m 0.107,15.777 c 0.927,-0.618 1.851,-1.236 2.774,-1.85 0.017,-0.012 2.021,-1.539 0.936,-1.551 -0.879,0.604 -4.622,2.41 -3.71,3.401 m -0.771,1.954 c 0.278,0.002 0.429,0.09 0.691,-0.146 -0.021,-0.007 -0.905,-0.073 -0.691,0.146 m 1.169,-0.512 c -0.261,-0.292 -0.005,0.639 0,0 m 3.336,-2.72 -3.268,2.188 0.525,0.216 c 0.796,-0.491 3.141,-1.305 2.743,-2.404 m -0.614,2.225 c -1.105,0.695 -3.376,1.54 -3.914,2.706 0.705,1.748 3.289,-2.068 3.914,-2.706 m -11.23,5.637 c 1.137,0.398 4.65,-2.626 5.836,-3.377 -1.157,-0.544 -4.695,2.632 -5.836,3.377 m 4.585,-1.374 c 0.761,-0.192 2.443,-0.142 1.768,-1.141 -0.587,0.381 -1.179,0.762 -1.768,1.141 m 1.846,-2.895 c -0.169,0.144 -0.093,0.285 -0.216,0.422 0.288,0.299 0.25,-0.122 0.216,-0.422 m 0.849,-11.941 -1.904,-0.502 c 0.394,0.722 1.5,1.683 1.904,0.502 m -0.145,-1.12 0.156,0.377 c -0.029,0 -2.385,-0.398 -2.225,-0.241 0.652,0.742 3.531,1.021 2.069,-0.136 m -2.033,-6.613 c 0.375,-0.104 1.011,-1.537 1.25,-1.897 -0.74,-0.858 -0.905,-0.943 -1.677,-0.265 -0.262,0.236 -1.288,0.803 -1.05,1.295 0.643,0.335 0.64,1.102 1.477,0.867 m -8.534,-1.175 c 0.323,-0.325 1.158,-0.666 1.552,-0.828 l -1.522,-1.453 c -1.117,0.301 -0.4,1.524 -0.03,2.281 m -0.773,-1.815 c -0.269,-0.003 -0.787,0.646 -0.968,0.785 0.524,0.304 1.055,0.611 1.581,0.922 -0.207,-0.575 -0.409,-1.138 -0.613,-1.707 m 0.475,4.038 c 0.055,0.126 0.105,0.253 0.153,0.376 0.121,-0.13 0.352,-0.477 0.489,-0.739 0.002,-0.133 -0.577,0.234 -0.642,0.363 m 0.663,-1.798 c -0.042,-0.045 -0.314,-0.355 -0.321,-0.104 -0.002,0.215 0.222,0.19 0.321,0.104 m -0.594,0.845 c 0.283,-0.141 0.287,-0.264 0.003,-0.37 -0.214,0.103 -0.214,0.227 -0.003,0.37 m 0.949,0.387 c 0.322,-0.157 0.581,-0.417 0.7,-0.734 -0.174,-0.026 -1.11,0.298 -0.7,0.734 m 0.6,-1.267 c -0.103,-0.214 -0.211,-0.214 -0.317,-0.005 0.098,0.282 0.208,0.282 0.317,0.005 m 1.977,-0.929 c 0.083,-0.011 0.255,-0.209 0.112,-0.212 -0.112,-0.07 -0.11,0.087 -0.112,0.212 m 0.004,-0.324 c -0.145,0.014 -0.342,0.32 -0.163,0.323 0.052,-0.108 0.11,-0.211 0.163,-0.323 m -0.228,1.171 c 0,0.105 -0.002,0.214 -0.003,0.319 0.159,0.004 0.316,0.005 0.477,0.005 0.049,-0.256 -0.103,-0.362 -0.474,-0.324 m -0.698,4.505 c 0.841,0.067 1.186,-0.432 1.399,-1.204 -0.791,-0.153 -1.495,0.298 -1.399,1.204 m 0.436,-4.458 0.102,0.057 c 0.102,-0.133 0.068,-0.15 -0.102,-0.057 m -0.103,-0.583 c -0.163,-0.061 -0.269,-0.013 -0.316,0.154 0.183,0.003 0.096,0.222 0.313,0.112 0,-0.093 0.003,-0.18 0.003,-0.266 m -0.265,0.64 c -0.296,0.075 -0.584,0.173 -0.861,0.3 0.475,0.43 0.534,-0.121 0.861,-0.3 M -69.72,7.36 c 0,-0.059 -0.049,-0.105 -0.048,-0.161 l -0.057,0.26 c 0.069,0.018 0.103,-0.015 0.105,-0.099 m -0.215,0.204 c 0.023,-0.139 0.04,-0.281 0.059,-0.423 -0.234,-0.006 -0.314,0.421 -0.059,0.423 m 0.118,-0.633 c 0.095,-0.727 0.194,-1.455 0.293,-2.174 -0.64,-0.008 -1.391,0.369 -1.924,0.66 0.516,0.518 1.06,1.123 1.631,1.514 m 0.054,-0.003 c 0.361,-0.239 1.141,-0.249 1.542,-0.243 l -1.04,-2.031 c -0.343,0.563 -0.384,1.519 -0.502,2.274 m 1.598,-0.56 c 0.169,-0.616 0.334,-1.232 0.502,-1.851 -0.449,-0.008 -0.934,0.018 -1.38,0.089 0.294,0.587 0.587,1.174 0.878,1.762 m 0.09,0.013 c -0.121,0.428 1.471,0.542 1.868,0.701 -0.075,-0.991 0.315,-2.491 -0.875,-2.506 -0.826,-0.063 -0.794,1.118 -0.993,1.805 m 3.401,1.204 c 0.24,-0.16 0.204,-1.839 0.239,-2.175 -0.571,0.545 -1.109,1.117 -1.67,1.676 0.658,0.006 0.843,0.893 1.431,0.499 m -1.383,0.088 c 0.155,0.362 0.105,0.249 0,0 m 0.884,1.23 c 0.104,0.286 0.226,0.288 0.375,0.004 -0.137,-0.215 -0.261,-0.217 -0.375,-0.004 m 0.017,-1.059 c -0.152,-0.154 -0.455,0.314 -0.164,0.316 0.088,-0.19 0.392,-0.091 0.164,-0.316 m -0.813,0.941 c 0.004,0.195 0.125,0.342 0.315,0.433 0.723,-0.115 -0.242,-0.468 -0.315,-0.433 m -0.589,8.76 c 0.551,0.504 0.436,0.08 0.688,-0.257 -0.232,0.085 -0.46,0.175 -0.688,0.257 m -0.675,-9.31 c 0.217,0.116 0.224,0.333 0.522,0.385 0.263,-0.25 -0.3,-0.705 -0.522,-0.385 m 0.332,-1.055 c -0.026,0.174 0.046,0.265 0.204,0.273 0.025,0.165 0.118,-0.908 -0.204,-0.273 m 0.131,9.991 c 0.103,0.213 0.231,0.215 0.37,0.002 -0.14,-0.284 -0.266,-0.286 -0.37,-0.002 m 0.049,0.426 c -0.18,0.046 -0.359,0.099 -0.538,0.149 0.25,0.023 0.499,0.044 0.746,0.063 z m -0.517,-9.092 c -0.004,-0.037 -0.202,-0.487 -0.209,-0.164 -0.006,0.13 0.079,0.171 0.209,0.164 m -0.144,-1.114 c -0.102,-0.288 -0.224,-0.292 -0.369,-0.009 0.133,0.218 0.259,0.22 0.369,0.009 m 1.335,-0.568 c 0.534,-0.524 1.077,-1.052 1.614,-1.57 -0.572,-0.355 -1.182,-0.554 -1.851,-0.562 0.078,0.711 0.157,1.417 0.237,2.132 m 1.531,0.608 c 0.538,-0.442 1.078,-0.873 1.61,-1.313 -0.347,-0.177 -0.934,-0.808 -1.368,-0.814 -0.08,0.709 -0.163,1.416 -0.242,2.127 m 0.246,1.753 c 0.124,-0.021 0.248,-0.033 0.37,-0.052 0.009,-0.484 -0.387,0.059 -0.37,0.052 m 0.223,6.694 -0.374,0.421 0.477,0.323 c 0.346,-0.222 0.214,-0.484 -0.103,-0.744 m -0.238,2.124 c -0.526,-0.405 -0.891,-0.807 -1.478,-0.768 -0.078,1.06 0.76,0.325 1.478,0.768 m -1.579,2.473 c -0.02,-1.899 0.246,-2.333 -1.503,-2.36 -0.464,-0.003 -0.18,3.13 1.503,2.36 m -1.113,0.301 c -0.294,-0.673 -0.587,-1.351 -0.879,-2.027 -0.344,0.669 -0.689,1.337 -1.037,2.002 0.527,0.076 1.38,0.197 1.916,0.025 m -1.037,-2.032 c -0.515,0.155 -0.449,-0.318 -0.893,-0.434 0.569,0.597 0.037,1.301 -0.544,0.523 l 0.4,1.867 c 0.345,-0.655 0.693,-1.307 1.037,-1.956 m -1.14,2.004 c -0.203,-0.631 -0.301,-1.323 -0.455,-1.968 -0.36,0.543 -0.72,1.086 -1.083,1.629 0.515,0.09 1.006,0.331 1.538,0.339 m -1.644,-0.339 c 0.292,-0.581 0.701,-1.163 1.087,-1.687 l -1.852,-0.607 c -0.483,1.618 -0.662,1.539 0.765,2.294 m -1.371,-0.655 c 0.016,-1.309 1.163,-2.375 -0.701,-1.441 -1.169,0.585 -0.161,0.979 0.701,1.441 m -1.333,-7.615 c -0.214,0.102 -0.219,0.23 -0.002,0.373 0.281,-0.143 0.283,-0.267 0.002,-0.373 m 0.458,5.42 c -0.132,0.256 -0.188,0.577 -0.273,0.85 1.127,-0.516 0.802,-0.552 1.239,-1.311 -0.293,0.029 -0.703,0.219 -0.966,0.461 m 0.926,-5.77 c -0.069,0.031 -0.138,0.061 -0.208,0.1 0.025,0.245 0.144,0.112 0.202,0.267 0.004,-0.122 0.006,-0.244 0.006,-0.367 m -0.633,-0.066 c 0.173,-0.166 -0.094,-0.444 -0.259,-0.269 0.084,0.094 0.173,0.18 0.259,0.269 m 0.069,-1.433 c 0.216,-0.136 0.219,-0.259 0.005,-0.368 -0.284,0.098 -0.288,0.222 -0.005,0.368 m 0.389,-0.949 c -0.011,-0.198 -0.371,-0.405 -0.372,-0.165 0.031,0.15 0.191,0.183 0.372,0.165 m -0.14,2.388 c 0.218,-0.19 0.332,-0.421 0.437,-0.789 -0.287,-0.085 -0.429,0.286 -0.437,0.789 m -0.773,5.936 -0.962,0.571 c 0.519,0.573 0.861,0.14 0.962,-0.571 m -2.161,-1.092 c 0.427,-0.345 0.86,-0.693 1.292,-1.038 l -1.553,0.611 c 0.086,0.144 0.175,0.284 0.261,0.427 m 1.587,-3.483 c -0.025,-0.249 -1.773,0.999 -1.984,1.145 0.642,-0.154 2.057,-0.418 1.984,-1.145 m -2.139,1.087 c 0.532,-0.503 1.242,-0.881 1.88,-1.249 l -2.015,-0.666 c -0.023,0.625 -0.079,1.324 0.135,1.915 m 2.166,-3.184 c -0.002,0.244 -2.495,-0.742 -2.191,1.112 1.902,0.025 2.154,1.667 2.191,-1.112 m -2.067,-0.105 c 0.44,-0.216 1.346,-0.033 1.809,-0.084 -0.459,-0.394 -0.913,-0.792 -1.369,-1.188 -0.093,0.438 -0.349,0.828 -0.44,1.272 m 1.855,-0.225 c 0.524,0.444 0.652,-0.979 0.982,-1.279 -0.743,-0.008 -1.488,-0.128 -2.231,-0.138 0.003,0.611 0.714,0.96 1.249,1.417 m -1.196,-1.52 c 0.744,0.042 1.484,0.09 2.228,0.13 -0.362,-0.598 -0.729,-1.209 -1.089,-1.814 -0.474,0.455 -0.868,1.091 -1.139,1.684 m 2.285,0.03 c 0.253,-0.498 0.761,-0.944 1.186,-1.314 -0.592,-0.344 -1.846,-1.583 -2.227,-0.506 0.336,0.607 0.659,1.236 1.041,1.82 m 11.465,-8.29 c 1.049,0.57 2.046,1.284 2.971,2.18 1.826,1.759 2.185,4.802 4.807,5.038 1.71,0.162 3.452,-0.162 5.157,-0.141 0.53,0.01 1.079,-0.094 1.571,-0.013 0.117,-1.01 1.863,-1.371 2.904,-0.806 0.793,0.428 1.173,1.269 1.089,2.109 1.86,0.16 2.536,-0.473 4.414,-0.446 -1.971,-1.057 -1.582,-1.313 0.349,-1.31 v 0.163 c 0,-0.192 7.957,-0.297 7.953,-0.014 1.718,0.021 6.77,-0.283 5.728,2.669 0.787,-0.773 2.332,-0.005 2.007,1.061 -0.306,1.148 -0.186,0.795 0.453,1.811 0.466,0.743 0.553,1.587 0.959,2.347 0.769,1.448 1.115,3.151 0.282,4.652 -0.282,0.505 -1.998,2.045 -1.714,2.343 0.732,0.757 -0.85,1.507 0.433,2.042 1.426,0.589 1.365,-1.978 3.007,0.019 1.278,1.549 2.566,2.536 4.613,2.796 0.003,-0.462 -0.078,-1.743 0.608,-1.9 -2.66,-3.094 -5.961,-6.703 -5.901,-11.184 0.532,-0.346 1.41,0.807 1.635,1.14 -1.943,-6.029 2.477,-12.422 8.026,-14.991 -9.599,0.316 -22.393,0.511 -36.442,0.511 -5.177,0 -10.171,-0.026 -14.909,-0.076"
             style="fill:#007f33;fill-opacity:1;fill-rule:nonzero;stroke:none"
             id="path7221"
             inkscape:connector-curvature="0" />
        </g>
        <g
           id="g7223"
           transform="translate(219.1812,463.4105)">
          <path
             d="m 0,0 c -0.389,-1.682 -0.923,-4.188 -0.887,-5.613 0.166,-6.363 3.965,-10.913 7.582,-12.995 3.066,-1.768 7.611,-2.146 11.225,-1.577 3.76,0.593 7.169,3.318 8.959,5.712 0.213,0.283 0.663,1.17 0.887,1.575 0.441,0.048 0.44,-0.348 0.787,-0.395 -1.275,-1.554 1.456,-2.053 1.871,-2.953 0.253,0.074 0.418,0.239 0.492,0.491 1.039,-1.157 2.81,-3.208 3.939,-3.544 0.395,-0.117 0.98,-0.162 1.281,0.197 0.13,0.889 -0.375,1.709 -0.788,2.265 -0.338,0.455 -0.539,0.8 -0.886,1.675 -0.153,0.382 -0.278,0.846 -0.494,1.376 -0.019,0.351 0.463,0.196 0.395,0.594 -0.196,0.329 -0.603,0.446 -0.591,0.984 2.185,-0.701 4.714,1.358 5.021,2.362 0.006,0.285 0.315,0.865 0.295,1.477 3.347,0.786 4.928,3.174 5.712,6.301 -0.031,0.12 0.284,0.34 0.295,0.1 0.951,5.63 5.154,9.367 8.075,12.898 C 53.029,10.581 54.344,9.582 53.563,8.961 53.74,8.678 54.018,8.498 54.154,8.172 53.488,7.748 52.432,6.688 52.087,6.598 49.876,4.478 45.861,-0.371 46.572,-6.793 c 0.82,0.094 0.718,2.146 1.083,3.642 0.347,-0.238 0.025,-1.016 0,-1.378 -0.245,-3.598 1.012,-6.9 2.068,-9.058 0.624,-0.67 1.757,-2.172 2.266,-2.954 0.895,-0.473 1.803,-1.49 2.362,-1.969 2.145,-1.457 5.374,-2.148 8.861,-2.167 6.142,-0.033 8.795,3.252 11.521,6.007 0.117,0.414 0.777,1.555 1.083,1.772 0.737,1.91 1.73,4.274 1.772,6.991 0.053,3.5 -1.322,6.931 -2.559,8.763 0.284,0.103 -0.597,0.374 -0.199,0.59 -0.042,0.146 -0.126,-0.038 -0.295,0 -1.278,2.024 -2.83,3.014 -4.626,4.331 -2.596,1.62 -8.768,2.559 -12.408,0.887 1.442,1.168 4.79,0.426 5.12,1.969 -1.958,-0.108 -3.755,-0.379 -5.219,-0.984 -0.099,0.374 -0.466,0.482 -0.929,0.491 -0.314,-0.097 -0.686,-0.087 -0.922,-0.136 -0.49,-0.103 -0.758,0.473 -0.536,0.781 0.015,0.073 0.046,0.142 0.089,0.201 0.011,0.044 0.022,0.09 0.035,0.139 -0.428,0.131 -0.401,0.717 -0.591,1.086 0.019,0 0.034,0 0.052,10e-4 -0.032,0.049 -0.058,0.104 -0.081,0.161 -0.025,-0.019 -0.048,-0.042 -0.069,-0.064 -0.546,1.453 -0.828,2.738 -1.477,3.937 0.031,0.119 0.056,0.24 0.08,0.366 v 0.003 c -0.017,0.143 -0.244,0.437 -0.324,0.623 -0.019,0.046 -0.036,0.09 -0.049,0.135 -0.03,0.013 -0.062,0.031 -0.101,0.054 0.013,0.006 0.028,0.013 0.039,0.021 -0.027,0.019 -0.053,0.042 -0.075,0.07 -0.134,0.168 -0.212,0.323 -0.21,0.542 0.001,0.071 0.014,0.139 0.034,0.206 -0.027,-0.022 -0.054,-0.04 -0.084,-0.051 0.227,0.394 -0.149,1.644 -0.394,1.379 0.055,0.214 0.235,0.807 0,0.986 -0.451,-0.055 -0.459,0.019 -0.689,-0.297 0.036,0.31 0.23,0.651 0.393,0.297 -0.095,0.424 -0.046,0.841 -0.098,1.082 -0.188,-0.042 -0.178,-0.281 -0.492,-0.198 0.024,0.275 0.4,0.094 0.59,0.394 -0.139,0.026 -0.111,0.218 -0.197,0.296 0.304,0.023 0.455,0.605 0.698,0.544 0.107,0.084 0.221,0.147 0.345,0.18 0.036,0.028 0.108,0.062 0.226,0.104 0.166,0.108 0.345,0.197 0.531,0.264 0.209,0.59 -0.083,1.343 -0.115,1.951 -0.019,0.375 10e-4,1.275 -0.53,1.241 -0.081,0.002 -0.151,0.019 -0.211,0.045 -0.32,-0.025 -0.534,-0.159 -0.944,-0.095 -0.004,0.044 -0.022,0.086 -0.044,0.125 -0.185,0.061 -0.343,0.183 -0.469,0.379 -0.101,0.151 -0.173,0.303 -0.306,0.426 -0.073,0.068 -0.155,0.125 -0.241,0.182 -0.432,0.043 -1.029,0.061 -1.367,0.347 -0.046,0.003 -0.089,0.01 -0.132,0.017 -0.185,0.56 -1.065,0.648 -1.674,0.493 -0.003,0.01 -0.008,0.021 -0.012,0.031 -0.837,-0.221 -1.996,-0.295 -2.749,0.158 -0.065,-0.006 -0.101,-0.032 -0.096,-0.091 -0.163,0.401 -0.441,0.448 -0.556,0.445 -0.076,-0.017 -0.063,-0.002 0,0 0.021,0.004 0.051,0.013 0.088,0.024 -0.021,0.005 -0.044,0.011 -0.067,0.015 -0.186,0.022 -0.377,-0.003 -0.565,0.008 0.006,-0.033 0.012,-0.064 0.019,-0.098 -2.669,0.908 -6.068,2.466 -7.385,4.726 -0.544,0.054 -1.121,0.775 -1.281,0.984 -0.452,0.601 -0.335,1.381 -0.491,2.561 -0.139,1.052 -0.682,1.958 -0.69,2.659 -0.008,0.822 0.478,1.627 0.394,2.462 -0.068,0.675 -0.699,1.669 -0.886,2.461 -0.222,0.928 -0.062,1.571 -0.985,1.771 0.265,1.082 2.312,0.906 3.25,0.986 0.455,0.901 0.728,2.463 2.067,2.363 0.249,0.618 -0.291,1.1 -0.196,1.87 0.71,0.471 0.406,1.956 1.081,2.462 0.245,1.973 -1.204,3.137 -2.559,4.037 -0.656,0.436 -1.736,1.28 -2.855,1.379 -1.655,0.144 -2.188,-1.026 -2.954,-1.674 -0.189,-0.733 -1.062,-1.426 -1.182,-2.56 -0.101,-0.964 0.546,-2.099 -0.097,-2.954 -0.021,-0.415 0.374,-0.413 0.393,-0.788 -0.358,-1.185 -0.925,-2.161 -2.361,-2.265 -0.6,-1.654 -1.34,-1.564 -2.562,-2.362 -1.282,-2.535 -2.166,-6.063 -2.659,-9.749 -0.384,-2.87 -0.503,-5.933 -1.181,-8.566 0.06,-0.266 -0.125,-0.78 0.098,-0.886 -0.124,-0.467 -0.577,-0.604 -0.786,-0.985 0.143,-0.412 0.193,-0.921 0.393,-1.28 -0.027,-0.002 -0.056,-0.005 -0.083,-0.008 0.094,-0.187 0.154,-0.387 0.17,-0.613 0.002,-0.006 0.002,-0.011 0.003,-0.016 0.222,-0.429 0.225,-1.24 0.5,-0.939 0.103,-0.258 0.118,-0.603 0.099,-0.984 0.485,-0.006 0.496,-0.244 0.534,-0.392 0.045,-0.006 0.052,-0.052 0.057,-0.099 -0.033,0.017 -0.046,0.053 -0.057,0.099 -0.013,0.003 -0.025,0.003 -0.041,0 -0.083,-0.088 -0.133,-0.257 -0.168,-0.46 0.115,-0.112 0.173,-0.275 0.149,-0.436 0.01,-0.015 0.022,-0.027 0.03,-0.043 0.002,-10e-4 0.002,-0.003 0.005,-0.006 0.016,0.029 0.043,0.051 0.082,0.058 0.054,-0.23 0.296,-0.23 0.099,0 0.282,0.02 0.499,-0.026 0.59,-0.198 -0.396,-0.01 -0.491,-0.322 -0.748,-0.47 -0.124,-0.27 -0.342,-0.469 -0.521,-0.711 -0.099,-0.132 -0.148,-0.264 -0.16,-0.398 0.023,-0.234 0.121,-0.487 0.192,-0.717 0.077,-0.14 0.166,-0.279 0.256,-0.417 0.033,0 0.07,-0.007 0.12,-0.016 0.026,-0.007 0.049,-0.015 0.075,-0.027 0.693,0.128 1.197,-0.205 1.574,-0.098 -0.205,-0.156 -0.401,-0.322 -0.689,-0.395 0.082,-0.212 0.242,-0.348 0.591,-0.295 0.063,-0.29 -0.066,-0.538 0,-0.886 0.961,-0.265 1.721,0.732 2.46,0.689 0.057,-0.354 0.157,-0.158 0.394,-0.591 0.369,-0.112 0.561,-0.087 0.789,0 -0.201,-0.896 -1.344,0.076 -1.97,0 -0.459,-0.197 -0.559,-0.753 -0.492,-1.475 0.242,-0.477 1.027,-0.124 1.279,-0.396 0.009,0.269 -0.163,0.199 0,0.396 0.246,0.016 0.309,-0.152 0.394,-0.297 0.333,0.212 -0.399,0.485 -0.098,0.689 0.181,0.114 0.74,-0.077 1.083,0.1 0.437,-1.07 0.89,-2.477 1.179,-3.55 0.044,-0.096 0.078,-0.193 0.11,-0.3 0.015,-0.052 0.018,-0.103 0.013,-0.155 0.108,-0.263 0.19,-0.544 0.241,-0.835 0.282,-0.513 0.172,-0.956 -0.093,-1.34 C 27.666,9.787 27.549,9.639 27.373,9.545 27.129,9.307 26.859,9.1 26.601,8.876 c 0.071,0.058 0.206,0.275 0.272,0.291 -0.345,-0.091 -0.578,0.185 -0.809,0.387 -0.349,0.308 -2.531,2.119 -3.034,2.444 -0.386,0.252 -0.876,0.62 -1.368,0.507 v 0.059 C 21.599,12.557 21.531,12.56 21.457,12.58 21.33,12.616 20.512,12.716 20.496,12.788 19.764,12.9 12.704,12.811 12.702,12.8 10.182,12.985 7.569,12.915 5.612,12.702 5.402,12.287 5.564,11.503 5.514,10.93 5.788,10.666 6,11.021 6.301,11.028 6.495,10.91 6.188,10.691 6.4,10.436 c 0.188,0.31 0.23,0.733 0,0.986 0.088,0.241 0.55,0.106 0.491,0.492 0.037,0.413 -0.32,0.07 -0.491,0.098 0.044,0.711 1.234,0.275 1.871,0.394 0.103,-0.072 0.011,-0.297 0.196,-0.492 0.917,0.101 1.615,0.42 2.659,0.395 0.073,-0.196 0.307,-0.8 0.295,-1.379 C 9.705,10.447 7.77,9.659 6.4,9.157 2.606,6.691 -1.072,3.125 -2.068,-3.643 -0.817,-2.99 -0.509,-1.396 0,0 m 20.676,20.185 c -0.135,-0.244 0.112,-0.805 -0.097,-0.69 0.185,0.332 -0.446,0.322 -0.099,0.494 0.005,-0.061 0.015,-0.118 0.099,-0.1 -0.033,0.121 0.016,0.609 0.097,0.296 m 4.234,-1.773 c -0.325,-0.432 -1.27,-0.761 -1.674,-0.786 0.179,0.215 0.712,0.075 0.69,0.489 -0.356,0.072 -0.815,0.039 -1.083,0.199 0.816,0.173 1.187,0.321 2.067,0.098 M 56.222,9.157 c -0.17,-0.038 -0.253,0.146 -0.296,0 0.06,-0.004 0.116,-0.015 0.098,-0.098 -0.553,0.141 0.028,0.365 -0.197,0.688 h 0.295 c -0.07,-0.301 0.17,-0.288 0.1,-0.59 m 1.573,-4.431 c 0.124,-0.499 0.339,-0.91 0.494,-1.378 -0.29,0.224 -0.782,1.221 -0.494,1.378 m 1.577,1.97 c 1.132,-2.971 2.048,-6.157 3.249,-9.059 -0.078,-0.448 -0.363,-0.687 -0.393,-1.18 -2.127,2.074 -3.251,5.15 -4.235,8.37 0.393,0.096 0.297,-0.297 0.691,-0.199 0.478,0.873 0.201,1.212 0,1.871 0.304,-0.01 0.469,0.121 0.688,0.197 M 60.16,-5.218 c -0.675,0.212 -2.096,0.2 -2.265,0.59 0.961,-0.071 1.629,0.013 2.265,-0.59 m -3.545,0.984 c 0.53,-0.094 1.167,-0.081 1.576,-0.295 -0.66,-0.037 -1.224,0.023 -1.576,0.295 m 3.545,-0.69 c 0.263,-0.064 0.615,-0.04 0.787,-0.196 -0.252,-0.224 -0.623,0.031 -0.787,0.196 m 0.787,-0.788 c -0.33,0.033 -0.619,0.103 -0.787,0.297 0.245,-0.116 0.769,0.046 0.787,-0.297 m 0.493,-0.59 c -0.469,-0.091 -1.216,-0.422 -1.576,-0.295 0.339,0.251 1.005,0.544 0.886,0.69 0.304,-0.059 0.698,-0.026 0.69,-0.395 m -0.098,-0.984 c 0.158,0.017 0.507,0.33 0.59,0.099 -0.415,-0.181 -0.31,-0.675 -0.689,-0.789 0.136,0.127 0.098,0.428 0.099,0.69 m 1.771,-0.886 c -0.199,0.235 -0.263,0.662 0,0.886 -0.08,-0.318 0.123,-0.852 0,-0.886 m -0.393,0.689 c -0.026,0.303 -0.214,0.443 -0.295,0.69 0.136,-0.005 0.215,0.045 0.295,0.096 0.261,-0.211 0.411,-0.607 0,-0.786 m -0.099,3.151 c -0.012,0.134 -0.129,1.074 0.198,1.181 -0.07,-0.391 0.171,-1.089 -0.198,-1.181 m 0.099,-3.446 c -0.302,-0.093 -0.242,-0.547 -0.492,-0.69 -0.012,0.537 0.028,1.023 0.197,1.378 0.025,-0.302 0.213,-0.442 0.295,-0.688 m -1.28,0.688 c -0.048,0.31 0.178,0.347 0.098,0.69 0.447,0.085 0.613,-0.109 0.69,-0.393 -0.302,-0.06 -0.513,-0.21 -0.788,-0.297 m -0.69,-3.937 c 0.128,1.613 0.445,3.034 1.379,3.84 0.107,-1.728 -0.553,-2.657 -1.379,-3.84 m -0.097,3.741 c 0.29,0.136 0.398,0.454 0.689,0.589 0.083,-0.448 -0.473,-0.768 -0.689,-0.589 m -2.954,-1.182 c 0.942,0.637 1.836,1.895 3.544,1.871 -0.695,-0.83 -2.183,-1.58 -3.544,-1.871 M 61.538,7.09 c 0.319,-2.663 0.694,-6.048 1.083,-8.96 -1.029,2.481 -2.076,5.8 -3.051,8.664 0.718,0.034 1.234,0.275 1.968,0.296 m 2.166,0 C 63.372,4.303 63.216,1.342 62.621,-1.181 62.421,1.67 61.98,4.282 61.735,7.09 c 0.669,0.113 1.3,0.113 1.969,0 m 2.167,-0.492 c -1.057,-2.594 -1.959,-5.905 -3.052,-8.075 0.462,2.755 0.716,5.716 1.083,8.567 0.675,-0.147 1.587,-0.055 1.969,-0.492 m 2.068,-0.69 c -1.116,-2.988 -2.21,-5.994 -3.249,-9.059 -0.828,-0.341 -0.8,-0.402 -1.478,-0.788 -0.747,1.466 -0.09,2.453 0.393,3.841 0.816,2.333 1.692,4.734 2.463,6.794 0.458,-0.227 1.358,-0.348 1.871,-0.788 M 63.212,-6.991 c 0.186,0.012 0.067,0.326 0.295,0.294 0.62,-0.218 0.582,-1.375 0.592,-1.672 -0.216,0.54 -0.692,0.818 -0.887,1.378 m 0.197,-0.591 c 0.744,-0.812 1.159,-1.865 1.083,-3.151 -0.326,1.021 -1.396,1.822 -1.083,3.151 m 0.69,1.477 c 0.59,0.236 0.906,-0.584 1.377,-0.786 -0.761,-0.042 -1.041,0.402 -1.377,0.786 m 2.462,-1.771 c -0.482,0.371 -1.35,0.356 -1.674,0.885 0.748,-0.038 1.629,-0.468 1.674,-0.885 m -2.365,2.263 c 0.088,-0.172 0.431,0.075 0.196,-0.099 -0.247,-0.151 -0.505,0.399 -0.196,0.69 0.337,-0.091 0.813,-0.042 0.985,-0.295 -0.442,0.015 -0.773,-0.081 -0.985,-0.296 m 0,1.872 c -0.198,-0.359 -0.337,-0.777 -0.689,-0.986 0.005,0.136 -0.046,0.217 -0.098,0.297 0.211,-0.133 0.705,0.854 0.787,0.689 m -0.885,-0.493 c 0.022,0.248 0.506,0.536 0.591,0.395 -0.268,-0.062 -0.247,-0.411 -0.591,-0.395 m 1.081,0.395 c -0.132,-0.329 -0.176,-1.263 -0.688,-0.888 0.369,0.158 0.382,0.67 0.688,0.888 m 0,-2.858 c -0.385,-0.148 -0.524,0.452 -0.391,0.494 0.066,-0.228 0.327,-0.263 0.391,-0.494 m 5.417,11.524 c -1.584,-2.323 -3.062,-4.752 -4.628,-7.091 0.684,2.207 1.973,5.508 2.856,8.172 0.666,-0.286 1.29,-0.614 1.772,-1.081 m 3.052,-3.055 c -2.732,-1.602 -5.126,-3.163 -7.581,-4.43 0.761,0.791 2.372,2.138 2.745,2.643 -0.39,-0.433 -0.768,-0.821 -1.071,-0.969 -0.04,-0.02 -0.072,-0.035 -0.1,-0.048 -0.001,-0.021 -0.026,-0.066 -0.098,-0.149 -0.302,-0.357 -1.395,-1.139 -1.575,-1.281 1.804,2.382 3.165,5.287 4.923,7.188 C 70.52,4.185 70.925,4.249 70.892,3.742 72.358,3.826 69.615,1.653 69.219,1.28 69.004,1.08 68.776,0.83 68.544,0.569 c 0.323,0.323 0.721,0.69 1.069,1.006 0.76,0.695 1.91,1.827 2.068,1.576 0.132,-0.212 1.129,-0.947 1.18,-1.379 m 1.084,-1.87 c -2.823,-1.814 -5.165,-2.935 -7.877,-4.726 -0.45,0.082 -1.082,-0.049 -1.773,0 0.087,0.699 0.475,1.173 0.493,1.673 2.829,1.471 5.326,3.273 8.172,4.726 0.446,-0.44 0.704,-1.069 0.985,-1.673 m 0.788,-2.068 c -2.819,-0.881 -5.812,-2.047 -8.272,-2.462 2.649,1.324 4.971,2.972 7.582,4.333 0.29,-0.564 0.487,-1.219 0.69,-1.871 m 0.393,-2.166 c -2.163,-0.108 -5.382,-0.431 -7.777,-0.296 2.549,0.668 4.919,1.513 7.384,2.265 0.189,-0.599 0.32,-1.256 0.393,-1.969 m 0,-2.166 c -3.177,0.334 -6.151,0.872 -9.157,1.378 2.328,0.398 6.777,0.474 9.157,0.492 z m -0.493,-2.264 c -2.869,0.575 -5.675,1.216 -8.664,1.672 -0.457,0.462 -1.076,0.762 -1.477,1.282 0.474,0.116 0.74,0.44 1.181,0.59 3.028,-0.617 6.312,-0.974 9.356,-1.575 0.028,-0.447 -0.022,-1.605 -0.396,-1.969 m -0.688,-2.069 c -2.56,1.261 -5.792,1.871 -7.68,3.545 2.84,-0.573 5.838,-0.988 8.468,-1.773 -0.335,-0.519 -0.319,-1.388 -0.788,-1.772 m -0.886,-1.87 c -1.563,0.995 -3.693,2.779 -5.12,4.135 1.941,-0.915 4.167,-1.542 6.006,-2.56 -0.346,-0.474 -0.555,-1.088 -0.886,-1.575 m -2.167,-0.788 c -0.046,0.049 -0.162,-0.122 -0.196,-0.098 -0.361,0.241 -1.862,2.091 -1.872,2.461 -0.205,-0.195 -0.745,0.327 -0.492,0.591 -0.975,0.474 -2.202,2.06 -2.756,2.953 0.239,-0.16 0.521,-0.206 0.492,-0.394 0.074,0.241 0.294,0.022 0.098,-0.098 0.88,0.248 1.405,-0.633 1.773,-0.985 0.184,-0.176 0.612,-0.209 0.557,-0.454 0.086,0.08 0.223,0.119 0.229,-0.037 1.244,-1.047 2.995,-2.404 4.136,-3.447 -0.478,-0.475 -0.736,-1.167 -1.378,-1.476 -0.251,0.134 -0.455,0.832 -0.591,0.984 m -0.983,-2.462 c -0.918,1.482 -2.091,2.212 -2.365,3.643 -0.778,0.314 -1.501,1.178 -1.575,1.87 -0.376,-0.219 -0.441,0.355 -0.411,0.541 -0.035,-0.074 -0.108,-0.11 -0.179,-0.146 -0.617,0.933 -1.102,1.32 -1.28,2.953 0.942,-0.222 1.584,-0.772 2.067,-1.476 0.296,-0.432 0.094,-0.26 0.395,-0.493 1.162,-0.898 1.877,-2.598 3.248,-3.642 0.005,-0.137 -0.047,-0.216 -0.099,-0.296 0.825,-0.33 1.111,-0.951 1.675,-1.673 -0.404,-0.516 -0.913,-0.926 -1.476,-1.281 m -4.826,3.84 c 0.162,-0.165 0.214,-0.442 0.393,-0.59 -0.009,-0.252 -0.179,-0.345 -0.295,-0.491 0.032,0.339 -0.286,1.225 -0.098,1.081 m -0.492,2.954 c 0.025,-0.329 0.576,-0.459 0.296,-0.788 0.927,-0.523 1.154,-1.4 1.967,-2.263 -0.602,0.011 -0.783,-0.399 -1.278,-0.493 -0.548,0.896 -1.067,2.345 -0.985,3.544 m 3.446,-7.975 c -0.393,0.893 -1.131,2.013 -1.674,3.052 0.453,0.17 1.411,0.666 0.886,1.182 0.307,-0.101 0.686,-0.499 0.493,-0.788 0.546,0.19 0.593,-0.737 0.787,-0.984 0.037,-0.048 0.167,0.118 0.196,0.099 0.354,-0.236 0.865,-1.631 0.985,-1.38 -0.343,-0.609 -1.098,-0.804 -1.673,-1.181 m -1.969,-0.788 c -0.143,0.991 -0.811,2.854 -0.492,3.938 -0.117,-0.621 0.713,-0.075 0.787,-0.295 0.257,-0.947 1.014,-1.744 1.477,-2.953 -0.506,-0.314 -1.198,-0.445 -1.772,-0.69 m -2.166,-0.394 c -0.194,2.924 -0.444,6.318 -0.395,9.157 0.685,-1.341 1.831,-2.968 1.38,-4.825 0.679,-0.961 0.672,-2.608 0.884,-4.036 -0.638,-0.084 -1.169,-0.275 -1.869,-0.296 m -2.167,0 c 0.325,3.492 -0.145,7.93 0.985,10.338 0.005,0.06 0.014,0.117 0.099,0.1 0.68,-1.235 0.495,-3.619 0.59,-5.711 0.079,-1.732 0.292,-3.411 0.196,-4.825 -0.603,0.052 -1.425,-0.112 -1.87,0.098 m -2.264,0.394 c 0.747,2.862 0.642,6.578 2.461,8.37 -0.086,-3 -0.22,-5.95 -0.492,-8.764 -0.733,0.055 -1.459,0.116 -1.969,0.394 m -1.97,0.591 c 0.84,1.763 1.966,3.799 2.856,4.922 -0.464,-1.735 -0.65,-3.746 -1.083,-5.513 -0.661,0.128 -1.164,0.411 -1.773,0.591 m -1.969,1.182 c 1.495,1.954 3.913,5.488 5.415,7.187 -0.333,-3.451 -2.278,-5.506 -3.642,-8.172 -0.721,0.165 -1.427,0.758 -1.773,0.985 m -1.674,1.477 c 0.494,0.358 0.572,0.484 0.987,0.884 0.081,0.082 0.574,0.829 0.884,1.085 0.06,0.047 -0.087,-0.064 0,0.098 0.184,0.342 0.543,0.431 0.886,0.691 0.136,0.099 0.216,0.41 0.69,0.885 1.065,1.071 2.386,3.341 3.938,3.544 0.04,-0.961 -0.895,-1.659 -1.28,-2.165 -1.4,-1.843 -2.597,-4.158 -4.234,-5.712 0.251,-0.226 -0.32,-0.463 -0.395,-0.689 -0.697,0.655 -0.92,0.61 -1.476,1.379 m -1.476,1.673 c 2.465,1.735 4.134,4.268 7.482,5.121 -2.258,-2.598 -4.149,-4.633 -6.202,-6.695 -0.457,0.495 -0.92,0.982 -1.28,1.574 m -1.083,1.871 c 1.829,0.666 3.948,1.565 5.611,2.067 -1.611,-1.21 -3.065,-2.58 -4.627,-3.839 -0.345,0.574 -0.704,1.134 -0.984,1.772 m -0.69,2.067 c 2.666,0.659 6.086,1.582 8.468,1.872 -0.766,-0.682 -1.232,-0.737 -1.675,-1.478 -1.703,-0.518 -4.055,-1.587 -6.202,-2.264 -0.21,0.609 -0.53,1.112 -0.591,1.87 m -0.394,2.266 c 1.507,0.193 3.128,0.361 4.826,0.59 2.025,0.274 4.418,1.003 5.612,0.296 -1.291,-1.139 -3.563,-1.515 -5.712,-1.969 -0.785,-0.168 -1.542,-0.322 -2.264,-0.493 -0.755,-0.179 -1.527,-0.451 -2.166,-0.296 -0.019,0.028 -0.39,1.109 -0.296,1.872 M 49.92,2.463 c -0.88,-1.518 -1.525,-3.269 -2.068,-5.121 0.035,1.864 1.385,4.069 2.068,5.121 m 0.196,-7.091 c 3.348,0.033 6.745,0.114 9.158,-0.787 -3.07,-0.377 -6.001,-0.893 -9.158,-1.182 z m 0.296,0.985 c 1.012,-0.3 2.24,-0.386 3.25,-0.689 0.561,0.069 0.561,-0.168 0,-0.098 -1.129,0.053 -2.478,-0.116 -3.447,0.098 0.077,0.4 -0.107,0.686 0.197,0.689 m -0.098,0.394 c 1.78,-0.197 4.576,-0.451 6.301,-1.28 -2.178,0.351 -4.483,0.571 -6.301,1.28 m 0.197,0.787 c 0.995,-0.185 1.846,-0.517 2.659,-0.886 -0.948,0.104 -1.855,0.247 -2.758,0.394 -0.082,0.279 0.14,0.256 0.099,0.492 m 0.492,6.401 C 50.952,3.816 50.879,3.747 50.805,3.643 c -1.078,-1.55 0.024,0.403 0.198,0.296 m 0.296,-4.234 c 2.508,-1.387 5.156,-2.809 7.285,-4.037 -2.956,0.39 -5.481,1.214 -7.975,2.068 0.118,0.738 0.513,1.604 0.69,1.969 m 0.984,1.87 c 0.77,-0.252 1.211,-0.589 1.28,-0.885 0.125,0.005 0.136,0.126 0.295,0.098 0.424,-0.571 1.673,-0.808 1.774,-1.38 1.681,-0.528 2.577,-1.644 4.429,-2.461 0.035,-0.468 0.777,-0.856 1.084,-1.575 -0.401,0.081 -1.112,0.118 -1.871,0.099 -0.074,0.032 -0.176,0.286 -0.197,0.295 -2.594,1.307 -4.8,2.501 -7.681,4.037 0.149,0.738 0.625,1.148 0.887,1.772 m 1.575,1.773 c 0.292,-0.005 0.411,-0.635 0.69,-0.885 -0.029,0.024 0.117,0.147 0.197,0.098 0.533,-0.334 0.984,-1.13 1.673,-1.773 0.904,-0.844 2.315,-1.507 2.364,-2.56 0.32,0.125 0.876,-0.806 0.886,-0.985 -1.104,0.941 -2.958,1.628 -3.742,2.56 -0.363,-0.05 -1.391,0.557 -1.378,0.887 -0.799,0.035 -1.476,0.836 -2.068,1.182 0.388,0.049 0.093,10e-4 0.197,0.295 0.07,0.198 0.383,0.534 0.689,0.689 -0.056,-0.028 0.306,0.494 0.492,0.492 m 1.576,1.378 c 0.465,-1.833 1.6,-3.519 2.265,-4.824 -1.181,1.394 -2.553,2.239 -3.741,3.644 0.632,0.563 0.989,0.854 1.476,1.18 M 5.979,7.575 C 5.937,7.555 5.913,7.499 6.005,7.483 c 0,0.056 0.081,0.112 0.098,0 C 5.439,7.132 4.976,6.577 4.331,6.203 4.364,6.732 5.495,7.451 5.979,7.575 m 4.359,-18.997 c 0.413,0.252 -0.125,-1.072 -0.591,-0.394 0.403,0.192 0.764,0.942 1.083,0.887 -0.18,-0.359 -0.303,-0.262 -0.492,-0.493 m 1.971,2.166 c -0.276,-1.235 -0.536,-2.483 -0.987,-3.545 -0.211,0.347 -0.677,0.437 -0.886,0.789 0.515,1.166 0.944,1.923 1.873,2.756 M 11.52,-9.55 c 0.417,0.403 0.567,1.597 1.182,1.476 -0.279,-0.941 -0.674,-1.352 -1.182,-1.476 m 1.476,2.853 c -0.062,-0.361 -0.101,-0.749 -0.294,-0.982 -0.241,0.336 0.129,0.743 0.294,0.982 m 1.576,-1.279 c 0.044,-0.194 0.366,-0.608 0.099,-0.786 0.091,0.33 -0.354,0.619 -0.099,0.786 m 0.689,7.089 C 15.011,1.949 14.743,4.767 14.572,7.68 15.291,7.709 15.776,7.507 16.541,7.582 16.513,4.23 16.04,1.802 15.261,-0.887 m 0.591,-1.279 c -0.146,-0.313 0,-0.919 -0.197,-1.182 -0.005,0.061 -0.015,0.118 -0.099,0.099 -0.005,-0.06 -0.014,-0.117 -0.097,-0.099 0.148,0.376 0.169,0.882 0.393,1.182 m 0.297,-1.773 c 0.166,0.135 0.583,0.268 0.392,0 -0.046,0.207 -0.053,-0.537 -0.392,-0.59 0.088,0.289 0.088,0.302 0,0.59 m -0.198,0.886 c -0.064,1.505 0.435,2.64 1.378,3.25 -0.021,0.529 0.789,1.751 1.182,1.575 -0.347,0.348 0.993,2.051 1.477,2.462 -0.076,0.184 0.613,1.258 1.083,1.772 C 21.399,5.612 21.289,5.801 21.662,5.514 21.485,5.298 21.276,5.11 21.17,4.827 21.584,4.476 21.982,4.911 21.957,5.316 22.28,5.279 22.391,5.029 22.646,4.923 20.272,1.183 18.327,-0.235 15.951,-3.053 m 2.068,-5.612 c -0.102,0.361 -1.001,0.44 -0.69,0.887 0.32,-0.141 0.811,-0.629 0.69,-0.887 m 0,0.591 c 0.095,-0.101 0.194,-0.199 0.295,-0.295 0.906,-0.11 2.007,-0.88 3.051,-1.181 -0.592,-0.19 -1.653,0.229 -2.362,0.59 -0.141,-0.023 -0.165,-0.162 -0.295,-0.197 -0.11,0.418 -0.752,0.822 -0.689,1.083 m -0.985,1.183 c 0.714,-0.241 1.501,-0.462 1.575,0.491 3.384,-0.413 5.018,-1.876 7.484,-2.856 -3.137,0.869 -6.274,1.394 -9.059,2.365 m 0.886,4.627 c 1.577,1.951 3.552,3.822 4.923,5.514 0.441,-0.342 1.169,-0.08 1.377,-0.099 -1.755,-1.162 -3.55,-4.483 -6.3,-5.415 m 6.597,5.415 c 0.284,-0.636 0.853,-0.984 1.082,-1.673 -2.088,-0.965 -4.122,-2.24 -5.513,-2.659 1.596,1.376 2.659,2.94 4.431,4.332 m -5.613,-5.415 c -0.39,-0.3 -0.921,-0.98 -1.476,-0.789 0.19,0.274 0.592,0.737 0.984,0.493 -0.248,0.153 0.352,0.558 0.492,0.296 m 7.779,1.575 c 0.266,-0.587 0.407,-1.299 0.59,-1.969 -3.155,0.07 -6.687,-0.007 -9.058,-0.395 2.913,0.698 5.624,1.597 8.468,2.364 m -8.172,-3.447 c 0.821,-0.293 2.329,0.098 3.151,-0.196 -1.253,-0.126 -2.027,-0.732 -3.348,-0.788 -0.124,0.195 0.062,0.737 0.197,0.984 m 8.468,-0.788 c -2.652,-0.022 -5.524,-0.955 -7.78,-0.196 2.152,0.885 5.39,0.995 7.78,0.196 M 16.64,-4.628 c 0.258,0.102 0.331,0.391 0.59,0.492 0.019,-0.146 0.238,-0.088 0.395,-0.098 -0.183,-0.267 -0.128,-0.06 -0.1,-0.69 -0.286,0.109 -0.694,0.092 -0.885,0.296 m 0.196,0.394 c -0.155,0.148 0.003,0.416 0.198,0.493 0.204,-0.196 0.003,-0.421 -0.198,-0.493 m 0.887,11.52 C 18.059,7.197 18.427,7.139 18.708,6.991 18.128,5.272 17.294,3.809 16.64,2.167 c 0.097,1.186 0.864,3.399 1.083,5.119 M 16.558,4.703 c 0.203,0.883 -0.102,2.274 0.476,2.78 0.372,-0.658 -0.329,-2.19 -0.476,-2.78 m 2.346,2.19 C 19.638,6.741 20.189,6.405 20.776,6.105 20.7,5.687 20.381,5.326 20.184,5.316 20.426,4.953 19.738,4.638 19.594,4.431 19.124,3.758 18.793,2.497 18.019,2.167 17.961,1.556 17.55,1.139 17.132,0.788 c 0.162,-0.271 -0.43,-0.907 -0.591,-0.886 0.208,-0.215 -0.275,-0.573 -0.392,-0.789 -0.051,1.156 0.213,2.445 0.687,2.759 0.5,1.895 1.398,3.041 2.068,5.021 M 15.36,-7.187 c -0.19,-0.626 0.065,-2.358 -0.394,-1.379 0.146,0.444 0.132,1.05 0.394,1.379 m -0.295,-2.856 c -0.111,0.316 -0.27,0.584 -0.295,0.984 0.162,0.003 0.054,0.274 0.196,0.297 0.376,-0.172 0.196,-2.113 0.099,-1.281 m -0.689,3.052 c 0.235,0.28 0.362,0.097 0.787,0.1 -0.153,-0.406 -0.093,-1.023 -0.393,-1.281 -0.039,0.489 -0.376,0.675 -0.394,1.181 M 14.178,0.69 c -0.39,2.347 -0.881,4.835 -1.28,6.892 0.544,-0.052 0.928,0.056 1.38,0.098 0.227,-2.628 0.846,-6.595 0.59,-8.764 -0.794,0.016 -0.588,1.164 -0.69,1.774 M 8.763,6.301 C 9.238,6.385 9.562,6.62 9.944,6.794 10.388,4.94 11.179,2.91 11.421,1.182 10.737,2.475 9.442,3.547 9.256,4.53 8.767,4.521 8.465,5.498 8.074,5.908 8.542,6.209 8.816,5.981 8.763,6.301 m 2.658,-5.317 c 0.551,-0.424 0.615,-1.915 0.788,-2.56 -0.214,0.185 -0.274,0.456 -0.296,0.592 -1.94,1.44 -3.822,3.789 -5.711,5.612 0.68,0.204 1.245,1.36 1.97,0.886 C 8.243,5.082 7.976,5.593 7.975,5.316 9.435,4.465 10.382,1.784 11.421,0.984 m 0.92,-6.344 c -0.01,0.012 -0.02,0.028 -0.032,0.043 0.252,0.098 0.195,0.046 0.032,-0.043 0.182,-0.266 -0.369,-0.294 -0.428,-0.547 -0.295,0.242 -0.714,-0.149 -0.787,0.195 0.144,0.087 0.498,0.023 0.689,0.099 0.168,0.068 0.386,0.174 0.526,0.253 m 0.951,-2.024 c -0.135,0.003 -0.216,-0.048 -0.296,-0.099 0.027,0.337 0.25,0.472 0.198,0.886 0.382,0.003 0.917,0.16 0.689,-0.196 -0.005,0.059 -0.016,0.115 -0.099,0.096 0.284,-0.422 -0.816,-0.451 -0.492,-0.687 m 0,11.126 c 0.15,-1.656 0.725,-3.411 0.689,-4.923 -0.163,1.579 -0.769,3.755 -0.689,4.923 m 0.393,-6.795 c -0.187,0.245 -0.401,0.974 -0.196,1.281 0.025,-0.405 0.351,-1.022 0.196,-1.281 m -1.574,-0.393 c 0.191,-0.047 0.557,-0.178 0.787,-0.393 -0.926,0.068 -1.96,0.686 -0.787,0.393 m 0.984,-0.886 v -0.395 c -0.424,-0.028 -0.459,0.331 -0.689,0.493 0.429,-0.037 0.453,-0.014 0.689,-0.098 m -2.165,1.674 c 0.51,-0.376 1.49,-0.279 1.87,-0.788 -0.699,0.069 -2.214,0.329 -1.87,0.788 m 1.87,0.394 c 0.212,-0.153 0.714,-0.945 0.492,-0.887 -0.231,0.305 -0.058,0.04 -0.394,0 0.267,0.507 -0.392,0.338 -0.098,0.887 m -0.591,-3.544 c 0.208,0.087 0.291,0.3 0.591,0.295 -0.017,-0.338 0.332,0.008 0.394,-0.394 -0.3,0.06 -0.849,-0.126 -0.985,0.099 m -1.083,1.672 c 0.797,0.088 1.589,-0.29 1.477,-0.788 -0.573,-0.145 -1.019,0.509 -1.477,0.788 m -1.477,1.083 c 0.702,-0.445 1.667,-0.295 2.264,-0.985 -1.203,0.033 -1.928,0.492 -2.264,0.985 m -2.067,1.379 c 0.975,-0.467 2.86,-0.552 3.151,-1.379 -0.859,0.355 -2.814,0.555 -3.151,1.379 m 2.559,-0.59 c -1.778,1.9 -4.034,3.684 -5.515,5.317 0.551,0.401 0.928,0.976 1.477,1.378 2.048,-2.167 4.45,-4.537 6.303,-6.301 0.002,-0.395 0.353,-0.955 0.197,-1.183 -0.717,0.367 -1.621,0.545 -2.462,0.789 m 1.97,2.361 c 0.286,-0.565 0.691,-1.012 1.083,-1.476 -0.061,-0.225 -0.064,-0.715 0.098,-0.984 -0.094,-0.401 -0.479,0.465 -0.788,0.493 0.015,0.737 -0.519,1.447 -0.393,1.967 m 0.787,3.449 c 0.097,-1.841 0.733,-3.665 0.688,-5.318 -0.543,1.392 -0.707,3.688 -0.688,5.318 m 0,2.46 c -0.076,-0.303 0.267,-1.023 0,-0.886 0.095,0.332 -0.3,0.673 0,0.886 M 14.08,-6.991 c -0.323,-0.662 -0.882,-1.088 -1.378,-1.575 0.095,0.888 0.738,1.231 1.378,1.575 m -2.857,0.493 c 0.509,0.433 0.818,0.47 1.773,0.393 -0.05,-0.607 -1.331,-0.503 -1.773,-0.393 M 8.96,-6.793 c 0.811,0.04 1.285,1.091 2.659,0.688 C 11.103,-6.64 9.81,-6.922 8.96,-6.793 m -3.741,1.28 c -1.355,0.059 -2.544,-0.014 -3.643,0.196 0.026,0.696 0.102,1.34 0.196,1.969 1.298,-0.054 2.773,-0.261 4.331,-0.393 1.518,-0.129 3.279,0.009 4.431,-0.297 0.678,-0.177 1.071,-0.882 1.477,-0.984 0.061,-0.005 0.117,-0.015 0.1,-0.098 C 10.626,-6.258 7.847,-5.629 5.219,-5.513 M 1.87,-3.151 c 0.044,0.809 0.158,1.55 0.591,1.97 2.686,-0.793 6.028,-0.931 7.779,-2.658 -2.856,0.163 -5.579,0.459 -8.37,0.688 m 0.493,2.264 c 0.441,0.123 1.633,-0.318 1.772,-0.492 -0.606,0.15 -1.252,0.259 -1.772,0.492 m 0.197,0.493 c 1.708,-0.232 4.398,-0.85 5.316,-1.87 -1.686,0.71 -3.795,0.995 -5.316,1.87 m 0.197,0.296 C 2.806,0.313 3.1,0.477 3.151,0.886 4.515,0.27 4.974,-0.292 6.005,-0.984 4.902,-0.709 3.946,-0.287 2.757,-0.098 m 0.591,1.28 C 3.73,1.685 4.046,2.256 4.431,2.757 6.076,1.478 8.245,-0.533 9.747,-2.166 7.055,-1.544 4.826,-0.082 3.348,1.182 m 7.385,8.467 c -0.072,0 -0.142,-0.004 -0.216,-0.01 C 9.928,9.221 8.936,9.107 8.172,8.762 7.36,8.4 6.711,7.515 6.005,7.777 c 1.253,0.716 3.129,1.747 4.512,1.862 0.007,0.003 0.012,0.006 0.017,0.01 z m 1.378,-2.264 c 0.286,-2.68 0.845,-6.097 0.885,-8.369 -1.646,1.929 -2.019,5.134 -2.855,7.877 0.635,0.186 1.264,0.377 1.97,0.492 m 14.08,0.886 C 26.145,8.243 26.096,8.211 26.048,8.176 25.992,7.971 25.802,7.787 25.591,7.766 25.356,7.518 25.181,7.271 25.206,7.188 24.899,7.142 24.854,7.435 25.01,7.582 24.451,7.595 23.847,8.106 23.147,8.591 22.89,8.717 22.615,8.86 22.419,9.044 22.178,9.173 21.926,9.281 21.662,9.354 v 0.06 c -0.032,0.022 -0.063,0.045 -0.094,0.076 -0.003,0.004 -0.007,0.008 -0.01,0.012 -0.189,0.035 -0.377,0.113 -0.557,0.194 -0.081,0.036 -0.174,0.074 -0.27,0.116 -0.051,0.012 -0.1,0.025 -0.152,0.035 10e-4,0.005 10e-4,0.007 0.003,0.012 -0.388,0.101 -0.76,0.278 -1.13,0.433 -0.018,0.008 -0.038,0.015 -0.056,0.024 -0.214,0.043 -0.425,0.088 -0.585,0.189 -0.324,0.086 -0.653,0.154 -0.977,0.245 0.017,-0.016 0.032,-0.031 0.049,-0.045 0.048,-0.02 0.094,-0.043 0.136,-0.072 -0.048,0.016 -0.094,0.039 -0.136,0.072 -0.499,0.221 -1.335,0.102 -1.734,0.42 0.018,0.01 0.035,0.021 0.053,0.029 -0.234,0.015 -0.466,0.033 -0.701,0.05 -0.232,-0.082 -0.466,-0.012 -0.708,0.071 -0.713,-0.094 -1.433,-0.239 -2.145,-0.141 h -0.002 c -0.111,-0.07 -0.223,-0.138 -0.337,-0.204 -0.15,0.411 -0.207,0.91 -0.298,1.379 0.736,-0.303 9.651,-0.297 9.651,-0.297 0.203,0.004 0.743,-0.145 0.964,-0.369 0.531,-0.495 2.841,-2.691 3.283,-3.032 0.023,-0.019 0.043,-0.038 0.061,-0.058 0.093,-0.022 0.17,-0.1 0.221,-0.282 m 0.393,-8.763 c -2.538,-0.744 -5.026,-1.537 -7.68,-2.166 1.11,1.689 4.811,2.819 6.893,3.938 0.277,-0.576 0.597,-1.109 0.787,-1.772 m 1.182,17.034 c -0.017,-0.147 0.035,-0.363 -0.098,-0.393 -0.105,0.518 0.292,0.528 0.394,0.393 0.356,-0.435 0.404,-0.542 -0.296,0 m 22.548,1.673 c -0.536,-0.03 -0.042,-0.999 -0.493,-0.788 0.283,0.594 -0.045,2.432 0.099,2.562 -0.029,-0.195 0.132,-0.196 0.196,-0.297 -0.086,-0.399 -0.146,-0.787 0.099,-1.082 -0.487,-0.055 0.103,-0.051 0.099,-0.198 -0.155,-0.009 -0.343,0.013 -0.296,-0.197 0.017,0.126 0.601,0.126 0.296,0 M 47.655,7.188 c -0.676,0.147 -0.397,0.314 -1.182,0.492 1.175,3.083 2.976,5.207 4.136,7.779 0.333,-0.028 0.565,-0.157 0.984,-0.099 0.28,-0.836 0.619,-1.612 0.887,-2.461 -1.684,-2.106 -2.792,-3.56 -4.825,-5.711 m -3.938,-7.286 c -0.621,0.068 -1.238,0.665 -1.281,0.984 0.904,1.704 2.579,4.557 3.546,6.302 0.542,-0.113 1,-0.314 1.279,-0.689 C 45.977,5.11 44.567,2.356 43.717,-0.098 m -5.316,-5.219 c 0.502,0.545 1.072,1.444 2.068,2.068 0.279,-0.016 0.409,-0.181 0.688,-0.197 0.295,0.255 0.011,0.631 0.197,0.886 0.319,0.143 1.261,0.179 1.575,0 -0.598,-2.155 -2.353,-3.761 -3.741,-4.037 h -0.295 c 0.062,0.591 -0.652,0.922 -0.492,1.28 m 0.885,22.646 c -0.431,0.283 0.906,0.258 0.492,0.198 -0.307,-0.215 -0.904,-0.288 -0.492,-0.691 -0.207,0 -0.511,0.396 -0.295,0.493 0,-0.055 0.08,-0.113 0.097,0 -0.525,0.304 -0.518,-0.44 -0.687,-0.59 -0.003,0.294 -0.258,0.334 -0.298,0.59 0.352,0.154 0.061,-0.335 0.298,-0.295 -0.008,0.172 0.021,0.307 0.097,0.393 -0.14,-0.111 -0.24,-0.105 -0.295,0.1 0.338,-0.043 0.552,0.038 0.788,0.099 -0.018,-0.216 0.08,-0.314 0.295,-0.297 M 36.824,-2.56 c 0.073,0.387 0.205,0.713 0.295,1.083 0.476,-0.05 0.869,-0.181 1.282,-0.295 -0.216,-0.572 -1.051,-0.525 -1.577,-0.788 m 0.394,-1.87 c -0.222,0.105 -0.431,0.223 -0.591,0.392 0.621,-0.123 1.195,0.313 1.476,0.199 -0.357,-0.134 -0.485,-0.498 -0.885,-0.591 m -1.082,-4.432 c 0.278,-0.103 0.675,0.162 0.688,0 -0.272,-0.219 -0.366,-0.617 -0.688,-0.786 -0.146,0.413 -0.192,0.413 0,0.786 m -0.232,33.841 c -0.407,0.066 -0.804,0.122 -1.18,0.253 -0.128,0.006 -0.274,0.026 -0.459,0.072 0.002,0.052 0.005,0.094 0.005,0.134 -0.04,0.022 -0.078,0.045 -0.118,0.071 -0.017,0.011 -0.033,0.025 -0.051,0.039 -0.01,-0.014 -0.021,-0.029 -0.033,-0.047 0.008,0.019 0.015,0.037 0.023,0.054 -0.436,0.313 -0.71,0.77 -0.882,1.273 -0.044,0.13 -0.021,0.252 0.04,0.356 -0.023,-0.003 -0.046,-0.006 -0.067,-0.009 0.607,1.731 3.119,0.14 4.823,0.098 0.002,0 0.003,-0.003 0.006,-0.003 0.166,-0.008 0.334,-0.06 0.49,-0.127 0.21,-0.091 0.413,-0.197 0.611,-0.309 0.366,-0.141 0.715,-0.328 1.042,-0.55 0.007,0.001 0.011,0.005 0.018,0.005 0.004,-0.005 0.006,-0.011 0.008,-0.022 0.043,-0.029 0.084,-0.058 0.125,-0.087 0.077,-0.038 0.153,-0.075 0.225,-0.118 0.295,-0.168 0.523,-0.429 0.741,-0.687 0.026,0.009 0.053,0.018 0.083,0.029 -0.008,-0.045 -0.01,-0.086 -0.005,-0.122 0.017,-0.02 0.033,-0.04 0.05,-0.06 0.551,-0.656 1.358,-0.919 2.082,-1.33 0.01,0.013 0.023,0.025 0.04,0.033 0.517,-0.371 1.473,-0.127 1.869,0.199 0.025,-0.017 0.049,-0.033 0.073,-0.049 0.272,0.185 0.677,0.087 1.035,-0.036 0.006,0 0.012,-0.002 0.018,-0.003 0.034,0.019 0.069,0.034 0.107,0.045 0.022,0.005 0.044,0.01 0.066,0.01 0.045,0.204 0.087,0.394 0.179,0.23 -0.016,-0.061 -0.045,-0.142 -0.074,-0.227 0.025,-0.003 0.05,-0.006 0.074,-0.01 -0.002,0.012 -0.002,0.026 0,0.04 h 0.787 c -0.167,0.384 0.371,0.587 0.506,0.555 0.024,0.012 0.048,0.023 0.073,0.032 0.145,0.058 0.626,0.075 0.709,0.195 0.104,0.15 0.289,0.26 0.471,0.247 0.005,0.016 0.01,0.034 0.014,0.053 0.041,-0.023 0.065,-0.047 0.076,-0.069 0.038,-0.013 0.077,-0.03 0.113,-0.055 0.201,-0.141 0.294,-0.274 0.338,-0.433 0.027,0.021 0.05,0.042 0.063,0.065 0.061,-0.454 0.131,-1.222 -0.197,-1.28 h -0.003 c -0.017,-0.027 -0.036,-0.052 -0.057,-0.076 0.055,-0.026 0.11,-0.066 0.159,-0.121 -0.108,0.018 -0.197,0.021 -0.275,0.01 -0.012,-0.008 -0.024,-0.019 -0.036,-0.027 -0.072,-0.048 -0.172,-0.078 -0.276,-0.109 -0.164,-0.147 -0.257,-0.366 -0.443,-0.491 0.005,-0.02 0.009,-0.041 0.014,-0.061 0.089,-0.201 0.302,-0.401 0.414,-0.509 0.026,-0.023 0.045,-0.052 0.064,-0.081 0.016,-0.003 0.03,-0.01 0.046,-0.013 0.009,-0.05 0.015,-0.103 0.023,-0.157 0.006,-0.022 0.009,-0.045 0.011,-0.068 0.21,-1.51 -0.101,-3.537 0.162,-4.992 -0.689,-1.374 -1.626,-2.59 -2.264,-3.741 -2.254,-4.067 -4.489,-8.364 -6.4,-11.423 -0.212,0.511 -0.414,1.185 -1.28,1.281 0.161,0.603 0.637,1.273 0.984,1.378 0.188,0.935 2.687,3.496 1.281,5.711 0.543,0.829 1.2,1.853 1.672,2.855 0.568,1.199 1.451,2.555 1.97,3.544 0.524,0.998 1.078,3.382 0.592,4.726 -0.005,0.012 -0.01,0.022 -0.013,0.032 -0.396,0.822 -1.4,1.168 -2.216,1.437 -1.18,0.389 -2.346,0.815 -3.523,1.215 -0.257,0.088 -0.514,0.178 -0.771,0.27 -0.162,0.008 -0.279,0.056 -0.367,0.13 -0.186,0.067 -0.373,0.13 -0.563,0.192 -0.009,-0.009 -0.019,-0.017 -0.031,-0.025 -10e-4,0.014 -0.004,0.025 -0.008,0.038 -0.112,0.037 -0.225,0.072 -0.337,0.107 -0.138,-0.04 -0.279,-0.081 -0.345,0.049 0.081,-0.003 0.128,0 0.154,0.007 -0.1,0.029 -0.2,0.055 -0.299,0.081 0.017,-0.027 0.034,-0.054 0.048,-0.088 -0.225,0.091 -0.383,0.152 -0.523,0.199 -0.492,0.105 -0.987,0.186 -1.481,0.265 M 32.295,1.97 c -0.687,2.629 -1.844,5.309 -2.363,7.777 0.007,-0.006 0.02,-0.01 0.034,-0.015 -0.063,0.187 -0.116,0.375 -0.162,0.566 -0.065,-0.047 -0.122,-0.062 -0.168,0.041 0.076,0.014 0.103,0.078 0.125,0.143 -0.014,0.066 -0.029,0.129 -0.041,0.194 -0.089,0.148 -0.166,0.305 -0.236,0.466 -0.01,-0.007 -0.025,-0.012 -0.044,-0.017 0.014,0.131 -0.325,0.363 -0.103,0.395 -0.125,0.343 -0.231,0.694 -0.363,1.015 -0.029,0.049 -0.049,0.101 -0.068,0.157 -0.017,-0.03 -0.037,-0.06 -0.057,-0.089 -0.364,0.948 -0.626,2.001 -0.985,2.953 1.422,-0.212 1.498,-0.689 1.955,-1.19 0.087,-0.033 0.169,-0.088 0.236,-0.176 0.382,-0.526 0.853,-0.956 1.257,-1.431 0.011,0.03 0.042,0.046 0.097,0.041 0.302,-0.384 0.666,-0.706 1.001,-1.055 0.479,-0.298 0.91,-0.713 1.312,-1.097 0.26,-0.25 0.652,-0.598 0.834,-0.979 0.003,0.057 0.004,0.116 0.003,0.178 C 34.798,9.053 35.477,8.391 35.642,7.68 35.247,7.636 35.012,7.234 35.348,6.991 34.618,6.998 34.372,6.522 34.462,5.712 33.368,4.836 33.194,3.039 32.295,1.97 m -5.711,3.84 c 0.325,0.659 0.985,0.985 1.28,1.673 C 27.739,7.85 27.619,8.222 27.273,8.37 27.624,9.052 28.242,7.959 28.75,8.566 29.617,5.658 30.519,2.786 31.508,0 31.126,-0.605 31.236,-1.696 30.523,-1.968 29.82,1.402 28.37,3.473 26.584,5.81 m 0.789,-12.308 c -1.822,0.344 -3.802,0.53 -5.514,0.985 1.969,0.032 3.629,0.373 5.612,0.393 -0.043,-0.45 0.1,-1.085 -0.098,-1.378 m -0.592,-2.758 c -1.662,0.69 -3.904,1.682 -5.514,2.463 1.935,-0.365 3.972,-0.625 5.908,-0.985 -0.053,-0.572 -0.182,-1.065 -0.394,-1.478 m -0.59,-0.492 c -0.204,-0.059 -0.336,-0.188 -0.394,-0.393 -3.489,0.131 -6.161,1.23 -8.172,2.559 3.219,-0.805 5.582,-1.288 8.566,-2.166 m -0.197,-1.576 c -0.664,0.124 -1.191,0.386 -1.674,0.691 0.569,0.076 0.842,-0.143 1.379,-0.1 0.193,-0.304 0.127,-0.259 0.295,-0.591 m -1.28,-1.868 c -0.456,0.199 -1.12,0.616 -1.774,1.081 -0.642,0.461 -1.89,1.223 -1.475,1.478 -0.196,-0.002 -0.126,-0.268 -0.394,-0.198 0.054,0.383 -0.489,0.24 -0.789,0.69 1.839,-0.172 4.199,-0.388 5.417,-1.477 0,0.054 0.079,0.111 0.098,0 -0.3,-0.556 -1.029,-1.391 -1.083,-1.574 m -1.675,-1.675 c -1.125,1.564 -2.306,3.074 -3.445,4.627 1.272,-0.145 3.185,-2.052 4.037,-2.658 0.136,-0.096 0.875,-0.255 0.886,-0.591 0.012,-0.352 -1.329,-1.246 -1.478,-1.378 m -1.772,-1.379 c -1.12,2.556 -2.658,5.218 -3.544,7.68 0.505,-0.441 0.41,-0.365 0.985,-0.69 -0.074,-0.564 0.102,-1.069 0.196,-1.182 0.056,0.121 0.372,-0.062 0.591,0.1 0.059,-0.494 0.062,-0.185 0.296,-0.395 0.184,-0.164 0.788,-0.939 0.985,-1.279 0.256,-0.447 -0.035,-0.116 0.295,-0.395 0.17,-0.143 0.135,-0.612 0.196,-0.689 0.016,-0.018 0.196,0.08 0.296,0 0.337,-0.272 1.4,-1.841 1.377,-1.97 -0.073,-0.422 -1.54,-0.887 -1.673,-1.18 m -2.068,-0.984 c -1.042,2.238 -2.081,4.481 -3.248,6.597 -0.006,0.306 0.147,0.702 -0.099,0.492 0.104,-0.005 0.078,-0.127 -0.098,-0.099 -0.496,0.748 -0.383,2.699 -0.099,3.15 0.813,-0.553 0.889,-0.801 1.674,-1.181 1.131,-2.84 2.659,-5.284 3.742,-8.172 -0.711,-0.176 -1.107,-0.666 -1.872,-0.787 m -2.067,-0.69 c -0.491,2.715 -1.998,5.275 -1.673,8.172 0.887,-1.764 1.413,-3.237 2.166,-4.823 0.356,-0.754 1.204,-1.73 1.378,-2.856 -0.47,0.016 -1.236,-0.363 -1.871,-0.493 m -2.264,-0.197 c 0.158,2.14 0.113,4.481 0.492,6.4 0.355,-2.204 1.139,-3.982 1.476,-6.203 -0.525,-0.195 -1.227,-0.216 -1.968,-0.197 m -2.265,0.197 c 0.731,2.748 1.314,5.644 2.167,8.272 0.672,-2.544 -0.117,-5.654 -0.099,-8.469 -0.671,0.083 -1.704,-0.193 -2.068,0.197 m -2.167,0.394 c 0.35,1.391 0.46,3.019 1.281,3.939 -0.306,1.519 0.675,3.104 0.886,4.725 0.583,0.435 0.992,1.044 1.575,1.478 0.908,-3.683 -1.334,-7.046 -1.772,-10.634 -0.672,0.147 -1.397,0.243 -1.97,0.492 m -0.787,3.939 c 0.534,-0.209 1.198,-0.79 1.477,-0.199 -0.253,-1.372 -0.667,-2.468 -0.886,-3.641 -0.749,0.272 -1.542,0.436 -1.773,0.886 -0.195,0.383 0.978,1.899 1.182,2.954 m -3.151,-1.871 c 0.699,1.041 1.824,2.18 2.658,2.757 -0.288,-0.387 0.234,-0.641 0.394,-0.886 -0.537,-0.939 -0.88,-2.074 -1.476,-2.954 -0.486,0.4 -1.105,0.667 -1.576,1.083 m -1.674,1.672 c 2.076,1.422 4.751,3.752 6.991,5.024 -0.626,-1.184 -1.268,-2.862 -2.659,-2.955 -0.19,-0.23 -0.177,-0.598 -0.393,-0.984 -0.369,-0.664 -1.749,-1.675 -2.561,-2.56 -0.399,0.551 -1.11,0.792 -1.378,1.475 m -1.379,1.774 c 2.227,1.46 4.5,3.345 6.893,4.726 -0.149,0.48 2.193,0.777 2.265,0.395 -0.191,-1.437 -1.821,-2.21 -3.249,-3.25 -0.994,-0.723 -1.772,-1.612 -2.629,-1.862 -0.105,-0.151 -1.762,-1.737 -2.099,-1.683 -0.481,0.077 -0.866,1.534 -1.181,1.674 m -0.984,2.067 c 2.651,0.896 4.641,2.973 7.877,2.954 C 8.785,-7.878 6.6,-9.817 5.022,-10.535 4.863,-10.97 3.923,-11.471 3.348,-11.816 2.981,-11.26 2.701,-10.624 2.461,-9.945 M 1.87,-7.876 c 1.834,0.265 4.128,0.598 5.908,0.59 C 5.857,-7.991 4.304,-9.065 2.363,-9.748 2.165,-9.157 1.94,-8.595 1.87,-7.876 M 1.576,-5.613 C 4.494,-5.714 7.514,-5.712 10.141,-6.105 8.122,-7.367 4.737,-7.263 1.772,-7.582 1.84,-7.117 1.546,-6.349 1.576,-5.613 M 0.196,0.592 C 0.767,2.618 2.168,4.025 3.052,5.021 3.286,5.286 3.756,6.395 4.331,6.105 2.532,4.683 1.574,2.784 0.196,0.592"
             style="fill:#007f33;fill-opacity:1;fill-rule:nonzero;stroke:none"
             id="path7225"
             inkscape:connector-curvature="0" />
        </g>
        <g
           id="g7227"
           transform="translate(295.7226,463.4105)">
          <path
             d="M 0,0 C 0.108,0.153 0.29,0.352 0.506,0.569 0.334,0.373 0.159,0.175 -0.013,-0.015 -0.008,-0.01 -0.003,-0.004 0,0"
             style="fill:#007f33;fill-opacity:1;fill-rule:nonzero;stroke:none"
             id="path7229"
             inkscape:connector-curvature="0" />
        </g>
        <g
           id="g7231"
           transform="translate(275.1396,473.3903)">
          <path
             d="M 0,0 C -0.093,-0.128 -0.283,-0.135 -0.426,-0.132"
             style="fill:#007f33;fill-opacity:1;fill-rule:nonzero;stroke:none"
             id="path7233"
             inkscape:connector-curvature="0" />
        </g>
        <g
           id="g7235"
           transform="translate(186.1428,478.0949)">
          <path
             d="m 0,0 c 0.089,-1.105 0.174,-2.213 0.261,-3.32 0.282,-2.428 0.568,-4.855 0.85,-7.285 0.369,-2.295 -0.146,-4.722 -0.46,-6.64 -0.67,-4.136 -0.622,-8.111 -0.52,-12.429 0.493,-0.155 0.789,-0.108 1.105,-0.523 0.126,-0.777 -0.322,-1.566 0.068,-2.278 0.636,-0.897 2.441,-0.031 3.579,-0.322 0.61,-0.159 0.824,-0.809 1.104,-1.306 -1.514,-1.959 -5.663,-1.525 -8.066,-0.779 h -0.458 v -0.779 c -0.024,-0.067 -0.04,-0.135 -0.062,-0.194 -1.296,-0.015 -3.024,-0.149 -3.97,0.324 -0.611,0.674 0.192,3.387 0.457,3.969 -0.056,0.641 -0.364,0.545 -0.589,0.975 -0.271,0.913 1.433,2.747 1.172,4.102 -0.649,2.364 -1.302,4.725 -1.952,7.093 -0.087,0.478 0.178,0.993 0.256,1.3 0.524,1.965 1.14,4.454 0.458,6.119 -0.282,0.691 0.108,1.509 -0.064,2.277 -0.131,0.559 -0.788,2.02 -1.303,2.212 -1.131,-8.213 -5.771,-11.808 -9.047,-17.7 -1.269,-2.288 -3.429,-3.215 -3.71,-6.573 0.52,-1.119 1.5,-1.744 2.867,-1.823 0.064,-0.109 0.125,-0.219 0.197,-0.327 0.021,-0.301 0.039,-0.604 0.062,-0.909 -2.816,-0.65 -6.269,0.463 -7.42,2.019 -0.414,0.91 -0.823,1.823 -1.235,2.733 -0.351,-0.023 -0.692,-0.044 -1.043,-0.065 -0.725,0.525 -1.023,1.164 -1.562,1.886 0.402,2.205 2.428,3.765 3.514,5.4 0.805,1.203 1.627,2.327 2.341,3.517 1.185,1.966 1.777,3.91 3.452,5.336 0.628,0.214 1.258,0.432 1.891,0.652 0.169,0.751 -0.225,1.598 0,2.537 0.278,0.908 0.565,1.822 0.845,2.732 -0.046,1.261 -0.091,2.517 -0.134,3.774 0.329,1.369 0.654,2.734 0.982,4.102 -0.147,0.52 -0.61,0.919 -0.721,1.626 -0.167,1.113 0.239,2.396 0.393,3.255 0.16,0.912 -0.14,1.785 -0.325,2.538 -0.244,0.992 -1.032,1.558 -1.366,2.406 -0.898,2.279 -1.156,4.356 -1.824,6.897 -0.22,0.845 -0.818,1.475 -0.65,2.346 -0.048,1.475 -0.09,2.95 -0.133,4.425 0.972,5.796 2.051,9.229 7.224,10.868 0.136,0.338 -0.104,0.395 0,0.782 0.122,0.433 0.676,0.728 0.844,1.238 0.471,0.243 1.121,0.06 1.697,0.194 0.376,1.623 -1.257,2.133 -0.849,3.903 0.067,0.283 0.366,0.404 0.461,0.586 0.324,0.654 0,1.939 0.253,2.669 0.66,1.85 3.038,3.233 5.341,2.147 0.825,-0.389 1.921,-1.686 2.082,-2.733 -0.041,-0.802 -0.088,-1.607 -0.13,-2.407 0.103,-1.305 0.254,-1.811 -0.395,-2.992 -0.342,-0.637 -1.941,-2.474 -1.687,-3.387 0.539,-1.968 2.672,-1.909 3.645,-3.319 0.735,-1.929 1.473,-3.862 2.211,-5.793 C -0.041,24.582 -0.019,24.102 0,23.625 0.592,21.08 2.028,18.34 2.668,15.882 3.318,13.395 3.044,10.773 3.389,7.875 3.499,6.92 3.65,5.509 3.451,4.493 2.5,3.859 1.28,4.644 0.721,5.012 0.318,5.128 -0.757,5.064 -1.431,5.078 -1.35,2.831 -0.425,1.898 0,0"
             style="fill:#007f33;fill-opacity:1;fill-rule:nonzero;stroke:none"
             id="path7237"
             inkscape:connector-curvature="0" />
        </g>
      </g>
    </g>
    <g
       id="g8849"
       transform="translate(-2.4005454,0.27825712)">
      <g
         transform="matrix(0.31496602,0,0,-0.35277777,-44.048393,152.67286)"
         id="g7297">
        <path
           inkscape:connector-curvature="0"
           id="path7299"
           style="fill:none;stroke:#ffffff;stroke-width:5;stroke-linecap:butt;stroke-linejoin:miter;stroke-miterlimit:4;stroke-dasharray:none;stroke-opacity:1"
           d="M 0,0 H 70.179" />
      </g>
      <text
         id="text7519"
         style="font-variant:normal;font-weight:bold;font-stretch:normal;font-size:11.28888798px;font-family:'Clarendon BT';-inkscape-font-specification:ClarendonBT-Bold;writing-mode:lr-tb;fill:#ffffff;fill-opacity:1;fill-rule:nonzero;stroke:none;stroke-width:0.35277775"
         x="-44.544353"
         y="147.02151">
        <tspan
           y="147.02151"
           x="-44.544353"
           id="tspan7517"
           sodipodi:role="line"
           style="font-style:normal;font-variant:normal;font-weight:bold;font-stretch:normal;font-size:14.11111069px;font-family:'Gravur Condensed CE';-inkscape-font-specification:'Gravur Condensed CE Bold';stroke-width:0.35277775">49<tspan
   id="tspan8795"
   style="font-style:normal;font-variant:normal;font-weight:normal;font-stretch:normal;font-family:'Gravur Condensed CE';-inkscape-font-specification:'Gravur Condensed CE'">%</tspan>
</tspan>
      </text>
      <text
         id="text8785"
         y="141.12213"
         x="-17.238474"
         style="font-style:normal;font-variant:normal;font-weight:normal;font-stretch:normal;font-size:5.64444447px;line-height:5.61000013px;font-family:'Gravur Condensed CE';-inkscape-font-specification:'Gravur Condensed CE';letter-spacing:0px;word-spacing:0px;fill:#000000;fill-opacity:1;stroke:none;stroke-width:0.26458332px;stroke-linecap:butt;stroke-linejoin:miter;stroke-opacity:1"
         xml:space="preserve"><tspan
           style="font-style:normal;font-variant:normal;font-weight:bold;font-stretch:normal;font-size:5.64444447px;line-height:5.61000013px;font-family:'Gravur Condensed CE';-inkscape-font-specification:'Gravur Condensed CE Bold';fill:#ffffff;stroke-width:0.26458332px"
           y="141.12213"
           x="-17.238474"
           id="tspan8783"
           sodipodi:role="line">of all traffic deaths are</tspan><tspan
           id="tspan8787"
           style="font-style:normal;font-variant:normal;font-weight:bold;font-stretch:normal;font-size:5.64444447px;line-height:5.61000013px;font-family:'Gravur Condensed CE';-inkscape-font-specification:'Gravur Condensed CE Bold';fill:#ffffff;stroke-width:0.26458332px"
           y="146.73213"
           x="-17.238474"
           sodipodi:role="line">among motorcycles,</tspan><tspan
           id="tspan8789"
           style="font-style:normal;font-variant:normal;font-weight:bold;font-stretch:normal;font-size:5.64444447px;line-height:5.61000013px;font-family:'Gravur Condensed CE';-inkscape-font-specification:'Gravur Condensed CE Bold';fill:#ffffff;stroke-width:0.26458332px"
           y="152.34213"
           x="-17.238474"
           sodipodi:role="line">pedestrians, and cyclists.</tspan></text>
    </g>
    <path
       inkscape:connector-curvature="0"
       id="path9638"
       style="fill:#007f33;fill-opacity:1;fill-rule:nonzero;stroke:none;stroke-width:0.21726875"
       d="m 40.958381,77.672882 h -92.500095 v 10 h 92.500095 z" />
    <text
       xml:space="preserve"
       style="font-style:normal;font-variant:normal;font-weight:bold;font-stretch:normal;font-size:6.3499999px;line-height:6.61458302px;font-family:'Gravur Condensed CE';-inkscape-font-specification:'Gravur Condensed CE Bold';letter-spacing:0px;word-spacing:0px;fill:#ffffff;fill-opacity:1;stroke:none;stroke-width:0.26458332px;stroke-linecap:butt;stroke-linejoin:miter;stroke-opacity:1"
       x="-33.167484"
       y="84.869644"
       id="text9642"><tspan
         sodipodi:role="line"
         id="tspan9640"
         x="-33.167484"
         y="84.869644"
         style="font-style:normal;font-variant:normal;font-weight:bold;font-stretch:normal;font-size:6.3499999px;font-family:'Gravur Condensed CE';-inkscape-font-specification:'Gravur Condensed CE Bold';fill:#ffffff;stroke-width:0.26458332px">Vulnerable Road Users</tspan></text>
    <text
       xml:space="preserve"
       style="font-style:normal;font-variant:normal;font-weight:normal;font-stretch:normal;font-size:4.23333311px;line-height:6.61458349px;font-family:'Gravur Condensed CE';-inkscape-font-specification:'Gravur Condensed CE';letter-spacing:0px;word-spacing:0px;fill:#ac9d93;fill-opacity:1;stroke:none;stroke-width:0.26458332px;stroke-linecap:butt;stroke-linejoin:miter;stroke-opacity:1"
       x="-51.668495"
       y="160.49133"
       id="text6384-2"><tspan
         sodipodi:role="line"
         id="tspan6382-9"
         x="-51.668495"
         y="160.49133"
         style="font-size:1.411111px;fill:#ac9d93;stroke-width:0.26458332px">Figure modified slightly from original (WHO Fact Sheet#1--Road Safety: Basic Facts) by HS</tspan></text>
  </g>
</svg>
